<mxfile host="app.diagrams.net" modified="2024-04-12T14:45:18.215Z" agent="Mozilla/5.0 (Windows NT 10.0; Win64; x64) AppleWebKit/537.36 (KHTML, like Gecko) Chrome/123.0.0.0 Safari/537.36" etag="jvOK1A2i_YK-f6k3xJF6" version="24.2.3" type="onedrive">
  <diagram name="Página-1" id="APbL37JFXDa4wdW5FV0d">
    <mxGraphModel grid="1" page="1" gridSize="10" guides="1" tooltips="1" connect="1" arrows="1" fold="1" pageScale="1" pageWidth="827" pageHeight="1169" math="0" shadow="0">
      <root>
        <mxCell id="0" />
        <mxCell id="1" parent="0" />
        <mxCell id="eqxQ3n0CcYi4T9n9lh90-3" value="" style="edgeStyle=orthogonalEdgeStyle;rounded=0;orthogonalLoop=1;jettySize=auto;html=1;" edge="1" parent="1" source="eqxQ3n0CcYi4T9n9lh90-1" target="eqxQ3n0CcYi4T9n9lh90-2">
          <mxGeometry relative="1" as="geometry" />
        </mxCell>
        <mxCell id="eqxQ3n0CcYi4T9n9lh90-1" value="Clique em carregamento" style="rounded=0;whiteSpace=wrap;html=1;" vertex="1" parent="1">
          <mxGeometry x="40" y="20" width="120" height="60" as="geometry" />
        </mxCell>
        <mxCell id="eqxQ3n0CcYi4T9n9lh90-5" value="" style="edgeStyle=orthogonalEdgeStyle;rounded=0;orthogonalLoop=1;jettySize=auto;html=1;" edge="1" parent="1" source="eqxQ3n0CcYi4T9n9lh90-2" target="eqxQ3n0CcYi4T9n9lh90-4">
          <mxGeometry relative="1" as="geometry" />
        </mxCell>
        <mxCell id="eqxQ3n0CcYi4T9n9lh90-2" value="function mostrar_detalhes_carregamento" style="rounded=0;whiteSpace=wrap;html=1;" vertex="1" parent="1">
          <mxGeometry x="40" y="141" width="120" height="60" as="geometry" />
        </mxCell>
        <mxCell id="eqxQ3n0CcYi4T9n9lh90-8" value="" style="edgeStyle=orthogonalEdgeStyle;rounded=0;orthogonalLoop=1;jettySize=auto;html=1;" edge="1" parent="1" source="eqxQ3n0CcYi4T9n9lh90-4" target="eqxQ3n0CcYi4T9n9lh90-7">
          <mxGeometry relative="1" as="geometry" />
        </mxCell>
        <mxCell id="eqxQ3n0CcYi4T9n9lh90-4" value="&lt;div&gt;mostra&lt;/div&gt;detalhes_carregamento_dialog" style="rounded=0;whiteSpace=wrap;html=1;" vertex="1" parent="1">
          <mxGeometry x="40" y="262" width="120" height="60" as="geometry" />
        </mxCell>
        <mxCell id="eqxQ3n0CcYi4T9n9lh90-27" style="edgeStyle=orthogonalEdgeStyle;rounded=0;orthogonalLoop=1;jettySize=auto;html=1;entryX=0.5;entryY=0;entryDx=0;entryDy=0;" edge="1" parent="1" source="eqxQ3n0CcYi4T9n9lh90-7" target="eqxQ3n0CcYi4T9n9lh90-9">
          <mxGeometry relative="1" as="geometry" />
        </mxCell>
        <mxCell id="eqxQ3n0CcYi4T9n9lh90-7" value="clica numa ação (ex.: realocar carreta, iniciar carga)" style="whiteSpace=wrap;html=1;rounded=0;" vertex="1" parent="1">
          <mxGeometry x="40" y="383" width="120" height="60" as="geometry" />
        </mxCell>
        <mxCell id="eqxQ3n0CcYi4T9n9lh90-28" style="edgeStyle=orthogonalEdgeStyle;rounded=0;orthogonalLoop=1;jettySize=auto;html=1;entryX=0.5;entryY=0;entryDx=0;entryDy=0;" edge="1" parent="1" source="eqxQ3n0CcYi4T9n9lh90-9" target="eqxQ3n0CcYi4T9n9lh90-16">
          <mxGeometry relative="1" as="geometry" />
        </mxCell>
        <mxCell id="eqxQ3n0CcYi4T9n9lh90-9" value="function&lt;div&gt;fn_abrir_dialog_registro_acao(acao)&lt;/div&gt;" style="whiteSpace=wrap;html=1;rounded=0;" vertex="1" parent="1">
          <mxGeometry x="40" y="490" width="120" height="60" as="geometry" />
        </mxCell>
        <mxCell id="eqxQ3n0CcYi4T9n9lh90-12" value="" style="shape=image;verticalLabelPosition=bottom;labelBackgroundColor=default;verticalAlign=top;aspect=fixed;imageAspect=0;image=data:image/png,iVBORw0KGgoAAAANSUhEUgAABCgAAAJ9CAYAAAD3+0OCAAAAAXNSR0IArs4c6QAAAARnQU1BAACxjwv8YQUAAAAJcEhZcwAADsMAAA7DAcdvqGQAAPGASURBVHhe7N0FfBx1+sfxp6kbbZrUhbaUCqW4w+Eufw53d7nD3e0ODilWHA56cLg7h7tbgQpUSIVK2jRUSElp/vv5ZX9hMpnd7GY32Sb9vl+v6SbT2fGZzPP8ZJqNHj26IsYSSfZ/tcnkuyIiIiIiIiKyfGnWrFn8p/Ql+y7/l5coicD4uiQY/Pfq8l0RERERERERWX5lEvMn+x7j8+I/V6mPBYmIiIiIiIhI05Lt/EGzBx54oGpsujOuy4pkS7aWncttEBEREREREfEyaT4RlK351EW6yw5O72pQEKSnE6inO30yfl7pDpl8NziIiIiIiIiILA+iYtZ0h0zmkw3pzis4fbP7778/rbXIZKXr8t1MltcQlvf1ExERERERkYaRy5oLqajL+mWyTel+t0YfFIkQiKcajPtpw0MyUdMzpCtqHvU5iIiIiIiIiCAqZqzPIV1R82BIJmp6hlSkMy1qrUGRyszSWaBXH9+pyzxFREREREREGqvaaik0VK2JVL5T2zRJa1AkC/j5Pz+kKpXv8H/Lli2LHILfjxpEREREREREViRRsXFwiIqtGfi/RILfT1Uq36ltfpEJikQz9eNrm2lQ+DvB3/2Q6k4SERERERERkcxFxeLhwU8X/D0Vyb6TbF41mngkmjDR+Ch+2mzMa3nU2NdfRERERERE6lddmkksTxKtvx+fzvbVNi+vWg2KqMCbcakG5EwXzLwE+XHh8dkWXE59DSIiIiIiIiLJRMWS2R7qU6Ll+HHptICImg/C41wNikQz9eMHDhxoQ4YMsW7dulleXsov/hARERERERGRFRRJjNmzZ9v48eNt0qRJblyy2hR5ibIYfvz6669vW2yxhfXo0UPJCRERERERERFJCTkEcgnkFMgtIJhvCGJcjYxDcEJqTqy++urx30RERERERERE0kdugRyDF5WkSNoHBc06REREREREREQyFc4xhHMQVQmKqOxF165d4z+JiIiIiIiIiNRdVI4hmItwCYpwcoLfGZo3bx4fIyIiIiIiIiJSd+QYfL4hyP9e1Ummnyg8oYiIiIiIiIhINoVzEHxG1qAQEREREREREWkIPicR+ZpR8L5SEREREREREZFsSZRrqKpBEabkhIiIiIiIiIjUh0Q5hxoJCiUnRERERERERKQ+ReUeqiUolJwQERERERERkYYQzkFUJSjC/6FkhYiIiIiIiIhkU7Lcg0tQKDkhIiIiIiIiIg0hUQ6i2ls8+FnJCRERERERERGpT+QewvmIqgQFn8H/FBERERERERGpL8E8BJ+uiUdUciL8u4iIiIiIiIhIJqJyD35ctSYenpITIiIiIiIiIlIfEuUhqmpQ+M/gzyIiIiIiIiIi2ZIs/1CtDwov+LOIiIiIiIiISLZE5R/4rFaDIqgpJymmTJliJ5xwgu2333723HPP2VdffWVHHHGE/fzzz/EpRERERERERCTbkuUfavRB0ZQTE97LL79sw4YNs0suucTef/99l6zYbLPNrE+fPvEpRERERERERKS+ROUimt1xxx3VxjLSDyeeeGJ8rIiIiIiIiIhIZm677TZr1qxZ1RDkmnh4weREQ/r999/t8ssvt4EDB9qrr74aH5vcvHnz7J577rEDDjjAfW+dddaxk08+2T766CNbtmxZfKqaFi9e7Jp10KRjxIgRbuDnxx57zP1flGeffdYtI9lwyy23xKf+0x9//GHvvvuuWy/Wj+l22203u+OOO9z6NwXsM/ZdeH++8sor7rgmU1pa6mqvbLTRRvbNN9/Ex9ZUUlJihx9+eI19zpDq8sLHne9yLG644QabNm1afKrEOC/5Dudpbdu1YMECGz16dNW5mc4+WZ5xjvv9Hhy23XZbu+qqq2zSpEnxKatL9/phPrvsskvkdMGBc4JzIyjVc8ovg3VLBesXtTzviy++cOvEZ5DuHSIiIiIiNSXKPTTfddddL43/7PgJ+Nxggw3cz/VtxowZ9vDDD1vnzp1dcLfppptay5Yt4/9bHev1ySefuCCEviT22GMPO+aYY1wTjQkTJtg111xjbdq0sbXXXtvy8qrlX9z0Z555pguot9lmGzv++OMttv1WXl7uAsrXX3/dfa+goCD+jUrjx493/VQcfPDB7nusX3hYbbXVbMCAAfFvVAYYd999t5111lnWtWtXt5zNN9/cZYiefPJJ++CDD2y99daz/Pz8+Dcanx9//NH+9re/uW3Zfvvt7eijj3afc+fOdUHXnDlzbMMNN0x4LNmvHIsOHTq4/cL5Fj5mKCsrcwmCjTfe2M4//3zba6+9qoYtttjCJk+ebDfeeKPbl2uttVaNLJxfz9dee80dK9Zz//33t969e9ubb75p999/v/t5lVVWqfFdkFR49NFH3f+xrE022aTGOeIVFxfbueeea0899ZStscYa9n//93/unCoqKnLB5aJFi2z99ddPuE+WZ59++qkL7MPXQevWre3tt9+2Z555xgXSK6+8crX9mO71s3TpUmvevLlLMvB/XCecU+zPfffdt+o7NNNaffXVq+3LVM8pEg009Vp33XVt6NCh8bGJse2//PKL7bjjjta2bdv42D/xf48//rhbv169esXH6t4hIiIiIhLGs7WPF/gMxg4ETRV+GDVqVNUQCzArGkos+Ks44IADKmIP+BWbbbZZxddffx3/n5piwWbFzjvvXHHhhRdWLFy4MD62UiywqXj44YcrYkFLRSwYjY+tFAtwKo4//viKI488suLnn3+Oj/3TtGnT3P8deOCBFbFgIz62UizwcsucOHFifEztJkyYULHddttV3H777W69gsaNG+fmd8MNN9T4v8Zi9uzZbn8de+yxNfbXsmXLKmKBf8WGG25Ycd9997nfw9hutv/000+vuOeeeyr22GOPilgQH//f6ubNm1dx2GGHVdx8883xMdXFgv6K8847z51DM2fOjI+txLpxTFlXjnEY373ooosq9t5774qpU6fGx1bnj2Us8K2IBZpufaO2CZzLnMMff/xxfEylWNBZ8cQTT7hzMxZgxsc2Luz/RNcB+5lzgeM4efLk+NhKdbl+gmo7/l465xTrwjqxbqlg2awD6xLl888/rxgwYID7DNK9Q0RERESkOnINwdxDMCdRVbQYbBYR+078p/pHiTI1IihFpIS8f//+rlSbUsQwxj3//POuxDYWDFn79u3j/1OJUteddtrJleLHgk1XEutRO+K7776zU0891fr16xcf+ydK0Pk/SropWc10H/z666/2008/udJy1ito0KBBtuWWW7oaH4malSzv3nrrLfv+++9dPyU9evSIj61EBoyS4d13391mzpxpv/32W/x//kRNg88++8yGDx/uSocXLlzomufURbt27VyJMtX7OZ88jiHHkmPKseUYh/HdQw45xAoLC2327NnxsdWxnp06dXK1QahuT20BaodEmTVrlquJMXjw4PiYSpTiU8uH5h6xIDM+tungHOBcoDYU128uZPOcyqWmfu8QEREREQnG28FchEtQ8J/BCcK/1ycexKmyTHVuqkYTBL733nsu0AnzAQiJjGA16iACyeuvv96OPPJIa9GihRvnkyBU96YKeiKrrrqqazLw+eefu+AmE926dXPNDXhLSDiQIOig+vbtt99uHTt2jI9tPPz+JAlBwBSlVatWdt5557mBJEDY119/7ZoLcEz69u3rPkl6kGRIF4mriRMnuuWQvPI4hhxLjinHNhH+j2NB8iGM9eF8XHPNNa1nz54u8GXdqbYfhcQE68I0wQsN3bt3t//+97/u3GyKOBc4J2hSE5WUqm/ZPKdyqSnfO0REREREkuUfarxm1Es0PptYBsEfSQNKlil5J/lAgPPDDz/Ep/oTASdtxymhDpcsJrNkyRJXOk7tjHCtiyD6riCIpPZFuCO6sWPHus4AWdeoIdw5Hq8sPe644+yJJ55wJednnHGG66SRACqqdkhj4vcnNVGikg+1oU8JjjvBLG3v2e+UFhP0009IOgjgqFXDviW5FazNwTHkWFJzgmXUBQk0AkVKrenrgGNNbQ0SNFEdXv7lL39xNUeOOuooV5Pn2muvtXfeecfVuGiIayqXSErRLwL9MXCMg9K9ftKVzXMqETqtpM+KqPXfZ5994lPVpHuHiIiIiMifkuUgavQeR6lvQwVSBG0EegQSVLEHpbA8lL/xxhs1Sg/nz5/vOp1LJzkBvhdOOCRC0E0QEA4EKNUkaDj77LMjh3CniSRbdthhB9dxICWeLP+CCy5wgQrB7n333ddoq2j7/UmzhWodmqSIpAEdo5BQ8Akjai9QKyZR8x6MHDmyRnBHJ4m8WWPPPfd0HacGzw1/HKNq29CJZ3he4bcp8F2CUkqzfZMNOnLl/CRp8fPPP7txQSRsTj/9dPfGjp133tl9nzd4sK10zEltoXDNiqaCBA41mKKke/2kq67nVDq4N51yyimR63/ooYfGp6pJ9w4RERERkerIOUTFRS5BEfwPJvRDfaN0k2rZBBU+sFxppZVcCTWBHTUpgiidpef+dIMNApZEgVMYTUtYl3AShCCCUlLe/BE1UDsjCt/jdZP//ve/7csvv3SBK/O59dZb7eqrr26UgQbHgbcL1CWZxfQcW/B2C4+aKyQCEjXvAQE+TSQYRo0a5ZpbMPCGjdNOOy1h7Zio+ZHY8AEiQWdUUxW+x/oQ6PogkuCR85N+AtiOqO0ncUNCg0QFtTt43SXrTO0OzpUXXnihQa6vhkbNmkR9c9T1+klFJudUOkh2kIiIWn9eAZqI7h0iIiIiIn/i+d0Pns9JVKtBEZwg+HN9oHo8tSfoz4BX8PlSbJpvXHXVVa4JQbjkk8CY0kja+CdKUjCeV05edtllVW3PeeUg/QdQ1TvYiWIY1cSnT5/u2q936dIlPjZ7KGEmcOWVl1deeaU9/fTTrkZIY8NrFqmGTueTyYIkXvdI4mDatGnxMZUdANIvBE0nKCX2x51XPfK6TxJWiTo25BjSVwkDnaFed911rs+Jc845x80vjCQKwR/HNNzkYKuttqoKEAk6o2pZ0MyI9aFmBf1U+HXl1bacn8k6ywyirwDWmVfg8mrUZ5991u2HpoZrmteBcm5EvYqzvmRyTjUWTeXeISIiIiKSLO9QrQ8K/3N9JydA9XiqyR900EFVpeJ+GD16tKseHy75pHbFGmus4YKNRCWiBIx0pElJtw+SKFmnlgbV63nzRCIkMKgmTok5SY26oiT5iiuucG3HoxIirBtBHO3kG2N1f9ab48D+jEoMgP5C2JckBoKd+bH/Oe4kLsLH/d5773XNfVLt2JBmQVSBB3090IlqEMeQY8l61KVvC5oZsT6sV3hdWX+2P9hZJgkbEhD8fxT2G/1hkERrjMe9NvSRQH8KnBt17fOjLrJ5TuVaU793iIiIiIggKvfAzzl7zShJBEo+995776pScT/Qxp8q0+GST5pdUHJO8HvXXXfVeIAnGKa6P4HiLrvs4jrt82i/TfVvmgZQAyOMUnaCXErd+S6BQF1Rqj9kyBB77bXX7MUXX6zRmSLryWtPqalBjZDGiKYV1Ha57bbb3KtEgwjAX3rpJdc5JIkm37yG8QT11Eb461//WuO4076ejiUJNpMlkoJYh8MPP9w+/PBDe+qpp6rVrOEY0mElnSZybDkvwjg2JCK+/fbb+JhKTEupPOvDeoXXlfWn+UCwrxQSJqwPnRsyv/B1RE0Stp/S/UTNURorzgHOBc7pTTbZJD62/tXHOZVLK8K9Q0REREQkGCsFcxHNY8H4peGshf+dB/z6QEkmHb1RZZkSZ6ovh1Fbgt7vqSnBmxF8iSztsmlbTi2Ll19+2QUoBIgkPHi9KA/1F110kQtMgkkGalPQ7wDV8mnDvWDBArcjCEQff/xxV22a9aD0cuWVV45/qxJVqQkYmP67775zgWt4YBr6MfDbQlBMdfcbbrjBBetsB98luGBZBEyUklK6m0kyJFeoncA20lyB/ccxIJiiWcRNN93kXoNIdXT6jaBPBpAEuvvuu93xJGHkx3vsB2pb0J/A0qVL3RtdSEoRlL366quuGQY1YYL4DsHarFmzXH8PJA2CzTXotJI3xNBc6Oabb3adKZaXl7smGv/73//csXjwwQddIuXoo492y+f8560JnH8nnnhiVf8TQWw/QTnHloCc/iU49uwT5kszI84LtplaFg8//LD985//dOchfVOQCGtsqIlCs6zwdcC20SyL6/rSSy+11VZbLf6NSnW5foKSHf+6nlO8DYj7B8nOyZMn11gf3kRCIsn3RcO2M27HHXeMbL7C/3Ed7LvvvtXOP907RERERESq+/jjj90nz7LB51n3+2233VbBw7NPTAR/psp0faC0m17t6UOANuNRWD5JDIKPO++809Zcc834/1SiNPqBBx5wG0fJKFXnecXgYYcd5tqeJ3pwJ5DmQZ823AQHoNND+hUgwIl6bSZBeG37ghoFvGWCfjI8AnaqltMpIrVBCKZSXc/GgjcM0NcEQTmBOG+5IGCn6Q7BZDBgZDqCrqjj6bHP6ACQ/UWig+QDwST7n1c8kvSIQlMTOrskuCNYDneKSpDLuULtBs4/3kRCAMpx23XXXV1iw68ryQsCQErlzz333Go1cYLo/JLz+JhjjrEjjzyy6liyT6jNQTKMaajpM3z4cFczhwC2Pvo3aQj0xcE5Hsa20acH20bzg7C6Xj9esuNf13OK5ijMiyRUlAMPPNAuvPDCqsQo207zlUTryP/RgSVJCtbT071DRERERKQ6nn1dMiI2EINV+3nUqFE1EhSozwRFNo0bN87uueceu+SSS6r1dSAiIiIiIiIiyxefoEA4QVG9PnQjRHV9SscpNaekVUREREREREQaH5egoLZE8BPBn5dXJCaoUk7VapprUA1aRERERERERJZPUXkH/1ntNaNeY0hOgI7zaO9NW3H6ABg2bFj8f0RERERERERkeZQoDxGZoGgseIUknd299957rlM73+O+iIiIiIiIiDQekQmKxpywEBEREREREZHlX1QuoqqTTH5RckJEREREREREGkI4D9Ho3+IhIiIiIiIiIo1ftRoUIiIiIiIiIiINJaUaFEpYiIiIiIiIiEg2Jcs1uATFsmXL3C8iIiIiIiIiIg3J5yQia1Co9oSIiIiIiIiI1IdEOQc18RARERERERGRBpG0iUf4P/3vSlCIiIiIiIiISDYlyjnwe8IaFCIiIiIiIiIiDUV9UIiIiIiIiIhIg0mUc6iWoFBiQkREREREREQaQjgHUaMPChERERERERGRhkRuokYTD0YqaSEiIiIiIiIi9SFR3qEqQaGkhIiIiIiIiIg0pGAuQm/xEBEREREREZGcU4JCRERERERERHKu2Y033ujqU1CtYtmyZVVtQRhu73CCm0gar0kndIj/JCIiIiIiIpJb1157rTVr1qxqyMvLc59wNSiCbT5ERERERERERBqKz0m4GhT+l3ANirPOOsuNFxERERERERHJVFQNCrif3U8iIiIiIiIiIjmUMEHha1WIiIiIiIiIiGRDslxDVYJCCQkRERERERERaUjBXESeEhMiIiIiIiIikkvkJtQHhYiIiIiIiIjkXI0EhWpUiIiIiIiIiEh9iso9qAaFiIiIiIiIiORcXqtWrSw8tGzZ0n2KiIiIiIiIiGRLMOcQHlSDQkRERERERERyziUo1O+EiIiIiIiIiOSCz0moBoWIiIiIiIiI5JwSFCIiIiIiIiKSc0pQiIiIiIiIiEjOKUEhIiIiIiIiIjmnBIWIiIiIiIiI5FzCBIXe7CEiIiIiIiIi2ZQs16AaFCIiIiIiIiKSc0pQiIiIiIiIiEjOKUEhIiIiIiIiIjmnBIWIiIiIiIiI5JwSFCIiIiIiIiKSc0pQiIiIiIiIiEjOKUEhIiIiIiIiIjmnBIWIiIiIiIiI5JwSFCIiIiIiIiKSc0pQiIiIiIiIiEjOKUEhIiIiIiIiIjn3Z4Li9zk25n8P2W03XG5X3HC7PfPZzPh/iIiIiIiIiIjUr3iC4hf7cPSt9uQ3S23VrQ+0Q/7vL1Y49ZnK/xIRERERERERqWcuQVE29lN7dWpf23r/g2y7tQZZ/0Gr22Z77u8mEBERERERERGpb3lmS+2XqV+arbKOjejTIj4aneOfIiIiIiIiIiL1K8+szBbOj/3UI986Vo4TEREREREREWlQf3aSKSIiIiIiIiKSI3lmbawDrTlmltiCynFNQkVFhQYNGrI4iIiIiIiI1Kc8sxbWc8AG1mHip/ZV0dL4aNDuo/EJBlPB4EqDBg11H4LXk4iIiIiISH1oNmrUqFjMMc/GPHWPPTGxq6292fq2etcKm/H5/+zR936KT9Y4RAVS4U8RSU2zZs1qfIbHiYiIiIiIpGPkyJGWl5fnYgr/CRdvXDlqVEVngvdlC23Sh2/YG59/adNKOlvvNda1b9581E3YGPikRHhYtmyZ+wwK/y4ilcKJh+BNI2oQERERERFJR9IERWUNij9rGfiAns/TTjvNjV/esb5+YL0Z2LjmzZu7QUTq7o8//nAD1xc3kHDCQkREREREJFXJEhSN/i0eBE3+k8QEgRQb1qpVKyUnRLKA64jrieuK68snMeE/RUREREREMtUkXjNKkMRA8ASCKRHJLn9d+doUuUhOPPvsszZw4MDIYdttt7WrrrrKpk2bFp+6fpSUlNjhhx/u1kVyi2M9evRoKysri4+Rpm7evHn273//20pLS+NjpKnhb8trr71me+65p7u3n3vuubZ48eL4/y5fuPdceOGFdsstt8THiIhIphp1gsIHSHxSqrt06VLVmhCpR1xfXGe5rEXRv39/Vy3sv//9b9Xw4IMP2t57721vvfWWa5pW30kKWT48/fTTNmHChPhvsiJ477337J133nH3IGmaSAL/5z//sb59+7oE5KGHHmqtW7eO/6+IiDR1TaaJh09QtGjRwv0uItnH9eUTFGjo5ATatm1rI0aMsI022qhq2GSTTez444+3K664wqZOnWrvvvtufGoREWlM5s+f72rKbL311rbZZpvZaqutpsInEZEVSJNp4uETFL6DDRHJPq6vcA2K5cmQIUNs1VVXtblz58bHVKJ6MNXCaQZCleGDDz7YXn311apmYd4vv/zimon46f7yl7/YBRdc4MbXhgfqO+64o9ZlUCX4oYceqqq+zCe/B5sp+GkOOOAANw0JmSOOOMI++uijlPZ7JtsBAoTatiWVZfjmMGwL066//vp20UUXueNDtegbbrjB7r33XltnnXXshBNOsJkzZ7rv/f777/b8888n3Ee+WrWvSUMAE2xyM378eFctnHXi+6wj07Jdyfj1ffLJJ93yd9ppJ7du559/fo1aOewL9gnHhePDcjhefC+4n7744gvbZZdd3LTsR9bp8ccfd/+XyXH28500aVJ8TKXw+KhtYjlnn322O1Zz5sxxx4Tt5P/C65/puci1x/eTne+Jmk2Fx1ONnhpSJCDXXXdd9zuS7eNUj1PY9OnTbZ999nHnVxjrw3aQDEU6y2Cfk0hlf7Oe3Jc++OCDGscylesrHX4fffnll3bddde55TNvlh9uPpHKMffXYKJruK7rz77lO2PHjnXHmu+y7kjnXGJ88J6zaNEi9/91vTeAbWcfcI7xXbZ3ypQp8f+tLtW/B2H33XefHXjggTZr1qz4mEpsF8eAfe2PQarbwu+33Xabm47jxPHnPOB88PsWmV7rUXhW4PsUIDA/1uHKK6+sdh74cyncTCbR+LCoexzbmcl9m/OQeTIt82Pfcp0i0/2UynkssqJrHrtBXRr/2fEXF58bb7yx+3l5xw2QGwsPte3bt4+PFZH6sHDhQmvZsqUr0Qq+0aMh8EDGA9XOO+9s+fn58bF/+vnnn+2RRx6x9dZbz9Zee203jgdFHnI+/fRTO+qoo+ywww5z63v99de7T6ZjO3iwPvPMM93D3DHHHOMeErt3724vvPCCa0aw6aabWps2bdxDBA8tw4YNs6FDh7plFBcXu4ehzz//3H33kEMOcfO56aab3H7yy+DB5J///Kc98MAD9te//tVOPPFEV3X59ttvd/t0rbXWcvfem2++2Z544gk3DQ92PGR/++237gGMn1mvRFLdjkTYlvPOO889jPHdo48+2s3rzjvvtF69erkkULr76qWXXrLBgwe7aXkgo5kOVfWfeeYZN92pp57qEkvs0/Lycrv22mvt0Ucftb322sttP8eaKt8EAxtuuKHrD4V14d7P58UXX2zDhw+3lVZaycaNG2d///vfrXPnzi6AoOkP07PPWR++n6g01q8v59hXX31lxx13nHswJSDmAZbvMl+O0WOPPWaXX365e3hluu22284mT55s999/v9vWVVZZxc2TB3GW/c0339i+++5rO+64o1vXTp06ZXScmS9NmsLXQnh8cJsIgI888khX44g2/gQp/lzmuvjtt99s1KhR7nylej1/VzNZR873q6++2n1/v/32s2OPPdYdC853AjD2J+d91DWF8PiCggLr0qWLLVmyxAX5XOf8nmgfs/2pHqcwniWKiorsxx9/dKX4vg8e1ol7DPuH5XBdp7oMri3OVeZ58sknuxoCL774orsWOO/9Mcv0Go7CPuI4cB/kuwT/XDskKPg/aqJRQy7VY06imusi6hom6VXX9e/YsaOtscYa7l7POXnKKae4+XLNpXMuhe85gwYNcvOs670Br7/+ujtu3Ke5R7IN3KfY3j59+rjvI9W/B1GoIcg811xzTevXr198rNkPP/zgkmWcX+zLVO9zXIPcT7neaSrDvuMcoHkc60mSgvMg02s9CseMY865RkKRY0kw/8orr9jLL7/sxnH9+nOpQ4cOVfsQicaH+WOezfs25wpJg4kTJ7rpOGdXX311d3wa4p4osiL4+OOPq2IIP8B98prRW2+91Q233HJLRewGWnHjjTdW3HDDDbFrefkWezitiN1UK2IPKxULFiyoiP2Rjf+PiNQXrjOuN647rj+uw4YSexiuiD3EV8QeGuJjKrEesYeMitgDW0XsgaNi7Nix8f+pqIg97FXEHpArpk+fHh9TKfbwUhELMCpiD8zu9zfffLPigAMOqDFvvh9c5rx58ypiD85uXcD233PPPW6aWODhxoF1ij3guPXxy4gF/RWxoMot2+P7Dz/8cEXsQcft26lTp1YcddRRVfP3mAfzCo8PS3U7EmG68D6MPShWXHfddRUXXnhhxcKFC9PeV7HgpeLXX3914xALhCsuuOCCilgwWeO+zT7iuIwZMyY+phLrw3j+34s9KLr5MD9v9OjRFSeddFJF7OE7PqZy/fmbxrqwTon49d1jjz2qHUvWkXOIeTAvtuWss86qiD1Uut+92ANmxcEHH+zWy4sFKRUDBgyoePDBB6tdK5keZ+YbdTzD4/02HXnkkRWzZ89248C5yXrFApWq9YoFxu643nbbbe73TNcxFohUxB64Kz788MP4mMrz/a233nLXgT+W4WvKixrPz+HjmGgfp3OcorB+4WuB/cr+fe+999zvqS6D9eI+ET63YsFtRSxIqXbMMr2Go/h9dNFFF1UsWrQoPrbyPhg8Fqke82TXcKbrz/8zXXAd0j2XwvccZHJvmD9/vrtHh/cf68N6hY8z61/b34MozJvz6V//+lfV+cQ8eT4//fTT3f0XqW4L+22zzTariAUC7newDLaD84HzAple61GKiorc+c66B68N/hYH76f+XApfj4nGh/ljns37NtvL/uH8Cmqoe6LIioBrk5wDuQfuEz4fQW6iSTTxEJEVB1V/fbVZP1A6RmkkJY+UTlDKj9gDjitRKSwsdKXvZGv9EHuocSWxlExhq622ciVUzC+IEhXmQw2tKNQooSR6yy23tNgDTXysuRIyqrNS+vPZZ5+5cZTwUgrD4JEp3n///V0JSo8ePVxJXOwB13bffff4FJXYBkq6fFXlROq6HWB/fPfdd7bBBhu4Wg4eJXFnnHGGK7WmZDndZTAdJaNhlIxSsuXF/l65fUVJOaV7weNFlXtKr4JVkqNQWhn7A+fm4bH+rAPrlWz7Pc4lX5IGSsSoUci+4XizLbEAwpWeBUtcqcGx8soruxK9WEASH1uJGgC+dACZHud0USrNvD2OI9cJJZp+vfz6xx7e3e+ZrCM1AjiWlDyybI9lUYIcexh3tXTC+ykT4X1cl+MUxH2FY8/17Y0ZM8aV+lLailSX4e8TnEfB+wT7cocddoj/VimTazgZjjnHsl27dvExVnU/4t6EdI95+BpGtte/LudS1D0nk3tDLNh1perbb799tf3H+rBeXjp/D6Iwb7aHv1vcA0HtC+57lK77WsKpbIvfb9zPg39zWMauu+4a/61SfdyP2F+sO3+vg9dGz5493T2WdfPbmA3Zvm9TGyhYiwWN7Z4o0lgpQSEijUrwLR68vYOqxb1797ZLLrnEVW+l7akPUnjg4MGSap60AaaqsR+odkrSYsaMGW5ajyqYJC2oMkqy45xzznHTJXrwIJjj/1iH4EMPeBjl4Yc+Fwj+WRemI9CuDQ8zU6dOtffff981r/jb3/7mqqyG+9dIJN3tAPuLRAAPdqlUIa/LMpJhH1Fd+sMPP3RNEYLHi6rSX3/9tft/pkuGRAevoaTa7XPPPefaoNPumnGprBvV94OBLj8zjgRYcP/zIMk4Eiice5yLtF1mORy/VGR6nFNFgBTcJoTH8XP4HEZd1pF9w/lE0i18LtGsicAqnf2Uiboep65du7qgkOCQ84btIcDgHhMMDFHbMhh+/fVXF0CF9zHBUZRsX18EW8HmQOBexD2J657t8+pyzMOytf7ZPJfqem/w/0cgGkT1/OA+TfXvQTIEqqzPjz/+6H6naRbnFkFsUG3b4teF4x5MqoDtIAAPy8Zx91g2xyx8znGfYfm17fN0Le/37eXpniiyvGsyCQpu1CLSMHJ5vfFATamvf3sHDwZnnXWWezCjHSkPAWEkI3jIixpovwtqVPAATUkTbUPprIwH7HBJSV2xz5Ytq/3ViKw/bV8JjLbYYgu75ppr3EM+pW+0fa5NJtvB+kXtv7D63lckJNjmqONF+2Ee5hIhACKZwcM8nZw9+uijLigIl1LXBQEHA8eSoIt5cg7SxwkdpHF8OG6pyPQ4N4TGsI7JZHqcCHDYVgJFEpkMBIN81wefqS6DoCOVawv1fX1F8cmqbBzzXKx/Kurj3sB+S3Y/qgtK6dn/JMM4HpxP/M0j6eGlsi3cz1OtrdLYr/VkVrT7tkhToBoUItKo8VBNR18nnXSS0cEfnc7xIAJKtyiVqK3UjunpNIyqoHReRXVnHvgIhsOlVmF0LEe1W0ogwwEI1UopNeXBkhITX1JJNecgqvPyxoAJEya4daDXcjqZ48GH2h90rkaHXLXVashkO0ApG6VtdNYVLE0FnZ2RzKEWSCbLSIbOweg8kkQEJUnp4mF89OjRruTwjTfecCXfPEySwApXN08mXArGfqW0jNI4qvfTMzylZnSSSMBK53n02E+1a9Y/FZkcZ4/1JPAL4vhkSybrSEDANJRUhs8lasCw7tRQCAZ34f3OtUOwW1fZOE7U2OK65RqleQf3k2DJc6rL4NqiJHnixIk17hPBNw1keg0nE3W+cC/insR2ciwyPS/rY/3rci6FZXpv8E0rwk0SWB/Wy0v170Ey/N0iAKapCMkx1pVmAb4WRKrb4mt30Nlr+Ljz5gvGe9m4H4WxH9g3LCuIc4T9yL002DwoXHvA1zpMVfj+sbzdt7NxHousKJSgEJFGjz/89GJOqQi1KHibB3hA4kGPdp08kARRckJJClU0eTigJ2/ahRJ8UCoGHgSZLhmq7VLl++2333bz8Ci9ond+miT4NxPQMzsPOAweD7GsH/Ph4YRkCg+VrLd/4OFBi743CJCSyWQ7wIMRpZ708s56eDzc0uyC4IwaLJksIxmOIw/ibCfzYru9n376yT0EPvbYY/ExNZGEIrlBIETA5av7EhTwEJ8qjgfHzeNB/p133nHHmeM0e/Zs19xk8803d7977JfajpGXyXGGf4glEPL8ccqWTNaRZBM92oevPb5PsP/555+7c4hj5IM6AgjOo+B0wWslXdk4TgQufjvefPNN90aPYFCV6jL4P84fzmv+zyNo5T7hZXoNJ8O6cp/ygTP7mGuda4s3KiDT87I+1j+dcymRTO8N1Grg3sjbQYLBPucn+9DzxzmVvwfJsCyCWEr8OUeYp5fqtvj9xvqF/+bwpp9g0j7T4x6FPm64VkgEBJM1JB24lthG+oXwgTv3suC+JQHw/fffx3+r3fJ+387GeSyyomhSrxkl8xq86YhI9vGwRMkMQQUPn/wxbag/qHS6xQPYzhGvGaV0iXatlNqxjv61efSnwEPO3Xff7e5rPChTy4LaFtzjqLnAgwYPM7RH5aGNByYe6Gg28sknn7iSKoJjOsHyD408fPtO+ah1wMMFwTOBI6W+vL7vrrvucq82pWM19hUBPrUTeJc9KL2kLw1eW0jHXSQwuI9RAskDD9tEtXJKy5gf8+ABhoejKKx3qtuRiO8UkP3ot4UOPAl8aSpDx2/p7it+Dq4z09BeFzwscpw89hElSby3nxI15s+0N954o1s3XnvqSxI5rsyf4869n4dhzpGHH37Y/T/LYZ1o/07JNQ+IUeeO59eXh1pqs7D9zO8f//iHSx7xWlgCaf7m8IDJdCyX0sBnnnnGlaTxgM0+8tvFw/jjjz/uXn8Z3O+ZHGewbrxqkPXlZ84rzmmOCef5Ntts47Yz0TGIupb8cWGbmDbTdWSZbD/XHjjf2U9Ui6bWE53Dcky4nxA8cF2wDvw9p034//73PxcY8spQH9SRxOA641hzLCgZTbSP0zlOybCOXAMEULxykDbkXqrLYB6UnLN/KXXld/Yn1w33DvYvx4JzOZ1rmP1EB7bcyxKd1/D7iHUliGObedUjnQYeccQR7rWLHNNUj3miazgb9yBK3P1rKP1xT/VcSnS+sx6Z3Bs4RznX6CCRwJm/GSRceF0128v+Z3np/D1IhkQwiSNK+EmkU+rPNiCdbeFcJaimvyam45jQueYrr7zifvbXTDrXOvcNEnUMyY4jTU6YF+cYtQbYhzRb4VXbXOO8dpT7KttDYotjy75iOpIanK/c8+lUM9l9pj7u21H3RzTUPVFkRUA/MD6G8AP4VIJCRNKyvCYowB9/EhD/+c9/XAKBDul4iKB9KA8tBN0EQfQsTttokgL8P+vP9DxQ8cDPNATJtJmmnS/VlHlIIlDyD0M+QQHmQck/D4A8rNDmmgci2rjuscceVQ+WPHhwX+X/WA5BOA+6dPBJD+SsR7du3dy8efjl/1k2v19wwQVu2QQXLCvqISad7UjE7y/up2wL1bMJEqmiTQKlLvsqHCywnxIlKPw+IlHBQyr7gBox2223nQvEGO9xDhAs8MBNYEdSirbazJ+HWwbOV4KC//u//3Pry7yp8hvFr+9uu+3mtpVl8zBLgECVXr9stp3SP85Htp9aOPwfndTxSSkdvfhznBMFz5kcZ3DeUILKvuHhmICI9dxzzz3dH32Wz/5JdAyiriV/XHyCItN1ZDzzYX7+fOd7NMfimPjOYoPn1JNPPmlPPfWUC6w43gRXBPb+WiMxwT5lm7nWqTVFciNqH6dznJLh/wn82B8kNLmXeOksg/3AOUqJLetP0o/rhuuNwIljQRDs90Uq13Bt90TPn4c333yzO2f4ZL4kHdkmfwxTPeYcs6hrOBv3oKgERarnUqLznXtwJvcGcB7yRgyCbBIHJAUPO+wwd05S08YvL9W/B8kwDX9fCYYJsHlbipfOtvC3mk43FyxY4BLhdKbJ/9HPD4kyf82kc60nuqeFcS6w3tRg4Fwnycf1wL2c+ZLI8agJwu+vvfaa22dcY6effrpbNoLHMswf82zetxNdVw11TxRZESRLUDTjXaPBpATBvv/kD9fyjPVk4CZN9pVscLBkI4g2Y/T8H4U/lGQuudnycBDEDaS2/cD/01FfFEoAzz33XFd9i7Zv3DyjUF2PeRx77LHuD3mq+EPOHxn+mJNB5w8lD2zcqHnVF3+cEiFjTLtyvsvDLfhDRuC2dSxYSvbddLeLbHOYX9eDDjrI3bBrK1EIa4j1Z/9yfP2DWBB/xJItr67nXLLvefy/P09SOUcRdZ7yx5USQQIdSl9SaYdJSQjbzgMED6XBm4pIY+avdwKjRPd0kWwjIUMgSklu+O9BbXgGolSfGjPJ+lIg2CIRQWDpm3PIiotmHyTGSe4GX82ZKs5Z3j6zPJxLum+LNE7EMr6g03/C/e5+WkHQwy7VqqhS7QcytfTES9W7iy++2AWuYWRMCeLOPvvsyIGMbCKU/hCkk52lzV2wHV6mqIbNqxP9NlCFj+qGLOu8885z2edg501BdLxE5p/tJjlAkE6JCiWldLR05ZVXugRAIuluF1X5gvudgaw1WX+SMnT0lI6GXn+q3YXXnyqrBOqUbtBBFQ+KYXU953j/Pvss6nxjCJY88HPw/w499FA3ns/g+PB5yvqS2GEfUFqQTltPERFJHTWSqNpOdXdfKgz+TnEfJtij5D1dlGbz95ASWZEwaurwLEgQ7/G8Q4KCAr10E2KgrwueP6mRICJSH1aYJh7cjGnbRltLqpwRyDIQ3LGd3KjJJFM1Kxj8EbhR+k81MaqlUWIeHmi3FoV1okodVXGpAkl1ZdrsRZVS88cjXKUxGQJsqpQRdJKBoooo1flYF2pOsB1U5WPdqaUQLN2nCtqll17qgmtK66nSFvwu1dUInllvAuxw6XhdtovSnW233bZqvzOwHNaTdaRdMfNIVuvBa8j191UHBw8ebHvttVe19SeJwLI5r/hjzTEInn91Pef4HokbXtPGPKPOOarIevwc/D86naKUjOqkVPf048PnKfuR/UR7WPYFx4D1qq36KevGccpFEw+R+uSv93D1cJFMcV/l/OJvFk1SuH/SbIR+Q6j9SMkv1dzTxd8Lvkfb92T34VSr5UvTwnlGIQnPsvydpx8VOpLmXKDgjdqj6f79Zl7ECDyfpFvztT7ovi3SOCVr4pFHUB810GxiRcGOoD0fPQ7TVjJb6ICHtopU5ycQJrCj3VqmCLCpDsoDD6X3URlwEhe8EpB2eOFl0nszpeV8N9wkhn1BwEzzAWpf0IFPWDa3i3bjPFix32lPnIrlaf0p8SL4pxYETYxSVV/nXDroTIqSNxJYbAPtMf3bL0REJLtI1NPZK/dZ/j7TxwZN5UgU07dBXTBP2trzN0UkjGdB+n4A5xvnHc9G1Djddddd63Te8MxGHxa1FWaIiCRDriEqB8GQR8c5iYYVCaULZIUplc8WOtyhGQEPHpTw80lwHVWlPx0+wGZ+wZL0MIJO/jhROsPBBkE0vxPEUwMgCqXjNBFhiKpyms3tonorPWCz330nW8ksb+tPsohSMJYT7DgtFfVxzqWKZBBNW6ixQ9VizhU6b6KvjaimKiIrAjpDo3RR7ZilPlDazN8uqt3zSkJq3tHkg1p/9Z1g4F7P373loc8AaTicVzwH0r8J5xvnHR18Ultyeaj9kA26b4s0TlG5Bz/kUfoeNSTrDbopIcCk92yqwHHD5kYeRhMEmifQAVXUQOdTYVQ5453XPIxQtZ6qdbz/mE4ZaZ6RCUr8aTpBs4NkGWx6A6bXaXoM9/0x0Jko1UtpUlCX9q7Z3C4SAvTJQK/N4eYRiSxP688+ff75511TGqoVhmtzJJLKOUeigAfJqPONzjV50MwEzTl8oocmIVSNpKNM2kLTvlRERERERKQ+kGuIykEwrFCdZEYFffQNwDu5CXZ5jV5UkFlbJ5l0Mhg2depU1zaUwNWXkPOqJQLBTDvL5BWJlLzXhuCbd0izLPrpAN+lX4Rgb6npqOt20cNycL8zEBDTYSRv0+DVeKmsT67Wn34+wutPYoFzhnWn2mRUsqiu51yyTjLpC4OkQiZIRFCrhuQMOFdIEtHMQ51lioiIiIhILqywb/EgMOYtB3QuRUeFyV61RAKC13Mdf/zxkUO4YyuqyPvXUhKEeyQLWAdK8GfMmBEfmz4C61Q606K2AR0hEjj7qnxkq7p27Vr1Otl0ZLJdwbd4XHvtta4No3/lGa8ZTaVzTORq/YNv8aBTM/quYHj00Udd8iVRM426nnMkTJg26nw78sgj3T6oK2qu0KSFdaOGjbfaaqu55AmdhqbaH4iIiIiIiEi2rFAJCl6JRGn5Rhtt5N7awGsu6dGatyW8+OKLaQe8iVBFnhLqn376yXVe5UvOeTsH7eToAyGTzjIJ0il1p5PDZDUxaIJAjQGaMvjmEDT74E0S9Pvgm31Eeeyxx1zgTVMAL5PtIihnvzNQA4BXdNJBI+/hpk+NVOVq/enrw6//Tjvt5NafPic4d5hfIg11zqWDpiw0aXniiSdcLRC/H3j1KftAnWWKiIiIiEgurFAJijBqFlBKvccee7hSfar+ZwNV5AnyCJB9qbsf7r33XletPpPOMnnzBfN4++23kwaS3333nQvImZYOEEFVfmovfPDBBwkDa/q4YF/QX0OwKUE2t4smDATpP/zwg+tNOlmyIWh5WX+OwVlnneV+5txJNclSX+dcqkho0ZSFxAmdZoX3w5VXXuk676SmSS6SJyIiIiIisuJaoRMUoGYBASNV5ilFp3+DTBAAEjz7fgZ8qbsfttxyS9t+++0zautPkEuASwk+zQ1oxhFGcoJ+E6gpQEeIQTRNoGnBbbfd5l43FcT6v/TSS+71pDvvvLN16tSpany2t4s3R9C8g1emvvHGG/GxtVte1p91OPzww+3DDz+0p556yi0jFdk+59Lh3wBDbQ7OjfB+oANO/o/kV9R5JSIiIiIiUl+axwKSS+M/O77UlE/eMNAY0B8BwSGd/iV6EwQl1ZQM77jjjq6ZQBBNJiiZJ+Cl51Da5vs+G+iMkrdMsAxfIyE8MA01AqilMH36dNfnAB0O8uaP8Guc6NiRUn1KqHn/K/uYhANv5Xj55Zdd6T9v3Qgvg3WnGj7TonPnzi7Ypg8H+kGgBgL9BlCrgKD3mmuucX0K0AEl2xTEPqLZx7PPPuu+779LbQZK1XlnNq9rot8Fv/6ZbhcdRdKUIoh58IpL3pJC0wo6rmS7atOQ608tjFdffdX1CcH6BfEdXlM6a9Ys9zYPzhum8+p6zvE93gzz22+/uSYX4XMh6nwI4v/YLzQlCa4PSNI8+OCDrk+QqH5MWCf2J6/B45hFvcqVc5Q+Q3gtLOvMfmAQERERERGpzccff1wVQwRjCT6rR2krKHYEpecEtP/5z39coBvEay3vvPNO977yqOF///uf65ASBNp0tLj11ltHBo8gKKeUmuCT4DbomWeeiVwGr4QMl9DTtwHBJqXx1Bg4+OCD7YwzzrC5c+e62hM33HBDwldf8l22de+993brz3fPO+88938PPfSQHXvssdXWP9PtSoRaBEcffbSbN00MUu2ccXlZf2pD0GklTSYI6lNttlPbOUeiiWRL1LnAEHU+1IbEAzVV2Mbhw4fHx9ZEcoaECctoyp1lknQkYUOnoCIiIiIiknvNRo0aVRGsNeHfjsAnbfWXZ6wnAyXeJAgWLVqUMCAXkeygWQ1vLaGJEbUoglnPxoTaPdzjaC61++67x8eKiIiIiEh9ojDd18T2n3C/u59ERERERERERHJICQoRaVR4dez555/vmvkwnH322a4fmCCav9AvyAEHHOD66qDfETK1vkPSSZMmuWZB9DlCLQo6B2UcqJVFvyjMN9kyQH8fV1xxhZuGZdBMiaYxdJ5KDQ3Qn0hw/l7UeJZNXzcnn3yyjRgxwvWZ4t+sIiIiIiLS1ClBISKNBkE9wT/Nua6//no30LyLfkxIDHgvvPCC66tjiy22cP20HH/88a6viauvvtr1xdG9e3f3mlj62qDD0Msuu8yNA52U0ocJ0zH/q666yvVDE14G/ZTQCS3rdPnll7v+X1juXXfdFZ8ifXQoy3J4jS2dvZKIoT+Sk046KeFrdUVEREREmgolKESkUSBhwBtreD3qtddea1tttZUb6AyWPiSefPJJNw1vXuFVqnSgetxxx9kmm2zifiYhQe0L34fGmmuu6To35W0mvPKWcXRyyltwqLlAgoP577TTTnbzzTfbBhtsULUMvPjii+61rdddd53tuuuubjo6Nq0rkiAPP/yw/f3vf7eLL77YdWbKPG+99VZXC4QaIel2jCoiIiIi0pgoQSEijQLNHMaMGeOSCl9++aV7PREDyQhe8fv999+75AM/FxQUuNcDv/nmm1UJhS233NI1wSDYT2Tq1Kn21Vdf2c477+ze0OKxTN66witei4qKXA0OlscbT3j7i8dbabbZZpv4b+mZMmWKjRs3znU8Si0Ov300+eC1rt988439+uuv8alFRERERJqevIsf+9YWxn8REVlezZ8/3/UDcc0119iBBx5YbaDmAokDakDwGlnezNGzZ0875phjbMMNN7QjjjjCnn766ap+IRKhuQiJCZpYhDGOJALJCV6/yut8O3Xq5BIiQYMGDYr/lB4SMMyTZiPh7XvkkUdc/xlKUIiIiIhIU6YaFCLSqDz++OOuY8nwQO2Ktdde201Dsw36gqAWBR1O0uyDPiKOOuqoeu/LgQRJXQ0bNsz1lRG1fc8991y12hoiIiIiIk2NEhQi0ijQRwSJh6i3aUThncrUZqAfCpp20GcENSR4c0cirVu3dk1C6FsijHFDhgyxzp07W5s2bVwNDWpslJeXx6eo9PPPP8d/+hM1I3xTEy/8Zg6apfD2kBkzZsTHiIiIiIisWJpMgqJZs2bxn0SkvuXieuvXr5/rzPKNN96wOXPmxMdWvlKUjiSpHUEfFDSF4M0c9913n3ttJ1jf/Px869Chg/s9kb59+7paGC+99FK1hAJNK6iNseqqq7q3fbRt29ZN99FHH1VLSJCwoN+LIJIemD59uvsE8/7www/jv1UaPHiwbbrppjWWzc+8zeO8885zzUtERERERJqq5u36r3fppsO7W6v4CP9AzycdwDUGy5Ytc0EK7cJrC0BEJDMLFy50nTbSlIFaCgT/DZGwoK8HOqvkTRc0g+BaJ+j/97//7d6uwatB11lnHZcQ4G0dt912m1tX7g/UTLjjjjtswYIF7pWj1IJYunSpq00xceJE69Klixs6duzoOrq85557XJMREhF0XMmbOuis8swzz6zqZJMaFLxilDeLsExeO0qihI406a9ixx13dN/n/5jHq6++WjXdqFGjXLKB+yydapI8oe8LOsjk9aIsm99//PFHNy2dZvJ2jwEDBrhls1ze8kGNkqFDh7pxIiIiIiKNAR3B+xgiGEvwqQSFiKQlVwkK9OnTx9UyoEPMe++91zXb4JqnhgGBPuvDMGLECJdooDYDSYMPPvjAjeP1ndTEANtA0uPll1+2hx56yDbffHOXdOjdu7e79/GWDpIazIPaEldccYWbh0fygSQBnXc+8MAD9tZbb9kuu+ziXlFKPxc+QUFzEL5PTQuSKSQweFXqnnvu6W7OvF2EBAX7kFoU6667rn377bd29913u3mShGC9mYffzzQPoS8OlqEEhYiIiIg0JskSFM0Ktjiu4qx9RhhhPUkJgn3/edppp7kJl1esJwPJCdqWUyLZrVu3qg0Ukezieps9e7brD4LaACQpgjcVMXv22WfdG0NGjhzpEg8iIiIiIvInnpN9Qaf/hPvd/dQE+CCJ3vpFpH5wfflrTUREREREJJvy7Lsn7NpLLrFL3pkaH9X4uExLPPNCZ3YiUj+4voLXm4iIiIiISLbk2Spb2P6HH26HD+8aH9W4ECT5gQ7maOpBJ3Qikl1cV1xfXGfB605ERERERCQb8qxtV+s7YIANKGwTH9V4+OCIT0p06fCOdvHFxcX21Vdfubby9E8hInXD9cN1xPXEdcX1xXUWbismf9p9993t/vvvV/8TIiIiIiJpatSdZIJ1BYFUeXm5K+FdvHixlZSU2Ny5c12VdF4nyHR+WhFJjqQDA7UleLVnQUFB1aswfZKCDjL9tCIiIiIiIqlI1klmo09QwCcfSFKQjOB1o7/99pvr0I+EBePZHhFJHTcLkhAkJHhVJq/M5NWcJC309g4REREREamLpAmKUaNGxWL7ypoFPjHhPxtLggKss19vkhQ+WRGVnPDbKyLVhRMOPknhkxJ8+ptIeFoREREREZHarBAJCvjtYN39dgQHEUmdT0L4gZsHg/8/ERERERGRdK0wCQoEExH8HPxdRNLnbhSBhETwZxERERERkXSsUAkKT4kJkexSYkJERERERDKVLEFRWV+7CXLZFw0aNGRtEBERERERqU9NNkEhIiIiIiIiIo2HEhQiIiIiIiIiknNKUIiIiIiIiIhIzilBISIiIiIiIiI5pwSFiIiIiIiIiOScEhQiIiIiIiIiknNKUIiIiIiIiIhIzilBISIiIiIiIiI5pwSFiIiIiIiIiOScEhQiIiIiIiIiknNKUIiIiIiIiIhIzilBISIiIiIiIiI5lzdv3jyLGkpKSuKTiIiIiIiIiIhkjlxDVA6CIa9Lly4WNeTn58e/LiIiIiIiIiKSOXINUTkIBjXxEBEREREREZGcU4JCRERERERERHJOCQoRERERERERyTklKEREREREREQk55SgEBEREREREZGcU4JCRERERERERHJOCQoRERERERERybkmm6CoqKjQoEFDFgcREREREZH61OQSFMFgKhhcadCgoe5D8HoSERERERGpD81GjRoVizn+DECWLVtW9Xnaaae58Y1FcDuCPwc/RSQ1zZo1q/EZHiciIiIiIpKOkSNHWl5enosp/CdcvNFUEhSsc9Tgtyco/LuIVAonHoI3jahBREREREQkHU0+QcH6+oH1ZmDjmjdv7gYRqbs//vjDDVxf3EDCCQsREREREZFUJUtQNPo+KAia/CeJCQIpNqxVq1ZKTohkAdcR1xPXFdeXT2LCf4qIiIiIiGQq7+LHvrWF8V8aK4IkBoInEEyJSHb568rXplByQkRERERE0jXq/gft+XfHWfHv8REBjboGhQ+Q+KRUd+nSpao1IVKPuL64zlSLQkRERERE6mJIp4X24zuP2+hnvrKS+DivyTTx8AmKFi1auN9FJPu4vnyCAkpOiIiIiIhIOrbd43g7cpdBtnDcW/bV5KXxsZUafYICwRoUvoMNEck+rq9wDQoREREREZF0dB44wobaQpuzqCw+psymfvxi00lQ+CSFiNQvn5xQgkJEREREROqkbKHNj320cPULltrk126xu9+bowSFiKRHCQoREREREamrpfN/srde+p/NtKE2uG8Hs8WTbUJRS1ttx72bRoJCRERERERERJZ/V9/6iL0/vY+tv//2NmKl2Ih2q9oOR59q+4/ooASFiIiIiIiIiDSMPfY/2v52zhG20+DO8TFxy5Zann33hF17ySV2yTtT42MbJ1U3F2k4ut5ERERERKQuhg/qYZ1bxX9xltovnzxiIy+93PJslS1s/8MPt8OHd43/p4iIiIiIiIhIA5j5qT370ljrudsJlmdtu1rfAQNsQGGb+P+KiIiIiIiIiNS/hXOK7BcbZqut2lN9UIiIiIiIiIhIbnTo2s/62lh79ZlXlaAQERERERERkRzpsYkdfNQONrj8B8u7fN81rEN8vGRPSUmJHX744XbLLbfEx1QqKyuzCy+80P7yl7/YF198ER9bHeMHDhxY4/+fffZZ22WXXWzSpEnxMdUtW7bMPvnkEzvrrLPc/JnHbrvtZnfccYfNmzcvPtWf/Low8HMi33zzjW200UZ2wgknWGlpaXxsTawX68dyw8M666xjJ598sn300UduPdPF+t9zzz12wAEHpD2/hlz/GTNm2K233ur2O98bMWKEHXHEEfbYY4/Z4sWL41NF+/333+3yyy9333v11VfjYyUo0bWRikTXZG0yWaaIpI974XPPPWffffddfIw0JTq+IiISpU2/TWz3Y05TDYpcmT59ugu4oxIHdbFo0SK74oor7Oijj7Y2bdq4QPfBBx90AfcTTzzhxv/000/xqVPH2xo+//xzKygosPHjx9v3338f/5/ETjnlFPvvf/9bbbjooots4cKFduyxx9obb7wRn7J2LP/jjz+2fffd11544QXbdddd3fz++c9/uv8/6KCD7K677rI//vjD/R7WUOtP0oIHLtbvvffesz322MPt/9tvv91WX311FxSTIJkyZUr8GzXNmjXLxo4da8OHD3fLqC2hISLSFE2bNs3uvPNOW7JkSXyMNCU6viIikowSFDlEKTm1IjJ9ZSPB+b///W97/fXXXbBOcmKrrbayTTbZxI4//ni7//77baWVVrIbb7wxaQ2CKHPmzLG3337bdt99d1tvvfXcMij9SKZ///6uxkJwIGC/9tprbYMNNrBXXnnFJVRSMXHiRJd42Xjjje2hhx5yCQnmt8MOO9hNN91k//jHP2zUqFH25ptvxr9RXUOt/wcffGAXXHCBHXbYYfbAAw/YkUce6fb/ZpttZmeccYY7PgsWLHDJjkTLp3ZGs2bN3Dz4+ccff4z/j2RDfn6+uxb+9re/xcekZt1113W1a/gUEREREZH6owRFjuy9994ueXDfffdlXM2R4InSe6qvE0wT5Ab16dPHNY2gRH7u3LnxsamZMGGCC5QJtgnw33//ffv555/j/5uewsJCW2ONNdw61JYkAImX559/3lq3bu1qLrRv3z7+P5WaN29uO+20k22//fY2depUW7p0afx//tQQ60/S59FHH7UtttjCHQNqsIQNGjTIDjzwQPvtt99coiKMhAfNc1ZbbTWXjCFJQtIlUc0Q+RNNL6gp9OWXX9r111/vmjfRJOf888+3X375JT5V4iYe1Kw5++yz3XcY+JlxXlQTD5pEkTDzTY58Ux4SS7UlHP36hptqhcf79X3yySfddcC5znJYP7aL5Bs1e1hn/o9pgucLP5MEZb34HuvJ+oanixJe9p577um+f/DBB9fYRn6m5k+yfcg9jnsT118Q36VJVLD5Fdt21VVX2bbbbuuWyfEk+Rc8lsnMnz/fNWvz32ed2Q/BbU5lGX4fcJyZdv3113f72ycnmZbkKdvL90lCkqgMH9u6bo9vgnfzzTe7fb7ffvu540hTM/Zn+DzLdJsyOV/A+rBerB/fZ/lXXnllje3k+IwcObJqPf0y/D2V64D/45zaZ5993Pqy3kh1GYn469afz3zye7CJYyrXtj82N9xwg917773uHOAcnjlzpit0YJ3Zl1yXbAvnBVJdf6bj7wE1H1kHjj3L51wIN8nkOjv33HPdvJiW5bF/2c+ev7dwj7zuuuuqnbP8TWI81wnfZzt++OGH+DcrpbLefp/489XPj30cPIeSHV9qIvJdno3qcnxFRKRpUIIiR1q1amX777+/DR482FV1TLdmQ9Bnn33mgvNNN920RnLCo8YByRAeGFLFAyNBMiXHK6+8sgvwW7Zsae+++27Vg1o6SJAUFRW5REOLFi3iYxMrLi5220bA3qtXr/jY6jp16uSCUmoshOfZUOtPcoRmJNttt51bn0RIShHQ0NwkjOY3PMQSxLGtG264oWsqQp8WUjuSRtQcIvlD8x8epD/99FP3oJ6sqYwPAmbPnu0CNgZ+Pu+88xI2x+FBm6Cah3uOObViWDbVlQnMeZDPJub/1FNP2d///ne75JJLXDOlSy+91M455xzr3bu3Cwg4t0nIsD3g/H788cfddqy99truHkNzI85PpktU4yjML/uYY45xNZU471mHYHMx9jMJRPYz16Lfh+xXvz4DBgxw9yeCj2CwSxBFwEKgzLoR4J155pkuqUjNI5pJUWuKa5b51naf5J7BfqFZGwnB0aNHu+QggdNLL73kpkl3GSS02J8EdgRW7dq1c8vhGLDuJAHYp++8846rpRaU6faAQPeaa65xtcA41iCIJKj0Mt2mtm3bZny+vPzyy+6Yk8jlu3yP8+Skk06qOl8IYlkm93XGs57USmPaZ555xk3D3yiuW5K03C9pcueT06ksIxHOT2rccY5uueWW7tzgk9/5mfMy3Wv74YcfduNYX2rZdenSxY3nvGD9TjzxRDv99NPdOYhU159riuPJdpMA4e835wDnQtC4ceNcjTCSDKwn20HCnr/1t912W7VEur9H0lSR9SVxQIKFBAC1A3ke4RrnXOEeyjXspbPfWUfOU/YH6963b183vb8XJDq+nI804+Re0rVrV7ecU0891f1tTeX4iohI06EERQ5169bN/dHnDzBBQF2CZr5DSSqBCvPLJtqJ8lBBYNGxY0cXOPPwyvr++uuv8alSw0MPD3uvvfaaKxXp0KH2rll5kKJkZZVVVnG1JdLVUOtPIEsJZL9+/eJj0sMxJBnBgxulRiSZSMoQbIRLsiQaD9MEWpQG06yGhBUP7gTzBG9RCFioIUAyiKCE0k6Gq6++2jp37uyCqCiU5vnAgOX4JkCXXXaZC/TCNSMyxbr861//cutGkovA83//+5/93//9nx133HFue33JJh3CgmuHAJaHfR7uqUFEkEOAstZaa7n1T0Vw2QwXX3yxS/L585LrgmYzXBNMR9MypiNAIfBk/7KfCUDYz1999ZUL7j32Ff3xsH6gVJXrgeUwH8ZTmsq+njx5cq01wAikmY7jybFh33BOEHwR9HGdprsMrkWCKGpIMYBScu67BNt77bWXmw8/+wDVy3R7wL2KxAEJF/Yv5yf7klpbPvmW6TaxXzI5X7j+CNZJorEO7HfWg+PAfc2XoJNw5Rwg8OSaYTl855BDDnG13dgemmJxLnMtDR061N2zSeinuoxEvv76axdo0zSQefB99g+JB9aJ45nutc1ySYixD0kMsJ5gf7KNdJa88847W/fu3VNef39NcaxJFPDJunAOhP9ucY+ikIP5MR3zJEHF9OxP1sML3iNZX44168x+IVFA/0msD0kVxnFd+u+lu9+ZH9cF60QijwQqSRskOr78vWa7uafxHZbDPEi0MG1tx1dERJoOJShyjId4qkLWtakHJTs8WBHAJ6o9UVcE8uXl5a50EzRdIBChmnayziZPO+009+ASHHgIoXSHqqiU3KSyrpSuUn21LskJNNT689BEciJce8JXpw7Pyz+oeRw/EimsJyVUoMSNBzR1lpk6rqXguULTJgI3X304jP1OMBJOOPXo0cNdj1Q/jsJ86eCWEu0gjh1JsGBQkA00K/LnBQj2hwwZUpXMAn3MUEvIN3MiIUfCgCA1uE/8dJRkp/KwH142wQWlm9QkArWHCO4IwqhZ4LEcgh+uQT8t1xDJCRJvIKCmRgUBsE/uEdCQCOQ6CSJJSSlxsEQ4jHsh91DOA0pnPbafoI2giX2X7jKYjv3p+eQPQT41Qzz2E0F9UCbb4xFMrrnmmvHfzJ2rnLOcu5zDyHSbMj1fSNKyPtSwIRFEx8YMHA+CTxJnBNesO0kcmlBwb2eeLI8kAbVcgudQWKrLSIT/p8NiBo/rh+QVpfVc9+le26uuuqpL4oUNGzasRsI61fX31xTXT3B/cC3yNyGIxA6JgmCtPPYnx5djHj7uwXsknwT+zJcCDq9nz55uP/i3VaW738PzYxn8TifQwaYpYZwP/M0niRI8B1mfrbfe2iVjgslNERFpupSgyDH+ENO+tK5NPQi6KZ3hQY8H/mxhPd566y0XPAQfNugjgYeyZJ1NBt+CQdVRHlgI9qhCTOkvDzWpIBjiQS+VQCqsodefICx87Og7g2rCPHwzHHroofH/qY6HUUqsKBX1D2YEBpQ6UUXbB3SSXPChNhW8QYfSZR7G64LkF8EECS+uXUpdOV6plIqnIy8vr0ZCLzyOn6O2n2uHGiQEFHTeSqkupf+cq6x/baKWHURSgCAqmMTwGOdrF4Gq3gRIvpmHb97BeR4OTEnKUUuD6uLUGKCUOjivKAQ/lPpyP4zqByasLssA+42ALKpmF8F8lLouC1HbwzlLgBgO2DJZDup6vlDzgPOeBC41PYLDI4884q419hnJLRLyJIgphaeJBd9heYnux16qy4jCecr3+VtAwFyb+ri2U11/jiF/+wjMg1hvkiRh/N3n+Hz77beuLypqSFCbh3Hh4x51j2Bc+F7Cde+lu9/D80sV60qSiG0PYl7cS6K2R0REmiYlKJYDPLQFm3qki5IaHsypipkIJSBHHXWUC9pTwUMtgTNtuSlxokSGgdI8gmke3BJ1Nhl8CwZVNHlYIsim7Xo6JSA8qNBshTd5JEpSMJ5231TB5QHGa8j1J1ChZNaXFHsEXSQ0KJVkoLpvGA/l1J7gwct3KsbAPH1bfqqtJ9p+qTtKCOvywMuxoASYhBLnE23DCQop1SYhtjwgaCFIpUSfavSUTvvaCqx3LvgaTARSBDxUlycYpmaFR7BDUM01S+KWmiwEbOES7Sgcz1Suk0yWAYLXVK/HTJeVDPccH0hmupxsnC8kk0n8clzDA4EzyRuCTZZBXwMkgEng8nePYJe+EFjnZFJZRhS2z9cISKa+r+1U1r+2RE0Qf+foH4ZriNp6NPshuR2uyZOpuu53ERGRulCCYjkRbOrBA1s6qBVA9Us6WYyqRcE4gnJKrcJtpKPwkEZQzIMO7XV9bQI/+F61KVGKWl4YzRV4eOZBj7bptT2Eeiyf2gs8KCfqLJIqzlT95MHXl4w19PpTMswDIv1IUP07HSRJSJaQyAiv5+jRo13VeXWWWT8olSOgo+1zEKWtJLzoSDDqzTCUXPN/dGLHOUHbaM6zv/71rymV3IMAPXwecU5mC9tEye+OO+7oEgIEF7zZgirhyTpyTRe1hNiOqMQd42iKEqwCz72Kmg60j+e6pgNbrh9wLT799NNu/5JYpOo4ARf9IASTGImQECRZG1WVnICYjiXZx5ksAyyH5GlU4jR4LmW6PV5U7QWWQ/t9ErjZWE6m5wtNDGhOlep9iuuEBDB9GpAYoXkJ/fsQ8CaS7jKCWB61J0jk0+QliEQ2NeQ4J7NxbSeS6vpzvdAsLXw/4Jzm3PZIZPA3gnsUTQGpjURy5ayzznJJ7mzJZL+ng4QbCctwkzzOb+4lPLtENacREZGmRwmK5QTVIn1TD0pt0sHDCO1V6WCKqrLhoJvExGOPPeYePgkYasPDAEE/7V0pifG1CfzA68r4v7fffruqDXRtqMZNEM6DNA9TqWCfUA2YoP+uu+6qUdrNAxsP4tRcYJ1804uGXn8e4Cm9oiYEvZZHJWAo4aSqdBjrSfVYOj8MryfrSK0LkksEc5Jd1FwiyAsnlqjaTVtrgl0Sf2GUWhKgUsrqgxauOR7ix4wZ435PhqAevhM6cM58+OGH8d8yR80bzpvNN9+8Wv8aNGlJZR1T5ZNzvCEjeN5zThNw0pyKJgoeVbjpT+GVV15xiVhKpv0+JDHE+pGUpMTW1w4gEEvl/Ge/knDi2HGMPL9vCbRIYmayDLA/eU0j0zMvj3OIc8nLdHs8pg3W9qJpDPuWPkg4h7OxnEzPF/5u0Rlx+DzgZ97gQAeP3L8JokkGkETxuM9HNREKS3UZiXDekYBg8Egwkdhnm9mXmV7byaS6/v6a4hgHp2PdOLc9piWhw7TU+vPNKrj2wv0cZSLT/Z4qn8wkORZM/JGoocCBazvYb4qIiDRdSlAsR3xTj3TfxsEDHr12UwuDnrkplaIpByXzNE+g7wPmTU//qZQC8aDKwxidVUX1t0BATqdsPNhR+pQK1pHmEqwjr3ALBhDJ8NBCB3ckE0gQUEJEEoZEAc0m6NCMEiMCBi8X6894qkVTgsl0lMKx/zkOJJxYF0pxmWb48OHuO5SMEtAQFBDIReHhk4dD5hNswiKZoyScY0ViifbV7GOOEaWnJCcInqOQECQYpYd9HqY5ztTKoed5SgFrQwBCwovaOJwvLJeHfEoOqfWTDSQFqJ3AaxXZJgJ0zkn6FMhGMOH55BznMf2ssC28KYEe/wmmuGaDAS9vACH5Rg0hAilqVHgkGGjaxPrSbIt1Zl68VeDFF19Mad/SmR4dV3LPYN9ybLgfsn68jYH1zXQZBIK88YBgiXOFN5VwHrBvWZ6Xje0BwXFwOfxM0EazCO5v2VhOpucLf19IPFDjgGPPelIzgnOCfU8NBNaDY0MyguZy/l7+n//8x/X1QwLdv46TbeL6ZH4E2yRbUl1GIjTRIOFNUE1NRbaRmhv0tUHHxyQmMr22k0l1/TlHuW44DtwXuKa4XugbKVi7gGlJHrD+1H5hX3KO0OQj1b9rqch0v0eJOr70q8K9hG1hf7Pv2R7OY2q9cK/m/gG+w7GKSvqLiEjjpwTFcoZAl9L0dFH9kYcqHvR4eOUBncQEf8j5mfeOp1JKRakINQQovfeBdBR6sOeBj+COh4tU8KBDAoaqojxwpfI932aZ15zxlgs65eLBnPe3UxpLzRBqGfjSo1ytv19P3uV/wAEHuIdf9j/9fpAw4dVpPHCSSPJJImq28BC2zTbbuIe1KCyTjuR44Ew1qSOpo6SUJBf7n+uEZBKJCa6lRM2hKMkjsKEGDwlBHqYpmSdQIHClBkawpDGMAOSCCy5wJboEhPQ1QiKKjviiEmp1wcM+zVT4JMihiRLVp6m2zzlJiXywY7tMcM+ihpPfh2wbnfmxP6L6L6DknyQFSUWuYY9riGuHeXAN0+Rt9OjRLqi8++67XW0XmlUkwz2OY8g9gW2lWQfHiaCHADwbywABPZ1QkmDh+LGvSSQS0HvZWhZvmTjiiCNcQE9QSAKb5JYP5rOxnEzPF9aBfc61RK0j3oTEfEjs8oYMzhFwTdH0hPsviV7u5Zwn/M1j2/y9kfOChBLbw3rxNy3VZSTC+UlygsQ292L2E/dg9iXXLTK9tpNJZ/05l0aNGuWagrH/CcQ5JvTZ4XGvIHj3iXsSE2wX20fBBMeLY5ipTPd7lETHl33MvYSajVy7JNzYFyzHn+8iItL0NYv9EazwTQL4pCMp/8kfouUZ68lAG0yquVLSE3zgFZHs46GXEjNKwXhg5cGSQWRFRyfH1O6i34JU+vtJhiCZ0ntQ8yqV2m/SdFGLgOQOzzjUZNA9V0REGjMKz2mWyt8z/wn3u/tJREREakWHldSw8SXtHiXr9KvBGw0S1YgSqQ1909DUgX5aghhPB6bB/iZERESaIiUoREREUkQ7ePoQefzxx10zD5pp+X5EaJNPdXjVdpC6olkffUvQTIO+MnzfEvQ9QhMcmjyIiIg0ZUpQiIiIpIF+Y2gfT98MtJWn/weaPNF+vi5t8kU8+pagLxP/1ij66aAPBjoRpeZOKn1JiYiINGbNrrjiigr6cYDve8L37UB7x+WZX0/1QSHScNQHhYiIiIiI1BVvWfMxRI0+KOjIK2rglVsiIiIiIiIiItlCriEqB8GgJh4iIiIiIiIiknNKUIiIiIiIiIhIzilBISIiIiIiIiI512QSFOqkT6Th6HoTEREREZFsUw0KEREREREREck5JShEREREREREJOeaRIIi+N7UiooK97OIZB/XV/B6ExERERERyZYm1QcFQ1lZWXyMiGQb15e/1kRERERERLKpydSgyMvLc5+//vprfKyIZBvXV/B6ExERERERyZZGn6AgSPJDixYtbMmSJTZr1qz4/4pItnBdcX1xnQWvOxERERERkWxo1AkKHxzxSYluy5YtrXXr1lZcXGxfffWVzZ492/744w83jYikj+uH64jrieuK64vrLFiDQkkKERERERHJhmajRo2q8B1L8rls2bKqz9NOO82NX575dSeQKi8vdyW8ixcvtpKSEps7d66rkr506VI3nZ9WRJIj6cBAbYmVVlrJCgoKLD8/39q1a1eVpGjevHnVtCIiIiIiIqkYOXJkVYFnuOCz0ScowPoykKQgGfH777/bb7/95jr0I2HBeLZHRFLHzYIkBAmJNm3aWNu2ba1Vq1YuacF4dwNRckJERERERNKQNEFRsMVxFWftM8I6xEY01gQFfJKC9SZJ4ZMVUckJphORmsIJB5+k8EkJPv1NJDytiIiIiIhIbVaIBAV84oF199sRHEQkdT4J4QduHgz+/0RERERERNK1wiQoEExEKDEhkjl3owgkJII/i4iIiIiIpGOFSlB4SkyIZJcSEyIiIiIikqmCPU+yI1t+YU+/8ZM167O57X7YNjagVZlN++TNppugEBEREREREZHlS8HKK1t+rw1s+4172h8L2trgtXrZL6+NtPu/7WaVDcpFREREREREROrbwqG2056b2dD+g2zEmn2tzeLJNqGopa22495KUIiIiIiIiIhIA1mtr/VoFf8Z7Va1HY4+1fYf0UEJChERERERERHJsWVLLc++e8KuveQSu+SdqfGxIiIiIiIiIiINYan98skjNvLSyy3PVtnC9j/8cDt8eNf4f4qIiIiIiIiINICZn9qzL421nrudYHnWtqv1HTDABhS2if+viIiIiIiIiEj9WzinyH6xYbbaqj3VB4WIiIiIiIiI5EaHrv2sr421V595VQkKEREREREREcmRHpvYwUftYIPLf7Dm15195KXBN3xUVFRUfW688cbuZxERERERERGRTLUqnWitmzWzZoGhRae+NnTdjVWDQkRERERERERyTwkKEREREREREck5JShEREREREREJOeUoBARERERERGRnFOCQkRERERERERyTgkKEREREREREck5JShEREREREREJOeUoBARERERERGRnFOCQkRERERERERyTgkKEREREREREck5JShEREREREREJOeUoBARERERERGRnFOCQkRERERERERyTgkKEREREREREck5JShEREREREREJOeUoBARERERERGRnMubN2+eRQ0lJSXxSUREREREREREMkeuISoHwdBs1KhRFTFuQj6XLVtW9Xnaaae58Y3RokWLbOHChfb777+77RGR9DVr1sxatWplHTp0sPbt28fHioiIiIiI1M3IkSMtLy/PxRr+E+5391MTQ0Zm7ty5tmTJEiUnRDLA9cN1xPWkWlUiIiIiIlKfmlyCgpoTCxYsiP8mItnCdcX1lUvPPvusDRw4MHLYdttt7aqrrrJp06bFp64fJGoOP/xwu+WWW+JjUkOttA8++MBef/31+BhZkVG777nnnrPvvvsuPqb+cN1wzja2JGN97qPFixfbJZdcYu+99577fXm9rktLS+3kk0+2M844w1V7laaPc5HzsKysLD6m6anrPYl9cuGFF7r9M2bMGDv//PNdbWkRaVqaXIJCNyqR+rM8XF/9+/d31cL++9//Vg0PPvig7b333vbWW2+5pmn1naSoCwKNu+++O+dJHlk+cI7eeeedroaSRKvPffTGG2+45ML6668fH1M39XldU4ONe1p5ebmdd9551qVLl/j/SFNFwO6bV7dp08Z9NkVFRUXWp08fa9u2bXxMan777Td3X+jXr5+tttpq7pp44YUXVFtapIlpcgkKSlxEpH4sD9cXDzQjRoywjTbaqGrYZJNN7Pjjj7crrrjCpk6dau+++2586uzLz8+3+++/3/72t7/Fx4hIYzJ79mx75plnbLfddqsKApfH65p2uH/9619dkqawsDA+VpoyEhRz5sxxf9OaMq6zK6+8Mu0kzKRJk9zfd5IbzZs3t1133dVeeeWV5bJQQkTqrsklKJRFFak/y/v1NWTIEFt11VVdnxlBVOf+97//7ZqB0Bzk4IMPtldffdX++OOP+BSV5s+fb7fddpv95S9/sXXWWceuu+46+/LLL22XXXaxL774wk0TVRWc+Tz//PN2wAEHVDU3oZaHr5LNQxXL5MGK0jHmxzhfXfWGG26we++91y3zhBNOsJkzZ7rvjR8/3s4991y3PsH5sp7JBKvBBkWN91Vtf/jhBzv77LNd8mennXZy20PJLftpzz33dOP5/19++SX+zcQ4T6iWT9V0vsf68zAa/K5fl5tvvtk++ugjt3/YRpbFsqOOzR133JH0GJJA47vMw8/roYcecsvyku1zvy+YL/uAZVF933+PefljzHYdccQRbt39dZHqNnEuMe+xY8faPvvsU62qcyrbkAz7mGrPbBfb8Nprr0Vet5kuJ5XjwXXHPJMtw19PjKeJFjUaLrroInv//fcT7qNUzq9k3n77bRcYDRs2LD4mu9c1qJ3BOUDitC7rmOnxCeOcC66fFx4fPof3228/t3yuEe4R1BS56aab3PYwcF9NZ53Yv8zPD/6+GhRcp+D04fsZmDY4v+B54vlt8tNE7Qd//LkH+Hn6efn7AvcIPx/GITzv4P8Fse5MxzyYl582uP18L3jOM73ft6lsQyJR6x9etpfK9iTbV6jtmLDerH94vrV9DyQiuG5JKIIalSQrEt3ngvx+CP6t47riOgsXvnCdcj/y9zfO9QsuuKDa9ev3Q/jexTXCvYP7IX8jWA7z4D7CsoL3yEQ4Dsw32d8bkaaseewmcWn8Z8ef+HxuvPHG7ufGhOqWIlJ/OnXqFP+p4RGw8xCz8847Vz2gBP3888/2yCOP2HrrrWdrr722G0cwwQPXp59+akcddZQddthhrmTy+uuvd59MR+/BBFPXXnute9A59NBD3YM533n66aetuLjYPVD16tXLPTjw4MHPG264oVsGDx18lxJZHuRJlDz11FM2YcIE23TTTd0bUHiQYv2YL/Pnd5ZLcENpLgHTqaee6hIsPID9+OOP9ve//906d+7s5kkTFt6o8sADD7h1YNmUIEVZunSpmy9vX/HriKjx7NMXX3zRPfisueaaduSRR7r5U5pMNdzPP//cPYRRU4V9M3HiRLdNLVu2dN+P8vLLL7s282ussYbbBpZFW3/25brrruuq5fp1IRD9+uuvba+99rL999/fPQDec8897rj07dvXzY/9TxV3kgUHHnigHX300S5ApmSZ48D+Zp05Bo8++qibF4Eh58h//vMfmzJlilsH1tkvN2qf//TTT+6hkG087rjj3HauvvrqrtYOAdsTTzzhSrSZNw+j3377rT355JPu5+7du6e8TcyP5bHv2U+cN71793YJoVS2IREe3tmeWbNmufnyN5x9znHkAXzHHXd0y051XyWSyvHgerr66qvdPuOcP/bYY935e/vtt7v188vw19NLL71kgwcPtmOOOcY9kLPfo/YR53wq51ciBA80CeNc55z2/Hpk47pmu6h2TtKC9TnllFNcgEFJL+te2zpmenyicA7SXCR87wyPD5/DBMqc89wL2ceM5xziPsHfAhK6PXr0sOHDh8fnGI1gjn3INgU9/vjjttlmm7n97nFNcT7xyTHwPv7442rTEnByTw/iWNAUkRoILVq0cMEw9y+20eP8/eyzz9z14fcF+4FzlXOOBAzTELxuscUW9r///c+ddwS23BeZhnmCmgAc6yDOI86DoUOHut/ZdhI5OOecc9w6elwLLIN9ynLYRo/gmPMs1W1IhPlyPXLs2KceSb7g91nPVLYn2b5K9Zhw3nDfqO1Yjhs3rmr/gG3p2LGj+3vMvBjoH4v7B+dGsreN+b917AfuNSeeeKL7PgURrVu3trXWWsv9TSaRc+aZZ7pzkPsR9zju7+wXf+3ztyPRvWuVVVZx5/Xll1/uksT8Ldluu+1s8uTJ7vxhWqZJhARGKn9vRBo77nc8hwcH8Nkk3+IhIisWSit5cCf44YGDByGPzuuoUcEDEQ/7/B9BDQ9WPBT5UigevnkApCSEh++tttrK/vnPf7qgkirhifCQwoMiCQQeRJg/P5911lkuYORhh4cmAqKVVlrJPeiRQAk+SPFQw4MrD2Lbb7+9C+SYJw8yF198sVsXHr4Iylg3HpKy2eZ9+vTp7gGYh1PWgZJp1ol196VIbNNBBx3kHhipgpwI++rhhx92+5h1Z715SLv11lvdPKNKkGiaw7FhOy+99FK3f4Kle2+++aZ7uGMebD/zpKSK4J/AiX1BTRcC5htvvNFNQ/DJJ99hXxJsBUXtczAvgnyCUoI2HgR5IGe72T9+3nvssYdddtll7sHZn0NBybaJgICAle/y0M85xvLT3YYgChV4WGbf8sBN1Wf2O6X2BCdBmSwHqRwPricSWv/617/cNFwX7D9qrhCkh5dBoEQgz/FgIICP2kd1Ob+CaAL21VdfuQRIMplc1/w/gQjf49izjpwL3IPYntrWMdPjky3+HGb/EsyRxORYUPrMNpF04toh0K2tnxCSQiQ+qIHC9cLA9bD55pu7xBL7G3wStHP+cMxJCjAtAR/Yt2DcXXfd5b7PfPw8mT/Hd8aMGW5e9913n6uRwPf9NL5DU4JVjw4XmY5ScgJLpuN8JWhn/vR1RJDN+vA9zjW2iXsh8/Pz9ttEUtBjHkxHgBvcfhJYjOf/wfIYR0DMcvg9nW2I4tefc27QoEFV32c9mCfb7aW6PYn2FZ+1HRNwDJmGfQj/Pbbdf8d/L7h//LnBPTnYNIRgn7///B2rDdOQ3PDnMPd6toNkAMsE28b9lPsL5z7XPkkCtpH7XriGZvje5f8ecX2cdNJJ7vs77LCD21ckQfhbkkxd/t6INDVKUIhIo8LDg6926QcevLbeemsXNFBqS0kn6FCLByPab/MAQ7bWD9Ss4KGaB0FKrnnw32CDDaoFLu3atXOBXjKUZBYUFLhgjMDNB4Nbbrmle6j1D2HJUIJPTYmgQw45xAUkzNujFI/5URoerpKaCfYXwaDPXhMIMlBCHWz7zn4msEoWXLGfebgiUUSw6vc3QQzz/Oabb+zXX3+NT21uGZSMezyA8TsPojyQcoz4LseGINBjX5CwIYjiOHH82FeU5gWPMw+kzJMH5qCofQ5KBemALYgqxNSA2H333eNjKrFvKAEMJ4tq26YoPBCnuw1BnHecyzwsDxgwID7WrGvXrrbNNtvEf8t8OakcD44zy6CkkX3hcX4RdBLIE4AHzyPOa0pGa5Pu+RXGNrONtfXpkMl1TUktpa/cp9gvXs+ePd19in3DekTJ9PhkS9Q5DI673yauO64VEsSsdyIEVNQeIeAMXkMk6gi8CFi5V8N3gkiQTs03H4gyLdcm1yJ8YE4QGaxBwPx9AuH77793x4rAnlorHv9HbaLg9egD8PC0PrkQXh8QQPpleX76IMbxdyu8/ew7rs9gDQaOLSXkfjnpbEOU4PpTwu+RIAgnHlLdnkT7KpVjwrpyfgc7yGQ8/8/yg4LrBhIc/D0P359ZFrV4wtNH4RwiqebPYe5JnNNc71y3IKkcdY2TCOH8DP/tZbrgvYufScyS1Ahe/yQyV155ZbcPkv0NTffvjUhTpASFiDQqBEU86PEAQYkPJSA8SPPKQJo/0PbeB9o8CFAaQekRbcV5SPMDpTUEOzz0UK2ZP/o8+PDQHcRDAQ81ifAAwkM2wQcPgFS/pq0opYI83GWCh36arVG1k9ctUkpN6TjjsvmQQrVWv8+CwuODD1uJsL8pYaLvjOD+ZqD5DYmhYADJPKOW7XEMCczCpWZBBM08RH/44YeuxCm4TI4JJc78f22lvLUhkUUJPFWEac7AAzWlwuEStdq2KUqm28BDM+vBtRA+Tt26dYv/lPlyUjkePHwzHUFDeBqqUhN8cw6zP9OV7vkVxne5xlmPZDK5rrk22fZgkAbOCe4nya7fTI9PtiQ6h4PnFv/PPaI2vsSdey7BXHBgXBDJDK4p9n3w3PEl/exTH8gToDOPRNiHoJlKeLn8DfE4Vwn02cfhpiosi3UPrw+ogReeL0kppg8G0ayHTwh4LDMcqPtkgE/CINVtSCTR+rPM4HKQyvYk2lepHhOfgAreP/guNfjCy2b7wgkc1iW83lzP1FxKJUERnJ/H74yndkSQT/pSM42CD2rc8cyQ6t9e7oMUmpBc5NmEZxX2car3vlT/3og0RUpQiEijwoMVpf1Ue/TVxql2TeBOteqokolw1dHgQLtoSgAzqZFA0oQqqpS20jyChzhKk2lTS78GdcGDEAEJJc48vNF2mxIYqoou70joBKsJBwcSLZQipYpjk6y0KYiHZh4oo5ZL9dragtJEWD59UxCkUoX3mmuuccuh4zSq7GZTfWxDOLBCXZeTzvGoL5meXwQz4URklPq4rlNVX+dyLqQSOHoErxzfcBDJPHxw6QP5cEl6kA+kU+GD5mDNBY/xJBbCQTeBZji5wnoTSPLpg2i/HsFEBBIF6myjX1Y625BIovUP10ZIdXsS7atUjgnC0/E7yyXwDmIcQ3C/JdqWbKFWFkhykoygNiV9y9DEhmRFuEZDIhQskNTgbzXPKNS8oXkUfyt8/zbJNOTfG5HllRIUItKoUYpHm1Laeo4aNcpVFfXVjanyTWltbaUeTMeDLw/Bviq3xwNUKg/YlCTSBIJ259TuYD0o5Qw/eKWCZMno0aNdzY433njDlUzxwEIiJp2Hs3BJDetDCXR9Yn9TyuXbG2fKVyPnQZ0H9iDadJNgokSJDvsI3tjmbKP5AL3w03EaD4rUyKEPEzowiwr+64Iqxplsgz/Xqd0QTiAEz99Ml5PK8SAAYb9QehiehnOQ40UgVpcgOxvnF/eC8HWeSF2uaxIgbDv3jiDuSzTboH+NqOZFyPT4JMN+D293fd8PPAJL7mNsV3ggsewTEpyrJGWDnWayH/kuzQnCiYvaJEv0+Ndc+qA5XDIP1iecXOCcpvZDeN6cG37/+vVMFNAzPecQAaxHbYnwspDKNiSS6G8X6wqS/elsT7J9lQp/TbBcsBz2Q7B/DQZqPHLMgwmcqGORrqhr328Tzf64RqklxT2ffiloMkbhAElBzstUcLxJ7FCbhNqPJFN54xHNNrm2a9MQf29ElndKUIhIo0e1Yzqw42GPh13fSzqBAqUQtHfnQSGIEg1KOKg+SVDAAyRt2nk48Aj06DgzWXKD0hY6yKKUxSdGSJrwQMfbMuqC5fGQxgMRpbi+qjVV13loqw37gwcZgtXgwxgPO7Rprk907EnfA/RsHlw2P/P6S97+kGx/hhHEUpLFsSHR5DE/HugJWBlYJtXAw69ho6SbB7vHHnssPiZ9LJfjybnkHxBZBoFysJO5THDMMtkGznU6bOQVmsGqygTE77zzTvy3zJeTyvEg+cD1FL7uWBaltrwZhj4OopoQ1CbT84v1o7PDcOIkLJPrmj5dSEAQmASTRSQD6M+C/Zeov41Mj08iPhnEPcHzx6y+cV8mCA0mddj//nWW/p7mExHh5kM+gPSl7hwDzrFwcxv/SlLmwfc5B0kqBe95TE+NNJLa3GP9OPgg3GMdScQlas5EIEoCwvO1EHxND7AMtjsc0PPdYE2RqGWlsw1R/DzD+571pPlEOBGUyvYk2lf8XtsxAedbcH4ey/b4vq9VEaxpEXVugPOYa95PmwzzIBnjrytqhHHP5PrguiX5yP2T+xPHxzdhotCA6zEVdORLUyyScsF7BfNN5e9FQ/y9EVneKUEhIk0Cbbt5aKNklSSFD0DolI7AjRoWlGLwgMQn/TnwAECfFSAoYKBHb4ISEhdU86QUJRlKRGiLS4eWvLqU71G9k977qb3A8kH1UYJIqovzoJMsiGI6AjHarVISQxtWXi9Gkw8CvNqQcGHbWBeavvDJNvEWAR666hMPn7SXptSHNy0QpLE/6DWdnvkJsNi+dLAP6fiR6vUcD7aHjtiYn29bTdVXfua40l6Y40ytE0qheKj1x6EueMAmqOWtLmwPy6fkkmOc7rZ4PBBTG4H9xEMzD8CZbgNvHSEQYnrOF9aVvhp4NV9QpstJ5XhQHZnO6DjunHssg2Dl9NNPdz3jc37WJmofZXp+0acEaqs5kMl1zTHgXsS1y/R8l+PBmzAIAHkzBtdoIukcH4LI2gJV8HpbOif1ry8k8Uoyh8CPpmP1ieuHYI2gk58ZVlttNRd4Eyj7jhZZFxIRwVoF8EGZL3UneGP/EMDyXT9P5sUy/PyYnvtdsP8G/o/vUSLO72D/RgXN4WYQnk8chJfPshEs5SfwDjdL4G8TQXIwQeBrWrANweOZ6jZE8fPkbRI0VfLfZz1ZJ65ftiWd7Um0r1I5Jj5hEpwf04TPDb99YFr4cyMqCcH/MSR7dWcQ+417EdclzSd4+xfXK8vinsN8qA3GW3TYXt46xLVLjZJU7vdco2zDP/7xDzcff++jD4pUkvPsg2z/vRFpbPLKxr9o117yiI1J3KeUiEijQG/cVA0lGCBYAYkLHkJ4SOPBnP/nQYNXZhK8+bbolHTwO8ET76wn+KGjOx4MkqHEk4cbHvYJog499FD3M9W4CQb8mw6YP21YefBkXXhVaCJU1+eBiHUkMCExwYMOvYKTcKAmBVXIkyGI4QGJkjeq3fPaM9bLJ2TqC6XMvKKTXsgJ3njwZLnsJx4EOUbp8seQ+ZJcYnt42CUA5EEQHEdK0DmGPPxznDmOtOHlQY951BUl3vTKzjI5djwo8oBNAom3vNCRWbA0PxWcWzzQ04SH18cRMGe6Dfw/05Ec4OGa+RLcUFIdlI3lpHI8mD/nLOcuy6CkkgQgy/bXXTJR+yjT84t5EhzTY3+wdkJYJtc168h5QVBIUMX+4XiQAGUdaTKSTH2cyyRc2Pcka7kv8PpgAmT68OF+U58IXjlPaELgcV4SfAXb9ftERDj4pWp/OCjmewS/QfwefBMEgR4dKRMAe/zM8fTnqQ+a+T28XIJe+MRIEMv3AbxHMwXG+ZoIzJvjFwzI4RMHBLIkB8Cy/ToFtzWVbUiEc5JAf7vttnNBucdx4HiE92cq25NoX6G2Y5Jou0luBhPnrB/3DMYxPZIdC2ppkYALvnUmEebJvZzrlOuSv49cm1yvXLcMBxxwgEvecN/h2qO5Jc8Fd999t3vN7sSJE+Nzi8bx5n7FJ/cMCjr4e80+p/8aangm68i3Pv7eiDQ2zbbqX1Dx7YJhtvcZ+9vqHSuqXhfFZ/hm1Rgkam+33Pi92MZ9PsHmxX+N0mXw+ja0MFy6stTm/vSpjZ9t1n3IBrZKQWVnPjUtsGkfjrHke6GLDV5vqBXGn0nKi8fZZxOSrVFMvxG2SZ9AldSk29HGOhZ0tsIefa1np8SlRAlVlFvpnOlWPKfE5pX+ZuXW0tp26mJde/S0HgXtLNGWo3xhsc2aOcvmlJTab+VmLdt2si75hVbYu7tFrkpdtiOFY1ipn43YpI9V7rX0j8vyKpVqlE0JVdl5QwglqamW0IjI8otaB7z2ktoJqbQJX57xvEayhlfJEsyKeJznNLkgSRCVUGgKCNQJ4GmewVtvSDAkwv4gaeibnYhIbnFv8m+L859wv5d07ut+kYbVvmsfVwITNeS3ibjBLi21+bPbW8cOLW3W7LmWuPVsS2sfMU839IsF6W4aTgL3Q0D7WBAf8R0/tItONHTqM8RVgw0Owwb3sHZL59rk77+2SfOWxqdM0ZJim/jVZ/b9z4vM8vvaIOY5bIB1b1Nmv4z/2r76sTjBtpdZyaQx9tm3E2z2H+2t18DKdRnYu739UVJk33/2pU0sTrzX0tqOvNaWX23/9DD3pz+/R2AcQ/vY0QipMU1wyLfWanSVM5RQUv3cl9SA9uMkKCh1peRURBq/jTfe2AU29d0fS0OgVsmPP/5Ya78YsuLJRqeSyzvOfWoU0JwsWXJCRBqXvL13GBz/URpS6/yeru1h1NC9Q806AmXzZtss62S9+nS3liUzbV7CZmxtLD9inr169bCOtthKYyFz4eB+VlAjcm5tXXpGfS8+dKneKZHXvN1KrgQqOOQX9rJVhg61Pu3KbebMZMmUkD8WWNHYCTarRT8bsfZwW6VXoeUzz/xC67XKcFt7WC9rNWeC/TgjvPHLbNH0H23sTLM+w9a3dYb0t+4FletS0K2/DV57bRveu6XNmjDGpsxfFv9OdWltR4uO1r3a/ulaWUuiY9fAOIb82NEIqTFNcOhuHZNVD5F6RftsquNSGkP7bNp9XnHFFa5aJdXME/W6LyKNS7du3VynurQtpxp1Y0bHedSeoFmAiOebYwSbUzQ1FCDQvw7JCRIxItJ05OUr4dgIlFlpcYlZj1jg3LmTdW+5yKYXl8bC8tSVFf9k44oWWMd+Q21QYQP8sWre0fIpcJ5fbn++5DC5srnTbNri9tZ/lT6RgXqL/D7Wp0dby6MtZHycUzbHin6ObVv/gdYvP6qmRwvrtPJA69+h3GYUzbTauygKqMN2SONEu0/ah4P2p7RPpd0o7c19+1QRaRoI6qlSSlKyMWM7eBuR7k8S5Pt7aMpNMnkrFTWI9txzT53/Ik2MKpQ3Bovm2cz5Zj06d7QWeZ0sv2dLK59ebCUptp5YtnCa/Tih2KzrYFu1T8cGOuhltnhh7KNdXorLiydhOvewLgk7KW5hBQPXtuGrFFarmVBWGtsX1sm6Jf5iTHvr2quL2cI5VppWhiLd7ZDGigcckhS8b5wOJemwjU6tqA7uXzUmIk0DHVHSkR0dioo0NfQ5wdusgp2QNjV0mMkbdqjxmgr2BR1kq/8JkeWfnrobgQUl022R9bKCzpXVCjp27mktbZbNL00hQ7Gk2H4aW2QLOvSzoQOrB/bVzbMJn3/oXocUNUwjSE/VH2VWOn2yFc2P/ZHs2cVSeylSuS2JTW8d2iVZx2jlS0pj/3aydrV8sWUb2ugusoVlKdaFqNN21KJoTOT+dcP4YtXSEBERERGRFZYSFDkyb8JnkUHquOJQiLqs1Ep+KbeWvfOtoz9aHfKtdzurpbNMlNmsSROs2Apt8JA+1rF5fHSk5J1ktk/QN0LkdnzypX0/o8w6DVjTVu2eYrrh9yXmXpqU9hlZbkt+i/9Ym1ZtjNYayyLeLJe17ahNsk4y81ubKimKiIiIiMiKKu/iu9+IfYy1J66/xC699F2rfOOw1LdEb/EIv8FjaUmxTStvad07B5tmtLdO3dqbJe0sc5ktmPajTSzpaP2GDbLC1vHRCbVO2klmfoL4PPj2i2GD+xl9abYt7G8j1l7bBvdsn/SVoNW0am2uD/J0OtZwmlvLWrctrrzMFsQ+8iKyAFnbjtok6ySzW8fsLUdERERERKSRyTtit3VjHwNs830Pt8MOG2aFleOlniV6i0f1N3gstdKSWbHPcpv2/cfVSve/mUJmInFnmZWdYpZZ4eBVrU+H+qsoE3z7RX5hHxs6fLC1L51iY36YZgv+iE+UkjbWpiD2sXBx0lohZbPG2ZjxRVZSVdEkz1q3pf1hqS2upTP28t8WxvZke+vQpmZHmtnbDhEREREREamLvAE9eHVeG+vWd4ANGNA17fb/Uo/K5trs2WYte6xSVbr/5zDE+uXHgu6IzjL/7BRzoA1oiDd2BLUutEHD+lnHhUU2blJxLU1Qglpah/zYBs1PViukzErnzbMFv7WwVoEcQ5tOhZZvpTazeEGSChhlNm/OPLN2Xa1TKp1J1Hk7REREREREpC7UB8VyrPLtFO2td/fuVaX7fw4F1qNb99hUs2z2vED4XK1TzIJY2N/w8jr0sv79Olr5nMlWNDf1bh/bFPSyXi0X2ZSJ02xBjf4/l9niWUVWVNLSCvt2rd5hZZuu1m/ljraoaIpNmRuVSlhqpT/T3KWl9erfo/p3k6jrdoiIiIiIiEj6lKBYbi2yeb+Uuk4VE709s0V+ofVpaVYyY15sapTb3KIJRj+b1BJYMGuGzZgRPZTUiOOXxJYXPW3lUJJGLYI869izv/VpV27Fkybb3N/jo2vTvJP1W62/5S8psjFffW8TZxRbSWmplc6dZVPGf21fTyy2Nv2G2qCCcNolz9r3XtWG9TCbOf5L+3L8FJs1N/a92Hfnzp5iE776yr6fXm7dB4+w/p3TOeXruB3JLJgTsW//HGYtTPHdsSIiIiIiIk1MnvXdwi67bH8bsVJ8jCwXlpXOtemLzbp3K0jc7CavkxX0bm+2eI6VxptFVMTbOJTOKrIpU6YkHBbViIMXWfH06Gkrh0XpvQKzeUfrM7CPtS8vtknTSizVsDuvfS8btvZaNqRnGysrLrKx339v34+fbgussw0Yvr6N6BPsLDSojeUPHGHrrzHYujVfZDMmxb4X++6k6YusedcBNmL9dWyVujR3qeN2JFQyM2Lf/jmUlEW8YkSkEXv22Wft8MMPt5KSkviYxmnZsmX2wQcf2Ouvvx4fIyIiIiLZ1mzUqFEVMe4XPnkI85+nnXaaG9+YFBUVxX8SkfrQr1+/+E8itSNB8fTTT9vIkSMtn35mGikSLPxN3GOPPWz33XePjxURERGRdPFcmJeXZ82aNav6hPvd/SQiIiIiIiIikkNKUIhIozJ+/Hg7++yzbZ111nEDPzMuiN/PPfdc+8tf/mIDBw60bbfd1mVq58+fH5/C7IsvvrBddtnFXn31VTv44IPdtI8//rj7P2qRffLJJ3b00Ue77++333720Ucf2c0332wXXnihlZX92SNLKstKZtq0aXb++ecn3R7fTOKHH35w/z9ixAjbaaed7Pnnn7fy8nK3DXvuuacbz///8ssv8W8mxjY89NBDdsABB7j15rtHHHGE205fq45p2F62m/HsJ6ZlWSz7jz+qv4OX5fptYf1ee+21qnkFMd1VV13l9hXzY99dcMEF1dabGgts85NPPumWxfyC2zdnzhy76KKLqpYVtT7p7ls/Letz/fXXVx3DSZMmuW1/9913XS0KzhvGge0bO3asm3ey5YiIiIhI7ZrHHrQujf/s+IdJPjfeeGP3c2NCx4giUn94i0yukDQ4+eSTrXXr1vb3v//dttlmG/v000/tpZdesg033NA6d+5s48aNc//HzyeccILtvffe1qpVK3vggQdcwM10zZs3d0Eu47755hvbd999bccdd3Sv8O3SpYub55lnnmkrr7yynXPOOVZQUGD33XefTZgwwXr27Gmbb765tWjRIuVlJUKShO3h+6eccortsMMOru+UO++8061Lnz593HQEuy+++KJLEqy55pp25JFHuvnff//9rlnb559/7oLsjTbayCUFJk6caJtuuqm1bBn9Hh8CeZIOTzzxhP31r3+1448/3tZff3379ttvXUKAn7t3725Lly51Qfn7779vX3/9te211162//77u313zz332Nprr219+/Z18yQZcOqpp9qsWbPsjDPOcH8/aNrB+v3+++9u/7Zt29Zmzpzp9i3B/zHHHGMHHnigW9YLL7zg9i/r3aZNG7d9JF7YRyQD2OZNNtnEbd+XX37p/m/YsGF22GGH2W+//WajRo2qtj512bckQFgO58B//vMf19Rxgw02cOvTv39/+/nnn12y6tBDD3W/c6w5V/72t7+5c4Tt32KLLdw4zoHgckRERESk0scff+yacwQH8KkEhYikJVcJisWLF9vtt99uvXv3tn/9618u+Ft11VVdUE7nhe3atXPjXn75ZRfcXnrppbbaaqu5PjOYhiCZUvKtt97aBcoE2dQgOP30012QPGjQIBeYcg+57rrr3LyYx+DBg13gO2DAAFdKT2DqExSpLisK20NQvcYaa7iaACyfZWy//fau9gBJB59kIIimdgfJEh8cs34EwkuWLLF//vOfLrhmHbixv/322y5QJjiPwhtjSE4ccsghrgYFQTTBPutCAoD9OnTo0KoEBUkF9vlmm23m1pFtHDNmjJsXSRj+XjA/1vPaa691/++PDfuI//cJis8++8wlDy677DIX/JNQWG+99axDhw5uvbfcckvXV4VPUHBcr7nmGpeY8dtHcoTE0EEHHeSSSOyLr776yiWuSK5ksm+ZH+vFtjPPrbbaylZaaSV33rN+/F3kuJKc8OfKkCFD7IorrnDnCtvN///0008ugZUsUSQiIiKyIkqWoFATDxFpFKjST8BH9XuCWa9Hjx6udsM+++zjfifovvXWW12JtkctBpoSkDhgCCIQ9zdFTJ061QWmBLMExx7BLgF6ULrLCiJBQpBP8EuNAG7UDATwBLSU9pMY8AiCSUL4dSVAZmC9CgsL3TgQjFNDItzcIYiEBEF+uLNH5tOrVy9btCj+WqA4lkFiyCPRwO/UliCRQEKAhAzBO4kAr2vXrq6WSxAB/3//+1+3j4JWWWUVVxMivM/C29e+ffsa+4J9SGKBpAIy3bd8kjjhnEv29hF/ruy8887VzhWWy/lDIkQdN4uIiIikTgkKEWkU5s2bZ5MnT06pyjwl9pRu02Thueeec6XolHQzLhx8hxFsU4JPU44ggnKC97C6LosmDpTeUzuAGhzB4aabbnKBLfPwgj0cB4XHJ2tSEkb/FQTZNOGg6QNNFagxMXfu3PgUlZhn1LI9kgp8h6RFePndunWL/1SdT2pQS+Lqq692NRh41W54n0Vtd3gcPweXm619Wxtqr5CYCCZQPMZFbY+IiIiIJKYEhYg0CvQHkEqwR1BI3wY0y6BfhkcffdSVaNMHQSqS1XoIy3RZoHkBfSyEB2oAMN/6QO0KmrfQPIOmIATyJAuonbLWWmvFp8oO+m8IItFEMmL11Vd3/TlQ+4VkRX28ujMX+1ZERERE6k4JChFpFCiRJqilM8YgSrHpz+CWW25xge7o0aNdVf833njD9XVAIH7WWWfVaFKQCP02UK2fZgJBNGWgSYNHIiOTZdFUgb4kKOlvaN99953bX3RWSWKCvjWoWUCHmeGEQipoakIzl+nTp9doWhJs4kBtEzrOZPn0WUEHpSR1Lr/88qwmDBpq39LnBedccXFxfMyfGEfTkUT9gIiIiIhITUpQiEijQH8G9Bfx3nvv2cKFC+NjK/sBoLNIOqgkWUEJOcEuAaqvtv/rr7+6BEIq6HuA79NZJMGnR20JluNRmyOTZbG+dA5JcoO+DjwCfPq1OOqoo6r1k5BNbAvNWKhB4RMSJA94Xabv/DIdJAToxJJOJGmG4xGkv/POO/HfKpNJ/D/9StApJ00rQLKHt2hkS0PtW3+u8BaZ4LnCOeA7G+UNJSIiIiKSGiUoRKRRoK0/r7nkVaPnnnuuvfXWW+7VlNQCICCleQKBMm9S4BWP9KlAx4i8NpNmGHRmmAre1sDbIZj3eeed55ZDp468qjLYYWKmy/Lbw6s1+Q7LY1m8EYR50uShvoJbaniQ5OHtH6+//rrrg+LKK690y2a76oKOIukfhOPBfmC+HKf//e9/8SkqaxzQGSbbeuONN9qHH37o3vJx4oknuld91nXZYfWxb3lrC+tH4oFkCgkqzhWa9pA0O/vss90y2B7eMEIyi/PId+jKucO0F154oauNIyIiIiI1KUEhIo0GJf68fYIA9IwzznB9J5CYINDmFaE0NSDYJTCkuYUPTo8//njXcSUl26mUnPNqSF5TScePlLY/++yzrt+E7bbbLj5FZbOGTJflt4dEx8UXX+wCW5qwELzvuuuudeq4MRU0leG1oQTKxx57rAvc6QSU4J3lUislWCMgFTTB4ThwPFh/mt1QS4KA3GN7eK0px47aDQcffLBrJrPTTjvZ3Xff7WrITJw4MT51ZrK9b0k0kNig1gz7jOQHeCXpXXfdVXVOXnDBBa4zVfYl6yAiIiIiqWsWewivoGov+KQjOv952mmnufGNCQ/WfntEJLsI6qjWviLiFZj0lcBrTQl26yt5ICIiIiLSlI0cObLqLWrBt6m5391PTQilmiJSP1aE64uOHqmK/8orr8THVGI8rxIN9jchIiIiIiLZ0+QSFL69r4hk34pwfdEZJ80CaKbBKzB93xL0rUAfCzT/EBERERGR7GtyCQo6MevYsWP8NxHJFq6rbHViuDyjlsipp57q+pbglZgHHnig3X777bbjjju6Phboa0FERERERLKv2RVXXBHZBwUD7a0bK3pYp5d6Xl/nt09E0kNTBgJ2ak6sCMkJERERERGpX3RgTpzh+pwI9UHR5DrJFBEREREREZHl0wrVSaaIiIiIiIiIND5KUIiIiIiIiIhIzilBISIiIiIiIiI5pwSFiIiIiIiIiOScEhQiIiIiIiIiknNKUIiIiIiIiIhIzilBISIiIiIiIiI5pwSFiIiIiIiIiOScEhQiIiIiIiIiknNKUIiIiIiIiIhIzilBISIiIiIiIiI5pwSFiIiIiIiIiOScEhQiIiIiIiIiknN5ZeNftGsvecTG/BofIyIiIiIiIiLSwPJeeO4TWxj/RUREREREREQkF/JKOveN/ygiIiIiIiIikht5e+8wOP6jiIiIiIiIiEhu5OU3i/8kIiIiIiIiIpIjeouHiIiIiIiIiOScEhQiIiIiIiIiknNKUIiIiIiIiIhIzuVdfPcbsY+x9sT1l9ill75r0yrHi4iIiIiIiIg0mLwjdls39jHANt/3cDvssGFWWDleRERERERERKTB5A3o0Tn20ca69R1gAwZ0jf0kIiIiIiIiItKw1AeFiIiIiIiIiOScEhQiIiIiIiIiknN51ncLu+yy/W3ESvExIiIiIiIiIiINTDUoRERERERERCTnlKAQERERERERkZxTgkJEREREREREck4JChERERERERHJuWajRo2qiHG/8Lls2bKqz9NOO82Nb4wWLVpkCxcutN9//91tj4ikr1mzZtaqVSvr0KGDtW/fPj5WRERERESkbkaOHGl5eXku1vCfcL+7n5qYkpISmzt3ri1ZskTJCZEMcP1wHXE9cV2JiIiIiIjUlyaXoKDmxIIFC+K/iUi2cF1xfYmIiIiIiNSHJpegoFmHiNQPXV8iIiIiIlJfmlyCgj4nRKR+6PoSEREREZH60uQSFOpzQqT+6PoSEREREZH60iQ7yRQRERERERGRxkUJChERERERERHJOSUoRERERERERCTnlKAQERERERERkZxTgkJEREREREREck4JChERERERERHJubx58+ZZ1FBSUhKfREREREREREQkc+QaonIQDHldunSxqCE/Pz/+dRERERERERGRzJFriMpBMKiJh4iIiIiIiIjkXLNRo0ZVxLhf+Fy2bFnV52mnnebGNyZFRUXxn7KjvHicfTZhXvy3KF1s8HpDrbBV/FdbYNM+HGNF/UbYJn06xseh3IrHf2YT5na0fmsOtz7tI3JDC6fZh98WWb81NrE+HeLjwhbNsG++mWKL2vW3NdfqZe3jo2tIZV5V4utmg239IYXWMj62alviv0ULb39Aquv6e7GN+3yCRe/lNtaxoLMV9uhrPTv9uWYpqyi30jnTrXhOic0r/S22pS2tbacu1rVHT+tR0M5axCeLtshmfP2NTVnc3vqvuab1SrgByfZTissrX2DFs2bbrDnzrPS38tiIyu/ldy203l07WctmlZMlsnTuRPt0/CyzbkNsg0EFtWxXZvr16xf/qeE9++yzSe9Lw4YNs1tuucUGDhzopr3rrruqfq8PLOPpp5+2kSNHukww1dVYv3XXXdf+9re/xacSya6ysjK78sorrXv37o3+PPv999/tlVdecdfo6quvHh8rIiIiTRnPznl5edasWbOqT7jf3U9Si/ZW2Lu/9e8fNeRb67T24gIrmjjDFi2L/5qmRaVzbFGHjtZx8XSbW1rHmaSspbWP3ObY0K+7dXLTcEK5H2pId1079Rliw4cPrzYMG9zD2i2da5O//9omzVsanzJFS4pt4lef2fc/LzLL72uDmOewAda9TZn9Mv5r++rHYiuLTxppUanNWRxb/w6LbHpxqdW6Bd0H1Fj/4UP6WX6LUiuKLW/sjNh6RCgrnmhffjbGJs/5w9r3GGDD3HcHWq/2f1jJz9/bZ2MmWcmS+MSRllppySxrH9vXLWfPtrlJN6rx69atmx133HF29tln1xj22msv69gxmBgUkeXZtGnT7M4777QlS5Le5ERERGQFoQRFSlpbl569rFevqKG7dUy3uHphkU2aGR2sJrWs1OZOX2SduvexbvnlNm1OSSw0rU9tLD9ym3tYR1tspdbSCgf3s4Koig11WNfm7VayTp06VRvyC3vZKkOHWp925TZz5tzkCYWgPxZY0dgJNqtFPxux9nBbpVeh5TPP/ELrtcpwW3tYL2s1Z4L9mCBpENsAKy2ebos6d7M+PfKtfHqxldS2Aa071Fj/TgXdrf+Q1WxwgdmCKXMsnKdZNn+KjZkwy1r2jq3T2oOtf8/4enYqsO79B9vaawy2wiUz7afpSfZf2VybPdusU+8+1r1lic2cV4dzqxEpKCiwffbZx44//vgaw5FHHmldu3Z10+2+++724osv1lvtiSjUorj//vtVe0JEREREpA6UoGhoBQNscJ/2sWB1kiWMjRNY9muJTStvb/kd8mOBb74RleaitLys+CcbV7TAOvYbaoMK28THVpfVdW3e0fK7xD7nlxuNH1JRNneaTaNpxip9IhNILfL7WJ8ebS3vt9+ikx7LFljJ9HJr37mD5a/UxfJtls2eV9cNaGMdurABZVZeLcuwyGYWzbDyDv1t4MqdoptltC60fit3sTbLymzJH/FxIWWlxVZiPSoTIt1a2qLpc2skQlZENL/YZZddbNKkSe53ml8cfvjh9uSTT9rzzz9ve+65p0teHHzwwfbRRx+5pm3eH3/8Ya+++qodccQRNmLECDfdAQcc4L7H/yXil0GzEnzxxRfuu4kG/t/75Zdf7KqrrrJtt93W/d9f/vIXu+CCC9z42tR1fT22/ZNPPnFJHr7PsmlCEFx2qstgv7MPmHannXZy2/PBBx+4//Pz2G+//dz3TzjhBPvyyy/twgsvrNpnyMb2fPfdd3byyScn3B6aSbDcm2++2R3/4Dr98MMPtmjRIrvpppvcdxn+/e9/u+/UJpXjmM65yM+M4//8+k2ZMiX+v9WNHz/ezj33XLdMpmUdqEI5f/78+BSV5yTXBfv9uuuus3XWWadq+36L3Q8ZH1wW+yKoLvvWz4/tDB5D1oV1HDt2rEs6sk/YN6CZKd9Ndk6KiIhI06MERYNraZ16D7Q+7RbYFJp6xMfWbqmVFM8wa9fVOrWPhbydu1qXWFja0KXlyxZOsx8nFJt1HWyr9umY4ATK9rqW2eKFsY92eSmesGVWWhx7yO3cw7ok7DeihRUMXNuGr1JoUSmWpSXFNsPaW1e3AV2sa0EsqJgxL43jFbTMliyih41W1jy4ATQhiW1Xl15dE/fPEdOm21AbMaintW8eH1HNIpv3S6lZj3zr2CLPOhX0tJbl06y41uoeK67//ve/9tRTT9kxxxxjo0aNshYtWtgll1xiP/30k/t/ArDHH3/czjvvPFt77bVd9fPbb7/dJYDOP/98e/PNN910qSAoY3nB4Z577rGNN97YtttuO1t55ZXddDNnzrQzzzzTfvzxRzvjjDPswQcftIMOOsjeffddF+yWlsaOcQKZri/fJ2g8+uijrXXr1i6oPPXUU+3zzz+3yy+/3L3uKd1lEHjy/yeeeKKdfvrpNmjQIDcParQQuNJXCAExn8zzs88+i38zO/v/5ZdfdttTWFjovsv3OL4nnXRS1XH2SISwzfvuu687H9jX7PNzzjnHFi9ebP/85z9dYH3DDTfYc889F/9WtHSPY23nIl5//XU79thjrUePHjZ69Ghbf/31XWJh8uTJ8SkqjRs3ztXcIcnAcWPa7bff3u677z677bbbXF8P3ty5c900CxcudAkMv30kAK699lrbf//9q/YF2z+bKlpxddm3e+yxh917773Wt29fNz3JMHB9sHyaDV5xxRV2yimnWPv27d058MILL7jtpkYUy/HnZNRyREREpOlQgiIXmne0PgP7WPuFU2xSqtUofp9vc6jG37NLZTDbqpMVxoLmRbNL6xg018GSYvtpbJEt6NDPhg6MDuydbK7rH2VWOn2yFc03y/fzq1W5LaHAsEO7xOuYVLnNL54VSHC0jAX+XcwWz7HSdDdg2VJbVDzFimbE5tKrwDoFqkmUly2M7Y+W1qFtHTr/9BaW2PTFZr26xGtgdOhkPWOzm1VSWs/Nfxqvzp0727/+9S9Xus9w8cUXW8uWLatKignaKEUmOCIY2mSTTWyHHXZwAd1aa63lAsFU0eRjo402qhoILidMmOCCyLPOOssFeaAEmaCMdWGdWCYlxwScBKIElIlkur5z5sxxCYHDDjvMBalbbbWV68vj6quvtuLiYrdu6S6D2gcElLvttpvtvPPOrjNH+hqg+ctRRx1lF110kW2xxRZu+5jfjBmxCyQu0+0hmH744Yft73//u9ufm222mdunt956qwuIo2phEByzzUxHUoWS+6FDh7p+Tfg+60KwT82BZH0lpHscazsXSRCQwCDAZ/tZF5oxsQ8nTpzopvFI8gwePNjNg2PItCRJmJ5zjmPisY+oueCPg9++r7/+2u2LXXfdtWpfMG769OlV36vrvmWdLr30UltvvfWqag5xfVA7om3btm5/k5Bq1apV1blCXzN8h+UwDxItTBu1HBEREWkalKBIyTyb8PmH9uGH4WGcFf9ZKJWWvJX62MA0mnqUzZ8TW4t8K+zkQ+6W1rmweyxobojOMlFmsyZNsGIrtMFD+ljHyNL8SnVd13kTPqu5jz/50r6fUWadBqxpq3ZPMd3w+xKLxex1P7vL5tmcWByRX9ipKsHRsnNX6261dJZZNKbm+n/8qX0zYb616DXERqzcqfoqVTCnjtamRn6Ct4KE5hMbplGLpJplVjr3Fytv2cfyV/Jz7mj5vdvnrPlPQyAI9NXng0OwOUcya6yxRlViAARJlNL6NwDRySZBI4Fl8+Z/nugrrbSSq/FA9fW6BEe+BgElybzpg1oFHsEbpelsR9Aqq6zikhnB0u+wTNeX4JOgn3UIfp+AkcTFpptumvYyqBkRftsLzQ9oarDllltWzYOemgk+STx4mW4PzR/YHmojfPrpp/bxxx+7geQCwe8333xjv/76a3zqyvOhd+/e8d/MBcDYYIMNqpbfrl07tz3+LVeJpHscazsXac7AfiN5wDp4fI/jEnTIIYe4RAF9tHisP+vCcsPLDm4fn2x3eF/07NnT+vTp47Yb2di3/D5r1ix3HBPx5wrXefAcYH223nprl4wheSYiIiJNjxIUKUn0Fo903+ARlGcdU27qscjmzSiJPb12saqYP6ZFp86xoLkhOstcZgum/WgTSzpav2GDrLB1fHSkuq9r8C0ewwb3sy6x77ct7G8j1l7bBvdsn/qrM1u1Nvdm1TrmbRbNm2kllm9dVqq2Ada5myXvLDP4Fo8hA6w7r0Xt0MuGrLOWDetfYG0i33aywMpqdKwRentKj/z4+JClJVY8vdxadutkHQPnYftONBlpup1lJnqLR6pv8Ai+yigZgmCq7BOAPfDAA65GAP0rUKpdXp5qbyh/IqCj+jyl35SsR6FJAaXnVI2nBgPNDAgKg6XfidR1fUlQsE8JjmuTyT4hcCU4ZVlBBN6+qUtQXZdFUE9NBfpiOPDAA6sNjzzyiGuyEgyiCYCjzodgYOxeeRU7b1KV6nGs7Vz00weTGCAZEHW8SJ6wf7799lvXHIUaEjQHYVx42cHt88L7Irzd2dq3tWFdadIS3kbmxb6I2h4RERFpGpSgSEnrBG/xqMMbPIJSberhXncZ+yyZaF8GS9U/HW+z+P96Li2v7BSzzAoHr2p9OtRyymSwrsG3eOQX9rGhwwdb+9IpNuaHabYgrQLrNtaGQsSFi6M7wIwrmzXOxowvspJqsc4iK53NsSixiV8G1v/DT228a4adpLPM4Fs8Cnq6t4/0sxk2fsxPVhxRK7xl25WsvZXbwt/CwVbo7SndooPupaXz3T4tn/69fRzc19/EAqHY+KbaWWait3gE3+CRCYI8AkuaFZBIoM8EqvxTyr/hhhvGp0oPpb30BUAJ+6GHHlojOCSwI4hdffXVXWeNTEuQy5tIapPp+iarjeBlY58kKzEPysayqMFB3w3UqAkPBO5RCZFsyOQ4poOkAf2FBJEAoS8LmknQ2eSjjz7qap2wH7MpV/tWREREVgxKUORYtaYev0ZFk/HXXVq+9RsSL50PDqv0sJb1WFr+Z6eYA21Agjd2/CnL69q60AYN62cdFxbZuEnFSZMN1bW0DpS8zZ9piRdVZqWxYGLBby2sVaCJxbLSua5Ph/x+f9bm+HNYxXrEpk25s0wSUEMGW6EV24TxEUmW9p2sa7tYUDNnXhrb5pXZ3NmzYpvaw1apsZ7DbUi/2Pars8w6of07HTPuuOOOriSaYOyOO+5wVehJPqWLAJWOApcuXer6IghW1QcB+dNPP+2qyT/xxBOumjzBJX0OEGzWJtP1pekCfQv4tyd4lFLzFgeaeWRjn1BzgtoawQ4XQdMH38cBMl0WCSyaAQX7tWgImR7HKHQYiXBzBpI91C7xaL4xevRod4698cYbro+Hhx56yPVzEm5ukomG2rdsN9sXPifZx+yLLl26uP47REREpOlRgiLnAk09pkyLjwuIv+4y9nRvPQripfPBoXt36x2Ld+qltLxap5gFsbC/FvWwrnkdeln/fh2tfM5kK5qbuFp3WJuCXtar5SKbMnGaLagRoy+zxbOKrKikpRX2Db5BY5ktKJlm5dbduvUoqLn+nbpbd/p3SKffD14TOqDQWi4ssikzF4VanbS3HoP6WceSifbjzyVWHtW0felimzWzekDnlJUaLypp3zu2TjXWs5MV9OgW2wqzWbPn1iH5sWIjgKZjwM0339w6dHCNhRw6ORwzZkz8t9RQO4HA8a233nIdEUbV8KDTReZNe31Kp32VeoJOag7UJtP1pdkF/U2wjsHaFDRRINgmwM3GPhkyZIgLKt9+++1qy2EZvJ3By3RZdBRJ/wwvvfSSSw55/MwbJHg7SH00D8j0OEah/wdqY4S3hX1GkyGP7aEGA4kQmoX5ZhU0t/AdUmZDQ+1bf66QnAqeKzQx4S0u7JNUmnOJiIhI46MExfLAN/WI/xpU+brLltana36CPhjaW5deiUvLF8ye4Uq7agyJmilUKbe5RROsuNzcq0IXzIqYR3woic8q03WNlmcde/a3Pu3KrXjSZJubaqekzTtZv9X6W/6SIhvz1fc2cUaxlZSWWuncWTZl/Nf29cRia9NvqA0qCKRd6NOBt230LrT8BE132nfpYfm19KUR1qawnw0oiO3Dn+kQtXqKIq9DH1t1aA+z6WPts6/G2qSiWTaX9Yzty1+mjLMvP/3aJs4269J/hPX4M1Zz/WSUxtakR6L3qLbIt8LeVPdIVotEovDGiXXXXdf+8Y9/uFcd0mzmlltucX0gpBt8EcjxukY6+6P0l/4UggOvS6SqPp0osqwbb7zRLY9XOfIGBTrV9KXoiWS6viRNaDJDPw+8MeH99993HT3Sf8E222zjauRkY58QbPP6SjoJ5c0OLIeaEQS2QdnaHt70wNsmCHJpMkI/Je+995799a9/rXWf1kWmxzEKCRpeU8p6E/yTROLYXHDBBdVqnTBvkgccQ2qfcG49+eSTrsnHV199FZ8qc/Wxb9lv1CpiniRTSOhwrtBMhW3x5yTbw76kxg39zfC2E/Adkmj0TyIiIiKNX17Z+Bft2ksesTF/9mslOUBTj/69wnUU4tX42/W2gk6Jc0ltusRLyyNeLVkyc4prm1xjWFx7bQT3komY0llF0fOID4vcQjNf14R8Aqe82CZNSz0xkNe+lw1bey0b0rONlRUX2djvv7fvx0+3BdbZBgxf30b06VgtQ1c2b7bNsvbWuzD0to2gNgVUEDGbPd9KU96ANlbYf7B1iS25aOLMGs1D2nQZaCM2WMuG9Wxtv8+fbuNZz7ET7JfYNdk59r0R669jQ3t1/DPps6zU5k6PzSW2IgUJW93kWafC3rGtWWRz0n436oqN4Oiyyy5znwSF9ClAdXOCaTq4/Pnnn6t1BJiMuz5iQTWBY7hTQQYCWEq7DzjgAPdKSKrnH3zwwa7WBa9vvPvuu13thvArJYMyXV+Wz+tA77nnHvfKUZp10HcC60FniG3atMnKPmE5BJa8npKmG/TFQTMIOpEkIeFlc3t42wRvTGE+9Ptx++23u7dX1IdMj2MirC/rTU0CkgI0H6E2zt577x2forLTTIJ3khk07SAxQaKEvlnoJJP9xT7MVH3sWzrD5DWq7DOOO7UkWA6vOr3rrruqzkmSPtTeYDnBN+CIiIhI09Jsq/4FFd8uGGZ7n7G/rd6xouo1anzy8NHY+NeziUj9CL8+UiQTdCx5yimnuCB1zz33jI8VERERkaZq5MiRVW8z859wv5d07ut+ERERqS/0m0DzAPqXCBo/fryraaK3P4iIiIhI3t47DI7/KCIiUj/69u3r+pegTwH6E6CfBJqS0NcFr1+lY0kRERERWXGUFX1mLz10k11yySV24z3P2qe/LLW8/MraFCIiIvWGt8vwys0tttjC9SNAHxz0k3DEEUe4vi7Cr18VERERkaZr6ZS37K77X7YfW61v+x9+uO0wwuyb2x/RWzxERKRhdOnSxfVtxNsfeC3mU0895Tp2VHJCREREZEUy0z5/7X2bv9qedug+m9iwAQNs2Ia72xFH91SCQkREREREREQaSMlM+3GW2fprDLL8+Ci06LeOEhQiIiIiIiIi0kAWL7QpsY8O7dpU/l4l3/IuvvuN2A9j7YnrL7FLL33XplX+j4iIiIiIiIhIg8k7Yrd1Yx8DbPN9D7fDDhtmhZXjRURERERERESyq32+DY19LFxcVvl7lRLLG9Cjc+yHNtat7wAbMKBr7CcRERERERERkXrQubcNGmT22bc/WUl8lPPLWPVBISIiIiIiIiINpbON2HIr6/PDU3bvw2/amB8n249j3rAHH/xACQoRERERERERaTgtem5mh564p61hY+2VB++3Z94tsYH7HWzNRo0aVRHjJuJz2bJlVZ+8r76xmTp1qlt/Ecm+Zs2aWd++feO/iYiIiIiIpGfkyJGWl5fnYgv/iWbNFjW9GhStWrWK/yQi2abrS0RERERE6kuTS1B06NAh/pOIZJuuLxERERERqS9NLkHRvn1769ixY/w3EckWriuuLxERERERkfrQJDvJzM/Pt4KCAmvdunVVexYRSR/XD9cR1xPXlYiIiIiISP3o0PQ6yRQRERERERGR5VPiTjJjv7ufRERERERERERySAkKEREREREREck5JShEREREREREJOeUoBARERERERGRnFOCQkRERERERERyTgkKEREREREREck5JShEREREREREJOeUoBARERERERGRnFOCQkRERERERERyTgkKEREREREREck5JShEREREREREJOfy5s2bZ1FDSUlJfBIRERERERERkcyRa4jKQTDkdenSxaKG/Pz8+NdFRERERERERDJHriEqB8GgJh4iIiIiIiIiknNKUIiIiIiIiIhIzilBISIiIiIiIiI5pwSFiIiIiIiIiOScEhQiIiIiIiIiknNKUIiIiIiIiIhIzilBISIiIiIiIiI5pwSFiIiIiIiIiOScEhQiIiIiIiIiknNKUIiIiIiIiIhIzilBISIiIiIiIiI5pwSFiIiIiIiIiOScEhQiIiIiIiIiknN5ZeNftGsvecTG/BofIyIiIiIiIiJS76bau5dcYo+MWeh+y3vhuU+s8kcRERERERERkdzIK+ncN/6jiIiIiIiIiEhuNLvynH0rRt4zw/Y+Y39bvWOFLVu2zCoqKj9PO+20+GSNz6JFi2zhwoX2+++/u+0RkfQ1a9bMWrVqZR06dLD27dvHx4qIiIiIiNTNhsNWtolzzApX39z2+r9e9tM/7rUZe59lB6zR0fLym8WnakJKSkps7ty5tmTJEiUnRDLA9cN1xPXEdSUiIiIiIpKJpQO2tAMO+T/bvHCyPfXipzYjPh5N7i0e1JxYsGBB/DcRyRauK64vERERERGRutp/u7VsUP9Btvrm+9qBA5fa2Ph4NLkEBc06RKR+6PoSEREREZFMtIh/In/4BrZJ/Gc0uQQFfU6ISP3Q9SUiIiIiIlnToo117Bn/OaZZQUFBoJOGre3Iizez3o24k8yioqL4T03c78U27vMJNi/+a5Qug9e3oYUt47+VW/H4z2yCDbb1hxSaH4sF0z60MUUtrXDIWja4IPg/cfFlWbX5hS2yGV9/Y1MWt7f+a65pvRL1p7hwmn34bZH1W2MT69MhPi6J8uJx9hmLXm+oFbaKj/TbMjf+awKJl5HiutoCm/bhGIs+o1pa205drGuPntajoF21LGBT169fv/hPIiIiIiIi6Rk5cqTl5eW5Dvnz8krtq//cZBPWjneSecRu68YmGWCb73u4HXbYMCus/I40Eu279rH+/ftHDvlt0ukBNRb0T5psc+taQL6o1OYs7mgdOyyy6cWltiw+un40s9b50dvcv38v69KWaVoyWbR017X7ABs+fHj1YUg/y29RakXjv7axM9Qvg4iIiIiISNqWzrc5E+M/x+QN6NE59tHGuvUdYAMGdI39JI1J6/ye1qtXr8ihe4c0y/XLi23StBJbGv81dcustHi6Lerczfr0yLfy6cVWkv5M0tDCOnaL3uYurX63Bb+Zdew3NEHNiDqsa+sO1qlTp+pDQXfrP2Q1G1xgtmDKHCut34yMiIiIiIhIkxAMv0rGfWnfxn82W9j0+qCQuupjg1ftYuUzf7KieWlmF5YtsJLp5da+cwfLX6mL5dssmz2vLP6fDWfZwmn244Ris66DbdU+HaNP7qyuaxvr0KVL7LPMyus1ISMiIiIiItI0PPLi5zZuyhQb9+FjNvqJMfZnN/wdlKAQL89ad+1vgwvKbebEorRqQCwtKbYZ1t66dmofi9m7WNcCs5IZ86xBGz4sKbafxhbZgg79bOjAwoQ1gbK7rstsySJ6AWllzXUliYiIiIiI1KrznE/s8f/8x14b19bWP3I/2zw+HnnWdwu77LL9bcRK8TGyAmtjhf0HW5fymfZTUapNPcptfvGs2FnWw7q4JhUtrVNBF7PFc6y0oTIUfyywaeMnWLEV2uAhfaxj8/j4GrK4rsuW2qLiKVY0IzaXXgXWaUXqJVNERERERKSOdj38JLvooovs70fuZpv0G2bbXHaZ7T+i8u0GKvdt5OZN+Mw+/PDDGsO44vL4FGlqXWj902nqUTbP5sw1yy/sVFVroWXnrtbdGqKzTCyz0qnjrGhhR+s3bJAVto6PjlLXdS0aU3Mff/ypfTNhvrXoNcRGrNxJF5KIiIiIiEiGFFc1cone4pHeGzyqa5NGU49F82ZaieVbl5UCjSpadLLO3awBOss0Kyv+ySbMMCscvKr16ZD8dK7zugbf4jFkgHXv1NKsQy8bss5aNqx/gWWwq0VERERERCROCYpGLtFbPNJ+g0c1qTb1WGSls2kbUWITvwzWMPjUxs/m/+u3s0zfKWabfkNtUGGiXie8DNY1+BaPgp62ytCh1s9m2PgxP1nxkvg0IiIiIiIikhElKCRasKlH8e/xkdUtK51r0xeb5fcb8mcNg6phFevRsh47ywx0ijmwV4I3dgRkdV2bd7Q+QwZboRXbhPHTbMEf8fEiIiIiIiJSZ0pQSEJVTT2mTDHeVVHdMltQMs3Krbt161HwZw2DqqG7de/d3mzxdJtbmuWeKEKdYrav9Syuh3VtXWj9BhRay4VFNmXmogboa0Pw7LPP2sCBAxMOu+yyi02aNKlq2uDv9YFlHH744VZSUuJ+55Pfb7nlFve7SDqWLVtmH3zwgb3++uvxMSIiIiIrFiUoJIl4U4/4b9UsLbFi3mDRu9DyE7Qmad+lh+VbuU2bU7OZyILZM2zGjIghhSYhi2bSKaZZ25Va2e9zI+YRH2YtjC81w3VNpE1hPxtQENuWnyfZjEVKUTSUbt262XHHHWdnn312jWGvvfayjh07xqcUaVxKS0vt7rvvtkWL6qXemYiIiMhyTwkKSY6mHqvkx3/5U9m82TbL2lvvwiRvsGhTEAsmY5+z51tpKOovmTnFpkyJGBbX/vaRZRWV0/w2d0b0POJDSVmFmy7TdU3MJ3AWWNHEmfXTlEVqKCgosH322ceOP/74GsORRx5pXbt2ddPtvvvu9uKLL7qaFQ0lPz/f7r//fvvb3/4WHyMiIiIiIqlqNmrUqIoY9wufVDH1n6eddpob35gUFRXFfxKR+tCvX7/4Tw2PJhV33XWXa0JRW+IhPC3NL7in7bbbbtaqVSv797//bV9//bVtsskmdtJJJ9lGG21kzZpVvpLljz/+cNXsH3nkEfv8889difaGG25oBx54oO28887WvHlzNx3LePrpp23kyJEuOeGXse6667okxRdffOGSKYk8/vjjblr88ssvdt9999lbb73lmqX07t3bNt98czv55JOtZ8+ebppEuGePGzfObZNvHrDtttvaUUcdZUOGDHG/J8P3P/30U/d9mhh07tzZdthhB/d9v+x098kBBxxgN954o5WXl9tll11mq622mts32223nUsgPvPMM7bjjjvaueeea+3bt7dp06bZbbfdZq+88oqbT6L1nz9/vv33v/+1hx9+2K0Dy996663du7Qvv/zyqv1ZVlZmTz75pL3wwgv2ySefuGWst956duyxx1Yda6a58sorXa2c9ddf363vZ5995rad47fyyivbPffcY0888YSbJwkwtqtNmz875U1lvf0+oZbPgw8+6KZlff7617+6adnfHHOWOXbsWPedYcOGVZ27mR5fERERkeUJz855eXnuecx/wv3ufhIRWUEQ3D711FN2zDHH2KhRo6xFixZ2ySWX2E8//eT+n2CQxMF5551na6+9tt155512++23u/5Kzj//fHvzzTfddKkguGR5wYGAd+ONN3aBOgEwZs6caWeeeab9+OOPdsYZZ7gg9qCDDrJ3333XrrrqKlf1PxmSCwTeixcvtuuvv959Z/bs2Xb00Ue74DwZtvf5559307Zu3dpuvvlmO/XUU10SgoB/3rx5ae8TEjP8/4knnminn366DRo0KP4/5oJu5nfddde5ILtdu3ZuevruIOHA+jMsWbKkxvqzfTfccIM7fkcccYSbburUqe74zZ07Nz5VZTLl1ltvdQE9+5n9zrYwT5IE3333XXzKSq+++qrb7n333dedE+xv9uE555zjlvnPf/7T9txzT7fs5557Lv6tyu1MZb0xceJEt6969OjhlkXi6qGHHnLryPp2797dzjrrLFtrrbXslFNOcUkdxiGT4ysiIiLSmChBISIrFEqr//Wvf9lOO+3khosvvthatmxpP/zwg/v/hQsX2pdffukCQmpWUMOCEnUCXIJHSrJTRa0KSuv9QCn9hAkT7LfffnPBaGFhoZuOUnOCdtaFdWKZNFmhRH3y5MnVgu8wgmmalfzlL39x27XVVlu5eRAEb7DBBq4WAYFtInPmzHHJh8MOO8wF4HyfvjyuvvpqKy4uduuW7j4hYCfJQW0Valf4QBskZwjAt9hiCzewLx599FE3v2uvvdYtn4F1oZlOcP3fe+89V8OEAJ3aDExH8oCkCQG7R20U1on9x3Ts+z322MMF/W3bto3sOPWKK65w282+I7Hy0Ucf2dChQ11CY7PNNnPbvv3227vkBkkI1inV9cb06dNdMoN1Yn5+3b755hv79ddfXY2KNddc01ZaaSXr37+/q+3BuEyPr4iIiEhjogSFiDQqBMyUvFM7ITik+saONdZYoyoxAJII9Fvhm4fRySaBIAkC32wBBI7UeKBZACXe6SIBQZ8Y9957r2vqEKxVQNBJKT/bEbTKKqu4AP7336Nf9QtqEHz11VcuEUBtBI/1JaCmJkSypm8EzgTzrENwewnOSVxsuummae8TmickagrENgY7MiWZMGbMGDcvkiAff/yxG2hqQeLo+++/dzVMaCrCOILy1VdfPf5tc9u86667xn+r1KdPH1dThURBEMe9V69eLoESxDlBkxqPJAZYlt9elsM2+WaQqa63R1OMESNGVKvC2LdvX5cg8m+BiZLp8RURERFpTJSgEJFGJdFbPFJ9g0ewnVsyBNwEmASdDzzwgKsRQF8ClGgTLKeLavqUtNNvADUQolASTk0OmhxQg4EmBvTXEA6ogyjNJ3ANJl08xtX2fRIU7FMSNbXJ9j4BfUqMHz/errnmGtefRHC46aabXPDN/JcuXeq2gyRBMFAH20lSJIx1IsB///33XbMUai3QbCZcI4UkRNQ5EUzGuDaRsXPHS3W9vVTPu7BMj6+IiIhIY6IEhYg0Kone4hF8g0cmKB0nQUDVfRIJF154oavuT1MGOoWsC5pK0AEmtRQOPfTQaoEv6OeBZAQ1A/bbbz83LcmKcA2A+pBKbZD62Cdh1NagBkx4oJYCTTiouZCsJkkQ20T/DqwbzUhIIpD4oZkE65xNta23iIiIiKROCQoRkQDeykBpO2+Y+Pbbb91bE+644w475JBDXKeQ6SLRQH8B1ACgBD9c+k/wzxse6NuAt0XQJwF9G9C/QyoBLh1bsgySIGGMo2kB/W4kQo0E+m8INzOg9P+EE05wAXi290kQ/SzQ5wK1EZLhzSvU8qBmQrjPBdY92MyBfUlnnHQ8SmKCTkCp1cBbM4Jv4MhEquudqUyPr4iIiEhjogSFiEgAwTqvH+UVnx06dIiPNddZJaXi6aAkf/To0a5jRzpZjKrhQRV+5k0/CDRT8M0IqC1ALYXa0I8BiYyXXnqpWuBOx4uvvfaarbrqqtU6qQyj7wX6m2Adg7UpCOwJ9OkzIpv7JIwECR1CvvHGG64/Bo914U0cNImhWQn9OtDJKE1lgm/hYDrWPdjMgWYPJDOoQeETEiSC6L8k0/X1Ul3vTGV6fEVEREQak+a77LLLpfGfHR7i/Ce9rTc2wTa/DaG8dJZNnfazTZ74k03+earNLP7Vyv5obm3atbOWSdM/i2zG15/bmEnzrHmXHtaxVXx0DQts2odf2HdTp7q21NWHmVb8a5n90byNtWvXska2acG0D+2L76K+l3w9y4vH/X979wJfd13ff/yTtGnSXHpycmkuDSFpIWkppVCEIVNE/3NO2U2mKMqmcxcd29yKm9PpBIdz7lrnVhwwJ6BO3aZDtyGo28AhAwqlpdS2oZc0JGnu6Wly2rRJ0//v/c35pb+cnFtuPb28no/Hr79zfud3fvdfej6f3/diz2xrSfi9ySGn1C5alh/7xlRjI4PW3XbQWg+02L4Dmr/XDh89Zidz8m1pgu2casz69z5t23a/YicKa6ysMNnco9a35xnb1uItf2iJF/gV2+LYJ1N5x2+Ld/y8cxNdWm0VhaeL1qc6Pv6Q+DtddqxwuZUHpk860We7n9lmfcHvxaa1JFj+1CHHSi9aZvFHdXS4zw61HbB9wWvs+ClbVFRsBQk2YaHN9Yn5XOhptbp2VIOB6dpMiJ9XDTmqmoIaSQxWS4ifrqoEKiXwxBNPuGBcT6kffvhh9wReAWJjY6ML1NU9qdahBiZVskANK8YvS41iqi0JNeKoBi9VEiE4aH6/gU616aAgW9U/FICrG051IamSF3ryr2UmogBcy1CjkAq+tR3aJn1fy1EpgvjGN4NUokP7ot4nFFCrpILabND7G2+80XWvqaTJTI5JonOU7Pgr8aAGH7/61a+6khlavtrFUPeb6qFCiZ0NGza49hvURaeSD+qG1W+TQsmARx991L1WN6FavtqeUKkUJSS0f52dnS5RpGVqX5QM0jZoGWqTQvztFzWAqZIj/vJ8So5oPZpXxznT7U52TOKn+9ujLknLysrcoHZVMj2/KkmiUi9qOFNVcfz9AQAAOJuoPTP9RgoOonGu6j4nGlK1Kg7PqRHr27vVtuxss2hO2C66ZK2tXbvGGqsKbOTQHtv2Qov1HY/Nm0g0Yr1HS6ykOGodfREbj01OqqrRW77WERia6y28OGJte7bZrs5kjaRVWWP899Y2W314kUXavO38Uacl/maRVaxocEWYEw6FebH5gsZsqGOnvbB1lx06vsRCdc0T61tTb+V5x63L284XdnnrS1XlfSxih3uKvOOSZ909/TYSm5zS4T6LJJtxOGKHUrbdF7bqRPsXG8IFiRq1G7W+/QesP7Pq8Ga5+Raestxqb62ecHVgmoYim3pUR2xw/w7b8mKL9ZwsstqVE+dv5YoiOznYZju3bLV9fRkdIcyAeoBQd5Qaf/SjH3VtQyhwV5UGPRU/ePCge3qdCb8BQyUf4htS1PCd73zH/SG+9dZb7UMf+pB7Gn/bbbe5YFpdSd5///2udIMC1lTU28R9993ngnEt52Mf+5gLrLXeYDIgEa1f3YEqAFZJAAW4agND2/GRj3zEJUDm85gkom3U+puamlxXqx/84AddAuezn/2sS+74/2kpCaBt0rFRIkDzKWnxqU99yn3uU1se6nVESRElCu666y4X2Ot4aHlKCAZLI8xWptudKe2f2h1RGxbabnVJK3M5vwAAAGcb5RoS5SA05GzevPlUsNSE34WaxuoK71wTrIe8cMZtqG2H7WjPtfrL11jdsrinVGOD1vrSLuvMbbD1V9R6oX68cYscfN52RuttTcWA7dq7xJqvXWXlCR92qQTFDmurX2fX1yXqoWDE+vZstZb+Wlt7XYOFAgUO9LR/R1u9rbu+zhJ+s3e3bX15wGovu84aSk9/USUotni/i5tetdoqkpbsmG6ke5dt3TdsFavW2iVVhdNKSowPt9vOF73z07De1tVOPyoy0uMtY+9Sa16da/t3D9qK9est8awqQbHFWk6VWdnQgJ2s32Brq6bXLR9q32K7h4qt0LsJFjVdY6srTqcA0h2fRCa+M/E6r3qNXbUyPLXkhkpLPKeDN3VdU6U7pzJu0Y6dtv2gFzCvWW314fhljXnX0C7b2THinb+rp5y/haai7cDZRCUb7rzzTleaQiVVAAAAcPbatGnTZA9nwZ7O3Hv3CjMz0mvt7VEralg5PTkhi8NWd1G1LV10zI4lKkUxPmSDHaNWVFps4WVlFrZu6xmY7ZPwAisuK/PGIzY6NjElUwXLKsx9cyx9K/5pjQ1aZ9ugF7RfYisTJCckt7jW6r2AfPHISJKSESMW6Rs0qw5ZqDRkVXkZlC7JqbCKmjyL9EemL3M8YoOHzGoqK21+a0LUWdOlZTbatdfaBmZ40DPlXWNtB4esxLvGpicnZLGFLl5pDcWj3nHvSlIKBji/qNTEHXfcMaWEn9p8UIJCJSlUJQIAAADnLhIUszAS6bNBC1l1WeJSALK4fKVdtXaVVSRopmFssM86rcgqQ973C8qsstxssHNglkHmuB2PDnjjJbZohmdz/NiwuW/mzqwYciJjRwatazTPapbHlSiYItdC9etszcpyS9iOvrcfXYfNqktLbHFuyMI1eTba4R3rNDmA4vAKK0pQzWN8KGLdVmOhTItHZCzX8isbrKl81Lr2taXdvtnwr7HlKa4xVcOprPUCsuFei5ChwAVAjVJu2bLFVdlQw5hqK+Puu+92VR3e+ta30psFAADAOY4ExSyMHldDnCVWOKve6kbtcF+3WWm1TcSeeRYq94LMo7MIMsfHLNrXam2d3lJqyy2UPDMQZ9zGon3WOvFFK0/4xQFree4pe+qpxEP7cGy2mOPH+r1/Q7Y0cbuZGRka7LCoedtTOrE9JaU13tHptsOR1BmARUUhqyyMWN+UDMW4DR32jnNNyEpS5l/abEeC/ZsYdltf0nYmCqyiocnKRrtsb9ugzXeOYuIaC6W9xvIK1KNC1IZHUja0AZwX1LbE5z//efdabTGovQy1haFuXGfT5gMAAADOLiQoZmzUC8Y1nuWhGxmwXi+WD1eEJksR5JVWWpUXZKasztC2Y3oA/fSztr3lsC2ubbZ1F4eSbFGiAPxpe3Z7ix3Oq7XmKxoslLD+Q+pGMovichrjpxQgF9qS+NoIapNh2voTBP6uOsao5a0IW4m/I8VhW1FoGTSWWWSh5UVTq3mMD1mkZ4mtCKcrPpGqkcyw5ac6zfkV1rAgVT38aywDSwpcNZ3xiWZkgPOaEhBKUqj3kK1bt7peLdRQp3qc8rtnBQAAwLmLX3Qzlmf5ruRD2n43EooOdNmgFxSXLQs8Gl8cstLlXliaqjpDsBeP5karCuV5AXytNW+40tY0lFvCziacYC8ezdZYFfL2oMRqmzfYlWsarDxpiYd8K6updS3FJxrCCZ/sH7UT8Q/y43qwqKtMXGVB1V7aR/OsqrQkcFFOJB5ssMsG0pQuKQpVTqnmMX5k0NrzKk21aFIrscoE+zcxVFlJmlIpBQtS1WOR5WVaEmV0xIa80TzU0gEAAACArCJBMQsFBXpmPWRHUz3WH+m23S/utrbBYMQetUiPIu1B27c1WKLgWdvTo89TNJaZX2yhUGhiKK+xVatXW7112p4de1N3Z2r5Vux/L1RuNavW2Op6s849O2zvPHZRubSw2vs3Mr1R0MUlVhUI+mvCiSLvMYsMdnvjUWvf+XTguDxl21t1vDJoLHNKNQ9V7+i0ouUhS5ufmLOFqOqRa/lLQ944kvoa84weG/aOWpEVFyTrMQQAAAAAzg0kKGYhrzhsYS947ErxWH8kMmADw8dtcaDOw3ik3zqOmoXrm0+XhpgcVlm1N2vGjWUuKrG65iarsD5r2dNuQxl3xJFrJXWXWlOlWV/Ly9Y+PLuSIPEWLwtZlRcqH0qXSEhkpN96erzjWr0qwXFptvpwmtIlTqyax0DERtRLSmesEdIzIVjVI3mjFTNSEKqYuMb6hlIczxEb6B0wK8ykpAgAAAAAnN1IUMxGQaXV1uZZtHW/tR+ZHjWPH+u2NnW5WVlnp2s0jNvQYLsXwlfZ8ury06UhJocqq1rhzXy0w/ojGYb4XmBc31hhecNt1toVnUFioMAq6hutIm/I2vZ3WnQ+chSLy21FU4VZZ4vt7T6auCTB6KAd6laFhKkmeqwoshVVVQmOS7lVL6/y5krfFaur5jE4YIPdg9Z5hoP2yaoera2uZ5Q5866x+otLLNrWaq39ifZ7zCIHX7Z9g3lW21B9BkqKAAAAAMDCIkExK7kWuugyawiPWNtLL9jOfZ3WNxixSKTfult327YX9llffr2tXlluk+UnxgatT51mrKiwcJJ2DYrKqi2sag69mVcVKKiot8Zys6GD+61zJpkGJTca1EVlm+0/lCi5cdwGDnVaZ2eyYXBaw5UFFZfYZQ3FFtm3zV54ocVaD/XZYMQ7Lv3d1rZvp23ZssvajxZabVO9lS2Jfcmi3noiZmG/V5PpFocrrC6T0iWumsegHTgwk+odQ9abcP9iQ89QhuciVtUj9m7ucq1oxaW2ptqsa89W27qn1br7dY1FrL+n1Vpe8K67jlGralpnDaXcxgAAAADOfUQ2s7WoyGrXXGVXNtdYwfF+a9u103bu3GMdR8xKG9faNevqrCTQO8bIQI91q5RARbLeNjwF5bZ8uTfuOWxpetYM8APjIWvb15VZ9ZCYiaf+E8mNrmlfjFpfR6u1tiYboja9Y0svqK5dY1e/ap01Vi6yaNcB27XTOy572qx/pMAqL1ljG65aaw0VhZPHwK/2UrW8fLJXk2lyQ1buSpf0pumKNdaopjfOvHrHoCv1kHgfvWHwuGXcQYaqeqwKx97MhwILr1xn11zRZMsXRa1zv66xnba/I2qLKhtt3TUbbFVFmn5IAQAAAOAckbN58+ZTHvdG4/Hx8cnxxo0b3fRzSVtbW+wVgIVQX18fewUAAAAAM7Np0ybXRby6kPfH4t67V+cRf+cAzD/uLwAAAAAL5bxLUCxZMtm4AYB5xv0FAAAAYKGcdwmK4uLi2CsA8437CwAAAMBCyR3Z85/2F3d+zXYciU05xxUVFVlJSUnsHYD5ovtK9xcAAAAALITc//j2MzYce3O+CIfDVl5ebvn5+dSZB+ZA94/uI91Puq8AAAAAYKHkXHnlladeeaXY3vahd9rlJed+Lx4AAAAAAODslLIXj7e9qcm9AQAAAAAAOCOGW+2ph79gn73zTrvzzs/a/f/2hOWGqQEBAAAAAADOkLFDT9tD9z1kW0Yvtf9323vtvbf9P2sa3Xr+9eIBAAAAAADOVodtx+Pfs74r3mXvf/sNtu7SRmu8dJ297pbfJkEBAAAAAADOkMMdtnevWV2h2aEDB+zA5PAKCQoAAAAAAHCGRAdttzfa/f1/sgcffNAeeOABN3zxi1+0nPLy8lMTc8kb7H2feI2toBcPAAAAAAAwzzb93i/YnzzwhL3+fZ+w19XH9eLxyz9ztfey0W645b32nvessQr3EQAAAAAAwDwrLLYGb3Sg5/DE+4DcxupSb1Rgyy9qtMbGSu8VAAAAAADAAgg32OWXmLU+94K9ciI2zRmjDQoAAAAAAHCmlNq6177e6rr+177w91+3p3YdsAMv77Cnvv1lEhQAAAAAAODMWVz3Gvul22+xN9QP27Nfe8Ae+PKj9vxA2HI2b958yuNm0liNY/pjGskEAAAAAADzZdOmTZabO9E4pj8W9969AgAAAAAAyCISFAAAAAAAIOtIUAAAAAAAgKwjQQEAAAAAALKOBAUAAAAAAMg6EhQAAAAAACDrSFAAAAAAAICsI0EBAAAAAACyjgQFAAAAAADIOhIUAAAAAAAg60hQAAAAAACArCNBAQAAAAAAso4EBQAAAAAAyDoSFAAAAAAAIOtIUAAAAAAAgKwjQQEAAAAAALKOBAUAAAAAAMg6EhQAAAAAACDrcjZv3nzK495oPD4+PjneuHGjm34uikajNjw8bCdOnHD7A2DmcnJybMmSJVZcXGxFRUWxqQAAAAAwO5s2bbLc3FwXa/hjce/dq/PM4OCg9ff32/Hjx0lOAHOg+0f3ke4n3VcAAAAAsFDOuwSFSk4MDQ3F3gGYL7qvdH8BAAAAwEI47xIUqtYBYGFwfwEAAABYKOddgkJtTgBYGNxfAAAAABbKeZegoM0JYOFwfwEAAABYKOdlI5kAAAAAAODcQoICAAAAAABkHQkKAAAAAACQdSQoAAAAAABA1pGgAAAAAAAAWUeCAgAAAAAAZB0JCgAAAAAAkHUkKAAAAAAAQNaRoAAAAAAAAFmXs3nz5lMe90bj8fHxyfHGjRvd9HNJW1tb7NUMjEWtr6vLunsHLHJs1JtQYCXlpVZRfZHVhPIm5kkm2mnbt7datLDB1l9Za0WxydMNWftTO6ytfp1dX1cSmzZhqP0p25Fks/OWhqysstpqqsutcHFsYjrD7fbUi4kXWFAcslCZt7wab3mLYhOniFrntu3WerTIGtavt9qkOxTbn9i7qfJsaajMKqtrrLq80FJt9lj/Pnt2T7fZ8ma79pLylPOmMna033q6eq3/8IANjXgTCkqsrLTCai6qsWmn8ESf7X6uxazpGltdkeb8Sux41l9xvdUVx6ZJbDkDsbeJ1du66+ts8oz73ymut/WX11lRghThxPUw9XuprpGgssA+jfbtti0tqbfOElyP6dTX18denXnf+ta3kv5dWrlypb3+9a+397znPVZXVxebOv8GBwfdNlx99dX227/927Gp6elv6v/93//ZsWPH7Cd+4idiUy8c7e3t7rj92I/9mN1+++1WWFgY+2Sq559/3j7xiU/Y3/7t37pzulDO1HrORidOnLBHH33U7ffll18em4qzwcjIiH3qU5+yqqqqyb8vulbf/va327/8y7+4vzsL4UL/+wQAOLM2bdpkubm5lpOTMzkW9969upAd77OWF7Zby6EjlhuqsoaGBmuoK7XFXsB7YOc229kxZOOxWROJRnotWlxiJUc7rD+Sas50qqxx7VpbO2VotvrwIou07bFtP+q0aGzOTBVV1k3sT2AoKzhhA97ydr7cbYrjp4lGrPeotz/FUevoi6Tcd6eqMW6bvaG53sKLI9a2Z5vt6ky11WMWGey2Iu/45fX0WH/CDUpnzIY6dtoL2/ZY12iBLb94YhuaFXQfPmA7t+yw9uG5nJf0Eh3n00ORJUyBDLfZ/kPR9Mc3Jq9w6nLrKpU5KrKKFVOnhwsmbu7Tps8zZSjMIEFzltF264/aP/3TP00OX/7yl+1tb3ub/c///I8LghUMn20ikYjdf//9Fo3O9E4+9508edIefvhhW7NmTcrkBM4M3R/33nuvHT9+PDYFF7oL+e8TAODscoEnKMYt0nXA+qzCmq64ytasrLfa2lqrrV9pa666ytbWLbHIwXbrTRY4j0esvyNqoao6Wx4etfbeQS9cnq18Kw6FLDRlKLeqhtV22aVlXkDbar2HZxZo54drJvYnMDQ0XWXrVoVtdKDNeqYlVLzj0ddh0dLlVlftzdPRZ4Ppdii/OG6bvaG8yhqaL7OmcrOh1l5LmrcZ6beeHrPQijqryhu0roGZ/zAa6d1rOw4etdClG2xDc4NVlU9sQ/nyBlu9/kprLB+ytl2t6fdjDhId59ND2Api88UbOrjfujLc5YKyqcutCed7U/OtrGbq9Kri+DIo0+eZMpQl27qz19KlS23dunV23XXXTQ7XX3+9feADH7C7777bXnnlFfvBD34Qm3v+hcNhe+CBB2ZUeuJCt2jRIvut3/ot++M//mOSE8AMqdTE/v37F6z0BAAAZ5MLPEFx0kZHRs2WlVlI8d4Uiy20vNpCNmzDRxNHt+NHBq19tMjCxWEvKA+bou3ZlQJIrWBZhZV545GxkxMT5qigtNJb3qgdHY1b3viQDXaMWlFpsYW9YxK2busZmO0OFVhxmdtqG02SHBiJ9NmgecdYSY3leRbt6E+ezEhkPGI9rQNmy1faysoEgfaiQqupa/DO7Qk7dnRmyZ2FVrayyeoKh6x138xLxiC55uZmu/TSS62/vz82ZcLRo0fti1/8oiu6rGLtt912mz322GPuyX7Q4cOH7Z577rHXvva1tmHDBvvLv/xL27p1q910002umLWoisd73/teVzXAp+X8+7//u916661u+VqPSnkMDExUsVFwoXUqcaISHlqepqk498c//nH767/+a/vCF77g1vkbv/Eb1tXV5b63Z88e+8hHPuK2J7hcbWc62ibt4y//8i+7hI6+r+3TdsbvdyKHDh2yj33sY27d+r6W88Mf/tAVBfdluo5Ex0y0H3/1V3/l1qFBpWHGxqb/wZjrvmS6Hp2Pr3zlK5Pn0d9vFX33q0Km4n//5ptvdt/XWO813ZfpOlSdScdM+/3mN7/ZnXsdf12Hun40XdeU9kdF/30qHfGHf/iH7lrS8OEPf9hdRz59X8vatWuXqzagdej8iM75n/zJn0zeJ1q2rgFNT8ff3h/96Edundov7b/OkaqUBGWyHv+a0bHSvNdcc4390R/90eQT/tneG/49F38tJpqeaJ90LrRPo6Oj7hxoHzVdn2dynHSOn3nmGZdQ1fe0/arSkeq7OmfaR/9vkGg5L730kkv8pVpOcB/860Lz6n7wj1Wyv0+S6XoAAJgvF3iCIs+WlhSZHRmwgURJiIIqW3v9NbaqLFHLCGM22NdpVlhpIW8RE0H/7EoBpDN+bNi1c7AkN774/iyNnTAV7I1f3Nhgn3VakVW6HSqzynLvR2LnwCwD6HE7HnVbbYsSXmVRGzgUMasOW8niXAuV11jeaLv1zaCow0SCyKy2Ipy87YqiWlt7xWqrXXaWXeqLQ1a3ss6Khlttf8pqMJiJnp4e6+josKKi042nKEmgQEY/1BX8qzrItddeax/96EddkWY/wFUSQ4mCb37zmy5g1A94lca48847pyU84v3Hf/yH/fmf/7m97nWvc8tX8PH973/fPvOZz7jlqj757//+79uVV15pv/M7v2Of/OQn3TTfV7/6VRcEKMB661vfamVlZbZ7925XSkN1wlXy4KGHHrKf/MmftH/8x390SZT4oC9IQYWCVu3jVVdd5Yrzf/7zn3fJQAUp//3f/x2bMzHtr7/fCtr0XbXrof16+umn3TxzXYeKlGvZ3/nOd9x50T4+99xz9vWvfz02x4QztR5dB3/3d3/nEllvfOMbXRJD86oahIJPnZ9UdJ4//elPu+vmxhtvdOdLY73Xay1/putQQKp9VbWYO+64wy655BI3XW0t/cVf/IW95S1vcfumoFM0v4JRBfFarwYt+1d/9VddUCwKdHWdqaqUShzpetT9oqTY7/3e79nLL79sH/rQh9x1/O53v9sFrUoQ6Dims2/fPvuDP/gDV8pI261gVudIJY78+2ym61HCQNeAkoVKQqgEzlzujZnSPmkfdP3r3L3qVa9y23nXXXfZN77xDXdudK/s3LnTHVddB8loP5Tc0PnIz8+3z33uc/a7v/u77nrUfvgJzUzoetZyKioq3LHWNu7du9d+8zd/042D/H2orq5261RiSokfXYc6L6n+Ps1kPQAAzIcLPEHhxa9Vl1hDccT2bXvWtrywy/a3dVt/JGoj6R7KnThsvaqeUFM20TDmkpBVeAF9tCcyj0/Ex20s2metbZ1mebVWHpptE5KnjR8ftLZ9rd42lllZSbD9gVE73NdtVlptZW6H8ixUXub96u4173DMzPiYRftabWKzyy3hZg8PWof3O662LDSRXCgOWY23Od2DkYyryZwY1VPJMitemt3LeKBliz311FOJh/ah2FzT5S6rs5V1RTbUut8WLkcxYC3PJdiu2NA+HJvtHKen+q2tre4H9OLFi12VD58SBQq0Fbj8wi/8gvvsgx/8oP3N3/yNS1r4Twr/93//17VhoeDjfe97n2tw80//9E9dUKzERzJ68rplyxbXBsb73/9+t3y91g9+Pc1WQKYAcP369bZs2TIXGCrICSZRFDQqsFOCQ4HWkiVL3DKbmppcQ47alte85jUuoNO2tbS0pKwrPjw87Ep+/Pqv/7oLJLRNb3rTm1wQpCBEAV4qOpZKzmgf9D2tWwG0Xu/YscMd77muQ4mO7du3u+P9rne9y+2jnswWFEwtDXWm1qMnwn7gq2OsqkNKFilYU7Ui/zpJZtu2bS6Y03Wl60vHTMvScXvhhRest7d3xuvQOVYA+zM/8zMuGeEHjZquJJpKYehYrFq1ygXGSrrovZIX2k8NSrr93M/9nAumNY+SB3oSrvWtXr3aXd+63lSiQgG0rjeVEtBxVkJK23rgwIG0STpRclBP37XP2n9tu0pG/Ou//uvkvs10Pa9+9atd0Kx7Q4Maz5rLvTFT2iclfbR9Wr9KEuh+1X2ta0pJE93vSrLo3Oo8J6PPlGxTQ746L9p2/U1SIrOvr88dm0zo75GSmrrOdAy0/zqWSqBo25QE8RNCEtwH/7rUsdJ9ceTIkaR/n2a6HgAA5sMFn6CwRUVWu+Zqu+aKJlsRyvEC6322Z+d22/rMU7Z1V6v1JaneMXK41wv9wlYR8n/k5llphffjcdaNZbbZjmkB5NP27PYWO5xXa81XNFgoYa8bySUKnJ9+fpcXlJZY9eoGq1gSm1FGBqzX+10YrghNtpmQV1ppVZamscy2HdPW8dTTz9r2lsO2uLbZ1l0cSnCRjVuk/5CN5tVZeLJkQ4mFV3gB2wyqyYwejz1tmqeCJbOVspHMlI1Q5lrJipULXNUjdSOZRXPPeZ1x+hHvFw33Bz1ZfsMb3uCCBv3YV1UP0RNWBYd6+qegW8GqP+hppZ4uq+izimsr6FHJimCvBnpa+9M//dOxd4nl5eVZeXm5ffe733VP8/0nqHp6rifk2r50VC2ltLQ09m7CL/7iL7pAQMv2qS0HLU9PiFM9JS4pKXElOhT46Ts+BSAXX3yxS6qkCiw0nz5XcKKn9UpIaJl6iq0kjFpbnss6NP3FF19MeLwViAedqfXoCfk//MM/uGA+SNeO2mtJF/Qq2NM6gutRMP3Od77TJc709Hqm61Cjosl6zVFywW/xWpT8UPJIx0UJHf8613Wta1RP+HV/JKNgOdH1quSH7qNMSiVoe5Vg88+Ttk/HXuv3q5nMdD2aT9dA0FzujZnS3xIldPxjrWSOhiuuuMKdN5/+Bul6S3YtihIFSmLoGASvZZ1LJS5+/Md/PDYlNf0t03KUjH322Wcnz7VK4Gjb/MSDL34fNL7oootcwsSv3pPITNcDAMB8IEHh5FpesfcDceVqW7fhervu2g22vrnRQuO91rJNAX18eB61gU7vP/VwmU3mJzyLQ6VeQD/bxjKDvXg0W2NVyPK8oL22eYNduabByqe1kZHe9MC50ZrWrLcNP7bOVsY1jhgd6LJBC1vZsik7ZKXLLXVjmcFePLxjVqU+PYtrrXnDlbamodymdSohY4PW1zFqectDVhK4AotClV44nXk1mYICtXHhSV81fEGlbCQzXSOUi0oWuKpHfspGMsNpNu9spGtZRakV5Kh4uJ7SrlixwhWzfvDBB11xd/+HuIJXBW560qc61nqC7g+qa60f4J2dna49AgWHCgbjG3FUEKLAKxkFGnoKXlNTY7/2a7/mutHU0+1/+7d/S/njPxN60qwi7wqyv/3tb7s6+EoSaFomT4kVLCkoVVChY6NjpVIj+r6SMsko0NNTXlV3UaJFQaeeFiswCbZBIbNZh6brcwXt8SUZlKiJnyZnaj36jkqPPPnkk646iZ42q/pBqhIESnTpOtN1qJIJ6cxmHemoPQElAf7sz/5synWuQaU6lGjSsUhHCTYl7dS+gpJ9Ktmj+yST662ystKV0AjSe01X6YiguaxH5npvZCrY9VlQ/PRgwiEZJSiWL18+7RjNlK41XSuquhZ/rr/2ta+55GswcZBsH9KZ6XoAAJgPJCgSyF1cYEXlNbbqssusvnDI2g4N2pSfv64rTm88uM+2BksOPLvHuvX5DEoBnBbsxaPcalatsdX1Zp17dtjevhkvzJkeONdYRbjICqb9jopapEc/6AZt39bA/jz1rO1xJdtTNJYZ7MVDx2z1aqu3TtuzY6/1JenBbixy2B2n0Y6d9nTw+G1X1RNvazJsLDOvoNjybMCGj6WYeTxibS/stH3dR5OXAsmyM1PV4/wR7MVDxcMV3KkqgoKTYF33ICUjVMQ80aB2CRR0z+Wpq5Im9913nytFoSLgSoyoyPmv/MqvzLqetoI1JTxUBF/Fs1V8X0/HVYQ/HQVvCvw0r46R2ilQI4yqEqEESjoKtvx2AdR4p7bh0UcftZ/92Z91+6ljPNd1JKOntXo66ztT69E+qV6+lqmi/Ar0FUCrHQWtKxVtY3ziJpG5rCNTehKf6DpX6Qqdx2QUbCpJoBIg73jHO1x7DkoixJf2mC0db5mP9czl3simRH+bZktJU1VfS3SulbBR6aL5cKbWAwCA78JOUEQ7XYKhNVn3nTn5trTYG48HH9HHuuK0sNU3+yUeAsOqai9ono/GMnOtpO5Sa6o062t5OUEpjvkzHul37UGE65un78/aVVadN4PGMlUioLnJKqzPWva029C032Mj1t/TbZZXbaumrWutNdeHzTJtLLOwxKq8bevsS15iRQ1pdh+LeL+Ol5zFF/vUqh5DZ2sm5SylJ4Oq9672CTZv3mz/+Z//6QJGUQCqYuDpnsxqPj3V1FNmv4qGT6UgND0dPaVUMW9VgVDpDm2HnqwryJ8pJUseeughV7Ljv/7rv1zjhwpslYiJLxqfiNq+0JP5n/qpn3JPmBVg/P3f/70rGq9kYqaKi4tdcXS1afC9733PlVrQ9qgkw1zWoSL/mkfLUTInSHXxg09lz9R6VDpEDTKqAUclDVTqRiUPfv7nfz5hSYsgfa7SE3pCrmoKQapipEYJ1TbCXNaRjtoMUKIs2GNHpnS/qMSPtk/tRajovoJ+tfORKqkRT/dYovtHVQlUjWk+1jPXe8MXX/LGLwWzkFRCS+06xJes0rYoUarkUib0N01V3VT6ayGdqfUAABB0YScolhZZhQLctnYbTFBCePxYr2sIs6hkqU22JBDritOWL7fqcr/EQ2CoqrIVhZmXAkitwCrqG71tHLK2/Z0WXZDAddyGBttt1KpseXX59P0JVVmV2oaYSdsa+RVW31hhecNt1toVnVpyYSRifd5vs6IV3nKnrStk5dXLvS0x6+7pt7TlRnJDtlwJjZ79tr83wdxjEWtv67TR4nqrDp/ljS0Eqnq0tsemIWN64q+G6vSEXaUoDh486KYraNPTanXPqOA2SE/h9cRVxewVyKobQ9WzVvDk0xNPNZyZKrmhJ8JqxE9Pgv3EiJImSngowJ8NrU9PKBW0Kej0i2croA52NZiMgiA12njDDTdM2QYVs9eT9HQUOCsBoGoIPvU6EKzzP5d16HypIT4d7+B5UXCrUihBZ2o9SmLpnOl68ZMFOp8K0DI5ZmpkUNdO/PWja0/brWoOc11HKgp+ta8K2oMNNWob1F6DSvMoUZOIgnMdT7WroCfmSraJkgG6TzKla1NtXvj3gUqVPP744+7aUTsI87Geud4buiZ07JVMCiZTlDBSOx0LSUkstTehvynB0hRat66bTBMsaiBU7VU88sgjU/ZBr9XLhnq8SfU3K1Nnaj0AAAQtuummm+6KvXb8HxYaq/Xsc00mdWwn5RRYSSjHIt6P8I7OLusbPm6jo8csOjRove37bd+BXot6we1qL9jOj6VyxgY6bHf/CatrWGnhhA0sLLG83GE71NdjuUU1Vlbo54BO2JFXeiziBfwXLZvaoMSJI69YTyRkVRcts2lNTSwutKIlUTvk/bA8uqjMKpctSd8m5Ikj9kp3xJaWr7CKwjT1YscGrGN3v51Y0eDapUi4R3k5Nnyoz3pyiqymrDCW1Uq+P7K4sMjyjx6yQ4eOWm5ZpS1bMrHkaM8+O3i42OpX1lpxopxBboEtGu+23p5jll9WbSXBhjwTWFxcYsWjR6yt7aD1Hj1pud6P1ZPeORwe6LQDLQes92SFNa1ttNLJDJPn5FHr6+y3496P4/HjURsaGpo6HFPuKv909i52PENVF3n7EZsm6ZYTG8bySmypv6+x71iCc5OTX2JFpwat54iyZUmuh5jxo33mFlNbYclO8cQ8x70f8ON2/GjibRsaGrO8kqXJu2lNQImkbNHTYQUhauAwvh632o5QexF6MqueH1QFRMXK1fOBAg91Kaq/awqGVLpBpS30N05Pt5WgUDsFCiDVroXfJoUCO1Vt0OtbbrnFVZXSk3hVOdBrBZoqfaGn/OolROtVUKaAU0/5dYzVuKPaO9AyVZpCXf6pG1ENCtD8EhYKwP1i8AqitK9qpFL0XXUTqbr6+r62N9Ex8GkbFJA/8cQTLjhWaYGHH37YPa1XcNHY2DhlffEUUKrrVFW90jHTE18FKeqWUO1t6Luanuk64o+Z6LwoSPSfhusYqzFJPVFXMO/v31z3JdP16Gm6nu7r3Ola0lNjfUf7rPOkoNrf9kSUvOnu7nZVYkQlKVSSRnX1dQ0ogTGTdSS71vWUX0/a/evRp2tC1Rx0zaiUiY6V9lvLVg8e6gXFb59Fx02JDJ1XNUDpHyO17aHjo+tPAbOqTem603FTKY/g+uJpe3WONb/uMe2r9v9LX/qSS+ApAahzpNJImawn0TUjc7039H0lSvT3QMlF3b86XjqmOg5qSybVOUi2XTovSjykWrfOuY6BevBQskjrVoJU79XWy8033+zm098EnT9/+fHn3F+OrmMltvRe3bbqb5qScep1Q/eFJLuO4qfrOMb/fdLfrUzXo2Wplw8ljZSEAQAgFbUppt8kwUE0nozBLlS5xXW27pq1tqq2zJaMHrZ2L0BpbW23w6NLrbxxrV2zrs5KJgPAWPWEwhVWHkp+6ArKYqUAZtBlZioFlQ3WVG42dHC/dc3zw4qRgR7rtiJbUZGot42YgnIVGDHrOWyRjHeowCoamqzMhqxtX9dE9ZDxiPV3eK+8hZUnLc2ca6GKFd4WRa03o/5NCyy8cp1doySE953O/Tu9YHSXHegesYKaZrvyqiarSBLlR3vbXUA6bRg8PqN2N5MuJzZEMz5mqurRYLXBZMqcRa2vI/F2TQzRqe2rnOPUY4Aaw1RApm5DRUkL1fVXgKbkhT5XgkJtLKjxN/3oFgUEeq9u9BTU6ce3khbqkjIVBTyqB6+nifqR/ku/9EvutX7gf+5zn3M/2EXLVz17Pf3VtqjIfzIKXG6//Xa3jSq+rvr2Shgo0FUwp6fFyZ6Gi3qLUNeVGmtbVOdf8ytpoifpKmESrN4QT9usoEn7r7GOmUocqPtI7av2ea7r0HHX8dY+KpDV8dZ+qwHUoDO1HrWJoN5CFIDq/Nx1112uvRMF0+rJRaVJFNgno/XoqbLOkc6VjpkSY7oG/J5g5rqOdBTQqpcQvwtO7auSZ5/97Gfd8v3//HVelWhSkkLHVsdTXZaq3RRN07YrcaJ7QYG8Ak4FrumoVIT2T9e2qixo/4Pr1jDX9cz13hD1+PPpT3/abZ+2U72e6NpSAmchaf/VZazOkUq5aN0qeaXjoGs002o+weUogaA2drT9ui+VTNDfwZlK9PdpIdYDAEA6OZs3bz6lJ2GisZ5W+WP9Z3SuyaSuOIDZS9bt4flKTwrVQ4hKU6grRADTqUcVNaCqNjZm0hYEAAC48OhBkUqPKhnuj8W9d68A4AKnUhN33HHHlAbsVE9cCQo9cVaJCAAAAAALhwQFAHjUwKAa+FOxe9UlV93wu+++2xW/V3F41ccGAAAAsHBIUACAR+0DqF61qI686oerLrvfhoBf9AwAAADAwqANCgAzcqG1QQEAAABg/tAGBQAAAAAAOKuRoAAAAAAAAFlHggIAAAAAAGQdCQoAAAAAAJB1JCgAAAAAAEDWkaAAAAAAAABZR4ICAAAAAABk3XmXoPD7UAUw/7i/AAAAACyU8y5BsWTJktgrAPON+wsAAADAQjnvEhTFxcWxVwDmG/cXAAAAgIVy3iUoioqKrKSkJPYOwHzRfaX7CwAAAAAWwnnZSGY4HLby8nLLz8+nzjwwB7p/dB/pftJ9BQAAAAALJWfz5s2nPO6NxuPj45PjjRs3uukAAAAAAABztWnTJsvNzXUPQ/2xuPfuFQAAAAAAQBaRoAAAAAAAAFlHggIAAAAAAGQdCQoAAAAAAJB1JCgAAAAAAEDWkaAAAAAAAABZR4ICAAAAAABkHQkKAAAAAACQdSQoAAAAAABA1pGgAAAAAAAAWUeCAgAAAAAAZB0JCgAAAAAAkHUkKAAAAAAAQNaRoAAAAAAAAFlHggIAAAAAAGQdCQoAAAAAAJB1JCgAAAAAAEDWkaAAAAAAAABZR4ICAAAAAABkHQkKAAAAAACQdSQoAAAAAABA1pGgAAAAAAAAWUeCAgAAAAAAZB0JCgAAAAAAkHUkKAAAAAAAQNaRoAAAAAAAAFlHggIAAAAAAGRdzubNm0953BuNx8fHJ8e33HKLmw4AAAAAADBX//zP/2y5ubmWk5MzORaNUyYoNm7c6KYDAAAAAADM1aZNm5ImKKjiAQAAAAAAso4EBQAAAAAAyDoSFAAAAAAAIOtIUAAAAAAAgKwjQQEAAAAAALKOBAUAAAAAAMg6EhQAAAAAACDrSFAAAAAAAICsI0EBAAAAAACyjgQFAAAAAADIOhIUAAAAAAAg60hQAAAAAACArCNBAQAAAAAAso4EBQAAAAAAyDoSFAAAAAAAIOtIUAAAAAAAgKwjQQEAAAAAALKOBAUAAAAAAMg6EhQAAAAAACDrSFAAAAAAAICsI0EBAAAAAACyjgQFAAAAAADIOhIUAAAAAAAg60hQAAAAAACArMvZvHnzKY97o/H4+PjkeOPGjW46AAAAAADnmt7eXvvKV75inZ2dsSnT3XrrrXbVVVe519Fo1L72ta/Znj173PtEamtr7d3vfrdVVlbGppym7z///PO2a9cu27dvnxUWFtoll1xir371q23lypWWk5MTm3PC97//fTt48KC9853vtKKiotjU01pbW+2ee+6x22+/3RoaGmJTp3rllVfswQcftPr6env7299uS5cujX0yVapjkW4759OmTZssNzfXrcMfi8aLbrrpprvcu5hgskIbBwAAAADAuejo0aO2Y8cOu/TSS10SQuP4YcWKFRYKhdz8o6Oj9tJLL7nkw7XXXpt0/rq6OsvPz3ffEcXP+/fvty996UvW19dnGzZssBtuuMGampqsq6vLHnnkEVuyZIlLIgSDf30nEonY5Zdf7j6Pd/jwYduyZYtdc801VlpaGpt6mtb74osvWn9/v1uOtqusrCz26VT+sbjuuuvsjW98o73qVa+aHJT8aG9vt8cff9yqqqps+fLlsW/Nv6efftodg+AgGpOgAAAAAACcl/yg/Oqrr3bxrQLx+MFPToifoLj44ovtDW94Q8L59VkwOSEqnfCNb3zDGhsbXWkIzadEgQJ9JR+0jscee8yqq6unBP9zTVAMDQ3ZE0884b6fl5dng4ODtmrVKlcyIZ5/LC677DI3aPv8oaamxiVfDh065Jah14sXL459c36lSlDQBgUAAAAAALOk5hG2bdvmAvrXve5105IXShZcccUVLokwMDDg5p8v3d3dblD1DCVHXn75ZVeaYjaKi4tdCYzh4WEbGxuLTT2zSFAAAAAAADBLCugPHDjgkgSJSjmI2oV4xzveYa997WsTlm6YDSUR1NaFSmuUl5e78aJFi6ylpWWyZsRMnDhxwiVQlGDRcrKBBAUAAAAAAAHf/e537cMf/nDC4Zvf/KarCuIbGRlx1SfUbsVskg9qkPOTn/xkwnWpgcxkVBVDVUSUGCkoKHDJEbVxoWSJtmkmjh075qpeqHqLqnfElwI5U+jFAwAAAABwXkrXi0ewBw/xe/FQewjqzSIRJQLWrVs3WcrA72kjflmZUC8e27dvd1VA1IZEPLVP8cMf/jBhLx5qm+IHP/iB3Xbbba5hS1GC4etf/7q95z3vcYmLoHTHIhwO2+tf/3rXaOZCtT8h9OIBAAAAALjgpOvFI9iDh2TSSKYaugyWlNB3lKRQ6QV1QToTKgFx/Phxe/Ob3+x6/Ihfl0pGJGokUyUe1DimqnZov/xkiRILKkGh6hrxjWUm6sVDSYwjR45Yc3Oza9xT72dTCmQmZtxIpj8DAAAAAADnOgXgN95447RBSYW5KiwstJKSEldCIVkDmJr+ve99z771rW+55MJcqSvTtrY2e+655+zjH//4ZJWQz3zmM256qsYyKyoqXPJCg3o3UdsYamjz4Ycfdu1pnAnJcg65JCMAAAAAAJgdNYB50UUX2d69e123oImoO1CVbFD8nagqx0wo2aHGMbXed73rXfb+979/ynDzzTe77ci0sUx1e/qWt7zFVf1QEkWlL7IhaQkKAAAAAACQnqpEqE0KVdVQtQuNg1QF5Nlnn3UlGtTWxFzbd/B7DVEVFXVd6peG8If169e7z3bv3u0SI5lQdRI18bB161b70Y9+FJt65pGgAAAAAAAgQNUkHn/88aSDPg9SuxRvetObXFLgvvvuc+0s7Nu3zwX8Dz30kGvMUu1MqG2LudK629vb7bLLLkuY7FDJijVr1rhqHvHbmYySLKruoYZBn3zySVeFJBtIUAAAAAAAEKBEwyOPPJJ0iG/fQdUTVJrhAx/4gDU2Ntozzzxj9957rz322GOuEU71wqGSDXNtYkHVL1TCwW/gMxmVpFD7GmqEc2xsLDY1NbWjccMNN7jqIUqwZPq9+ZRzzz33nPIb8vC7F5WTJ0/SzSgAAAAAAJg36mbU73VEJTf8pI1eJy1BMdfMDgAAAAAAQFCqXANVPAAAAAAAQNa5BAWlJQAAAAAAQDZMVvNw/wIAAAAAAGTRtAQFpSkAAAAAAMBCSpR7oAQFAAAAAADIuskEBSUnAAAAAADAmRTMRVCCAgAAAAAAZF0uJScAAAAAAEA2KTdBCQoAAAAAAJB1UxIUwdIUlKwAAAAAAADzKVXegRIUAAAAAAAg61wbFJSWAAAAAAAA2eDnJaaVoCBZAQAAAAAAFlKi3ANVPAAAAAAAQNZNJiiC2QtKUQAAAAAAgIWQLP9AGxQAAAAAACBr/LxE0m5GAQAAAAAAFkp8DsIlKPyJftbCHwAAAAAAAOZLoryDP07aSKY/AwAAAAAAwHxIlWugFw8AAAAAAJB1CXvx8J08eTL2CgAAAAAAYPYS5RiCuYiUJSi6urpirwAAAAAAAGYvXY5hSgmKYOZCr1966aXYOwAAAAAAgNlTjiE+7xB87xIUUybk5k6+b2lpsa1bt7rXAAAAAAAAs6HcgnIMopyDcg8+PwcxrYpHMFmh108++aQ9+uij1tHRQZsUAAAAAAAgI8ohKJegnIJyC/H5hng599577ym9OHXqlBtkfHzcDaJpeu1/phX48wan+++D0/zX/nuJf695fMHpififp5sPAAAAAIALmZ8ASJQICAp+Hl+qIfiZ/96fx38drIXhT/PnXbRo0bTp4n9P/Hnd62QJimTvNeh9/DTxS1j4SYfg58H5/LEEp/vi38eb6fwAAAAAAJzP/CDfF/8+XqL5g9P81/704CB+giGYhPAHPwERPy04X8oEhQSTBX4SQjTNT0iI/1nw8+Bn/vvgtOBY/M/8cbx0n0uqz4IynQ8AAAAAgLORH8Snk2q+yURAknkSfe4nEuITChoSJRk0zR/Eny/+cwl+T3Luu+8+L34/nQzwX8cnFeITD/57//PgZ/4g8Z/7r4PjoOC0+M8Tze9L9dlMzeeyAAAAAACIFwzM5yrVsuI/m5IQSPA9f1pw7L+OTywEB/ETEf7YH/zvxY/9zydfK0GhNwrK/SH+vYZgosIf+9M1luD88e/9aeIvQ4LTfcFpiT4PSvV5uu8CAAAAAHAu8QP6RFJ9JsHPE80bnOYnEUTTg0P8NP+9n5hIlJAIzq9Bpr2///77vTj+dALBTx4Ep2kcTET4r/0hVZJC/Nf+sv2xLzivL9G02Ypf1nwuGwAAAACA+eYH7b7493ORaFnx0+KTDMHP9dof/PfxSYjg9/zP/Pf+6+A8OTk59v8BRst2ohRFNeYAAAAASUVORK5CYII=;" vertex="1" parent="1">
          <mxGeometry x="200" y="223.49" width="228.89" height="137.03" as="geometry" />
        </mxCell>
        <mxCell id="eqxQ3n0CcYi4T9n9lh90-13" value="" style="shape=image;verticalLabelPosition=bottom;labelBackgroundColor=default;verticalAlign=top;aspect=fixed;imageAspect=0;image=data:image/png,iVBORw0KGgoAAAANSUhEUgAABB8AAAIMCAYAAAC9qgSnAAAAAXNSR0IArs4c6QAAAARnQU1BAACxjwv8YQUAAAAJcEhZcwAADsMAAA7DAcdvqGQAAHQ8SURBVHhe7d0HmNzUufDxs+vee8EY44IxNmCKCaH3Xo3phISWhBCSm3tzU2/IF3IT0utNuAlwIYVQQgkOEGrA9BpTDBgM2NgGbFxwwb2tP/8Po0U7ntmdXa92x+v/73n07Iyk0Wi0OpLOq/ccVZx99tnrwwZVVVXh2GOPDevXx7clYd5i89dnOZuiqb5HkiRJkqTmVFFRkXuVrWLfw/j6rAPz/uMf/wiVlZWh4hOf+ESN4AMGDx4chg8fHnr37h1nkiRJkiRJqg1xhfnz54c33ngjTJ8+PY5Lgg8bRRZ23333sO+++4a+ffsaeJAkSZIkSSUhhkAsgZgCsYW0GF1Imi6Q8TBy5Mj4WpIkSZIkqSGILRBjADGHGqkNNLWQJEmSJEnaVOkYQ43gQ69evXKvJEmSJEmSGi4dY6gk/SEZWrVqlRstSZIkSZLUcMQYknhDDD5IkiRJkiRlxcdZSJIkSZKkTFUHH8yAkCRJkiRJjSmJNdR41KYkSZIkSVJjss8HSZIkSZKUOft8kCRJkiRJmbLPB0mSJEmSlImN+nww+CBJkiRJkhpTEm+wzwdJkiRJkpQp+3yQJEmSJEmZMvggSZIkSZIyVd3ngyRJkiRJUmOr0eeDAQhJkiRJktSYklhDZevWrUOrVq0CfyVJkiRJkhpLEnOo7vPBzAdJkiRJktSYqjMfDDpIkiRJkqQs2eGkJEmSJEnKDDEHH7UpSZIkSZIy5dMuJEmSJElSJpJYg5kPkiRJkiQpU/b5IEmSJEmSMlPd5wMvDEBIkiRJkqTGlMQbqptdGHyQJEmSJEmNKYk1VHc42dymTZsWjj322DjwujFMnDgxDB06NFxyySVh5cqVubEN8/e//z0u6ze/+U1uTHlZunRpuOOOO8IXv/jFsP/++8d15S/vH3744bB69ercnJIkSZIkNa0YfDDrYfO1bt26GHQYO3Zs+NKXvhQeeuihMGDAgBh46N69e/jHP/4RzjvvvPD5z38+TJ06NfcpSZIkSZKaBjEHm11sxgg8XHXVVTHogF/84hfh2WefDX/961/Dn/70pxiUeOSRR8Lxxx8fHnzwwfDVr341vPnmm3FeSZIkSZKylsQaWvSjNseMGRObcHz/+98P7du3z41tmBNPPDEui2YM5eKuu+4Kl19+edh1113D//7v/8bsh/zfOXDgwPDDH/4wnHHGGeGFF14If/nLXza5CYokSZIkSfXhozY3U3Pnzg033XRTWLZsWTjnnHPC9ttvn5uysY4dO4bTTz899O3bN9xzzz1hypQpuSmSJEmSJGWrRrOLcpZ09sjfBQsWhN///vexKQHjDjvssHDZZZeFd955Jzf3R+rqcHLWrFnht7/9bfWydt999/CFL3yhYAeNtXU4uXz58o06e9x5553D2WefHa677ro4PV+yvPHjx4cnn3wyBgf4zOc+97nw2muv5eYqbtKkSeHxxx8Pe+21Vxzqst1224VDDz00HHHEEaFt27a5sR9iR6A5Bs02Tj755LheDGzbb37zm+HVV1/dKEC1cOHCcO6558bhrbfeCj/72c/i9uMz11xzTVi1alWcj8/x+W984xvV24btcu+994b58+dXL4PlpTVknSRJkiRJ5an6aRebQ0Vu8uTJ4cILL4xNDbibv/fee8dgxNVXXx3+7d/+reT+DPitdMxIhZ/K7aJFi8K+++4bhgwZEpsy0EHjj3/844JBg3w0xSDzgH4XCAYMGjQoVrIHDx4cnnjiifDtb387/Od//mdcz0IeeOCB8LWvfS1+16hRo8LixYtD586dc1MLY/1feeWV+JrP9OzZM76uTadOnWKQ5r//+7/DyJEjc2M/6jfipJNOioEYgi6sf7Jt6T/itNNOC3feeWfuEzXNmzcvLvf666+vXm5FRUUMcLCeBGX4PFkadIDJst97771w0UUXhV/+8pfhgw8+iJ9J29R1kiRJkiSVhyTWsFn1+UCFlMr9/fffHyugZBVwB53MBfozoKJLxbUuNDv4wQ9+EIMOP/rRj2IA4Nprrw233nprbJZAHwp/+MMf4vfUhkoxfSiQYUHw4bHHHovrRGePt99+e8xqYFms43PPPZf7VE08jeLiiy+O8/KbWI+tt946N7Uwsgqo9IMnW7Rp0ya+boiXX345ZioMHz48rgPrzfrzO/g9/C6adrBdlixZkvvUR8hAWLt2bfwcn7nvvvvCpz71qRiA4Df/9Kc/jUEHAkRke7BsAjxsdz7D/y3fpq6TJEmSJKm8bFbBByry//7v/x769++fGxNCnz59wic+8Yn4mkrr0qVL4+tiCE7cfffdMUuCjAVS+tPNEOg7geyK3XbbLbz77ruxYl0M/S4QBKDZw7hx42I2RoLKN80oDjzwwPj+jTfeiH/zMf3II48MrVq1iu9bt24dP1uqXr165V41DNuMYMexxx4b1zf93fye4447LowYMSK8/fbbRbM3yFCgY0tUVlbG30JghsAK25DgykEHHRSnge3Ndmc7F9IY6yRJkiRJKh+bVfBhp512ip0m5uvdu3dM+SewUFVVlRtbGMEJKrcs56ijjqqu9KcRDCAL4vOf/3wMBhRDhZs+IGhysM022+TGfoRKM80vUCyIwefSQYumRuCG33rBBRcUDHrQpKNfv35x2xbKKqE5B9ko+QjKvPTSSzFgRJOW/GWz3em/Idk+aZu6TpIkSZKk8lL5yAN3hbsfeDRMmrFx2/tyQ5ZDu3btcu8ahqYWVIzJGGjsSv+aNWvinXg6g6SpAP090BFjbTb1N9FpZmOhLQ7NGMgooHnDFVdcETvRfOSRR3JzbIzAQ7du3XLvPkJWCB1n9ujRI3Tt2jU3tiYCQHU1MWnIOkmSJEmSyktlnxEfC3uOHhY6LZqUG9WyJXfLqfRTMd5UNC+g7wE6r6QpwB577BHGjh0bm4fQX0GhzIpN1b59++pK+/vvvx+DHpuCJ4V873vfC2PGjAm77LJLbApCvw10usmTLOizob7IQKFfhq222qpocIWshmLbJ4t1kiRJkiQ1j8odtu4devUZEIbtMiY3astA9kP+4x3riydUfP/734/NM3gSxz777BP7N/jVr34Vn8Tw7LPPxqdwZIEKOU0e+N5S+z2g00aevDFhwoTq5gpPP/10OPPMM2MHmzRnOOWUU+KjSelIk0eA0knkjjvuGOdtiNmzZ1c/djMfWQ2Fmk1kvU6SJEmSpKaV6vOhQ+5vy0ZzCzqsJGOg2KM0eXzmWWedFR+BWVvFnkdpUiGmXwP6KOA1lfsTTjghPgKTDAU6XMwCle/99tsvPPXUU3GoC7+XR4HedtttMXOAjAOaM/z5z3+O6/jVr341PoXiJz/5STj//PNjIIV+FXgUZkM6daQfDvroIMBT6HGaoGlG/vbJcp0kSZIkSc1js+pwsjF07tw5Voqp+D700EMF77zTUSIVeuZlKGbq1KnxL4GGYp0uFnqUZGOgn4VjjjkmZj+Q0fD666/npmyM33jzzTeHf/7zn7EZwxFHHBHHExggMwF77rlnjad+gMwE+q/gcZr1RXMLmqDw+wl6JM92TfCeLIbp06fnxnwoy3WSJEmSJDWPLS74wB3/448/Pj4d45prromZAPTbACq2EydODFdeeWX1ox7zK79pw4YNi39p+jBz5sz4GiyH9zTJoIlDVg4//PDY1wQVfJp+0MdEfjYHHVL+8Ic/jNkD9JNw3nnnVT8Wkz4vCBLgmWeeqd4OWLlyZWze8POf/zw3pn7Ybmw/tuPll18eAz3Jk0j4HpbN9s+X5TpJkiRJkppHdfAh/850S0bQgCYV9CfA30MPPTR88pOfjM0lTj311Bg44IkKNKeoze677x4fy0nln8d2nnzyyeGcc86JyznooIPCjBkzYh8QIAuiWN8HDUWzjq985Svhy1/+cpgzZ078+/GPfzwGJFgPgiw0zaCSP3To0PDLX/4yHH300blPh9ClS5e43mRP/PSnP63eDjzqkiYOPK3jkEMOiQPbZPHixblPlobtQ9MJnjDCYzNPPPHEuF5kbLCuZKDkP2oz63WSJEmSJDWdJNaQynxYkfvb8vGUBZ6eQN8CVILJCKBpAJXk0047Ldx0000xCFHXkyoIXnAXnqcyEKh4/vnnw3PPPRf7O6DTyeuvvz4uj2kvv/xybOrR2AhAEOC4++67w9e//vXYESWZGI8++mjsN4GK/q9//euYFcFv5renHXfccfH30qkjT6dgOxDIIJBCVsh3vvOdsPfee8dp/Lb6BKn4LgIgyfJZH9aLPjeuvfba2D9Ghw4b9zWS5TpJkiRJkppexYiP7b9+QOf1YdGM18JzU+flRkvZe+2112JzEZrA/OhHP4pZD5IkSZKklmPcuHGhsrIyVC6d/lx45pnXwpxW2+QmSZuOrIRvfOMb4cILLwxvvvlmbmxNdBxJh5M0vejYsWNurCRJkiSppanc+8Cjw1FHHRj23HHb3Chp09EchMdi3n///fFpHOm+Geh48tlnn43j+/btG5uD1NXERZIkSZK0+UmayVeccsopG16vj49jpD291FjoEJIOIunngQ4keSQpQQn6fpg2bVocx3T6cjD4IEmSJEktz0knnRTre7HDSTvsUxYGDRoUfve738X+HPbYY4/qjjDpZJKnXxDsKqVjT0mSJEnS5ouYQ8x8IA2ewcwHSZIkSZLUWMh8iB1O5t5LkiRJkiRlotImF5IkSZIkKUtmPkiSJEmSpEwZfJAkSZIkSZky+CBJkiRJkjJl8EGSJEmSJGXK4IMkSZIkScqUwQdJkiRJkpQpgw+SJEmSJClTBh8kSZIkSVKmDD5IkiRJkqRMGXyQJEmSJEmZMvggSZIkSZIyVbl+/frcS0mSJEmSpMZXWVVVFdatWxcHSZIkSZKkxpLEGypXrlwZGFatWpWbJEmSJEmStOmINRBzqOzYsWNIBkmSJEmSpMaSxBvscFKSJEmSJGXK4IMkSZIkScqUwQdJkiRJkpQpgw+SJEmSJClTBh8kSZIkSVKmDD5IkiRJkqRMVQcf1q9fn3slSZIkSZK06ZJYg5kPkiRJkiQpUwYfJEmSJElSpgw+SJIkSZKkTBl8kCRJkiRJmTL4IEmSJEmSMlUxbty49fQ+WVVVFcaPH58bvXnjt7zzzjth3rx5uTE1de3aNQwZMiS0bt06N6a4tWvXxqF9+/a5MR9aunRpmDJlSlxOz549c2PrxrLeeuutsNVWW4XOnTvnxm662bNnx78sd1Mk6/fBBx/kxoR6/0apHCxYsCDuy4n6lPumlpS7du3ahYEDB4bKyo/iwsnxjONFfjlMfuOIESMa9XiibK1Zsybcdddd4ZlnnsmN+chpp50Wdtlll9y70s2fPz907NgxDk3lxRdfDNOnTw/HHHNMaNOmTW7sh2bMmBEmTJgQf09TrpMkSSo/Y8eOjde3LTrzgYrGmDFjNhqGDx9ecuCBC3v+plEZ4KK/IZVyvpfvL8eKAr+Ji0kCGMm24iL4/fffrw5uSOWO8vrGG2/EAOFuu+1WvS/36tUrjl+5cmVuzvJDwHT58uW5d7Xjd1I2DTxsvqiYX3bZZdXDt771rfD888/HSnt9UNG/8847c+8kSZLKk80uGoCozaBBg1pUNgAVsjlz5mxUkSFYss0224RFixbFypxU7qjAF8ogoLx27949zJ07NwYQyxHrSKAvP+BZSDkHMtUwZAgcd9xx4eWXX44BBUmSpJakRTe74KK8rgBBkt2QNDNIUrORHj9gwICYEUAlnfHpu5PJtEQ63ZvldevWLX6OyhDrxrR0s4v8ZeYvrxAqKLNmzYqv+/TpE1q1ahUrWsnnkmYhabVlarDOfCa/wlZM+vvBRTPLp3kK2/Ttt98OXbp0iRfQ6XT3xl5vKS0pz+nyVZu6yjPlYsWKFWHdunUxqJHsi7WVcfbnUo4Tacl69+vXLwb6SGFP5s0/nrFsyhdBwaQ5WP44yhmfS9YbrDvlNFmvdJlV00qaXQwePLhgE4sk8+Hggw+Of2lSccMNN4T33nsvvsdhhx0Wp3OMvfLKK3NjQ/jsZz8btt12243Go64mHfnfk3xHMfVtdpG/Tun14bsfeOCBWIbYNnvuuWdc7uLFi4v+dkmStHlIml20Gjly5KWMIABxxhlnxImbO34LQYO2bduGDh065MZujIvzd999N94NHTZsWKwcrF69Ol6YU5lgoOLBBSIp21QQuHjaeuut4zjmp+LBxRd/+T4qz1Sut99++5gdwR3YadOmhU6dOsV5WDcqF1TMk/lfffXVMHTo0LjMvn37xjuzrAfzFELFhwuyHXbYIV6oUcGgcsL8DFRE+F3bbbddXAfWkwoGmQ1ML9TkhHUiEMA61oXv5zvIkmBb9O/fP75ftmxZXD6/kXn4yzy9e/eOO1sW6y2lUW4o+z169KhzfymlPFP+2Uep1DMPx5O6yjj7dV3LzcexiDLIdPZ1Klp8F/PmH89Yb95zfEp+Y/441pEARLLeLPfNN9+M83KsYd34zJIlS+L3VVRUxGlqGvy/aQLEuYfjZz7+lxz3OC+tWrUq3HbbbeGoo44K48aNC4ceemg8Rt58883xL4EG/vKZiy66KAZ1qcjfe++94ZxzzgnHH398/AzH4UceeSQuMwkGpLHP3nrrreHMM8+MnznggANiBgb7EUGqQlhH9lsycDh/pHGsZ5/fcccdY2CCQMV9990XPvOZz8TlE3T4xz/+EY/xbAPOu08//XQ8115wwQXxPFHXb2f7SZKk8nfjjTfG680W3eyCO3wTJ07caKASDC4AubhJ425jsbuTXNTnpzlz4cSFPVgey+buZXI3kXmpfBTDxT/Tk2XyHXw/lQcqB/kYRztv5kkqHlyAccGZ4LtZz2QdwMVmMn8xVKJKwd1XKl1JhgR/C91lZlwyT5brLaWxv5SyzzBPbeU5wftknyyljJe63GKYl+VT6St0DCgVZSupZCbfT9lNymSp5V3Ni//hueeeG4MMCf637GPFEGg477zz4t8EAadCx+kEATQCDslnCBjsu+++MYBAMKMYOs289NJLY38V6SGd4UCmB8tJL5+/vGc80xMExxIN+e2SJKl8lVWzC+6cUxknIMA6lYK7evn4LaU2u6AikU6f5g5PUnHhwp9pVJjTF23J8tNP0+AOPxf4hebnOwgmcLefzybzcGFVaD35XlKomSep4CTy06sTVFTAZxLJ+nNHDHxfsTTrQp+vC78p3USCi8L835hsh6zWmwtX1Q9RRyqe3PHmbn05aKyyX2w/q02x8sy+my67VNqLHRPy50Nty82Xv9zks1QACUSkjxOFfmP+uPxyVWi9C61zbZq6rJXjfjpz5sxYSWfb8T8qxSmnnJJ79ZG6ml0Uas5Q6AkZ6SYWhZ4sQTbBTTfdFLMsQIYBmQ3poAQKLTtR7DMotdkFWA+aSqQDCUlTCzIhWNc77rgjvi5l/ZLfnu+WW27JvZKU4BjP+YPgHjePJKmpJc0uyib4sHDhwpjizN1wUos3JQ04uXBPLtZLka7wJkEIpC/Y0/Nwp5Px6Yt6LvrzL/BR3+BDbRWoUirxzMN3cDHH7yhWYUmrqyLC8qkIsCzmZfnpoECx35hsh6zWW/VHeaeskS5NWaOJQnNqzLJfqJKdxv7EPsf+BOYtVp75fH65KLb8Qvt/bcvNV2h6Uh64Y83/ivHFykT+uCyCD02t3PbTSZMmxSZxo0aNigGh/GYG9VFX8IFKO/9rpqUDCElfB8m4pDKfH3xI992Q9KvAuGKV+2R5PB2m0PoUs6nBh/Q8rEP++pXy2yXVjeaANJOaPHlybN47evTo3BRJahpl9ahN7npykcmFMRdOm1L5aKgkVTq58OJiPl8yjnnSF/UMYINSQafdeVp+044E83PBlj89WV6h1PF0VkaCyg4XswkuzrhTyIUkF7BIr2chBFxYDz6bj99NBYA253wXFRaCAyNHjqyu/BT7jYms1lv1R/minLEPU+4of82lscs++xltxqlYs3/lI9CRdHJaV3kupJQy3pDlFkLZIiBDPyh1la+GLL/cldN+SsYDgQcqvASUNiXwUBeCBFToCTohyZyhKQPfD46VZAoVwz7D3U2aQyTnNLYfx+5COA8R3KHcZCFZPueRNN4zPj9wkWjIb5e0MY5ZHLsoRxzLOKZJUnMoi+ADFxJcZDd10IGLde6opC+4kooDF/6FKhrpi3z+crcxqbAzP5VmosvJcrjYSz8VIh8pxUxPLgpZJnctuTtZLPhA5Yp5kvXgAi6d2g0qK0nli3VhPWuTLJdmFOkL1OQ38v9J37FNV4bYfrX9RmS13mo4yhv/1+a8kM+i7CeBNLKK0gEI9lP2Oe76UFbBvpjsj8m+XigAlyi1jNd3ucXQlImykzRBQnJcIJACfmNWlcZyUA77KU0tyHjIMugA9pE777wzZkSksxP47cn+k8yTfvoDQVsyRdL7GPtHEtwloHH77bfH14VQ+d91113DP//5z5iNkCCz4Y9//GOD9t00ls9vosNL1gX85T3jiwUfUNdvl1Q6jmEcyzimSVJzKIunXdARIRdajVUB4bdwsc7dHyq7+QO9cFPp504+F21UUogCM407bKRyMo31IVWNdGUqEFSeufB//fXX47xUQLi7xMGc6ckyeZ/Mw8UflR2mUyli3agAJfMyUJnhgo91YJl8T3LHtJAkNf21116L38GFG8tmHMtlOgETerdnOne8SMfmwo15mV4I49PrkvxGouX8BvAdbDMi59ydS76fu3T8H1kPKmjp35jIX6/GWm81HPszFVcqd82hscs+2P8oQ+w3BBfZlxiopNPTf7JP5pfVQuWZ4wH7ZLKfFvpcfhknYFnXcvOxboXKDL+F5bGduENMGWAcZZAKGOWUYx3bkGBI+mkXSL6r0PLzfxvryucKrV9za+799LnnngtjxoyJ274x8P9g3+TpDw8++GD18Oijj8bmBXvttVduzg875iUYfvXVV1fPc+KJJ8b/I/s4WWgcHzmP8bQK9gWyHQg+/OlPf4qf4Vh9wgknxCAZ+06hJ2zwPTxBgo4ik/Vh/0iachTCvs1+RdYg+3da/tMu+E6Gyy+/PC77qaeeis01kswMfgtlhn5Rku8r5bdLqh/K1wsvvBCzVyWpqSRPuyiLPh+4QOHuR0vFRTN3YmsLKGypqPBQuUqaWajpNWf5ayll3zKevebcV+jEsFDHkZK0OfKYJqmplVWfDy0FAZwkYyDB3UjuDpXj3cSmxB3f/CYu3GXlrlmxu2pSubGMS5IkSQ1j8KEREc2hiQKV6okTJ8bhlVdeiU0H0v0lbIlIm2Y7UElLtg3t4JOnZUibA8u4JEmS1DAGHxoZlWzav9I+OBmslHyIIANtDJPtkn5ahrS5sIxLkiRJ9WfwQZIkSZIkZcrggyRJkiRJypTBB0mSJEmSlCmDD5IkSZIkKVMGHyRJkiRJUqYMPkiSJEmSpEwZfJAkSZIkSZky+CBJkiRJkjJl8EGSJEmSJGXK4IMkSZIkScqUwQdJkiRJkpQpgw+SJEmSJClTBh8kSZIkSVKmDD5IkiRJkqRMGXyQJEmSJEmZMvggSZIkSZIyVbl8+fLAsGLFitwoSZIkSZKkTUesgZhDZceOHQNDhw4dcpMkSZIkpU2bNi089NBDoaqqKjdmY+vWrYvzMK8k6UPEGog5tNhmF2+++Wa4++67w8KFC3Nj6mfZsmXhsccei8upL76T7541a1ZuTP0kn2/oukv6COWQsrx69ercGEmS6u/3v/99OPjgg2vNFmYa81xxxRW5MZKkhH0+SGqxPvjgg/Daa6+F9evX58ZI5eudd94Jp556apg4cWJuTE1z5swJP/vZz8Jhhx0Whg4dGv/+8pe/DAsWLMjNURh3YE8++eTw8ssv58Z8iPTHP/zhD9XLO/vss8Pjjz9e611dUJ7Gjx8fjj322Drv7v79738PF198cViyZEluzEd3hs8777yw8847x4HXxb67PuvZ0G2EefPmhQsuuCD85je/yY1puMWLF4cvfOEL8ffXpq7/eSlYxn/913+F3XffPQ68ZlwhbAe2R7J9zjzzzHDHHXdscnCWfYL/0SWXXBJWrlyZG1tTfdaz3LBfXXrppXG/ww9+8IP4vtDANDAv79977734XpJk8KGoTp06hf322y9st912uTGl69GjRzj66KPDgAEDcmMkNTUqOy+++GJJlQ6puVHBvvLKK4tWQsnCu+iii8I999wTzjrrrHD99dfHv//4xz/ChRdeGGbMmJGbc2MECLp27Rq23nrr3JgPv+9HP/pRuO666+Jy/vznP4chQ4aEz33uc+HOO++sNWA3derUcNVVV+XeFbdmzZrw0ksvhZEjR4bOnTvHcQQe+Oz5558f1+l//ud/4sBrvpsKLPMk6rOem7KN+M6//vWvYcKECbkxDceybrjhhnDXXXflxhRW1/+8FPzmf/u3f4sZXpdddlkcpk+fHsflZ27Onz8/fPOb34zbI9mWI0aMiEGAa665psZ2r69nnnkmLqOY+qxnOWJ7ffe73w1PPPFEfE+AgfeFhh/+8IdxHoIPvD/33HPje0mSwQdJLQx3Q2fOnBkv/LiY7tOnT26KVJ5o5vfb3/42/OUvf8mNqYlK/K233hpWrVoV076puO+1117xL5/jLvvf/va3gpVHxj3//PNh1KhRsYKfuP/++8N9990Xvve978XlEGznLi2V9D/+8Y9F70hTYaaS+eqrr+bGFEfgb/LkyWHXXXcNFRUVcdyUKVNiIOHLX/5y+MUvfhHT0xl4fc4558QAQDqbotT13JRtBCrPxbZ/fZBBwHIuv/zy3JjC6vqfl4IMA7YBNzx++tOfxpseDL/+9a/jOIIv6YyG22+/PQZk09vy29/+dvW2LOV/mo/gD8GT//7v/w7vvvtubmxN9V3PcpSfNVQflD9J0oe2qOADfSjQ9ps7orNnzw5PPvlk7FuBv7xPp3AW6/OBE+37778fnnvuuXhBxF0STtjpNMNifT6QAs5doEceeSRO/+c//xlPSt6ZlRoP5Y+KRM+ePcPHPvax0KVLl9wUqbxwPqFS86UvfSmmvtOMoRAq/JxPdttttzBw4MDc2A8NHjw47LnnnrFSyTkmH+MIAPDZVq1axXEsj+DcvvvuG0aPHh3Hgemk4y9atCieF/Oxvpy3WGcqr3UhMEBQgEyFxNtvvx3/7r333tXrA14ThOCcy/qiPuu5KduIjAAqx4cffng8ZjRU0qyAZh8sq5BS/+elYFtyrDv00ENrBFl5zTiuYZJsD4IyZBrssMMOcUiwLflfzJ07N2a01AfbnEyVz3zmM2GrrbaKGS6F1Gc9JUkt2xaX+cBdjzfeeCNeJHBBNGbMmNj75gsvvBDvltaGiwbuyHASraysjHdzhg8fHoMRXNTU1gERJ3Y+x4XY9ttvHy+E+Mtn+Cx3ZdTysQ9xgczF1qOPPlrnwHzMz+dUGsom5WuPPfYI7du3z42Vyg+VZyqqBL9/9atfxYpYId26dYt3ib///e/Xe5/mbjQVbtr3JwjQvfXWW2HQoEGx5+m0fv36xfGvv/56PF+lUTmlkk7gYaeddsqNLY5zG2n9vXr1yo0J4cgjj4zHNs69danPejZ0G3FNcMstt4S1a9eGT37ykw1+8hc3IMi4ePrpp8OPf/zj2JdCIaX+z0tBhZ1gTaHmoWx3piWV+rZt24a+ffvGfi3YrmkEX5D+P5WCrBS29xlnnBGzUYplmdVnPcsVmTsHHHBAvOFUn4HPJFk/kqQtMPhApJ6K3C677BL69+8fT8Y77rhjvJDhhMwFSDEECDhBEnDg83yWOyy85q5CsU6FuLghu4ETOx1r8b285sKJCzgqS8nJXy0bFyH0BcL/nqAVnVgVG5jOfMzvxUvpSONlu1GupHLGPnrggQeGa6+9NlbGG1LOqUySKcC5qFDFedKkSfHOP+e4BNl/HF+22Wabjb6Tijt3sakcpzP6eE0TgaQTx7rWlezBV155JTb3KCUYwHmZmwD0t5RkLjRkPQupbRvxnTfddFNsl1+s8lwqbijQ18MxxxxT9PjTkP85HWCy3fP7huCmRn5wJ9G9e/c4LbmpwvccdNBB8Vrl//7v/+Jn2eZkY/KeoBD/qzS2Kx1IFutYlP8Vv+MrX/lKfF1MfdazXLGt2D/YhvUZ+Iw3DyTpI1vk1TknA+4CJNq0aRNTswk81NbLNxdBfI4LnvQFA3dkOKkS2CgUvCCtkTRH0kH5rjQuoPi8J6ctC5Vjevtu3bp1bkxNjGc680lqmbhbz1MeaCLUEAS2eZoC2XxUaPMr+VQeqXQTYE9XDgkMkIKfbvaQ4NzGeOZJn8+4y81d/U9/+tPVnUfWhgAq35FuLlEbsirok4Hfkdwhb8h65qttG3FTgIo3wYJ99tknN7ZhWO6nPvWpjZp85NvU/3ka1yQEMwoFMBjHNLZPgpsdZGewrekPY9iwYeHEE0+M+wedetZ3nQhC0SSmWKAlUd/1lCS1XFtk8CH/Ag2cALmA4UKlEMbTRKJdu3YbBRC4AOLkzVCsMpkgPZQMCrIkSBelzwezHrZMxQIQBh4k1YVAOX0GXHHFFTHFn4p1Pip9dPBIdt6moJnin//853DaaafFu9SlKPSEjWI4H9IRIc1D6PyQCnpjqG0bEfAnKMH5l2YDhQIc5eKLX/xi3J6lNFWpDcvgaRdkP7C9yWT593//99gRJU8c4QZKGtdKNKvg6RjpZjuSJDXUFhl8yA8eJAgw1Jb5sCm4A0X6K5118agmXnOh1bt375h2qC1TfgDCwIOkunCuop8CnlRw0kknxQpkOpsvQX8JnO/quhtfG55CQOCBZhvjxo0rePc6H+tX6AkbhdAnxbe+9a2YoUFfCDRNbAx1bSM6faTJwGc/+9lN2j6bC2568EQRtgvb+eSTT47ZHgQ2aNZBgIEnjZiFKUnK0hYZfGhqZDvwRAzuQtH0glTFI444InaIx12hulIW1bIlAQiyagw8SKoNwQCaCvC4xFNOOSV8/etf36gzRlCJpD8DAgD56fQ0waAfCCqi+fgc42lKSGX94YcfjkFzmgqUmpFQ6AkbhdAUgqAAfSlxJ56OYtPqs55pdW0jKuJkQ9AZ4P77758bu/nht3PDpFDAgHFMS/pZ4IkT//rXv8Jxxx1Xo+NHgkl0nk3zCTo4LvQ0kE1Vn/WUJLVs1npLxAUUKYikK+b3AA4uorjTU6jjK5pr0Jkld1fobDKdecGyCn1GWxYCDocccoiBB0lFkRZPejxPU6DvBSrVxTr6W7p0aQx6k0mQn+1HH0dU9sg6yMf5iE4c6biVSiHBB/pdOPXUU2PqfTL8x3/8R1w+wfT8DgkLPWEjH4+rJvBAAIGnPtAHQX5WRanrmQ4+lLKNeLrCXXfdFTM6CM4kv4lmDTwK+5e//GV8T0ZAOaPTa5rV8ASNfIxjGvOAaxc6fixUyU8HefifN7b6rKckqWUz+FAPNJHgjgrtU9MRfC6C6LiKO9eFUl+5oCJ4wYk9/Tne05aWi6X8adryFKtESBLniZ///OfhT3/6U6xQX3TRRQX7L0pQYadyXqiPBirsPGqaoEJ+R390FMmTB3hyA9kCZ511Vrj++us3Gr70pS/FCisV9e9+97s1nqZR6AkbaTx2+mtf+1pcPkGCYo/tLHU9k+BKqduIwEKh33TVVVfFLAD6gOD90UcfnftEedp2221jFgOV93yMYxrzIAkw0MdF/rUGN0h4pDPXKVlkYtZnPSVJLZvBh3og5ZQTJD1Fc8eHkzgXeNzB4W4Bd60Lnbi5wOJuAxdK3HGh+UXyOe5OkRJLBkQWdxwkSZs3Kot0CviHP/whXHzxxfGOfqFAdxqVOp7MVKjDR85JpNk//vjjMVCQIAh+5513xn6I9t5771gZJTOArIT8gYosj60ks4ImhEnwlGB8oSdsJAje//rXv459Qfzwhz+Mj64uptT1RH22EUGNQr+JZm+sF9uN9+nmCeWIR5DSVOWBBx6IjxNNsI3pw2G//farrtRzfcL/ifFcw6SxbWlywfx19dHREPVZT0lSy/TYsxPDK1PnGnyoDzIYktRM7rAQPOCJFVzI0La12OPHuIDj7hMXa2Q6cNeH4AMnZC52uIBiebU9LkyStGUig4EnM5CaTn8F3KHnkYnp4brrrovnERDMfumll8LIkSOLnpcOP/zw2PcQGQjXXHNNrHxeeumlMWvg3HPPbXAnjHU9YeO+++4LTz75ZDzv0ZdE/u9goAljotT1rO822pzQ/INrj4kTJ+bGfIisDrYBzTrJRLn77rvj8OUvfzlmM5C1kgRgCOTQuSboZJIgDZ1f00SFDBH+X8cff3yNpi8Eki655JKNmtXUV33WU5LUMvVtvyrMm/pCqBg3btx67hhw1338+PG5yU2LlEoq5pKaXnOWP8u+StWc+wpPTaDjwqxReaYvhZtvvrnGYxWpdNLnQm3oPJEmEATDaZLAcj7/+c/Hu8rF0JSBxy3yfVQuefoBFVGyCepKv2ddr7zyyuqKcYLgwP/+7//GdclvdkFllkc30qShNnz2xBNPzL0rbT3ru40KoXLMdmPbU0HfFMn65P+WfMX+52lsY5ZTbB7KBtucYA6OOuqo+L8vFEDiBgiBmwkTJsRtSTMTnnzBE0EIUKQl/y+CQfn/53zJtuM7CVgUau5Sn/UsNwMGDIhZOjQxqo/vfOc7sU8wmrWUk6Y6pklSYuzYsWHVLIMP0havOcufZV+las59xQt1actGM56rr746965+CGSRYVJOPKZJamoEHypXzTH4IG3pDD5oc2DwQVJzobNxmqk0BI9zpfltOfGYJqmpxeDDsrcNPkhbOoMP2hwYfJCkxuExTVJTO+HI/cL0l1+ww0lJkiRJkpSNBx57Pkxb3N3ggyRJkiRJysbOu+0V9j90T4MPkiRJkiQpG/17dwkdWgWDD5IkSZIkKVsGHyRJkiRJUqYMPkiSJEmSpEwZfJAkSZIkSZky+CBJkiRJkjJl8EGSJEmSJGXK4IMkSZIkScqUwQdJkiRJkpQpgw+SJEmSJClTBh8kSZIkSVKmDD5IkiRJkqRMGXyQJEmSJEmZMvggSZIkSZIyZfBBkiRJkiRlyuCDJEmSJEnKlMEHSZIkSZKUqbIIPlRUVIT169fn3klqKpQ7yl9zseyrFM29n0qSJGnTlUXwoV27dmHFihW5d5KaCuWO8tdcLPsqRXPvp5IkSdp0ZRF86NKlS1i0aJF3QKUmRHmj3FH+motlX3Uph/20srIyrFu3LvdOkjZfHMs4pklScyiLo0+nTp1Chw4dwuzZs8Py5cutiEgZonxRzihvlDvKX3Ox7KuYctpPe/bsGebMmZN7J0mbL45lHNMkqTlUjBs3bsM13vpQVVUVxo8fnxvdPJYtWxaWLFkSVq1aZSVEyght50lh505yc1bo0iz7yldO++nMmTPD66+/Hg4++ODQqlWr3FhJ2ryQ9TBhwoSw/fbbh0GDBuXGSlL2xo4dG7OuKo466qgYfGC49957c5MlSVJi0qRJYe7cuWHUqFGhX79+BiEkbTYIOpDxMHny5NC3b98wevTo3BRJahpHHnlkvLFUVpkPkiSVKzIgpk2bFhYsWBDPmZK0OeBuI00thg4dasaDpGZRnflg8EGSJEmSJGUhCT7Y3a0kSZIkScqUwQdJkiRJkpQpgw+SJEmSJClTBh8kSZIkSVKmDD5IkiRJkqRMGXyQJEmSJEmZMvggSZIkSZIyZfBBkiRJkiRlyuCDJEmSJEnKlMEHSZIkSZKUKYMPkiRJkiQpUwYfJEmSJElSpgw+SJIkSZKkTBl8kCRJkiRJmTL4IEmSJEmSMmXwQZIkSZIkZeL+afPD4unPGXyQJEmSJEkZeWdymLSwu8EHSZIkSZKUkVV9w8jRQw0+SJIkSZKkjPTrHrq2ss8HSZIkSZKUMYMPkiRJkiQpUwYfJEmSJElSpgw+SJIkSZKkTBl8kCRJkiRJmTL4IEmSJEmSMmXwQZIkSZIkZeLw0f1D2w1/DT5IkiRJkqRMGXyQJEmSJEmZMvggSZIkSZIyZfBBkiRJkiRlyuCDJEmSJEnKlMEHSZIkSZKUKYMPkiRJkiQpUwYfJEmSJElSpgw+SJIkSZKkTBl8kCRJkiRJmTL4IEmSJEmSMmXwQZIkSZIkZcrggyRJkiRJypTBB0mSJEmSlCmDD5IkSZIkKVMGHyRJkiRJUqYqly9fHhhWrFiRGyVJkiRJkrTpiDUQc6js2LFjYOjQoUNukiRJkiRJ0qYj1kDMwWYXkiRJkiQpUwYfJEmSJElSpgw+SJIkSZKkTBl8kCRJkiRJmTL4IEmSJEmSMmXwQZIkSZIkZcrggyRJkiRJylSLDD688cYbYfbs2bl3G2Ma86xduzY3RpIkSZIkZaVFBh969eoVli5dWjC4wDimMU/r1q1zYyVJkiRJUlZaZPChY8eOMcjwwQcf5MZ8ZOXKlXEa80iSJEmSpOxVjBs3bv0GoaqqKowfPz43evNH04o1a9aEgQMHhsrKD2Ms/MZ33nkntGnTJmy11VYxEPHWW2+F5cuXx+kYMGBAnJZYsGBBnAddu3YN3bp1i59LllvKMiRJkiRJ2hKNHTs21p1bbIeTXbp0CcuWLQurV6/OjQnxNeOYRvbD22+/HbbZZpswZsyYOIwYMSLMmjUrNssAf+fMmRN23HHHOJ2AAp9JlLIMSZIkSZK2dC02+ECzik6dOoWFCxfmxoSYncA4ptHfw/Dhw0Pnzp1zU0No3759zG4AWRJkPfTr1y+OB/OS1ZCoaxmSJEmSJKnMml2QlbBkyZKwatWqwDqVYvDgwblXGyN48P7774chQ4bENA+aXBAo6NmzZ26Oj5pizJs3LzcmxOwFggg0pyDbIR1cYJlkNRRqzpG/jPTnEtOnT8+9UikqKipCu3btYrYKgaNyMHPmzDBt2rS4L/C/lzgWcFwZOnRoGDRoUG5s85oxY0aYOnVqPAa6n0rZoOzTgfWwYcPCtttumxsrSZLSkmYXZRN8IENhxYoVoXv37qFDhw6x0rmpaBaRBBBAPxAEIshYSKbRKWXSR0N6/lKCD2yz2pZRKPig+mHfZL9YtGhR3C969OiRm9I8Jk2aFObOnRtGjRoVs2JatWqVm6It2bp162ITrcmTJ4e+ffuG0aNH56Y0jxdeeCHupzQZ69+/v/uplBHK/nvvvRdeeeWVWPZ33XXX3BRJkpQoqz4fyHiggkmFnSYRjRF4AEEGAgBkUzDwOnm8Jh1FYpdddonfCwIHDGDjcMc93WcEyMpI1LUMbTr2BfYJti/7CPtKcyHjgQrdwQcfHINNVuiUYF9gn2DfYB9hX2kuZDywDoceemjYeuut3U+lDFG+KGeUN8od5U+SJBVWFsEHAgNkPDRW0CGNO+XcNacTSFL309KBAv7SeWTy1IokjZq7mUmQgYwHlpNW2zLUeNg32EfYV5oLTS3IeLAyp2LYN9hH2FeaC00tyHhwP5WaDuWNckf5kyRJhZVF8IFsAlLqs9C2bdvYV0CfPn3iHfQEWRCkzZMqOXHixPDiiy/G98yXVHDz56HZBk+2SJSyDDUe9pF05klTSzoglWrDPsK+0lzo44GmFpKaFuWO8idJkgori+AD7fqzyHoAGQx0AMfA6zQyG5JHZDLwlArmS5pQID0PT7ag2UabNm2ql1XKMtQ42EdK7Yg0C/Tx4d1k1YV9pDk7eHQ/lZpHc5d9SZLKXVkEH8oRFxC02ybbIUHzC5ph5DffkCRJkiRJxRl8KILMBjqQo58HmlQw0LyCZhc0t5AkSZIkSaWpXJx7oY3RxIKmFulmFQYeJEmSJEmqn8pOuReSJEmSJElZqGydeyFJkiRJkpQF+3yQJEmSJEmZMvggSZIkSZIyZfBBkiRJkiRlyuCDJEmSJEnKlMEHSZIkSZKUKYMPkiRJkiQpUwYfJEmSJElSpgw+SJIkSZKkTBl8kCRJkiRJmTL4IEmSJEmSMmXwQZIkSZIkZcrggyRJkiRJypTBB0mSJEmSlCmDD5IkSZIkKVMGHyRJkiRJUqYMPkiSJEmSpExVjBs3bv0GoaqqKowfPz43umlNnz49DB48OPcuG3PmzAlvv/12GD16dGjbtm1urDY3TbGvFHPLLbeEU045Jfeucbz44ovhpptuiq9PO+20sMsuu8TXhTzzzDPh73//e+jfv38488wzQ+/evXNTVG6y2FdK9de//jWcfvrpuXebLr2P1mXPPfcMhx9+eLj//vvDwoUL4z7dsWPH3NTyMH/+/HDDDTeEAw44oNbytimWL18eXnnllTB58uR4zFq9enUsr4MGDQq77bZbPIZVVtYe+//Xv/4VbrvttnDUUUeFfffdt875VR4au/xJktQSjB07Nl7LbBFXM0uXLg3Tpk0LBFmkckUlZc2aNbl3Na1atSrMmDEj905qOj179gxHHnlk9XDYYYfFSnSfPn3CIYccUmPakCFDtuhKMucYgg5XXHFFeOihh2Kg8IwzzggXXHBBDCAsW7YsXH311eHWW2+Nr4tZsWJFmDJlSgxUENAx8CBJklqCFn9FwwXeq6++GhYtWpQbI5WfYcOGhdmzZ8dAWSHcRX7vvffMdlCT22abbWKWQDLst99+sVLdvXv3sPfee9eYRmZZ+/btw4knnhjOPffcsst6yBoBxLvuuisGYT7/+c/HgMyIESPC0KFDYxDhk5/8ZDj11FNjRgSZDWQcFjJr1qywZMmSuE3btWuXGytJkrR5qyQ9lIE7LS0JF3VcwE2cODG+5u6dVK522GGHWA4JMBTyzjvvxMDDdtttlxsjqZwQ6H788cfjuYaMkE6dOuWmfKSioiLstNNOMRCxcuXKmNFUCMHIz33uc6Fv3765MZIkSZsvYg3UdVqNHj360jZt2oTWrVvH9NDmQFYCd9EaE8sk8EBq8MiRI+OF4dq1a+Mdu1atWuXm0uYmi32lVNytHDVqVO5d46AvEtK0uYNM1gMFk7uk6TRr2ovT38PWW28d9925c+eGnXfeucZdZfbvp556Kvztb38Ld955Z3jjjTfCunXrQr9+/Wrs76SFE+C477774rz33ntveOutt2Jzj/x5k2Xefffdse35gw8+WHRe1ZTFvlIq9icquFkhmMv+ReV5xx13DJw/0tg/2AfZd7bffvs4nSZDP/3pT2NfB6+99lrsE4N98N133w1dunSJZZqKeYL9lD567rnnntgX0YQJE+K8nTt33mje2lC+2MfZ11944YXQoUOHGBRgG2277bbxfJDg9zz99NPhjjvuiH2rTJo0Kf4Wgn6l9BM0derUWEYOOuigmPlQDGV7+PDhMZCY3nb8ZsoX60uZI4Piueeei7+BgAa/PcG5jIw+tjPb8sknn2zQ9lHjy7r8SZK0OaLJKddTrTZUzC9lBBc+LSn4wEUjF2zcQaKSRCdjBh/qh32CpgB0OEflYebMmbUOVBYIYnEBnNXFb0sNPnz84x+P24zKBxW2dKr1+++/H4MPBCh4nR98YN+mkzP+B9xR3X///eP/4eGHH46p21SEkn2eeehsjwrfoYceGnbfffcY8Hj00Udj+WBe1oPtTCeDZFyMGTMmLpMgHs0/mJcK3MCBA8uiksN+SoWWytrzzz8fK5m1DVQq2b5UKrNa/y05+FBo+uLFi2MwmP2XYwpNN3bddde4f7GfcqwmoAX+n/yPbrzxxjieyjzNOdjvqdzTrGPAgAF1/u84Zl1//fXxNf1UUNmnMj9v3ry4fxMISYIPBP4IULDerNeBBx4YunXrFptGEFSgj4vampDwm9m3WA59O6QDBaXgNxP4YB0oV2wfyl3Xrl1jkIF14FxG8ITveuKJJ2JghuPAwQcfHH8bx99HHnkkBil79eqVW3LLVo5l3+CDJEkb47qOc2+L7fOBizYuUO2oq+HYQdiGXHhTaaCiXGxgOvOVUilQYVT8CSRQyUojYEDApUePHrkxHyFg8Oyzz8bsiE984hOx4kMlhbTvs846K1aCueAGF+pvvvlmrJgcd9xxsS06lZZjjz027LPPPvF/mPQ5wXeSEn7SSSeFvfbaK2ZjUJHkPU8IYDlULssB+xvNVqg0st6sW7GB6czH/O6nTY99kKeAEPQimMVTAdivqOQTKAPBATId6Gzx5JNPjtPZV3lNAI7gFwGM2lAeWCYBDb6DyiDfR4CddeCYlaAyT5YGy6QnZvpZoAxRlvgsgROCf5S1YsgyIojHeach/VyQhkiw5GMf+1h12WQdWBfKJ/stwQXwPQRJ2BYEHpiP3zdu3LgYUCEDgt+0JbDsS5K0ebFmrjoRVKCywN30QhjPdOZTwxFcoHM/Oq1LKg9k8FCZoFLBHd983MHlwprKB02M0rgDSsWEbIp023KaUyxYsCBWwkCAjscj8vhOKk/gTvPFF18c78KmsQ58D+uXfL4cUJlgnak8FkuRZzzTmc/KR/PgOJHux4C70FQIubNPFgSoWLN/kcWT/l9ynOF/RxYP+3xt2L+pzFPRJMsnwfLy70p/8MEH8fsJqtEUI43MCDJYeFoSQYhiKKdkBbGOxY6TtSGTiEDHMcccs9Hnyf5gPfLLG2WfoEWCsnvOOefETJEtKehu2ZckafNh8EElKRaA4L2Bh8ZBxZ4gA3foCBCACg93ZKkUFbpoZj76cKCyRpCBSlIyUJljPMsg+MDnyXQgY+H3v/99fBwgadp0zJoEO/JRqSITg8reY489Fpts0KleOaqtEmLlozwkTSvSyOqhcs1+RnYBGTiMSwcNElSwqYxT8WbfLIZAAMsp1GFj8n0JMi4oQwTV8ivtvGedKSPFnkQDmpbQTKNQUI71pA+Jb33rWxsNBEjS+CxlmvE0d6NpBU2q0h3R0vSCPiNoQvKzn/0sXHfddbHJAeW8nAKCTcmyL0nS5sHgg0qWH4Aw8NC4uDAm04CKBndukXTIV6wNN5Uw0Bb+6quvrjFcc801sckFadqkoYMgxnnnnRdTyql00bnd5ZdfHn7961/HeZMgBBUmggw//vGP47Q//OEPsTJEBY2U8HJVqBJi5aM8UImvq98EKs8MVPo35X+V7O+lLIPvZf5NyRYgG4PsBcpj0nwkwXJpUsVjN5OBbI98BBmvvfba8IMf/CBceeWVseNLgig0O0mXf5ZH+eVRpgQTCQzS6eRPfvKT+Pm6mqS0VJZ9SZLKn8EH1UsSgCBd2sBD46NyT3MJMheoENEEo1iTC3C3FWeffXa47LLLCg5f/OIXYwdrCV6T3v2f//mf4T/+4z9im3IqTzzRguwJKn/0I0EnbnSE+fWvfz1873vfi80w6Esi+c5yla6EUCG08lEe6Gch3UwgkQQcqCjyP2IolEFQH0nls5RlUJln/iTw1hAsg3JLtkXSfCRB2WL/o/+GZKBT2TSCDLfffnvcPhdccEH4zne+Ey655JLYFIqmI/n4PrIf6Oflm9/8ZvjsZz8b+20ha4onZeQHQLYUln1JksqbwQfVGwEHKqEGHhofKdVsV9K86XiPoViTCxCU4K4o2RL5FS2aWvBYG4IKNLUgA4L3VE7oII8KDIEIKi0nnnhi/Ayp5XyOtG/6i2Aaqe7MCzIiamv7Xi6SSshFF11k5aOMJJk6aexPBCbIjCCbiv2ZJhiF9jP6ZyAriKYT+U/ZSKP/FJZD5lC+pM+TBJlFNMMgY4BykUZAgnWjI926nmBBkJBOLenktb6Vf8ovgQOCfXTumgRPQJkkqJHg2ECzKZ6CAeblGEFAkYwIfl+6j5ctjWVfkqTyZfBBDcJdJTU+LpSpfFDBoJkDwYhiTS7ANIIEL7/8co2nZBCIIB2b8bR7J1OFgawFxqcrM6CyQqZFcveZSiAVsXRlLFkmlSva5tfW+3854HdQCbXyUT5eeumlGn0nEBSjvwIq7VtttVUcxx19gmo8rSJpPgH2N5oGMY59vjZJueD70uWCz1Ku0ssluMa8PCKRAEAaQQH2dyr3dWX8cEyk8k+wgr4aCgUgKEMEROivIS0JpLBe6SAigQQeUYokoECwhHI6ZcqUGr+Dz/GeaUnTuC2VZV+SpPLUasNF36W84MKFx5A1B+6GcScrK/w2HmHIxSt3uEiD1eYp632lNlRC6Pm+MVFRodLDM/2T38X+SfMHKkn0wE+77uQimmYYVKZ4vj/t55mXDvhef/31WInjTi3ZCTzT/v7774+BDHq/J/DAMrh7y7x8J58lG4Lf9dBDD8V5eawmFT/KCn0+cPeZygzBCt5TaaIixni2RUMeK7glyGJfKRX/2/wnOjQm9jGeSEHggP4I8jMQCk1nf6ESTQWaCj6VY/bj++67LwbajjrqqOrOIdmnGNgnmYesG5ol8PhN9usDDzwwLre2imVSLsgOSPZ1siZYJpV2PktzBs4HvOa7k6AA5Yf9n8+yfqzLEUccUWfmAyjDNJ3it/JI0CR7g+9mm9A3C4EJfhOP1CTowWvKJ+co1hV8P+WULCXKH+tPZZq+I5L3Dz/8cPwM25fj4hNPPBGbS/EIzvQxQ00r6/InSdLm6MYbb4zXJgYftFnZEoIPVCZIC6dSxnP80783P/gA7rhy5xjcLSZIwF1XKiGHHnpojSwVXlPhYfnM++STT8ZKIo81pClN0rcElTEGMh2oRFExIzhBhYk7xc8880zseJIKnjZm8KFw8IG+SdjHeMoKWQn0k3D88cfXeKQrJyaaYBDkov8EKtVsTyrfNC0gIJc0A6oN+zpZFFT82YdZBs0nKFPszyw/eeoFFXoq7GC9WD+yDugYksBIqccc1p2sC/rDoUkT38NTYigvSdMSgoEsk9+e/A6+n/VhXZmXIAtYV5picCxge7KOBG5YDo/lpW8Yls8683vpv4Vjg4GH5mPwQZKkjSXBh4px48ZtqJuvjxeM48ePz01uWkmnelJdmnNfoUf5U045JfdOKq459xUezXj66afn3pUH+hDhCQ50jEglW2qpyrH8SZLU3OgEmpsu9vkgSZIkSZIyZfBBkiRJkiRlyuCDJEmSJEnKlMEHSVKm6Ofhsssus78HSZKkLZjBB0mSJEmSlCmDD5IkSZIkKVMGHyRJkiRJUqYMPkiSJEmSpEwZfJAkSZIkSZky+CBJkiRJkjJVuTj3QpIkSZIkKQuVnXIvJEmSJEmSslDZOvdCkiRJkiQpC/b5IEmSJEmSMmXwQZIkSZIkZcrggyRJkiRJypTBB0mSJEmSlCmDD5IkSZIkKVMGHyRJkiRJUqYMPkiSJEmSpEwZfJAkSZIkSZky+CBJkiRJkjJVFsGHioqKsH79+tw7qTD2EfaV5lJZWRnWrVuXeycVxj7CvtJc3E+l5tHcZV+SpHJXFmfJdu3ahRUrVuTeSYWxj7CvNJeePXuGOXPm5N5JhbGPsK80l169eoX33nsv905SU6HcUf4kSVJhZRF86NKlS1i0aJHZDyqKfYN9hH2luQwdOjRMnjzZu8oqin2DfYR9pbkMGzYsvPLKK+6nUhOivFHuKH+SJKmwsgg+dOrUKXTo0CHMnj07LF++3CCEqrEvsE+wb7CPsK80l0GDBoW+ffuGCRMmhFmzZlm5UzX2BfYJ9g32EfaV5rLtttvGdXjggQfCu+++634qZYjyRTmjvFHuKH+SJKmwinHjxm2o360PVVVVYfz48bnRzWPZsmVhyZIlYdWqVQYgFNHHA00tyHhozsBD2syZM8O0adPCggULYrmRaOdNUwsyHpoz8JA2Y8aMMHXq1PD++++7n0oZoezT1IKMBwMPkiQVNnbs2HjOLKvggyRJkiRJajmS4IPdMkuSJEmSpEwZfJAkSZIkSZky+CBJkiRJkjJl8EGSJEmSJGWqkscYMqxYsSI3SpIkSZIkadMRayDmUNmxY8fA0KFDh9wkSZIkSZKkTUesgZiDzS4kSZIkSVKmDD5IkiRJkqRMGXyQJEmSJEmZMvggSZIkSZIyZfBBkiRJkiRlyuCDJEmSJEnKlMEHSZIkSZKUKYMPkiRJkiQpUwYfJEmSJElSpgw+SJIkSZKkTBl8kCRJkiRJmTL4IEmSJEmSMmXwQZIkSZIkZcrggyRJkiRJypTBB0mSJEmSlCmDD5IkSZIkKVMGHyRJkiRJUqYMPkiSJEmSpMxULXjT4IMkSZIkScrKkvD2lGkGHyRJkiRJUkZWfBDmLbHZhSRJkiRJysrq1WHBhj+Viz98K0mSJEmSlInKTrkXkiRJkiRJjapth9B3w5/K1h++lSRJkiRJalwduoU+ve3zQZIkSZIkZaZD2Gq77Qw+SJIkSZKk7FR2HWrwQZIkSZIkZcvggyRJkiRJypTBB0mSJEmSlCmDD5IkSZIkKVMGHyRJkiRJUqYMPkiSJEmSpEwZfJAkSZIkSZky+CBJkiRJkjJl8EGSJEmSJGXK4IMkSZIkScqUwQdJkiRJkpQpgw+SJEmSJClTBh8kSZIkSVKmDD5IkiRJkqRMGXyQJEmSJEmZMvggSZIkSZIyZfBBkiRJkiRlqnL58uWBYcWKFblRkiRJkiRJm45YAzGHyo4dOwaGDh065CZJkiRtfpYuXRomTpxYY2BcPi6Aqqqqcu8kSVKWiDUQc7DZhSRJ2uwtWLAgzJ49O+yyyy5hzJgxcdhxxx3D22+/HacleD1//vzcO0mS1FQMPkiSpM0aWQxkOPTq1Su0bt06NzaE9u3bh379+sVpZjpIktS8DD5IkqQWYdWqVblXH+nZs2cYNGhQqKysjFkPb731Vpg3b16YMmVKWLlyZZyHjIl0U41XX321etratWvDG2+8UaP5Rv44AhszZ84s+HlJkvQhgw+SJGmzRmCBIMOsWbNqrfwzz5AhQ0KfPn3CiBEjYmYEAYk1a9aE3XbbLTbV4G+nTp3C3LlzS86WmDNnTmjTpk11cw+yLerzeUmStgQGHyRJ0mavc+fOMXBAYIEOJV955ZUYiCBDgUyFYtKZEeAvyyoVAQaCF2n5y5QkSSFUjBs3bv0G8eQ5fvz43OjmQcritGnT4l0I7xZI2UjuEA4dOjReHJcDy76UvXIs+8uWLQtLliyJzSW4FinF4MGDc6/qRrMImlcQkBg4cGDcBhxnGJ+8TyTzJpLPcEyiqcZWW21VHZQgmJEel/4svXmTXUFWRTHTp0/PvZKyV1FREdq1axe6dOkSs3okqamNHTs2nnPLJvgwadKkmKI4atSomK7YqlWr3BRJjWndunUxRXjy5Mmhb9++YfTo0bkpzcOyLzWNciv7CxcujM/97t69e3wEFxWkLBAY4IkXSUAgP/jAewIJ6aBBep5Sgg8J5n3nnXdinxKlBCGkpsB1PmVt0aJFsaz16NEjN0WSmkYSfCiLfEDuelL5OPjgg8OAAQOsfEgZonxRzihvlDvKX3Ox7EtNp5zKPhkPVIaovFNJ39TAA4GCYv088PSL9BMw0ggW8FmCBCNHjqwOFBTquDKN4EOhphxcWJFVkvQbQfMPqblRvihnlDfKHeVPkppDWQQfSLfmrqcVD6npUN4od5S/5mLZl5peOZR9mlqQ8dBY2Q5UrKjsk+GQHxQgw4LshCSw0LZt2xhcIPCQSAcbyHqg48oEAQVS1hmffIZlJoEFxhHI4YkZidWrV8dlsl5SuaC8Ue4of5LUHMoi+MAJnXRrSU2Lckf5ay6Wfal5NHfZp2JO+ndjSTIOevXqFV588cXqR14yEDjgjm8iCUIwHwEEskHIfkjm5/Xw4cPj3WGCCCybeVjn559/Ps7Dunft2jUuJ5meXgadXfKdNrlQuWHfTQfbJKkplUXwgbsG3vmUmh7lLn33r6lZ9qXm0dxlnzboWfTxQIeayeMuk4FxaTTBILjANDIi0u8ZCGIQWEg3w8ifh7vHvE/6e8ifzpDuC0IqF5S7Ujt3laTGVhbBB0mSJEmS1HIZfJAkSZIkSZky+CBJkiRJkjJl8EGSJEmSJGXK4IMkSZIkScqUwQdJkiRJkpSJ5598JNx330MGHyRJkiRJUjaqeg0Lu++xk8EHSZIkSZKUjd223zr07tnb4IMkSZIkScpGEnQw+CBJkiRJkjJVuTj3QpIkSZIkKQuVnXIvJEmSJEmSslDZOvdCkiRJkiSpMVXl/trngyRJkiRJysTzk98OcxcsMPggSZIkSZKy0WHZjPDCv/5l8EGSJEmSJGVj1Mf2C0cccYTBB0mSJEmSlC2DD5IkSZIkKVMGHyRJkiRJUqYMPkiSJEmSpEwZfJAkSZIkSZmqGDdu3PoNQlVVVRg/fnxudNO65ZZbwimnnJJ71zhefPHFcNNNN+XeFTd8+PBw2mmnhY4dO+bGKN/atWvDlClTwlZbbRV69uyZG6uWIovyV6qmLvvdu3cP22yzTdhzzz3DkCFDQkVFRW6KtOVpzrI/ffr0MHjw4Ny7xrVu3bowb968MHv27PD++++HNWvWxLLfv3//sPXWW4e2bdvm5lRDzZo1K0ybNi3stttuoVOnTrmx2lxkWf4kqZCxY8eGysrKlp/5sOuuu4Yjjzyy6DBy5MjQunXr3Nwq5JVXXgkPPvhgDFBJm4tCZX/nnXeOFZJrr702PPHEE5vNPv3222+Hq666KlxzzTXh+eefD/Pnzw8333xzmDRpUm4OSVi2bFl47rnnwssvvxyDDKNHj47Bxj59+sQK18SJE8PSpUtzc0uSpKbU4oMP22+/fTjggAOKDh//+Me9CyK1QIXK/lFHHRU+/elPx6yHl156KSxevDg3d/lauXJleOyxx8Luu+8ejjnmmDBjxozw+9//PrRq1SoMGzYsN5ckysrkyZNjth7n9h133DH07ds39OrVK2y33XZhjz32iPORybd69er4WpIkNR37fJC0RenSpUvYYYcdYjbBe++9lxtbvtq3bx/OPPPMMGbMmJg2TtraJZdcEsaNG2e6s5RD89F33303LFmyJAYeKef5GLftttuGuXPnhjlz5uTGSpKkptJq5MiRl/KCE/cZZ5wRRzY17lSMGjUq965xcGFBcwHufHDBXgpSma+++urQr1+/2E6UPjBoE0tqM9uH8dxtTCPF86mnngp/+9vfwp133hnvSpJJ0bt37xrtybnL8q9//SvOc9ttt8Vl0g6VVNA2bdrk5grx86SE810PPfRQ+Otf/xrTxGmnzm8qNq1du3axIvXPf/4z3HPPPfF7nnzyyXgx1rlz59jeNVmf5Dto70ebTdaH4Y033ojrzl0i2uSwfiznvvvui2mq/E4qbFzYsc5sE76T6fz+CRMmxO/jAi/9fSpvWZS/UjVX2aesMw9BCOZJyj59mrzwwgvh+uuvD6+//nrs54T9uT77en5ZJwWcdWLZlMVEqfMl311K2QZNSSjLzPf3v/89Zk3Q/r1Hjx5xfsulEs1Z9hctWhT33cayatWq8NZbb4WuXbvGcyLnsEJoZrl8+fLYzxPlNykPlEeaZZAVQZONN998MyxYsCCWJ8pNsjzO+c8880zo0KFD7PeAZlCUL76X5dKsg+Xyefqf+eCDD+LvTM6ZLPO1116LmVesL+dW1oVzeBrzslyOU1wvcIxi3VnPhx9+OF5jsA7JvCyXdWfZDO+8807BZbNerDfryPezbI4XrCfBzELrwXGJfYV5Ce4wH+uxcOHCeIxMZ4+SfcJ1BevNZ1hvlpHehmp+jV3+JKkuN954YzznGnxI4cKBiw5OwvzlTuNee+0VLz4ef/zxeLIlXTs5gXL3hADAzJkzY5vS/fbbL57s6R+BiwI6tmIjM45ABhUN2qEffPDBoVu3bvE9nx06dGj1yZs0cCohjOfiglRx5uViipN+sWlcPFx33XXxBL/vvvvG9eF3cxHABRCBBi6Oku/g97H+VGD4jaR0M55158Ji4MCBcd05ObFMtsnxxx8ft2dS2eHiiR2JO7OHHHJI2GWXXeIyH3jggVjRIUjCfCpvzVkBaY6yT3lm3+VifZ999okX4UnZp2yxz7I/sw8PGjQoXvCXuq8TsLv33ntjmaNMUUYHDBgQKwNJOaQ8lTofqFCUWrb5bQQb7rjjjjj+oIMOisFCKlUEDym7BDwtl0Jzlv3GrvxwnqVMUDY4PxZDEICyxrkzKQcrVqyIZYlzIOc+zvM012A8FXTOz8m6UnYJBrL+fJ7mHJzvOQ5wjcA5lWmUV87tHDOSz7Isjk1Mo7NryiLHIcon65MOJjCO/w9le8SIEfEzfJ4KPxV81jOZn+MWxyiWwbonNyQ4RnEjhe2R3OTg+/idHCcZxzoS8CRIwM0FXrPOYD34To6NrGty42Hq1KlxGuuRDj7wP2A7cjzl2Jl06sv/haANy86/gbMlYFtxo4htw80f/l+1DfwfOO/wP8/qWG3wQVJT22KCDwxUqIsNXDgkB+CkAsIdFFKamcbJknbVTONOAidfTsy0KeXuAyd2UqLpuJJ5mc7Fyauvvho/z7zcCeGOAduXigbzcWJmuQQg+D4qCvxDuCjgruZOO+0UO8jjhM/JnYBHsWmsC0EJ7nCcdNJJ8cKKCyEuTgiAsH1ZD74DLIcKChck/E7m4zXrwwUIgQYujLjIoGJG0IPfTkUtWRdOXFSeuHBhGYxnGcn/kYoOyzMtvPw1ZwUky7JfKPhAZYI7lY8++mgsqwQDkzuhlH0u3k888cT4OcoRZaA++zoX9iz7wAMPjEECyiHzUxnggp2KBO9LnY/KTH3KNhf5t99+ewxwHn744fEYQSWKDA8qIgQyWNek0qItW3OW/cau/FCmqOBRNjhv1QfnPc7lnFsp+5Q3Kn6UHyrYVKp5TcU5CT5QhjjG8F0cN5jGvFQuWUYSMKAsc27nvEpwkbLK9QLTGJiXijnlk+MKxyPeU1a5TkjmZTlcOzBfOvjAMSIJGiTzsv685y/HBLZzsk3YTgRIONZwDOS4xbKZzvZjmcn/JVkP1pnfw7z8Vo5BBEfAcYrgA08YIVuM7UMnn2wvvp9MSpZNxkU6iLMl4f+fbH/+H1xTsW0LDVwPcrzm/5tV4AEGHyQ1tST40OJz4Op62gUn6nxUMrgISHAxwIU+J3kq+qACz0UGFyucZBNUzDlJcyLmJE9lh6wELgo42afxHczLSZyLmzS+j+8tJH8aJ/Sjjz46BkHyKxWcXLgI4Y5oPi480r+fSgwXQpz8Cs2fRnSeCzAes5Xc9QC/n9/K55OLE6k53HTTTeFb3/pWjeH73/9+rJxzUU8FPT/FmP2fcpDWkH2ddGmOFwmWe+GFF8bgY1pd89WnbHPMoaLA8YHjHuuX4Dex/sldNUkfoQJNVlF+ZYzzLBVubs4wpFGZTLIJ8lFBT5c/UNaZn+9KVyoJWjCO4AeVUiRNFfKzB5NgRRrHCMo7x6L876Tyz3rmrzvjCUqml804lp9c44BrmELrwTZJX/eAijPrzfEn/7qKYAXLYDrBiS0V5x2O7cWu7RjPdOaTpJaqxQcfqGCT0lxsICqfjxNr/kmc95xck4oCwQLaTXLxnz4pgw6tLr744niHkTuq3PHgBM5FP1HvZKDCwome6cyXlkTJCyk2je8g2EGWAnd+77///th2neBHIfnL4XfwOwk+pCtEhXBRwueJnqd/EwMXGJxEmVZXEEPKSqHAI9kDX/jCF8LZZ59dsOyzT+eX5/rs61ReSDUmK+onP/lJfBwmWVAcO9JKnS9RStmmzLI+/K78QAX4TiouVHKklia/3DYEATzO7ZQjmhuQJVUsiJ4fuEzLn8ZyyVYg0EAZpwymB8o2QQSuAziOMA/BgELfwfVJIRwjOAbQLINrE7Is6L8mCWik8V2FKsBsQ4IDrEOyHhxL8teD+fKvH5iXa4dCN3T4LtabbVDXtUVLVywAwXsDD5K2BC0++NAQhU6e4CRe36g9J2Tumj777LOxQ7v8gb4kuPjgpJ1W7I4KCk0jE+PWW2+Nd3Z/97vfxY4yuQAh+JKfcZHg4qYQLg7Sdz/ysQ0ImLDeN91000a/6YYbboip71xQcdElNYdCgUcetcddxvzgYiL/Iru++zplk8d5nn766bGJBBf/f/nLX8IPfvCDWCYppyh1PpRatql8UGEo9tuklozKLeWXslhflF2CDHQkS3MozteUsUJ3+BOFKu+J/H4NWD7rRZCSZph0WJkeaPLFeZeBcsxQTKHzP8colksfNDQDozkN30ewsdB5nnXPX8cE65qsA69LDeok69wYQaCWLj8AYeBB0pbEq9SMceIn3ZDn81922WVFB7IlGoqLjLvuuiveqSE9m8fw/b//9//COeecU92mvTGxPAI0nCi/+tWvFvw9DLSdry2IIpW7huzr/KXN8/nnnx/L4rnnnhubPJCxwBMrkjt/pcxXn7LNRT+BBwIQ0paGwANllcyF2oLnTKOyT2ZAUhbJSiTziHJOcywCgzTDoO+j/GZYDUFFP2nWSF8sNKUqNNBPFOW4tgo8AYE0jhEcMwiU0n/MEUccEQ477LB4LKFpRUOxDqx3bYGQtGSdS51/S5cEINhvDTxI2pJUkubHwAlMpeOOCBcSSZvINNp2XnXVVbGjOE4sBCAKtXWkksCj++jJnlTJhuKz9D/BCYwOsEiTTC4EkmYfjYllk3JJRkf6Dm2C8b///e/D008/nRsjbZ7qu69TgbniiiviXVNQFqnAEJwgWED2FJWfUuerT9kmlZp+ZOiQjoyrfNx1ZX0LNTeRNneca8lSIEupUFlNUDY4R3P+JXiXlDPKBR0rEiRIyhgVfZoKbCqCgpTPpGlCPq4PyIKk7DIv1xeU70Lz5jej4D1lm8orvyGd0cDnWU5DJOtBMKfQNshfbpJ5Uuh6g23Mb2fbsh30If5nhxxyiIEHSVsEYg2cOyqpGDNwUavSJW226eCNC5kEgQjSN7kA4q4Dd2KoVFDZoLO3dKCCHqd59BKdU+W3n6yP5MKGE3x6+QQ7CICwLrzelDuiLDe97OTxXCw/fYGUfCcXQ3Q8JW3u6rOvc/HPwZXjQrq8UYnhs1ycU15Lna8+ZZtKBx3YEmDg6Trp5VJ5oP06zTSKNcOSNnfcEOBahqcu5FfSQTngqQugzFK+wF/KS7rMgKAAzaoKTasPghkERsi04IkS6WVRfsm8YB2SJp8EEfkM350u9wQCKN9pyW/Iz4jgu+gjBhw/GoLjFMcf1i+9fNYjfd0Dgg+sN7+P6WkEd/gtLM9syJrYbpK0JeD8TMyhxT9qkxMdF+jcPSw2cMJnYxCNIR2TJhBcxKQlyxszZkwMPHDC5y9BBcZz4U9k/4knngiPPPJIbF/OnUrm44TMHU4eb8kJnAsPPkencZx4SJFMgg/csaHtZvI9acWmUVHhN/LYTpbP/5LfxfK5CGBeLiBI6WQ9a/sOAifcfdl5553jNgHLYN35HpbDOjNwF4MO87gw4Q4SFxi0mWU9SF3l9yd3kFS+mvNxe1mWffa//HJcTG1ln4Nlqfs681KZYF7KDeWNi3Tek+Z96KGHxj4nSp2vvmWb9/xl3bgDyTpRWSHDiqYbHGv4jZZLoSU9ahOc7wnmU5bY35OMTv5SEef3EtzjyRCcl5EEHjj3EZyg/HAu5z03CAg8Mp7mk5Q1yi1liic45N80YD6+J3kMZhrHEMovncTGOz8bvpcACYESyjh9uPBd4HewTkxjXZiX7cV7voNjQfIdHI+Yh3WiXDONoAnHEX4Ln2W+ZNlka7IMjnNMT/A5jp18N4ESPsfvZfk8/rfQevB5jlPMxzSuC7h+YDn8VoIebEOCrGxvOuFOf6eaTxblT5Jqkzxqs8UHHzghc+KsbaCizUG4PsEHcKLlIoYLGzqNIvBAZYE2l8zHyRicmHluM5V5lkEFg4sjPktfENwNSDQk+MDJPEnbo+O6J598Ml5g0f6TihEXG6w/d0VZv/oGHwjO8B2klpO9QSYH07gYY5nMT3CCZTIvbVfTv1/lzeBD7cEHDpSl7uvMyx1VLrS5QCcIwF8+P3bs2JjWzTylzlffss1nyGwg64qncbCuBCuoIJxwwgnx4p95JLS04AMoB0mggCAh5zQCAlSu6dyV30vgII2yzJA85YLAHZV15mV5nPcoU5z3Ghp8oNzxGZbLb6d8Unb5Xr4n3T8D87JtWD5lnOsUyj3ZlnyewCPHD9aNYwTj+G6Co0lTLso6xzPO9wQBONZwnKpP8AGsA+tNgISsEb6b38fyWHYSfAB/+SzLZz3Y9uB4xnUDy1Z5MPggqaklwYeKcePGrSfwQJR9/PjxuclNi97bTznllNw7SU2pOcufZV9qPs1Z/qiYUilV/RAIIchAh5LJDQKpvix/kpoaN9cIbHtrWpIkqUzQbwKZhvmdN5J1QQYC2QhkPUiStLkx+CBJklQmunbtGrNRaQpGpgMBB/pOoOkV6fI0e0g3mZAkaXNh8EGSJKlM0J8Uj9ylrwXS4+lTij5h6B9ir732qu48UpKkzY3BB0mSpDJCh5V0Ss2Ts+jYlg5meZ/fkaUkSZsTgw+SJEmSJClTBh8kSZIkSVKmDD5IkiRJkqRMGXyQJEmSJEmZMvggSZIkSZIyZfBBkiRJkiRlyuCDJEmSJEnKlMEHSZIkSZKUKYMPkiRJkiQpUwYfJEmSJElSpgw+SJIkSZKkTBl8kCRJkiRJman6YIbBB0mSJEmSlJUVYfabUww+SJIkSZKkjKxYHObNt9mFJEmSJEnKyuoVYe6GP5WLP3wrSZIkSZKUicpOuReSJEmSJEmNqm3b0HPDn8rWH76VJEmSJElqXB16hq16l0mfD5WVlWHdunW5d5KaCuWO8tdcLPtS82jusl9RURHWr1+feyepqVDuKH+S1LQ6hK2GbVcewYeePXuGOXPm5N5JaiqUO8pfc7HsS82juct+u3btwooVK3LvJDUVyh3lT5KaWmW3oeURfBg6dGiYPHmyd0ClJkR5o9xR/pqLZV9qeuVQ9rt06RIWLVpk9oPUhChvlDvKnyQ1h7IIPgwaNCj07ds3TJgwIcyaNcuKiJQhyhfljPJGuaP8NRfLvtR0yqnsd+rUKXTo0CHMnj07LF++3CCElCHKF+WM8ka5o/xJUnOoGDdu3IZj0vpQVVUVxo8fnxvdPGbOnBmmTZsWFixYENdHUuOjnTfp1tz1bM7KR5plX8peOZb9ZcuWhSVLloRVq1YZgJAyQh8PNLUg48HAg6TmMHbs2HgdUlbBB0mSJEmS1HIkwYeyaHYhSZIkSZJaLoMPkiRJkiQpUwYfJEmSJElSpgw+SJIkSZKkTBl8kCRJkiRJmTL4IEmSJEmSMmXwQZIkSZIkZcrggyRJkiRJypTBB0mSJEmSlCmDD5IkSZIkKVMGHyRJkiRJUqYMPkiSJEmSpEwZfJAkSZIkSZky+CBJkiRJkjJl8EGSJEmSJGXK4IMkSZIkScqUwQdJkiRJkpQpgw+SJEmSJClTBh8kSZIkSVKmDD5IkiRJkqRMGXyQJEmSJEmZMvggSZIkSZIyZfBBkiRJkiRlyuCDJEmSJEnKlMEHSZIkSZKUKYMPkiRJkiQpUwYfJEmSJElSpgw+SJIkSZKkTBl8kCRJkiRJmTL4IEmSJEmSMmXwQZIkSZIkZcrggyRJkiRJypTBB0mSJEmSlCmDD5IkSZIkKVMGHyRJkiRJUqYMPkiSJEmSpEwZfJAkSZIkSZky+CBJkiRJkjJl8EGSJEmSJGWqYty4ces3CFVVVeHyyy/PjZYkSZIkSdo0F198caisrKwZfBg/fnxusiRJkiRJ0qYZO3ZsDD7Y7EKSJEmSJGXK4IMkSZIkScqUwQdJkiRJkpQpgw+SJEmSJClTBh8kSZIkSVKmDD5IkiRJkqRMGXyQJEmSJEmZMvggSZIkSZIyZfBBkiRJkiRlqmLcuHHrNwhVVVVh/PjxudGSJEmSpC3Z8lXrwrINw+q1VWFDlVFbsIqKENq2rgyd2rUKHTcM9TF27NhQWVlp5oMkSZIkqabFy9eGBUvXhFVrDDwoxH2AfYF9gn2jIQw+SJIkSZKqkfGwZEXDKphq+dg32Efqy+CDJEmSJKkaTS2k2jRkHzH4IEmSJEmqRh8PUm0aso8YfJAkSZIkVbOPB9WlIfuIwQdJkiRJkpQpgw+SJEmSJClTBh8kSZIkSVKmDD5IkiRJkqRMGXyQJEmSJEmZMvggSZIkSZIyZfBBkiRJkiRlyuCDJEmSJEnKlMEHSZIkSZKUqYpx48at3yBUVVWF8ePH50ZLkiRJUvaWLVsWbrzxxjBlypTcmI0dccQR4bDDDsu9C+Gf//xnuO+++3LvCjvzzDPDbrvtlnv3kdWrV4cXX3wxTJo0KUyfPj2OGzx4cNhzzz3DyJEjQ+vWreO4xLx588J1110XDjzwwILLW7NmTbjjjjvi6+OPPz60adMmvk5bsWJFuPnmm8PMmTPDOeecE7bZZpvclJpq2xbt2rWrdT0b0zvvr8y9Ks3rs5eFi695LSxatjY35iOtW1WEEQM6hvMOGhD236FnqKzITdhgwdI14cL/mxymzy3+fd07tQ6Xn79D2H6rTrkxH1m2al2487l54dan54SZ81eFdVXrQ8/OrcN+I3qEcw4cEAb1bp+b8yNPvbEofPEPU8JvzhsR9hrePTf2Q2vXrQ8TJi8M1z02K0yZtTy+Z3lHjO4VPnXg1qFPl4/+t6WsO/LX/0d/f2vD+s6Nr/MV+658/5r2QfjSn14LQ/t2CP9z7sjQY8N3FNLQ/0upBvbaePsWMnbs2FBZWWnwQZIkSVLzSSrcFRUVYejQobmxNfXv3z/ssMMOuXcfBh8IIIwePbpgZR8sa9CgQbl3H5ozZ0649dZbw/Lly8Mee+wRBg4cGNauXRteffXV8Nxzz4Xdd989HHvssaFt27a5TzRO8OHtt98ON910U2jVqlUYNWpUDKRQGcuXbIvu3buHXXfdNTf2QwQwXnjhhRg0OeGEE8K+++4bt1kWGhp8OGhUz3DAyJoVepb1t2fnhrfnrwqXjBsSjtu9T27KRxX4yg2/4+PDuubG1tSubatwysf7hX7dPvqf4NV3l4WvXfd6WLR8TTh4x15hn+27h07tKsNr7y4Pd0ycFxYuXx2+ctyQcMKYPhu2U+5DGxQLPhBo+J+7Z4QbnpgTttlQqd5zu66h7YYK+muzl4eXZi4Nvbu0CT//5PbVQQQCHzc8/l74YMP3Y03V+vDYa4vi6/126B7a5Grz+etP8OGRVxeGLxw1KHRp3yqOw+q1Gz4/ZWG454X3Y1DgV5/aIQYu8m2ouoff3Dsz/sY166rCpacMi9u9kIb+X0pl8EGSJEnSZiOpcG+77bY1shtqQ/BhxowZ4YwzzgidOm18R7yQJUuWhFtuuSVWgqgMdevWLTeFCt36mG3A9IMOOqhGxX5Tgw/Us1jfhQsXhgEDBsSgyVlnnRV69ty4wljXtiBrg++aP39+zOzo2rVwhX1TNTT4cMHBW4cz9umfG/uROYtXhy/98bXQtWPr8IsNFfjO7T+sVCfBhzFDuoZvnDgkjivF7IWrwuc3fF+71hXhJ2dvHwblVYIJDPy/m97csF7Lw2/P3yFs27tDbkrx4APBjM9f82o4frfe4d+O3jZmBiReeWdZ+Pc/vRYOHNkjfGPskNC6QJrAitXrwjdveCO+/uGZw0OHth8FFtIIPkx864NwxadHhZ6da+4rBBZufPK98Is7Z4QfnTU8HLrTxvvIe4tWh4v/8GrYf0T3+Ps6d2gVvn/adqFt642DWQ39v5SqvsEH+3yQJEmS1OK99tpr4d133w2HHHJIjcADCDRst912MbiwePHiGFBoLEuXLg1vvfVWDDxsv/32YdWqVWHq1Km5qfVDRgZNL8iCYDmbi75d24adB3UJC5etiXf4NwUV9NuenRvmL1kVvnbC4I0CD+jUrlX49CEDY+YAlfVSLF6+JixdsS7ss6FSnw48gEyEfTeMn7Khsr985brc2MZHvGvMkC6hW8fWYd4Hhdf7lXeWbvhNq8KBI3uGjw/vHp6d+kGYOmdFbmr9NOb/pRQGHyRJkiS1aFTUp02bFoYPHx769u2bG1sTfSjQ5CK/2cWmop8HsidoBkK2w5AhQ2IzDwII9UUWBcti/bLs86GxLVu1NsyYvyJ0bNeqYNZAfSxZsTY8PXVxzJYYuXXxrBemXXvxzuHj29UMNBXTv3u70Kdrm/DAywtj5kQa60zzhmsv3ilmCWTp7fdXhcXL1xbMQli9tircO2l+2K5/xzCsX4ew9/Cucd3uf+n9GJSpr8b8v5TC4IMkSZKkzQ7NJL773e+Gr33taxsNv/rVr2IlPUG/Dh988EGs/Dc0sHDDDTcU/K5vfetb4amnnsrNVRMZFK+//noMevTu3Ts2ySD4QECCphP1QZML+nx4/vnnYyAjP3ujXC1ctjb834R3w6QZS+Pd+i4dNq5U0wHjx/7r6YIDzR1o0pCYv2R1mLNodUz5L9a0oSFomnHhYduEe16cFw77/sTw2asmh78++V5sukB/EFnjO+hI8nf3vx1/GxkQ+abPWxGef2tJOHCHHjEIQt8UOw7sFJ6dujgsWr5xp5K1KeX/0tjs80GSJElSs6ntCQ/If9IF6upwko4d6bCxS5cPK3BJvw077bRTyf1KJJLP0uklQ75169bFdWdafp8PdHD5l7/8JRxwwAHhYx/7WBy3YMGCcP3118cmGPkdT9a1LTp27Bj22Wef2P8ET7/ISmM+7QLt21aET+2/dTjnwK1q9E1QSoeTA3u3Dyft0Te0yX2utn4MCj1J4uSP963Rn0RtT7sAzR3ueG5+uOeFedVP0GD9T9+7fzjvoK1jk45C6tPnQ7GnXWCHrTuGb48bWvDpHn96ZHb448Pvhv89f2R11sff/zUv/HD8W+FHZ223UceTDf2/lKq+fT60Gjly5KWMIABBhy2SJEmS1FTIDnj55ZdDnz594mMkyRJID/SVQNZAGk0oaEpx9NFHx0o8/SCkBzpszK+cv/HGGzFbgKyB+jwlgidjvPTSS2HMmDFh77333ui7eGzmrFmz4rwjRoyIgQ9QvyJLgX4m9t9//9C5c+c4nuDE3Llzq5uBdOjwUWeIybag/4njjjsuPpGDp2PwW9kGn/jEJ8Iuu+ySeZOLD1bU7y76+0vXhLuenx+O2rV3+OxhW4cjd+kVRg7oFN6YszyMHtQl/M85O4SDduwRWuWl9q9YXRUflbn7kK7hqycMCXtv332jYceBnWt8Lvmuvt3axidcpC1dVRX6d2sTdt6mc9iuf6fwzsKVYbt+HcN+O/TIzRHCOwtWhrtfeD8cs1vvgpVnggu7De4STt2rfzjngK3CASN7hqqqEG55em54873lcVmFKupkLjzw8oL4+rCde4U2rQpX5h+bsihmb3z9xA+fxHHwjj3Dmg2fZdxXjxscx/fpunF2DpkKl983M2zdo/2GdetXvQ7t21SGB19ZEBZv+J/RIWahbVXf/0upSm2CQkCNMhfXOKtHtEiSJElSKXgsJk+ayB/Sj9hsKJpa9OjRI2Yd0HyhmGeffTY2r+DJFJtq5cqVsaNJsh9+/vOfVzfT+K//+q/w2GOPxaYXxTqeJEgybNiwOOy8887h9NNPjwGHm2++OQYuyhX9EOy/oXLO8In9twq/PndEmDZ3efjq9a+HuYtL6/ixLv27tQsDeraL2Rnp5hg4akPl+ssbKvAMFx0+MD4ec1OQbTFqYKeYOfG14weHx6csjh0+bqpO7VuFvbbrFrcTT7T40ZnDwwm79wk/vn16uOXpOQX7b5g6Z/mGbbkidjB50Hf/Vd0s5dRfTgrzPlhTa8eTTfF/qUt18EGSJEmSWiqyDchQIPuhWOU96ZSS7IP27UtLJ68NGQ98H81GLrzwwhrD+eefX6+OJ8maIMsDd999d3yCxuZgxFadwjfHDgkz56/YULF+a6OOHBuCvgnobPLFmUvDmw18ykO+lWuqwtc3VMTp52Hpyo2zPrhXP6hP+1CxofZcVdX4/T/wdI0LD98m7DuiW/jtvTPDY1NqBr/WbvjOe16YH7MdeMLHLz61fY2BQMuKVVUldzyZxf+lFAYfJEmSJLV4NM/gSRcPPvhgfJxmGv3fTZo0Kfa1QD8S6aYQDcHy3nzzzdCvX7+w++67V2cxJAPNM+h/guAEQYpS0Cxlv/32i8udOHFi/I7Nwd7Du8c+G8gauHtDBXpTEQg4Y+/+YUCPduGyv00Lb83dOADBUyH+8fz88M77pT2OlKYLowZ2iZ0v0ryCz6cRnLjrufmhR8fW8akYWaC5x2cPGxi6tG8drnzgnTB/yUePe6UfCjqj/NiwruHEPfpUZzEkw0l79gvDt+oQHn51YZhTYiZDY/9fSmHwQZIkSdJmZ9GiReGJJ54IDz30UMGBJ0PQGWSCpgxHHnlkbFJx1VVXxXmoyNPHAh1A0qSBjiEJPmwq1o1lE/Do3n3jTg1JQU+mTZ48OT6Noy58hv4f6EiT302zjc0Bd/U/sf+AMLhP+3DNhHdjvwn5np++JPzizulFh2em1gwW0d/Df586LGYEnPWbl+ITMW6fOC88PHlBuPy+t8MJP30h/M/dM8PobbuEs/ffKvep2p3y8b4x8+Dye98OR/7guXDJX9+M383fo3/4XAxmnHPggPhUjKxs379T+OQBA8Jr7y4Pf3l0Vvx9eObND8J7i1aHY3btXbC/iR6dWofDdu4dZs5bGZ5+s+a2KqaU/0tjM/ggSZIkabNDXwr3339/uOuuuwoONKHIzw6gI8rPfOYzsSPHV155JVx55ZXhlltuidNoDsFTJNJPn2go+nIgADFy5Miiy+vVq1fscJIgAo8BLQV9V9B5JZkZ9BtRSpONctCvW9tw0REDY6eI1zz07kaZBdPmrAg3PDGn6MD0fMP6dQx/+cLO4bunDouPmeSJD1/5yxvhlqfmhNHbdg6/PX+H8LsLRoaBPUtrQkPmAU+p+PbJQzdUyMkiWBC/m790ennlZ0eF0/bqHzMvssKy6YRy7+27hVufmRMmzVgSm0Tc++L8mNmwy7aFnwiCA0d2D326tgmPv75wo+1bTF3/l8YWH7XJC6KCPmpTkiRJkrZs9X3UprZM9XnUJk+BqQ7D+cQLSZIkSZLUmJJYg80uJEmSJElSpgw+SJIkSZKkTBl8kCRJkiRJmaq0rwdJkiRJkpQlMx8kSZIkSVKmDD5IkiRJkqRMGXyQJEmSJEmZMvggSZIkSZIyZfBBkiRJkiRlyuCDJEmSJEnKlMEHSZIkSVK1iorcC6mIhuwjBh8kSZIkSdXatraaqNo1ZB+prDCsJUmSJEnK6dSuVe6VVFhD9hFDWpIkSZKkah03VCy7dGideyfVxL7BPlJfBh8kSZIkSTV069g69OzcJrRrU2kfEIr7APsC+wT7RkNUnHLKKeurqqoCw2233ZYbLUmSJEmStGlOOumkUFlZaeaDJEmSJEnKVgw+0OmkHU9KkiRJkqTGlMQbzHyQJEmSJEmZMvggSZIkSZIyVSP4sG7dutwrSZIkSZKkhkvHGGoEH957773cK0mSJEmSpIZLxxiqgw90APHyyy/n3kmSJEmSJDUcMYbk4RaVSc+TeP3118Nzzz0XX0uSJEmSJDUEsQViDIhPu0gCD+D1Y489Fu65557w7rvv2geEJEmSJEkqCTEEYgnEFIgt1Ig3nHbaaeurqqoCw8EHHxzWr18fX/MXfJjX+eOT9+lxyevkPfLfM08iPb6QZHpd80mSJEmStCVLKvrpCn8h6emVlR91A8n4GsGC3PtknuQ1QzJfMi6Zt1WrVhuNnzBhwoev84MPSAcRGJLp6XFIMiOYhvT09HzJX6THJ/Lf56vv/JIkSZIktWRU7NPy3+crNH96XPI6GZ8eQAAB6QBDMjAtHYRIxuHD4ENl+P9EffJtjZhoYwAAAABJRU5ErkJggg==;" vertex="1" parent="1">
          <mxGeometry x="178" y="740" width="235.57" height="117" as="geometry" />
        </mxCell>
        <mxCell id="eqxQ3n0CcYi4T9n9lh90-34" value="" style="edgeStyle=orthogonalEdgeStyle;rounded=0;orthogonalLoop=1;jettySize=auto;html=1;" edge="1" parent="1" source="eqxQ3n0CcYi4T9n9lh90-14" target="eqxQ3n0CcYi4T9n9lh90-33">
          <mxGeometry relative="1" as="geometry" />
        </mxCell>
        <mxCell id="eqxQ3n0CcYi4T9n9lh90-14" value="mostra&lt;div&gt;registro_acao_dialog&lt;br&gt;&lt;/div&gt;" style="whiteSpace=wrap;html=1;rounded=0;" vertex="1" parent="1">
          <mxGeometry x="40" y="780" width="120" height="60" as="geometry" />
        </mxCell>
        <mxCell id="eqxQ3n0CcYi4T9n9lh90-29" style="edgeStyle=orthogonalEdgeStyle;rounded=0;orthogonalLoop=1;jettySize=auto;html=1;entryX=0;entryY=0.5;entryDx=0;entryDy=0;" edge="1" parent="1" source="eqxQ3n0CcYi4T9n9lh90-16" target="eqxQ3n0CcYi4T9n9lh90-22">
          <mxGeometry relative="1" as="geometry" />
        </mxCell>
        <mxCell id="eqxQ3n0CcYi4T9n9lh90-31" value="SIM" style="edgeLabel;html=1;align=center;verticalAlign=middle;resizable=0;points=[];" vertex="1" connectable="0" parent="eqxQ3n0CcYi4T9n9lh90-29">
          <mxGeometry x="-0.0021" y="-1" relative="1" as="geometry">
            <mxPoint as="offset" />
          </mxGeometry>
        </mxCell>
        <mxCell id="eqxQ3n0CcYi4T9n9lh90-30" style="edgeStyle=orthogonalEdgeStyle;rounded=0;orthogonalLoop=1;jettySize=auto;html=1;exitX=0.5;exitY=1;exitDx=0;exitDy=0;entryX=0.5;entryY=0;entryDx=0;entryDy=0;" edge="1" parent="1" source="eqxQ3n0CcYi4T9n9lh90-16" target="eqxQ3n0CcYi4T9n9lh90-14">
          <mxGeometry relative="1" as="geometry" />
        </mxCell>
        <mxCell id="eqxQ3n0CcYi4T9n9lh90-32" value="NÃO" style="edgeLabel;html=1;align=center;verticalAlign=middle;resizable=0;points=[];" vertex="1" connectable="0" parent="eqxQ3n0CcYi4T9n9lh90-30">
          <mxGeometry x="-0.2318" y="-3" relative="1" as="geometry">
            <mxPoint as="offset" />
          </mxGeometry>
        </mxCell>
        <mxCell id="eqxQ3n0CcYi4T9n9lh90-16" value="ação = realocar_carreta?" style="rhombus;whiteSpace=wrap;html=1;rounded=0;" vertex="1" parent="1">
          <mxGeometry x="60" y="585" width="80" height="80" as="geometry" />
        </mxCell>
        <mxCell id="eqxQ3n0CcYi4T9n9lh90-22" value="mostra&lt;div&gt;realocar_carreta_dialog&lt;br&gt;&lt;/div&gt;" style="whiteSpace=wrap;html=1;rounded=0;" vertex="1" parent="1">
          <mxGeometry x="274" y="595" width="120" height="60" as="geometry" />
        </mxCell>
        <mxCell id="eqxQ3n0CcYi4T9n9lh90-24" value="" style="shape=image;verticalLabelPosition=bottom;labelBackgroundColor=default;verticalAlign=top;aspect=fixed;imageAspect=0;image=data:image/png,iVBORw0KGgoAAAANSUhEUgAAAyYAAAELCAYAAAAsmpLzAAAAAXNSR0IArs4c6QAAAARnQU1BAACxjwv8YQUAAAAJcEhZcwAADsMAAA7DAcdvqGQAADqMSURBVHhe7d0JfFTlvf/xXxYgIQshQNiRfRcUxbWi0NpatC64b7Xa9rr13lZbu3qrQm319m/Rq9XaW7XWKnVr3epKXauCggoiyI5sISwJEEIIIZn/+T7MGU4mk305AT7v1+u8mDkzZ+bMmRN9vvM8v+ckzZgxI2KeSMT9U4XWJVpfE/+5NW3TkNdqi/b3/W8Oe/bsscrKSktJSXH3k5OT3b+SlJQUvQUAAIBE9vf2Uk37769vyOfTc4PPd63KYINbt7Wo8Vnfhnjw+fHb+Ovi1ze34Pu01AKz1NRU929FRYX7l+MCAABQf/Hty5ZYWlJN7+Ova0qGSHrsscfclsEX8G/379/fhgwZYl27dq3yyzgAAAAANIbCyObNm23p0qW2atUqt049J8l+QpHg7XHjxtnxxx9veXl5hBIAAAAAzULZQhlDWUOZQ5RBYonDDySinpIRI0ZE7wEAAABA81PmUPaQajUmouFbAAAAANDS/OzhhnLF69KlS/QWAAAAALQcP3tUKR5RSNHiTwULAAAAAC1J2UMZJFb8rgUAAAAAwsB0WwAAAABCVy2YaF5hAAAAAGgtyiBVggmhBAAAAEAYYsGEUAIAAAAgLC6YEEoAAAAAhCm5rKzMnn76abeUl5cTUgAAAAC0KmpMAAAAALQJLphwHRMAAAAAYXIXWAQAAACAMFULJgQVAAAAAK1JGaRKjQmhBAAAAEAYqtWYEE4AAAAAtCbXYxIMIoQSAAAAAGGoMpRLCCcAAAAAWpPrMYneBgAAAIDQVCt+p8cEAAAAQGuq0mNCKAEAAAAQFmpMAAAAAITK9Zi0a9fOzjjjDDvzzDNNtwkmAAAAAFqTCyaVlZXRu/SWAAAAAAhHteuYEE4AAAAAtCbXYxK9HRN2MHn22Wdt4MCBdS5nn322TZ061RYtWtQmwlRRUZF961vfslNPPdVWrFgRXXtwUi/ckiVL7He/+537noLf2T333GPr16+PPhMAAACICyZqTLal3pLevXvb8ccfbyeccEK1Zfz48a7h++c//9nOO+88e/7559vUvh/M8vPz7cc//rGdcsopLoRs27bNfWfHHnusrVy50oWV0047zR555BHbvXt3dKv9n/5+Pv30U3vyySejawAAANAQ1aYLbisN/BNPPNH+7//+zx5++OFqy+OPP27//ve/7aqrrrKSkhLXAF62bFl0S4RF38G1115rf//7323KlCn25ptv2muvvea+s0cffdRmzZrlgklGRobddNNN9uCDD1pFRUV06/3biy++6CaR2LBhQ3QNAAAA6ksZxAWTYBhpK8GkLp06dbIrr7zSvva1r7kG8TvvvBN9BGEoLCy0O+64wz755BO74YYb7Ne//rX169fPkpKSos8wa9++vZv97X/+538sLy/PhRU9/0BwoAQsAACAMFQLJvtLKPFlZ2fb8OHD3W3VLZSXl7vbaH0zZ860V155xb7yla+44XUKITU54ogjbPLkybZu3Tr75z//eUAN6QIAAEDj7NfTBWvf/UZtVlaWpaamuttB+iX/D3/4g33jG99wBdjjxo2z733ve/bWW2/V2CDWcVAvTHzxthrdP/vZzxpVcK/30nvqvbUPej3tU13F4PqMH330kf30pz91tRr+ftx6661uHxPthwrxZ8yYYd/5zndi76V/df/ll1+u9rl37dplN954oyvcX7hwoT300EOxeh71bqhOpDbFxcXus8lJJ51kXbp0cbdrotDy5S9/2Q3XGzx4sPuMQf5n1uQG/vfmHy997rVr10afuc/cuXPdc+6++273Ga6++mp3/5JLLnHD/hryGfX+77//fr2+K3/Sg+uuu87dnz59unu+1ukxX2M+EwAAwMGkSo3J/kbF1KpjEPWcBIcNyQcffOB+vVfDc+vWra6YfsiQIa4Rffnll9vtt99uO3fujD57Lw3JUW3LWWed5RqiasSr8aribYUc1bfoNV944YXoFnXTdgo0ek/VIgwYMMDti/ZJ4ef88893vQ3x34Ea02pon3POOfbEE09YTk6O2xd54IEHYvsR3E6f+dxzz7Vf/OIXtnjxYhs1apTbJjc3115//XW75ppr3DArvXa80tJS937ap169ern327Nnj6Wnp0efkdjGjRvdTGQanjVmzJjo2trp8yscXHTRRZaWlhZda+77UENdn1mTGyjEaP814cGqVavc577wwgtdEElEjX8FkKVLl7rvTDUfGvbnq+sz+u9/8cUXx74rvb+20zbf/OY33TH2JScnW8+ePd1xFoUNPV/r9Jg09TMBAAAcFO6///7IH/7wh8i9994b+f3vfx/xGuNeOzc8zzzzTMRrDEa8hnXEawxG11al9bNnz454jUT33GuvvTbiNfKjj+7lNUwjXriIjB49OjJjxowqr5Wfnx+5/vrr3bb33XdfxGuYRh+JRD755JPI0Ucf7badN29epLKyMvpIJFJSUhK588473XZeAz+yffv26CORiBc+Ipdddllk8uTJkeXLl0fX7t3Xm266yW1z1VVXRb744ovoI5FIWVlZxAs6bh+/9KUvRebPnx99JOLeV/ut7eL3xQtPkX/84x9uu+D76RjoPbRer6vX92kbL5i499Hn+/TTT6OP7N1HHW+9l15P7yV6v/Lycne7NnPmzHHbeg3vyNq1a6NrG+fll192r3XFFVdUOVayZcuWiBfw3OPTpk2LeKEx+si+fdByxx13xL5vfbf67PX5jHquzgf//b3gGzvmeswLge746fvQ+RXkn7f/+7//G12zT2M/EwAAwMFCGcRdYNFf2pLHHnvMRo4cGRvyEly0/oILLnAF7+od0AxPwV/F1euhKYRVWK0CeT0n+Kt8jx49XIG2flHXDFLB644sWLDATVWsIT+HHnpolV6Yjh07uqluhw0bZmvWrHE9IXX57LPP7Omnn3Z1FerFUEG4T7+ca6iY9lH1Fl7YiA2z2rRpk6u/0AxWGiakngh/X/RLvGo01NOiX/w1Ra9oONCOHTvcEClNChCs89A2xxxzjHkNa9fDoV/qE/n617/uPrfo/RINj6uJ9lXHqLH02T///HPX+6DeoOCxEvX6qHhe1FsW39slI0aMcM/xv++UlJRYz4Wvps+o80Dng15DPVz9+/ePHXO9jo65Zh3TeaXzS+dZXZrjMwEAABwMqrbY2pD465goRKgRLqNHj3bDsN5991277bbbrFu3bm69b/v27TZ//nw3tEg1D2pUxtM2hx12mKvT0JAnn4bwKEh8+9vfrhJKfGpIdu/e3TVK69Mw1bAfTWmssKDPFE/7ppoRNYJ1HQwFElFQUQN4woQJbj/jKXRoyJJmttJxEjV+dX0QDUELBjWfhitp+JLUtO/Bxnhr02f6/ve/7xr9ClaJdO3a1QUH7X9lXG2KKHTWVeNS02dU7YnOB51rhxxySHTtPtpG34W2V4BVCKxLc3wmAACAg0GVWbmkrfScxF/HRA1wzfyknhI1ClWTUVZWlrCBqaJj9QooEEybNs0uu+yyassVV1zhXkP0S3UiOhYq7FbviAqo77//fvvP//xPe/vtt6PPqJ32z+/N6Nu3b40NfgUd/ZKu9/ELphVMtP+dO3e2du3auXUNpTqSzZs3u9oF1aj88Ic/dHUdtVFtRGOpB0mhsLmoka6idIWFN954w+666y770Y9+5CYfqIn2v0OHDtF7idX0GVevXu3+Vd2SJgpIdN6od07hUbUrW7Zscc9viMZ8JgAAgAOd2t1Vekza2nCueOqtUC+BwokKuX/zm9+4hndN1LD/8MMP3ZCvREtwCFeQhkQp0Gj41dixY11IUtGzemkUYvyem7roeDbkF3CFKYUZ8Xs0FFqCw9DqoqFACnEarqQhb0cddZQbyqZZvdQQrquQvTH0i796sbT/CnJNoWOmRroa6zr2hx9+uH31q191PVhqxCv8aMhYS9J5keh80aLzSedVQ7SFzwQAANDWtdmhXDVRDYN6OzSkRlcV17ClRDNMiWoqNO2rGpq1LeoF8c2ePdvNkKSeBQUhzaSkMPTXv/7Vvdazzz4bm4GpLuohia9vqI2GnsX/2l9QUFDj54unkKZ6lP/+7/92202aNMndv+++++zVV191V15XnUNz07A4zYqmYKIhdPWhHiFN6asZsrSvoga8hjxpH1XroSFTmu5XU+xqNjT1/PzpT3+yPn36uOe3lF/96lcJz5Pgovof1TvVpa18JgAAgLYu1mpWA2p/MWjQINeDIaoH0S/ZQfr1WTUWakBqyE196df+v/zlL67RrOJ4TRerqYYVhI477jjXe6GhSvUpeheFDH/YkIZp1XSM1TDXMCIN99LQLdHQLn0ODe2q6cKRCkkqnlfDVj0zzz33nAtrJ598stt3rVfoUm2Df70Qv4alOSks6rokomFQ9RniNGfOHDeUTsPiNF2v6BohqpERTc2rz6cGvBrymlpXx0bDoII1Qc3Jr03RMCt/EoKmCvszAQAA7C+Sdd2Hjz/+2BVaa5k3b170obZLPREqGJ8yZYobVqNrQwQDiHo6NGRGv+CroZ6o0FuFyxpao4b9Sy+95NYpBPg1IRoCFZzVShQs1CPQkHoAvY4Chq6dosATT/um2hnNkqWZovxCfhXKq1dIv6irpiaeelE0rEjfnQKNGvcKP6JhVSoCj6chanp+S1AjWwFIn0X1LLU17NXwV92QaKYrvyBfPT7Lly93oUyzkMX3NulYqdeqpeh467irnkihNhGFYE2o8JOf/KTKBRRrEvZnAgAA2F8kqxdAQ4iCy/4gMzPTFSOrIamG3VNPPRULICoWP+OMM1wvgRrA9957b5VpWBVKdFE7Da1R/YbG/It+vfZ7ODSbVrBxrSCgX7vvuOOO6Jr60bAvhR8FDF1kzy+wFr2+enxUVK/PoSmK/TCkgKLtFK70S7tm7PJ7XLSdhgFpfxQGFAq0nQKKKMgEg5p6SrS96mZaqshaYVAF4xre9Nvf/tZ+/vOfu7AVrLHRfqvORbNUKQRr6mV9T/6kAKpVUW+YjpECYHBbfWcPPvigO1YtRdNAa38UnDQcLnjMtS8Kdbqyu/ZP50yw1sjvbVEPSWlpqbstYX8mAACA/UXS7bff7rW99l3HRP/qGg5hUWNbdRG6IrhqO2or/FYQUcDQlMFq2N95552uYF30OTRMSI1x/fqtRqSmZBU1znXVdd3X4+PGjXPrRfUAalSrJ0avqZoANSa1jYZUqZdGPR+qRdGwLz/U6Ndz7beGSqluIlh/oKFfCiW6ToloGw1/UsNdr6X30WdVQXRw5i6FIQ3HUsNV+6OQo8/hb6df+DUsSD0kovXXX3+9a/Srl0bF7zp+eq6OgWpOFF4U1jRUTTUeovdRXYWuHfPkk0/GjmFjKBTdcsstLoiJjoM+n3p0/OMuGsqkfQ027oPfp/jbav80la8CpyY+UK2MXk/H2Z/WV++nIv+azpv6fkb/avyqKRIdc4UufYe6Jo3o6vlagtds0ZXmdY0ThRp9v0OHDnUTDihAN/YzAQAAHCxUN55y2mmn3axraWjRheY01ET1FGHRWHvVHmhYk67hUdsF/rSvauSpgadFjXdd00ONUjXwFSo05EuNXzU4NfRJw5k0zOu73/2uC2DBACFqUE6cONH9uq99UYNTvREacqQQc9ZZZ7nhOf/6179syJAhrhGq91JDU/utnhk9168VEc2EpddUI1eBSb/E63U1vOfSSy+1X/7yl7HXCdJnP/LII911NUTbqHGs7S6//HK3/8FGrD6n6kv0r36h13NVE6PXVti66qqr3C/46rXQsdP1YXSs1CBWiNN+qUjbH1rVGOpxO/30090QNu2/hsZpeKCOu3oOdFFIhSkFvPgZwrRP2tejjz7a9SYoyKihr2Op7XT8Fa60TsX8mtxAvWKi91HgqOm8qe9n1PHQOaTgom0U9hS2dA5opjOFLp0D8cP8FF40fE6fU8FQYVZDvtST0tjPBAAAcLDQj/5Jd999t9dW3tdjogbVD37wA3cbAAAAAFqaRo0k61dqf9Ev9voXAAAAAFpTtRTi95wAAAAAQGtQBql2HROCCQAAAIDW5IKJhm/FLwAAAADQmqoM5aK3BAAAAEAYXDAhkAAAAAAIE1NwAQAAAAhdleJ3ek4AAAAAhCGZMAIAAAAgbAzlAgAAABA6ggkAAACA0DErFwAAAIDQ0WMCAAAAIHQEEwAAAAChI5gAAAAACF21YEK9CQAAAIDWpAzCdUwAAAAAhI6hXAAAAABCRzABAAAAELpYMGFIFwAAAICw0GMCAAAAIHRVggm9JgAAAADCQI8JAAAAgNARTAAAAACEjmACAAAAIHQEEwAAAAChI5gAAAAACB3BBAAAAEDokouKiix+AQAAAIDWVK3HhGuZAAAAAGhNyiAM5QIAAAAQOoIJAAAAgNARTAAAAACEjmACAAAAIHQHdDBZunSp5efnR+9Vp8f0nD179kTXhEP7MXfu3NhS333atWuXe67+BQAAAPZnB3Qw6dKli+3YsSNhI1/r9Jiek5qaGl3burQPChbl5eV2+OGH2xFHHOGWnj172rx589z+1SYtLc2GDBni/gUAAAD2Zwd0MOnYsaNr/G/fvj26Zh/1MugxPScsmzZtsszMTOvXr58lJ+/7KrRu2LBhtmbNGnpDAAAAcFBImTRp0s264V+/RP9OnDjR3d7fqSdE4UON+6ysLEtKSnLrKysrraCgwDIyMqxz586xIVGrV692w6q06LnaxldYWGgLFy50j5WUlFhFRYVt2bIl9rr1eY0gPX/z5s3WvXv3hD02Wqfn6DXS09Pd+2vZunWrLVu2zPWS6LGVK1e6z+G/ht53yZIl7l+/V0j76++HPrsCj17D/yydOnWKBSOtU5Dz30f3/ffyP9+2bdvc64XV0wQAAIADy6xZsw784nc1oNX43r17d3SNudt+Y12NdzXU+/btGxtKpd6K9evXx4ZS6V8FmVGjRsWGWmkbX31eI562kZoa9woK6jnR9goTsmHDBsvNzXWvr3/jKbjo+WPHjnXP0fbaxqf3XL58uVvv76eGsinc+PsjwffR59DjGzdudLe1Licnx9339wsAAABoqgM+mGiolnoUioqKomvMdu7c6dbpMQUD1Wmose5TD0F2dra7rca3Gvzq2fBrOfTcXr16udtS12vUpEOHDlWGcNVFr+fvQzwFC/XgKDT5YUcBolu3bu62qAdG76n1Pt3WuuBwN23jD3HzP4eCir+vej4AAADQnJKmTZsW0fAtNcD9f6dOnRp9OBzqzSguLraysrLYELO69O/fP3qrOgULNdoHDBjgGtdr1651ISLY66DPrfWq+/Cph0ANc/UYqMEfDB5+70SfPn1iDfaaXiO4nU/bapiU9qmmXpPge2hoVfz7KWj4PTXi3w6GF72HaP/1evosiWg/dDyCzxcFnvjPn+iz+1atWhW9tX/QEDUFLfWeKay2BRout2LFCnecdU4BLUl/w/rbHzhwoKt3AwAgDNOnT297wUQ9G6Wlpe6XfNVWqOHYVMHGtQQDgf+YegzUC6LnBJ9fn2CiY1bbayQKJsFQkagXxA852laNhkRhoKHBRLc1A1iiQOFrajDZ3+ic1/mm4KfzTTVHYZo/f74bJjdy5EjXS5eSkhJ9BGgZqpfTUFXV0OXl5dmYMWOijwAA0HoUTNpUq1I9JWokqhGsoUTNEUpEAUSNavXCaNFtv5dCjXtRXUawMa5F1PDWL+rBGhVRb46vrtdIROFB+xEcYhak4WY6HvWdNcz/PMH3VLhREPHpc2i/tR576RzTMdb3pnNPxzws6ilRKNHkEwq4hBK0Bp1nOt903un803kIAEAYYsGkoqTA/TIe5lAchQb1lDRXIAnSL+H6VVwF6f4MVb5giNC/6nlQMBB/mIN+UfQDiHoL9DpBtb1GTVTLoddSQyAYFrRu8eLFNfamJKJgokJ29Xj4+6HPGxxW5te8BNfpMy1atMi958FM55zOPZ2DYdHwLfWUEEgQBp13Ov90HgIAEIa4HpMOltGp+mxPrUW/5ms4TUto3769qyEIFnaLei00ZOazzz5zV13XhQ11X8/zG6nxz1Hj3x8+JfV5jUQUJvyi+Y8//jh25Xe9vnpftL4hFKC0jd5fr6Ow0aNHj+ije99PQ9i03n8v7bM+S0Pf60Ckcy/YE9baNERO5w0QFp1/Og8BAAhDrMakvDjfviiIWNc+3eyOW8OpMVFvTW1F7G2J/uetRqw/dKutUsjREC6FFtQtzHPwqaeesnPOOSd6DwgH5yEAIAxtrsakLdIQKw218ovCRcOfNLQrfkhYmDR8SxdADP7aqZ4RDeeqb50KAAAAEBaCSR1UY6LC0LY+/EnDtLRPCkz+fqrORUO36lunAgAAAIQlLpjstE1r9q/rULQGvxbEv1q6lrZYk6EAMmLEiNg+6jahBAAAAPuDNlX8DgAAAODgFBdMUqxjdEpZAAAAAGgt1JgAAAAACB3BBAAAAEDoCCYAAAAAQhcXTCps5/bt0dsAAAAA0DrigkmZlWzbd4E+AAAAAGgNsWCSktHdXYyvf//+0TUAAAAA0DqoMQEAAAAQOoIJAAAAgNARTAAAAACEjmACAAAAIHQEEwAAAAChI5gAAAAACB3BBAAAAEDoCCYAAAAAQkcwAQAAABA6ggkAAACA0B10waSgoMDmzJlju3fvjq4BDkwzZ8602267zdauXRtdk9iuXbtsxowZ9vDDD9vOnTujawEAAFrXQRVMduzYYStWrLBIJBJdAxy4BgwYYGVlZfbFF1/Ues5v3rzZPWfw4MGWnp4eXQsAANC6DppgUlJSYosWLbKtW7dG1wAHtl69ermwsWzZMistLY2urUqBRaFEFGSSkpLcbQAAgNZ2wAeTyspKW79+vc2dO9fdzs3NjT4CHNjS0tKsf//+tmrVKtu0aVN0bVUaxqXHhwwZYl27do2uBQAAaH0pkyZNulk3/KEe+nfixInudmtTb0ZOTk70XvPQayqUdOvWzUaMGOF6Tvbs2WM9evSwlJSU6LOAvVriHKyvhQsX2siRI6P3mk69H+3bt7clS5bEQkp8j4hC++uvv27HHXec9e7d2/39b9iwwdWnvPzyy/bCCy/Y+++/b+vWrbPMzEx3bIKvob+ljz/+2J577jn7xz/+4XpfsrOz3b9PPfWUDRo0yDp27Oieq9deuXKlvfLKK/bSSy/Ziy++aB999JGr+9IPBnp9hK+5z0MAAOpj1qxZljRt2jSvvRBxvQn+v1OnTo0+pXXpl1s1nprT9u3bXW2Jgog+n4ZzaVjL2LFjXaMN4VINhBpC+o7qQ41XNZo6dOgQXdO8WuIcrC815M8555zoveahSR6ef/55d3zPPffcWEgQ/a0rlGio1/nnn2+dO3e2zz//3O2HhnUddthhruZEvS0K9wr1F110kQswUl5ebq+99pp9+OGHNm7cOBf8FTJmz57t3kePX3jhha4nRn97Wq9Qor89PTc1NdUFHr22nn/eeee5fTiY6LjomH/wwQfu+6hLcnKyHXXUUTZ8+PAWG3bXEuchAAB1mT59uiWrIRC/HEj0663G2ut/6Gh7FDDUSFXvlRq1tS16jp7bUqHkQKTwrTqTRMO5FDRWr15t/fr1c38nCjHq0VAvx5QpU2zUqFE2cOBAO/roo+3MM890x18hxqdtFUrOOOMMO+2009z7HH/88XbWWWdZcXFx9Fl7abYv9aKMHz/ePXfYsGHufSZMmGCnnnqqe601a9ZEn33wULhQyFAI1DHQ8a1p0eN6XkuGEgAAwkRrHaHTMCP94q4AWRM9pufouWgYBY/u3bvb0qVLq/wqr7CnMKCQoNChEPP1r3/d9XLEz86lIVwabuVvX1FRYYsXL3a9JwovwYZy3759XYAMysjIcL0ykydPdj0lQXpdv0fzYKRjN2bMGBf+aurF1Xo9rucRSgAAByqCCdqE2sIJoaRp1BuicKJf3NVLIgoYmjpbISIvL8+t8ykgaLijrn/y2WefueFajz32mAs2PvWuaJph1W7FhxgFj5p6XvXa2gf1nsybN8/VsTz++OOuruVgVls4IZQAAA4WBBO0GYnCCaGk6dQbol4RNf43btzo1qn2SsO2tD5YdL5t2zZ7+umn7Ve/+pXdd999rt5ABfJDhw51IcangFFbTUSiQvb8/Hx75JFH7Ne//rX98Y9/dLUvRUVFbshYly5dos86eCUKJ4QSAMDBhGCCNiUYTgglzUe9IhoupTCiQKGic4WC4LVL1EuimbL0HA3nuvHGG+2Xv/ylXXbZZa62ITgES9vUVrelSQ2C9F6auUu1Jt/+9rftpptucq+v91HNBPYKhhMNfyOUAAAOJgQTtDkKIkceeaQrlCaUNA/1YKh3RMO51Cui8BF/7RKFBw2xUhhUL4aGaPkNYgUK9bL49Eu+tlVBffzFGzWFsN8z41Nvjd5bhfSqSQkOV9KMYVu2bInegx9Orr76akIJAOCgQjBBm6SGa7t27aL30FRq3B5yyCEuACiUqMdE94MBQT0guq9gESxE17S/ut6IttVt9bj4w8P0OqpVCT5fBfWaljvI/y5VmxJ8rupNNF2wxPeyHMz0falOh1ACADiYpEyePLnaBRaPPfZYd7u1tfTF7fTZVLDLBRZRkwPpAovxNM2yZuLSbFpq8J5wwglVCtf1uMLHnDlz3Kxb+ntRD4qK39WroeOi4KJpgfW3k5WV5YLFm2++6aYH1joFkjfeeMNdUV6vd+ihh7prlOi2/vZUTC/6G9SFH3WhRb2mtlVDXEPLaqNgpIs+ap+CF28Uvf4DDzzgemf0WPDvW4X2d999t+vl0d8+asYFFgEAYdAFFukxAQ4SCgdq+KuY3b92SZB6NU4++WR3FXhdzf3BBx90/2pI3SWXXOKK3xVcFDr8559yyiluUc/JQw895EKPrlOiIVsKPX6PjOolvvGNb7jhYwouKoLXtTm07dlnn+3CQmFhoetRAQAAB6eke+65J6JfRjU8w//3uuuuiz7cusK86jYgB9qV38Og/4bMnDnT9VzoavPx0wmjbePK7wCAMLgrv0dvA0CDvP322/boo4+64W9BfnG9ZlVTLw0AAEB9EEwANIqK5zUs7JlnnnFDvlQEP3v2bJsxY4brfdWMUrVNKQwAABBEqwFAo6hORbUnqlXR0C0Vnr/33ns2evRou/TSS6tdUR4AAKA2BBMAjaKZvXr27GlTpkyxG264wW699VZXnzZhwgRX7A4AANAQBBMAAAAAoSOYAAAAAAgdwQQAAABA6AgmAAAAAEJHMAEAAAAQOoIJAAAAgNARTAAAAACEjmACAAAAIHQEEwAAAAChI5gAAAAACB3BBAAAAEDoCCYAAAAAQkcwAQAAABA6ggkAAACA0BFMAAAAAISOYAIAAAAgdAQTAAAAAKEjmAAAAAAIXXJRUZHFL2FJSkqySCQSvQe0Lp17OgfDkpycbBUVFdF7QOvT+afzEACAMLSp/wN16NDBSktLo/eA1qVzT+dgWHJzc62goCB6D2h9Ov90HgIAEIY2FUyysrJs69at9Jqg1emc07mnczAsAwcOtIULF9JrglDovNP5p/MQAIAwtKlgkpGRYenp6Zafn287d+4koKDF6RzTuaZzTueezsGw9OvXz/Ly8uyNN96w9evXE1DQKnSe6XzTeafzT+chAABhSJo2bZrXNotYZWWla6Tp36lTp0YfDkdJSYkVFxdbWVkZ4QQtSjUlGr6lnpIwQ0nQ6tWrbcWKFVZYWOj+HoGWpJoSDd9STwmhBAAQlunTp7fNYAIAAADg4KFgwvQrAAAAAEJHMAEAAAAQOoIJAAAAgNARTAAAAACEjmACAAAAIHQEEwAAAAChI5gAAAAACB3BBAAAAEDoCCYAAAAAQhcIJhVWsnGlrdpUEr0PAAAAAK2DHhMAAAAAoSOYAAAAAAgdwQQAAABA6AgmAAAAAEJHMAEAAAAQOoIJAAAAgNARTAAAAACEjmACAAAAIHQEEwAAAAChI5gAAAAACB3BBAAAAEDoCCYAAAAAQhcIJimWkTfA+nfLiN4HAAAAgNZBjwkAAACA0BFMAAAAAISOYAIAAAAgdAQTAAAAAKEjmAAAAAAIHcEEAAAAQOgIJgAAAABCRzABAAAAEDqCCQAAAIDQEUwAAAAAhI5gAgAAACB0BBMAAAAAoSOYAAAAAAgdwQQAAABA6AgmAAAAAEJHMAEAAAAQuqR77rkn4rHKykrz/z3vvPOiDwMAAABAy3riiScSB5Prrrsu+hQAAAAAaFnTp09nKBcAAACA8BFMAAAAAISOYAIAAAAgdAQTAAAAAKEjmAAAAAAIHcEEAAAAQOgIJgAAAABCRzABAAAAEDqCCQAAAIDQceV3AABwwNhZVmEl3rJ7j9o10ZUAWkVSkln71GTL6JBiHb2lIbjyOwAAOGBs27nHCneUW1k5oQQIg/7u9Penv0P9PTYUwQQAAOz31FNSXNrwhhCAlqG/R/1dNgTBBAAA7Pc0fAtA29LQv0uCCQAA2O+ppgRA29LQv0uCCQAA2O9RUwK0PQ39uySYAAAAAAgdwQQAAABA6AgmAAAAAEJHMAEAAAAQOoIJAAAAgNARTAAAAACEjmACAAAAIHQEEwAAAAChI5gAAAAACF3SPffcE/FYZWWl+f9ed9110YcBAEAimzZtskcffdTWr18fXVPdhRdeaIcffri7XVJSYn/7299s8eLF7n4ivXr1sosvvti6desWXbOPtp87d64tWrTIli9fbh07drTBgwfbscceawMHDrSkpKToM/eaOXOmffHFF3bBBRdYRkZGdO0+q1atsnvvvdeuueYa69+/f3RtVWvWrLGHH37Y+vXrZ+eee66lp6dHH6mqtmNR1342l7VbdkVv1d/f3ttgd7zwRfReVZlpKXbskE521cl9rV/XtOjavZbkl9i1D35uW0v2RNdU1z8vze7/zkjLzWwXXbPP7j2VduMTy+yNBUV245SBdsaR1b9vKd1dYT+bsdTd/s2FQyy9fYq7XZeSsgp74aNN9vTsAlu9ucyt69e1g00+vJude0x3y+hQ8+tURszeXVxkj727wRasKbZduyPeZ0i1r47pYt88sbd1y6r+eXxF3vH4rz8vshUbS+2uy4bbkQOzo49UVbij3K7800JbtbH6d5aSnOT29aLje3r729XapzbsN/Sm7H99vxe57dmV3vHdGL1XVW3v19jtajtXfWcfnWc/PWOAu12fc1QSnaf1/R7rq0+Xqn8/NZk+fbqlTJ48+WbdUSjx/9V/PAAAQM127txpn376qQ0ZMsSFD/0bv/Tu3ds6derknl9eXm4LFixwoeOoo46q8fl9+vSxDh06uG1E/19esWKFPfLII7Z582YbN26cTZgwwYYOHWobNmywF1980dq3b+/CQ7DRr222bdtmo0ePdo/H27p1q3344Yc2fvx4y8nJia7dR+87f/5827Jli3sd7Vdubm700ar8Y3HMMcfYySefbEceeWRsUehZu3atvfnmm9a9e3fLy8uLbtW8tpfW3gBLZMGaHTZ/dbH91yle8PIa7F8b28UtJx+aa1leMPnXZ0U289MtdvywHMvpuK/htsVrWL/48WYb3jvDJo7sbIf2zay2jOqTZYf1z0rYsF7jhai//nuDtUtJco30k0blJnzenoqI/WtBobv9lUO7eM+vu5G+vGCna5C+Nr/QjvP2+/KTetuXR+daWXnEnpq9wQssm+3w/tnWLbv6ObHDO4a/8BrmD7y+3gbkpXvb9rFTD+9iHb1ApO0Udo4clG1ds6pvK5+t3WH/+HCj+yzad71/coIgWrq70r3WCO/4XX/qIbHjrmX8oE62zPsMaryraXrkwE7eeR3dsA5N3f/6fi/y78VbbXPxbvuJFwROP6JbbP8netuoRf3c3M320crtdtLIXEtrv+81GrudztW53vqTveAy3gsKic65Qw/JtsE9OrrnexnLhbQRvTq6xwb3yLC1RbtcSDjFez9/m0TnaX2/x/rK7pgavVW7WbNmEUwAAGgMvzF+xBFHuP9vqgEev/ihRPxgcsghh9ikSZMSPl+PBUOJqDfi6aeftgEDBrjeDz1PAUENfIUOvccrr7xiPXr0qNLob2owKS4utrfeestt365dOysqKrJBgwZZcnL1hpp/LEaOHOkW7Z+/9OzZ04Wu/Px89xq6nZpav4ZKQzQ2mMz7Yod9Z1JvGzcg2w7pmu6W/t3S7dihOV7jNs1e8AKIQsnh3uM+P5icfXR3++6X+7jnxi96vZoatc96jc/P15XYBcf1tJc+2WRHeI3vXp2rfu/S0GCyubh8bw+L16S779sj7MzxeTbQa6BrOdELUHqNtxYW2ateaDlxRGfLSt/3Pei97np5tb3xWaH95sLB9h9f7mtDvEaufywmjupsb3rbzl62rVqjWfZ4reA/v7ne9XicMLyzex39m5NRvYfCDybDembYxV/qGTvuWob1ynCN78X5JV4DvdgLB95+ptV9vjR1/6W+34u4gOGdB1d/pa8N9/bZ3393rEfkWoYXbJ+bs8lGeY1/rfM1djudq1p+duYAO+2IvCrnmr/4oUTU43eUF/L8x0Z7r/e6d2x0Xt5w+oDY+vjztCHfY301JJjUfoYDAIDQaHj1J5984hryJ554YrXQopAwZswYFx4KCwvd85tLQUGBWzQMS6Fo6dKlrvekMTIzM12Py44dO2zPnoYHiLDo1+QeOR1s4/bd0TVNt2PXHjfUSL0FCgt5nTrYy59sdg3CpvqnF5ZWbSq1H5/e3/UYxOvXJc09trm4zP0iHv1N2lm6Yae9PG+LnXtMD5swPLdaL4Uaz5ee0MuFio3b9w4PC9rkHaM5K7bbmH6ZdrIXgErLK+2tRVujjzaMhpodM6STG5JWXM/A2dT9b87vRe99xIAs6+Q1yHVc6qux2zWn5vweGyNZv17ELwAAIHxqyK9cudKFg0S9GqK6j/PPP99OOOGEhL0ZjaHwoFoW9c506dLF/ZuSkmJLliyJjbBoiN27d7vgpGCl19lfbNhaZluKd7tfn5vL5+t3uqEyxw/rbH1z0+yoQdn23pKtjaqRCdrXsM60oT33/XIeTw3vIwZk2+zl26o0+t/39kHf7aRR1Rv1Pg09evz7Y7zXr16z9MGy7bbJO1bHD+1s/bul2VivYTvz082uXqGhFAaW5O+0DqnJllbPupqm7n9zfy9rtpTZtp17vHOnYb2Djd2uuTTn99gY9JgAANCKXn31Vfvxj3+ccPn73//uhnz5du3a5YZJqS6lMaFDhfa33HJLwvdS4XtN9COlhoIpEKWlpblQpBoWhSTtU0OUlpa6IRoaxqZhXPG9Pm2RfiRXrcadL672GrlJduLIxLU1KkYe//PZCRcVOcdTpvvXgi3WLau9HTEwyzWgJwzvbIU79rghZU2xqzzihphp+E9tjVoV0KsXqGDrblfrINqvfO9+F2+/9FhDqUj/jc+22Kg+mTakZ7p7j2OG5LjiaR3HhlAvyZOzCtxxOmpwJ+tVj/1p6v435/eiIWXqcbjvtTWunkM9IPVRn+1UyH7x3QsSnm9aZi1tWs9Gc36PjZU0bdo0L2BWnZVr6tSp0YcBAEAidc3KFZyRS/xZudTQ1exUiSgAHHroobFeBX/mrPjXqg/NyjVv3jw31Es1IvFUf/Luu+8mnJVLtSdvv/22XXLJJa5gXRQsHn/8cbvssstcYAmq61h07tzZJk6c6IrhW6K+RJp7Vi7p6TVyf3HWANdADv4K7894pPoFFRcnMrJvlisyDtrgNZ6vfWiRHX5Ilv30zAGWmpwUmwFJdRS/vWRolRmzGjIrl79PKnT3Z2aqiT73A2+ss99fMdz1Hvjvs66orMaZxGqzaF2JXfPgIvvWib3tsgk93ToNKbvmgUV23NCc2Gf11TYrl6SmJNmph3e1H3y9n2UG6mBq0tT9b+j3IrXNriXDe3e0/54ysFrvTGO303d29yurXY9Q5xpqNs4Yn2eDuic+H/1jrt6yms6Phn6P9dWQWbnoMQEAoAk0S9bkyZOrLRoClYh6Hk466aSEy2GHHVZlqJOm+dUUwo2tHVHQOe644xK+19ixY6PPqko9HBrG1bdvXxcofNoPhZSFCxfWWCeiGbmuvPJKt2h4mV5DxfUKP5qxq6VCSVNkpCXbD087xH73zaH2/y4ZYlOOyrO09kl2xcRe9sR1Y+zoITXPCqUQcP1p/RMu8aFEVHi9bkuZfWl4TqyBl+M1MjUT1bzVxa5h2FgqZK9tGuCgtYW7XHGzvw9+L4p6ihpaUqHehtc+3Vt7pOFPPhWNj+6XWetwqGOHdnLHXYsCoKau1fLQ1aPcdL31CSXSlP2Xxn4v3bLb2S3nDXL7f9tFQ1xtis6nn3sN+D9fPTrhkDFp7HaaXezSE3omPN+01BRK6qMp32NzqhJMWmpucQAADlTDhg1L2PBXAGkqXQMkKyvL9UjUFE60/rXXXrNnn33WhYqm0pTEq1evtjlz5tiNN94YG/p12223ufW1FcF37drVzdylRbOVKZyogP6ZZ55x9TJtkWa6Gjcgy808pCFb+jX5e1/rZw+/lW/3vrLaDbFpDrpGxrtLiqzCaznf8NelseE3R/1itj3ydr7tLo80qQhe0xvndWrvht2o3qQm6l1QA7N7Tvsq0+aq90f1NKqrqYlmhbrgrvmuyNy3dece+3D5NttRWmHf/P2+YUbH//JDdz2QTdvLayyeVqNXx12LZhD7/eUj3AxR1/9lsZuVqyEau/9N+V40g9Yxgzu5/VdIve3CIXb6uG52+3Or7KnZBa6xn0hjt2tJTfkem1MsmJRtXWkrV662TTubb0YPAADQeCpsV6/DsmXL3PS+iWhaX9V+6MfFREO2GkIhR70let+LLroo1vvhL1OmTHH7Ud8ieE1frN4jDfFSeFIRfFun32jPPqq7nXdMnj0xa6M9/UHzNBSXF5R6Db/tXmM0J9ZL4C+3XzzERvXNaNKv0qorUeG2Crg/WVUcXVvdMm8/5q3e4Yb0BKcLHnuIaiuS3JSyiT6v1n3g7f+awl1eoNl3ns37YrstzS+1c7zjFf+5pp0/2A2Hq2/xtILVL8/eO8xx6tMrbOO2+p8vjd3/5vxeNATtypP7et9DJ7vHC7X/Xly/CaUau11zas7vsSnihnJVWEkjpwIEAADNSwXvqjkpKytz1xTRv0EqlP/ggw9cD4ZqSZo6VMqfBUxF6pqC2O/98BcN/9Jjn3/+uQtE9aH6FV3n5aOPPnLDwPYHaiheckIvG9Qj3R5+a32zFP5q1ij9On/Rl3q6X8qDi+oGzhrfvcm/SqsuQ8Xvd7602tWcxFvtNa5v/fsKd12Wc4/u7kKYT9f8mDgy156ctcHe/rx6415h5ynvsWOH5NioPnuHGqkXQdcG0RXLzz+2R7XP9bUxXewrY3Jdg1cN3/oY2iPDLjuxly3fUGqPvZtf7x6kxuy/NPf3ouF0//GVPq425Y//WuuuLVMfjd2uObTE99hYKZMmTXIXWNxTWmTFXhiMVO62s846yz0IAAAS8y8qqIa3LiJYF/8Ci9u3b3eF5ypsT7QojAQvzKhrgGRnZ9t7773n3k89FQooeq4urKgC99NPP90NKQsOyW7MBRY1TOv99993tSIalhVPPTLq9XjnnXfc5/Yv6FjbsdA+qd5GF1hcvny5K/zXELXm1tgLLH7sNVjVoNeMTkEabqNf1l/8ZLMVbNvtNdByYhc49C+wqF+Pl3kBQI3bRIt6AFSIredptqV+XdJdAzjRhRcVFt71tlmzpdQmjupi6e33XnVbF1jUr/r5W8vsg6Xbqrz+R96+6/oc/nTGHb3GrXoOZn5aaH95O9/WFe2yikqzlRtL7a/v5Ntvn1/paktU1xB/nZNkb70u6jd/9Q579J0NtnCdht4l2Rebd9kj76y3u7yw0yu3g007d3DsYnurvcfUiFZh9ORx3apdHVx3s9NT7dVPt9jO3RXuoo56f/8CixrK9SWv4RukbbRvn68vcb0fo3pnWt96FE83Zv8b+72ILpSo7+Qb3ueOn5SgS2Z7S/HC7fNzN3v3InbkoE6xY9PY7XSuaj+KSyvsk5Xbq5wH/vLZ2hJ3gcpEn6O2Y97Y77G+mnCBxRzr1q35/2MBAAD2Um/Diy++WOMSX7+hhr3CxVVXXeUudDh79my7//77XShRgFFhuXoygqGkMRQ41KOhHpHevXtH11annhPVzyj41PdiiaqTmTBhggtDanzsLxdZ1LUcdO2Lf3++NXYF9iD9Cj/jvYIaF/8ief4wma+N7VpjgXp3L8SowZdoalbNGvXUrI3VXv+ZDzfatp1Vf1lXAfTD14y2H0zuZ595jdlf/G2ZWxasKXa1M3/7/hh3LZNEFMTuuXy4/fSM/q5W45anlttPH1vqrsB+xUm97Y/fHenClk+9CNu8QHjKYV1rnK1pUPd0Gz8o2xZ4gWF9Uc31H0E6Rtd8ta+ltUux+70Gs6bJrY+G7n9Tv5ea6E9R542K+zUUcP4X9etdrGu7vfUuW6qdB/7yyvzNVlbe8JKMlvoeGyM2XXBp4XLvjTpb937pdvvUX0cfBgAAaPtaY8YgAA3XpOmCk5KaVjgHAAAAAA2hXt/qg9AAAAAAoJURTAAAAACEjmACAAAAIHT7gkkTZ/MAAAAAgMaixwQAAABA6AgmAAAAAEJHMAEAAAAQulgwScsZYAMG5FiH6H0AAAAAaC30mAAAAAAInQsmutKiL3gbAAAAAFoaV34HAAAHBH5XBdqehv5dEkwAAMB+r30qTRqgrWno32Xs2QzhAgAA+6uMDinRWwDaiob+XfLzAgAA2O919BpAWemp0XsAwqa/R/1dNkQyhe8AAOBA0KljquVmtrMO7ZKpOQFCoL87/f3p71B/jw2V9IMf/SySldnR2iVHLBKJWGVlpd18883RhwEAAACgZd11112WXFpYYOsKtllZdCUAAAAAtLbknnkZZmWFVlIacUO5GM4FAAAAoDUpgySnpmWaF02svDISWwkAAAAArcUFk0h5mZV4d1LJIwAAAABCklxYtM0sJccy0vdN51VRURG9BQAAAAAtx88eyaUpnax771xLD1zRZO3atdFbAAAAANByNmzY4P5N7tuzq2W22zeOS+O75s6dG70HAAAAAC1nwYIFe2tMNu4odyt0xy9814PvvjXT3QYAAACAlvDRRx/ZkiVL3O2UQ4eNujmpY6alpya5CyyKAsqSBR/a4uUFlts117Kzsiw5OTDWCwAAAAAaQTUl+fn59t5779nHH38cyxlJ37/yO5EdKZ2tT68cS41UxsLJnuINtqqg0rr1zbOMFHNXhNdj/tXh/ecF72vZs3OLbdhUau07d7Wcjqnmxxn/+VZRatsKi2xbaTvL7dnFOnqv7bYr2WwFWyutU16eZbbb+1Sfe4/SrbZ+yw5L69zdusQucV9ppYX5Vmi51jM3fe97le+wjRvLLCMn1baWpFheXqa5l/Pet3BDoXlvarmBgprdxets0/Zs69Y7y9pH19Wl5m32ePtTYIWle++lx71XVbuteN0m257dzXpn1fTOEe/jbLaN28wycjtbTnr8pf0rrWz7FttcXGGZXbtbpw6tN7VadnZ29BYAAAD2F/4IKf/fmgQfD3ZQaH3wMf9+LFxEb2vxn+ev85+bkrJ30q3genf/lp//V2R1QYml5fax7tmpptUKAhU7CrxgstsyOmVYe+99XDgIBJC9S6p1zE63pGglvdapMV22fZNtLPJa56nplp6RZh1SvTes3GO7SndaSckuq0hJs8xOnSzba2jv3Q2vkV6w0bYm51iPrhkW3/x2ImW2LX+TFSd3srzue8NGJFJRPZhYue3YuNG2lZu165RneX7K8YLJlmgw6VItmKR5n7ND4veV5PbWsWP7WMiqNcxE32eXdzMt7r2qqk8wEe+4bS2yLSW7vcOZaZnpaeYdTqus2GWlxTutdE+yF1q6JAgtLYtgAgAA0Pb5jX5f/P14iZ4fXOff9tcHF/EDSjB8+EswsATX7X1ekv1/i+LLNdEwxaEAAAAASUVORK5CYII=;" vertex="1" parent="1">
          <mxGeometry x="424" y="590.5" width="208.29" height="69" as="geometry" />
        </mxCell>
        <mxCell id="eqxQ3n0CcYi4T9n9lh90-36" value="" style="edgeStyle=orthogonalEdgeStyle;rounded=0;orthogonalLoop=1;jettySize=auto;html=1;" edge="1" parent="1" source="eqxQ3n0CcYi4T9n9lh90-33" target="eqxQ3n0CcYi4T9n9lh90-35">
          <mxGeometry relative="1" as="geometry" />
        </mxCell>
        <mxCell id="eqxQ3n0CcYi4T9n9lh90-33" value="click button &quot;Registrar&quot;" style="whiteSpace=wrap;html=1;rounded=0;" vertex="1" parent="1">
          <mxGeometry x="40" y="870" width="120" height="60" as="geometry" />
        </mxCell>
        <mxCell id="eqxQ3n0CcYi4T9n9lh90-35" value="fn_registrar_acao()" style="whiteSpace=wrap;html=1;rounded=0;" vertex="1" parent="1">
          <mxGeometry x="40" y="960" width="120" height="60" as="geometry" />
        </mxCell>
        <mxCell id="eqxQ3n0CcYi4T9n9lh90-37" value="" style="shape=image;verticalLabelPosition=bottom;labelBackgroundColor=default;verticalAlign=top;aspect=fixed;imageAspect=0;image=data:image/png,iVBORw0KGgoAAAANSUhEUgAAAJwAAAA/CAYAAAAVMKENAAAAAXNSR0IArs4c6QAAAARnQU1BAACxjwv8YQUAAAAJcEhZcwAADsMAAA7DAcdvqGQAAAleSURBVHhe7Z0LcFTlFcf/m/f7RUJCsoQEQh5gsIIaoIZHGxUdxBdY6wN8DYxia6cjqB3taMcW2k5pC1Kn1kEdsdSO2qpUoA61WGgFeSOQQCAQEiAPsnnu5k3P+bibx+69cXOT3DByfjN3srm72Xv3O/97zvnf79uJ7SIBQbAIP+2nIFiCraysTDKcYBlSUgVLkZIqWIoITrAUEZxgKSI4wVJEcIKliOAESxHBCZYighMsRQQnWMqAZhqcLR1ooq21vRMyX3FlY7MBQQF+CA/2RxhtRpgWXJ2zHQ2udu03QegmMjQA0WEB2m+9MVVSObOJ2AQjWBusET1MCY7LqCD0hZFGTAmOezZB6AsjjZgSnBgE4esw0ojcFhEsRQQnWIoITrAUEZxgKSI4wVJEcIKliOAESxHBCZYighMsxdRqkbILzdoj3zh2rglL1xWitsl7wj/A34as5DA8PCsZ+dlx8LNpTxA1jW1Y8voRnKo0Pl5MeADWPpKNzFHh2p5ueD5v494qvL+zAqXVLejovIi4iADckBWLRTOTkRofor2ymy+O1+IHbxRhzcNZmDo+Rtt7ifaOi/jsiAPvbD+LorNO9Tu/302TRmDhzBQkRAZqr/Tt3BnP81/5YQmdb6V67InRsTzZfbIeT71ViLEjQ7H6oRzE0jH0MBsXX7GP8B5fSwU3a0IcZuT0DiK/1wdfVuIMCeL5u9Ixd3KC9kx30PxsNuSNi9L29iY4yB/z8xKRGB2k7bnE0fImLH/nGGqdbZg9cQSmZ8YgPNgPheVOfLynCg5nK56em455UxLUWi43RoJjca3edBob/luB0TSQ12dEIYiCUnjOiUOljYgnAfzmwcwu4bDYN+w4j3o6PtNGYt9eWKse35Adg0Atgp7nz4L7/KgDT85JRWRI97qy1nb6+yIHNu+/oITwu4XZSqyecDTXbClVn7GtoxMvzh+nxl0Ps3HxlWEX3KOzU3Dv9CRtbzcVda146s1CRIUFYBUFLSLk0kC6BTclPQrP3p6u9vnCOUcLnqDjBQfY8KsHMpHq8cFZDD/9azGdlxOvUHYZEx+qPWMsOBbwE+uO4rZr4vHDW8aoDODmcFkTfkQZZWZOLJ69Ix0BOunA1dqB5zYcV49XfH88QkloerDg9pTU44+PTaCM1juLcaT+8r/zWLXxNFbeNx7fvcpbSOdrW7H0jaPIz4pRny8i1B8v35OhFkd6YjYuvqInuMuihxsZFYTc1Eg4mtrUlTwQOCh/oyuzuqEFy+eleYmN4VWpj33HrjIEB8gX6ihTNbo6MJ0C2VNsDGecb9P+Igqws3nolm5xJp6SHqkWN1bV65/34bJG+kwtJP445NEF8+WJepyocGnP9o/BjIuby0JwTS3tOF3tUkuT9bJDf+DFfztP1KmsmJPi3de54efeXpqLvIxobU/fJMUEIyEqEFu/cnit9eJz5tL19tKrVDYYSs5caFGrrfWyDS8J2nKwGhlJYRiXGIpp46PUuX166IKpFT6DGRc3wy44BzWsr39WjoOnG9VVycuTPeEm+rqf7NTduJRxuXJT3dCKCspanM6NypYZuOwuKRiNzQeqUPDyHiz+0xG8S+WNyxL3d0MNH4PNwKufnlGfjTOdJ6eqXNhX0oCZ2bFK+NxrTrSHU5aro162fyu0fYmLGYbdpTIhQTYszE8h5ziqV6/hi2mwk9O889qRCNT+rq++RM8B3p03sld/2JdLZbiUfby3mpr3qi7ny+f/vWlJ5OhSVLnWoz89nJFLZbJTwvDCXWN1Xflbn5/Dm9vK8YdHcrqy+4e7q7Di7yXU82V4mQezcfEVvR7O/0VCe+wz9f38PsMFEs4n+6ox51vxWFyQgpuvHoGc5HAcr3BiEvUIqxdlY9bEWPh7pG1Xa6e6rTGZyuOyeemYRk7Tc5toj+j1d+5jjSTXx860J40tnUiKDkTu6AgqO+EoczQjIzGMXGOs9gq6mGqasYmc4K1kDvQGjAV1TVokFkxNwqIZo8jdxaGzE3iPRFJ83qneSy84nKG2flWjHhfkjkCgv34AtxfVqiz9DF0E7KBnT4wjt3lR7Vs2N03tT6DeyhPOSGv/WYqU2BA6t8SucwgJ9MO/DtegjmLGpkZvrPobF1/Ray/6L9sBwH1FPgWEt/vzR+H3D2XhZKUTy/58DJXkiAaDpOhgJMcFqyzcs9Qyc2hAf0xB4+3xG+3qVsZA4Kw6gUoWZ8jlt6VhR1GdatoHSniIP6ZSb8njxE50JWXEeZMT8MuPTpGwK3T7sRMkkpOVLmUSZr20u6vlWPDbg5SV2/o0D1bExY2lgvMki8rCc3ekU2ly0WCWeDXjZuBegw3DgdJGFJt0Z540t3XiGRp87tsam72zO7vH1IQQ2Gg0O6nEDjbsipfcOJqccDRe2VKq7sf1pJ2OuXl/tcpq7MxXLczstfHF5aLs7qt5GIq4uBlWwTHTqE/iHoyzwyYatIHCwb+X+qnk2GD8/IOTKKGr3hN2c/+gUlJGjs8XuCxNsEeqBppLp+cXRFiQn1BfF0slhN3sUMClfHGBHZHkTl/bWkYl9tINZYb7SjYU11Gfe/u1CV3Zyr3deX0ixo8KxbajDnVvzRcGOy5uhl1wfPXen5+MNMoQ68gVcR/kyb5TDVi18ZThtotcWE+4f/vZgnHqyr9vzSHlZD/aU4VtR2qozzmDeb/ej9WbSjFpTCQeoBLiC/PJXHCGWbvlDG7+xV48/26xOjb/vGXFXiVgni7reRN5sMmkvvPBGclqtmT9f86qz8fsKq5X9xNvpV5Mr3/kqa2C3HiUVjVjZ3HvsTLCl7iYYdgFx/C0zuM32VVju+7f5V4Z5CSVRp5SMtr4eU/GkRlY/2QuXiLh8S0BdmpPrz+O976oIKFFqBmGVx/NgT3O2xjowRmG3eULd4+lIHC2qFHH5p9sXF5bPAH3kJHoOU022PB7s5GYlhmN93dVUMZtUOVuy4FqlcGuHqPv5JmZOTHqPuKOYw6v8TXi6+JiBktuiwhXJpft1JZw5SCCEyxFBCdYighOsBQRnGApIjjBUkRwgqWI4ARLEcEJliKCEyxFBCdYiinBDeUEtfDNwEgjpgRnZn27cGVhpBFTyjH6oogguDHSiCnB8fcUB+trY8I3D9aG0b8/MrUezo38ry3BDfdsXEY5sw3J/9oSBDNI9y9YighOsBQRnGApIjjBQoD/A7eFaMidlByaAAAAAElFTkSuQmCC;clipPath=inset(11.9% 0% 3.97% 5.77%);" vertex="1" parent="1">
          <mxGeometry x="178" y="890" width="55.47" height="20" as="geometry" />
        </mxCell>
        <mxCell id="_TlwlnKGodl9wsCWiHMZ-11" value="" style="group" connectable="0" vertex="1" parent="1">
          <mxGeometry x="424" y="680" width="724.8299999999999" height="360" as="geometry" />
        </mxCell>
        <mxCell id="_TlwlnKGodl9wsCWiHMZ-1" value="" style="shape=image;verticalLabelPosition=bottom;labelBackgroundColor=default;verticalAlign=top;aspect=fixed;imageAspect=0;image=data:image/png,iVBORw0KGgoAAAANSUhEUgAABB8AAAIMCAYAAAC9qgSnAAAAAXNSR0IArs4c6QAAAARnQU1BAACxjwv8YQUAAAAJcEhZcwAADsMAAA7DAcdvqGQAAHQ8SURBVHhe7d0HmNzUufDxs+vee8EY44IxNmCKCaH3Xo3phISWhBCSm3tzU2/IF3IT0utNuAlwIYVQQgkOEGrA9BpTDBgM2NgGbFxwwb2tP/8Po0U7ntmdXa92x+v/73n07Iyk0Wi0OpLOq/ccVZx99tnrwwZVVVXh2GOPDevXx7clYd5i89dnOZuiqb5HkiRJkqTmVFFRkXuVrWLfw/j6rAPz/uMf/wiVlZWh4hOf+ESN4AMGDx4chg8fHnr37h1nkiRJkiRJqg1xhfnz54c33ngjTJ8+PY5Lgg8bRRZ23333sO+++4a+ffsaeJAkSZIkSSUhhkAsgZgCsYW0GF1Imi6Q8TBy5Mj4WpIkSZIkqSGILRBjADGHGqkNNLWQJEmSJEnaVOkYQ43gQ69evXKvJEmSJEmSGi4dY6gk/SEZWrVqlRstSZIkSZLUcMQYknhDDD5IkiRJkiRlxcdZSJIkSZKkTFUHH8yAkCRJkiRJjSmJNdR41KYkSZIkSVJjss8HSZIkSZKUOft8kCRJkiRJmbLPB0mSJEmSlImN+nww+CBJkiRJkhpTEm+wzwdJkiRJkpQp+3yQJEmSJEmZMvggSZIkSZIyVd3ngyRJkiRJUmOr0eeDAQhJkiRJktSYklhDZevWrUOrVq0CfyVJkiRJkhpLEnOo7vPBzAdJkiRJktSYqjMfDDpIkiRJkqQs2eGkJEmSJEnKDDEHH7UpSZIkSZIy5dMuJEmSJElSJpJYg5kPkiRJkiQpU/b5IEmSJEmSMlPd5wMvDEBIkiRJkqTGlMQbqptdGHyQJEmSJEmNKYk1VHc42dymTZsWjj322DjwujFMnDgxDB06NFxyySVh5cqVubEN8/e//z0u6ze/+U1uTHlZunRpuOOOO8IXv/jFsP/++8d15S/vH3744bB69ercnJIkSZIkNa0YfDDrYfO1bt26GHQYO3Zs+NKXvhQeeuihMGDAgBh46N69e/jHP/4RzjvvvPD5z38+TJ06NfcpSZIkSZKaBjEHm11sxgg8XHXVVTHogF/84hfh2WefDX/961/Dn/70pxiUeOSRR8Lxxx8fHnzwwfDVr341vPnmm3FeSZIkSZKylsQaWvSjNseMGRObcHz/+98P7du3z41tmBNPPDEui2YM5eKuu+4Kl19+edh1113D//7v/8bsh/zfOXDgwPDDH/4wnHHGGeGFF14If/nLXza5CYokSZIkSfXhozY3U3Pnzg033XRTWLZsWTjnnHPC9ttvn5uysY4dO4bTTz899O3bN9xzzz1hypQpuSmSJEmSJGWrRrOLcpZ09sjfBQsWhN///vexKQHjDjvssHDZZZeFd955Jzf3R+rqcHLWrFnht7/9bfWydt999/CFL3yhYAeNtXU4uXz58o06e9x5553D2WefHa677ro4PV+yvPHjx4cnn3wyBgf4zOc+97nw2muv5eYqbtKkSeHxxx8Pe+21Vxzqst1224VDDz00HHHEEaFt27a5sR9iR6A5Bs02Tj755LheDGzbb37zm+HVV1/dKEC1cOHCcO6558bhrbfeCj/72c/i9uMz11xzTVi1alWcj8/x+W984xvV24btcu+994b58+dXL4PlpTVknSRJkiRJ5an6aRebQ0Vu8uTJ4cILL4xNDbibv/fee8dgxNVXXx3+7d/+reT+DPitdMxIhZ/K7aJFi8K+++4bhgwZEpsy0EHjj3/844JBg3w0xSDzgH4XCAYMGjQoVrIHDx4cnnjiifDtb387/Od//mdcz0IeeOCB8LWvfS1+16hRo8LixYtD586dc1MLY/1feeWV+JrP9OzZM76uTadOnWKQ5r//+7/DyJEjc2M/6jfipJNOioEYgi6sf7Jt6T/itNNOC3feeWfuEzXNmzcvLvf666+vXm5FRUUMcLCeBGX4PFkadIDJst97771w0UUXhV/+8pfhgw8+iJ9J29R1kiRJkiSVhyTWsFn1+UCFlMr9/fffHyugZBVwB53MBfozoKJLxbUuNDv4wQ9+EIMOP/rRj2IA4Nprrw233nprbJZAHwp/+MMf4vfUhkoxfSiQYUHw4bHHHovrRGePt99+e8xqYFms43PPPZf7VE08jeLiiy+O8/KbWI+tt946N7Uwsgqo9IMnW7Rp0ya+boiXX345ZioMHz48rgPrzfrzO/g9/C6adrBdlixZkvvUR8hAWLt2bfwcn7nvvvvCpz71qRiA4Df/9Kc/jUEHAkRke7BsAjxsdz7D/y3fpq6TJEmSJKm8bFbBByry//7v/x769++fGxNCnz59wic+8Yn4mkrr0qVL4+tiCE7cfffdMUuCjAVS+tPNEOg7geyK3XbbLbz77ruxYl0M/S4QBKDZw7hx42I2RoLKN80oDjzwwPj+jTfeiH/zMf3II48MrVq1iu9bt24dP1uqXr165V41DNuMYMexxx4b1zf93fye4447LowYMSK8/fbbRbM3yFCgY0tUVlbG30JghsAK25DgykEHHRSnge3Ndmc7F9IY6yRJkiRJKh+bVfBhp512ip0m5uvdu3dM+SewUFVVlRtbGMEJKrcs56ijjqqu9KcRDCAL4vOf/3wMBhRDhZs+IGhysM022+TGfoRKM80vUCyIwefSQYumRuCG33rBBRcUDHrQpKNfv35x2xbKKqE5B9ko+QjKvPTSSzFgRJOW/GWz3em/Idk+aZu6TpIkSZKk8lL5yAN3hbsfeDRMmrFx2/tyQ5ZDu3btcu8ahqYWVIzJGGjsSv+aNWvinXg6g6SpAP090BFjbTb1N9FpZmOhLQ7NGMgooHnDFVdcETvRfOSRR3JzbIzAQ7du3XLvPkJWCB1n9ujRI3Tt2jU3tiYCQHU1MWnIOkmSJEmSyktlnxEfC3uOHhY6LZqUG9WyJXfLqfRTMd5UNC+g7wE6r6QpwB577BHGjh0bm4fQX0GhzIpN1b59++pK+/vvvx+DHpuCJ4V873vfC2PGjAm77LJLbApCvw10usmTLOizob7IQKFfhq222qpocIWshmLbJ4t1kiRJkiQ1j8odtu4devUZEIbtMiY3astA9kP+4x3riydUfP/734/NM3gSxz777BP7N/jVr34Vn8Tw7LPPxqdwZIEKOU0e+N5S+z2g00aevDFhwoTq5gpPP/10OPPMM2MHmzRnOOWUU+KjSelIk0eA0knkjjvuGOdtiNmzZ1c/djMfWQ2Fmk1kvU6SJEmSpKaV6vOhQ+5vy0ZzCzqsJGOg2KM0eXzmWWedFR+BWVvFnkdpUiGmXwP6KOA1lfsTTjghPgKTDAU6XMwCle/99tsvPPXUU3GoC7+XR4HedtttMXOAjAOaM/z5z3+O6/jVr341PoXiJz/5STj//PNjIIV+FXgUZkM6daQfDvroIMBT6HGaoGlG/vbJcp0kSZIkSc1js+pwsjF07tw5Voqp+D700EMF77zTUSIVeuZlKGbq1KnxL4GGYp0uFnqUZGOgn4VjjjkmZj+Q0fD666/npmyM33jzzTeHf/7zn7EZwxFHHBHHExggMwF77rlnjad+gMwE+q/gcZr1RXMLmqDw+wl6JM92TfCeLIbp06fnxnwoy3WSJEmSJDWPLS74wB3/448/Pj4d45prromZAPTbACq2EydODFdeeWX1ox7zK79pw4YNi39p+jBz5sz4GiyH9zTJoIlDVg4//PDY1wQVfJp+0MdEfjYHHVL+8Ic/jNkD9JNw3nnnVT8Wkz4vCBLgmWeeqd4OWLlyZWze8POf/zw3pn7Ybmw/tuPll18eAz3Jk0j4HpbN9s+X5TpJkiRJkppHdfAh/850S0bQgCYV9CfA30MPPTR88pOfjM0lTj311Bg44IkKNKeoze677x4fy0nln8d2nnzyyeGcc86JyznooIPCjBkzYh8QIAuiWN8HDUWzjq985Svhy1/+cpgzZ078+/GPfzwGJFgPgiw0zaCSP3To0PDLX/4yHH300blPh9ClS5e43mRP/PSnP63eDjzqkiYOPK3jkEMOiQPbZPHixblPlobtQ9MJnjDCYzNPPPHEuF5kbLCuZKDkP2oz63WSJEmSJDWdJNaQynxYkfvb8vGUBZ6eQN8CVILJCKBpAJXk0047Ldx0000xCFHXkyoIXnAXnqcyEKh4/vnnw3PPPRf7O6DTyeuvvz4uj2kvv/xybOrR2AhAEOC4++67w9e//vXYESWZGI8++mjsN4GK/q9//euYFcFv5renHXfccfH30qkjT6dgOxDIIJBCVsh3vvOdsPfee8dp/Lb6BKn4LgIgyfJZH9aLPjeuvfba2D9Ghw4b9zWS5TpJkiRJkppexYiP7b9+QOf1YdGM18JzU+flRkvZe+2112JzEZrA/OhHP4pZD5IkSZKklmPcuHGhsrIyVC6d/lx45pnXwpxW2+QmSZuOrIRvfOMb4cILLwxvvvlmbmxNdBxJh5M0vejYsWNurCRJkiSppanc+8Cjw1FHHRj23HHb3Chp09EchMdi3n///fFpHOm+Geh48tlnn43j+/btG5uD1NXERZIkSZK0+UmayVeccsopG16vj49jpD291FjoEJIOIunngQ4keSQpQQn6fpg2bVocx3T6cjD4IEmSJEktz0knnRTre7HDSTvsUxYGDRoUfve738X+HPbYY4/qjjDpZJKnXxDsKqVjT0mSJEnS5ouYQ8x8IA2ewcwHSZIkSZLUWMh8iB1O5t5LkiRJkiRlotImF5IkSZIkKUtmPkiSJEmSpEwZfJAkSZIkSZky+CBJkiRJkjJl8EGSJEmSJGXK4IMkSZIkScqUwQdJkiRJkpQpgw+SJEmSJClTBh8kSZIkSVKmDD5IkiRJkqRMGXyQJEmSJEmZMvggSZIkSZIyVbl+/frcS0mSJEmSpMZXWVVVFdatWxcHSZIkSZKkxpLEGypXrlwZGFatWpWbJEmSJEmStOmINRBzqOzYsWNIBkmSJEmSpMaSxBvscFKSJEmSJGXK4IMkSZIkScqUwQdJkiRJkpQpgw+SJEmSJClTBh8kSZIkSVKmDD5IkiRJkqRMVQcf1q9fn3slSZIkSZK06ZJYg5kPkiRJkiQpUwYfJEmSJElSpgw+SJIkSZKkTBl8kCRJkiRJmTL4IEmSJEmSMlUxbty49fQ+WVVVFcaPH58bvXnjt7zzzjth3rx5uTE1de3aNQwZMiS0bt06N6a4tWvXxqF9+/a5MR9aunRpmDJlSlxOz549c2PrxrLeeuutsNVWW4XOnTvnxm662bNnx78sd1Mk6/fBBx/kxoR6/0apHCxYsCDuy4n6lPumlpS7du3ahYEDB4bKyo/iwsnxjONFfjlMfuOIESMa9XiibK1Zsybcdddd4ZlnnsmN+chpp50Wdtlll9y70s2fPz907NgxDk3lxRdfDNOnTw/HHHNMaNOmTW7sh2bMmBEmTJgQf09TrpMkSSo/Y8eOjde3LTrzgYrGmDFjNhqGDx9ecuCBC3v+plEZ4KK/IZVyvpfvL8eKAr+Ji0kCGMm24iL4/fffrw5uSOWO8vrGG2/EAOFuu+1WvS/36tUrjl+5cmVuzvJDwHT58uW5d7Xjd1I2DTxsvqiYX3bZZdXDt771rfD888/HSnt9UNG/8847c+8kSZLKk80uGoCozaBBg1pUNgAVsjlz5mxUkSFYss0224RFixbFypxU7qjAF8ogoLx27949zJ07NwYQyxHrSKAvP+BZSDkHMtUwZAgcd9xx4eWXX44BBUmSpJakRTe74KK8rgBBkt2QNDNIUrORHj9gwICYEUAlnfHpu5PJtEQ63ZvldevWLX6OyhDrxrR0s4v8ZeYvrxAqKLNmzYqv+/TpE1q1ahUrWsnnkmYhabVlarDOfCa/wlZM+vvBRTPLp3kK2/Ttt98OXbp0iRfQ6XT3xl5vKS0pz+nyVZu6yjPlYsWKFWHdunUxqJHsi7WVcfbnUo4Tacl69+vXLwb6SGFP5s0/nrFsyhdBwaQ5WP44yhmfS9YbrDvlNFmvdJlV00qaXQwePLhgE4sk8+Hggw+Of2lSccMNN4T33nsvvsdhhx0Wp3OMvfLKK3NjQ/jsZz8btt12243Go64mHfnfk3xHMfVtdpG/Tun14bsfeOCBWIbYNnvuuWdc7uLFi4v+dkmStHlIml20Gjly5KWMIABxxhlnxImbO34LQYO2bduGDh065MZujIvzd999N94NHTZsWKwcrF69Ol6YU5lgoOLBBSIp21QQuHjaeuut4zjmp+LBxRd/+T4qz1Sut99++5gdwR3YadOmhU6dOsV5WDcqF1TMk/lfffXVMHTo0LjMvn37xjuzrAfzFELFhwuyHXbYIV6oUcGgcsL8DFRE+F3bbbddXAfWkwoGmQ1ML9TkhHUiEMA61oXv5zvIkmBb9O/fP75ftmxZXD6/kXn4yzy9e/eOO1sW6y2lUW4o+z169KhzfymlPFP+2Uep1DMPx5O6yjj7dV3LzcexiDLIdPZ1Klp8F/PmH89Yb95zfEp+Y/441pEARLLeLPfNN9+M83KsYd34zJIlS+L3VVRUxGlqGvy/aQLEuYfjZz7+lxz3OC+tWrUq3HbbbeGoo44K48aNC4ceemg8Rt58883xL4EG/vKZiy66KAZ1qcjfe++94ZxzzgnHH398/AzH4UceeSQuMwkGpLHP3nrrreHMM8+MnznggANiBgb7EUGqQlhH9lsycDh/pHGsZ5/fcccdY2CCQMV9990XPvOZz8TlE3T4xz/+EY/xbAPOu08//XQ8115wwQXxPFHXb2f7SZKk8nfjjTfG680W3eyCO3wTJ07caKASDC4AubhJ425jsbuTXNTnpzlz4cSFPVgey+buZXI3kXmpfBTDxT/Tk2XyHXw/lQcqB/kYRztv5kkqHlyAccGZ4LtZz2QdwMVmMn8xVKJKwd1XKl1JhgR/C91lZlwyT5brLaWxv5SyzzBPbeU5wftknyyljJe63GKYl+VT6St0DCgVZSupZCbfT9lNymSp5V3Ni//hueeeG4MMCf637GPFEGg477zz4t8EAadCx+kEATQCDslnCBjsu+++MYBAMKMYOs289NJLY38V6SGd4UCmB8tJL5+/vGc80xMExxIN+e2SJKl8lVWzC+6cUxknIMA6lYK7evn4LaU2u6AikU6f5g5PUnHhwp9pVJjTF23J8tNP0+AOPxf4hebnOwgmcLefzybzcGFVaD35XlKomSep4CTy06sTVFTAZxLJ+nNHDHxfsTTrQp+vC78p3USCi8L835hsh6zWmwtX1Q9RRyqe3PHmbn05aKyyX2w/q02x8sy+my67VNqLHRPy50Nty82Xv9zks1QACUSkjxOFfmP+uPxyVWi9C61zbZq6rJXjfjpz5sxYSWfb8T8qxSmnnJJ79ZG6ml0Uas5Q6AkZ6SYWhZ4sQTbBTTfdFLMsQIYBmQ3poAQKLTtR7DMotdkFWA+aSqQDCUlTCzIhWNc77rgjvi5l/ZLfnu+WW27JvZKU4BjP+YPgHjePJKmpJc0uyib4sHDhwpjizN1wUos3JQ04uXBPLtZLka7wJkEIpC/Y0/Nwp5Px6Yt6LvrzL/BR3+BDbRWoUirxzMN3cDHH7yhWYUmrqyLC8qkIsCzmZfnpoECx35hsh6zWW/VHeaeskS5NWaOJQnNqzLJfqJKdxv7EPsf+BOYtVp75fH65KLb8Qvt/bcvNV2h6Uh64Y83/ivHFykT+uCyCD02t3PbTSZMmxSZxo0aNigGh/GYG9VFX8IFKO/9rpqUDCElfB8m4pDKfH3xI992Q9KvAuGKV+2R5PB2m0PoUs6nBh/Q8rEP++pXy2yXVjeaANJOaPHlybN47evTo3BRJahpl9ahN7npykcmFMRdOm1L5aKgkVTq58OJiPl8yjnnSF/UMYINSQafdeVp+044E83PBlj89WV6h1PF0VkaCyg4XswkuzrhTyIUkF7BIr2chBFxYDz6bj99NBYA253wXFRaCAyNHjqyu/BT7jYms1lv1R/minLEPU+4of82lscs++xltxqlYs3/lI9CRdHJaV3kupJQy3pDlFkLZIiBDPyh1la+GLL/cldN+SsYDgQcqvASUNiXwUBeCBFToCTohyZyhKQPfD46VZAoVwz7D3U2aQyTnNLYfx+5COA8R3KHcZCFZPueRNN4zPj9wkWjIb5e0MY5ZHLsoRxzLOKZJUnMoi+ADFxJcZDd10IGLde6opC+4kooDF/6FKhrpi3z+crcxqbAzP5VmosvJcrjYSz8VIh8pxUxPLgpZJnctuTtZLPhA5Yp5kvXgAi6d2g0qK0nli3VhPWuTLJdmFOkL1OQ38v9J37FNV4bYfrX9RmS13mo4yhv/1+a8kM+i7CeBNLKK0gEI9lP2Oe76UFbBvpjsj8m+XigAlyi1jNd3ucXQlImykzRBQnJcIJACfmNWlcZyUA77KU0tyHjIMugA9pE777wzZkSksxP47cn+k8yTfvoDQVsyRdL7GPtHEtwloHH77bfH14VQ+d91113DP//5z5iNkCCz4Y9//GOD9t00ls9vosNL1gX85T3jiwUfUNdvl1Q6jmEcyzimSVJzKIunXdARIRdajVUB4bdwsc7dHyq7+QO9cFPp504+F21UUogCM407bKRyMo31IVWNdGUqEFSeufB//fXX47xUQLi7xMGc6ckyeZ/Mw8UflR2mUyli3agAJfMyUJnhgo91YJl8T3LHtJAkNf21116L38GFG8tmHMtlOgETerdnOne8SMfmwo15mV4I49PrkvxGouX8BvAdbDMi59ydS76fu3T8H1kPKmjp35jIX6/GWm81HPszFVcqd82hscs+2P8oQ+w3BBfZlxiopNPTf7JP5pfVQuWZ4wH7ZLKfFvpcfhknYFnXcvOxboXKDL+F5bGduENMGWAcZZAKGOWUYx3bkGBI+mkXSL6r0PLzfxvryucKrV9za+799LnnngtjxoyJ274x8P9g3+TpDw8++GD18Oijj8bmBXvttVduzg875iUYfvXVV1fPc+KJJ8b/I/s4WWgcHzmP8bQK9gWyHQg+/OlPf4qf4Vh9wgknxCAZ+06hJ2zwPTxBgo4ik/Vh/0iachTCvs1+RdYg+3da/tMu+E6Gyy+/PC77qaeeis01kswMfgtlhn5Rku8r5bdLqh/K1wsvvBCzVyWpqSRPuyiLPh+4QOHuR0vFRTN3YmsLKGypqPBQuUqaWajpNWf5ayll3zKevebcV+jEsFDHkZK0OfKYJqmplVWfDy0FAZwkYyDB3UjuDpXj3cSmxB3f/CYu3GXlrlmxu2pSubGMS5IkSQ1j8KEREc2hiQKV6okTJ8bhlVdeiU0H0v0lbIlIm2Y7UElLtg3t4JOnZUibA8u4JEmS1DAGHxoZlWzav9I+OBmslHyIIANtDJPtkn5ahrS5sIxLkiRJ9WfwQZIkSZIkZcrggyRJkiRJypTBB0mSJEmSlCmDD5IkSZIkKVMGHyRJkiRJUqYMPkiSJEmSpEwZfJAkSZIkSZky+CBJkiRJkjJl8EGSJEmSJGXK4IMkSZIkScqUwQdJkiRJkpQpgw+SJEmSJClTBh8kSZIkSVKmDD5IkiRJkqRMGXyQJEmSJEmZMvggSZIkSZIyVbl8+fLAsGLFitwoSZIkSZKkTUesgZhDZceOHQNDhw4dcpMkSZIkpU2bNi089NBDoaqqKjdmY+vWrYvzMK8k6UPEGog5tNhmF2+++Wa4++67w8KFC3Nj6mfZsmXhsccei8upL76T7541a1ZuTP0kn2/oukv6COWQsrx69ercGEmS6u/3v/99OPjgg2vNFmYa81xxxRW5MZKkhH0+SGqxPvjgg/Daa6+F9evX58ZI5eudd94Jp556apg4cWJuTE1z5swJP/vZz8Jhhx0Whg4dGv/+8pe/DAsWLMjNURh3YE8++eTw8ssv58Z8iPTHP/zhD9XLO/vss8Pjjz9e611dUJ7Gjx8fjj322Drv7v79738PF198cViyZEluzEd3hs8777yw8847x4HXxb67PuvZ0G2EefPmhQsuuCD85je/yY1puMWLF4cvfOEL8ffXpq7/eSlYxn/913+F3XffPQ68ZlwhbAe2R7J9zjzzzHDHHXdscnCWfYL/0SWXXBJWrlyZG1tTfdaz3LBfXXrppXG/ww9+8IP4vtDANDAv79977734XpJk8KGoTp06hf322y9st912uTGl69GjRzj66KPDgAEDcmMkNTUqOy+++GJJlQ6puVHBvvLKK4tWQsnCu+iii8I999wTzjrrrHD99dfHv//4xz/ChRdeGGbMmJGbc2MECLp27Rq23nrr3JgPv+9HP/pRuO666+Jy/vznP4chQ4aEz33uc+HOO++sNWA3derUcNVVV+XeFbdmzZrw0ksvhZEjR4bOnTvHcQQe+Oz5558f1+l//ud/4sBrvpsKLPMk6rOem7KN+M6//vWvYcKECbkxDceybrjhhnDXXXflxhRW1/+8FPzmf/u3f4sZXpdddlkcpk+fHsflZ27Onz8/fPOb34zbI9mWI0aMiEGAa665psZ2r69nnnkmLqOY+qxnOWJ7ffe73w1PPPFEfE+AgfeFhh/+8IdxHoIPvD/33HPje0mSwQdJLQx3Q2fOnBkv/LiY7tOnT26KVJ5o5vfb3/42/OUvf8mNqYlK/K233hpWrVoV076puO+1117xL5/jLvvf/va3gpVHxj3//PNh1KhRsYKfuP/++8N9990Xvve978XlEGznLi2V9D/+8Y9F70hTYaaS+eqrr+bGFEfgb/LkyWHXXXcNFRUVcdyUKVNiIOHLX/5y+MUvfhHT0xl4fc4558QAQDqbotT13JRtBCrPxbZ/fZBBwHIuv/zy3JjC6vqfl4IMA7YBNzx++tOfxpseDL/+9a/jOIIv6YyG22+/PQZk09vy29/+dvW2LOV/mo/gD8GT//7v/w7vvvtubmxN9V3PcpSfNVQflD9J0oe2qOADfSjQ9ps7orNnzw5PPvlk7FuBv7xPp3AW6/OBE+37778fnnvuuXhBxF0STtjpNMNifT6QAs5doEceeSRO/+c//xlPSt6ZlRoP5Y+KRM+ePcPHPvax0KVLl9wUqbxwPqFS86UvfSmmvtOMoRAq/JxPdttttzBw4MDc2A8NHjw47LnnnrFSyTkmH+MIAPDZVq1axXEsj+DcvvvuG0aPHh3Hgemk4y9atCieF/Oxvpy3WGcqr3UhMEBQgEyFxNtvvx3/7r333tXrA14ThOCcy/qiPuu5KduIjAAqx4cffng8ZjRU0qyAZh8sq5BS/+elYFtyrDv00ENrBFl5zTiuYZJsD4IyZBrssMMOcUiwLflfzJ07N2a01AfbnEyVz3zmM2GrrbaKGS6F1Gc9JUkt2xaX+cBdjzfeeCNeJHBBNGbMmNj75gsvvBDvltaGiwbuyHASraysjHdzhg8fHoMRXNTU1gERJ3Y+x4XY9ttvHy+E+Mtn+Cx3ZdTysQ9xgczF1qOPPlrnwHzMz+dUGsom5WuPPfYI7du3z42Vyg+VZyqqBL9/9atfxYpYId26dYt3ib///e/Xe5/mbjQVbtr3JwjQvfXWW2HQoEGx5+m0fv36xfGvv/56PF+lUTmlkk7gYaeddsqNLY5zG2n9vXr1yo0J4cgjj4zHNs69danPejZ0G3FNcMstt4S1a9eGT37ykw1+8hc3IMi4ePrpp8OPf/zj2JdCIaX+z0tBhZ1gTaHmoWx3piWV+rZt24a+ffvGfi3YrmkEX5D+P5WCrBS29xlnnBGzUYplmdVnPcsVmTsHHHBAvOFUn4HPJFk/kqQtMPhApJ6K3C677BL69+8fT8Y77rhjvJDhhMwFSDEECDhBEnDg83yWOyy85q5CsU6FuLghu4ETOx1r8b285sKJCzgqS8nJXy0bFyH0BcL/nqAVnVgVG5jOfMzvxUvpSONlu1GupHLGPnrggQeGa6+9NlbGG1LOqUySKcC5qFDFedKkSfHOP+e4BNl/HF+22Wabjb6Tijt3sakcpzP6eE0TgaQTx7rWlezBV155JTb3KCUYwHmZmwD0t5RkLjRkPQupbRvxnTfddFNsl1+s8lwqbijQ18MxxxxT9PjTkP85HWCy3fP7huCmRn5wJ9G9e/c4LbmpwvccdNBB8Vrl//7v/+Jn2eZkY/KeoBD/qzS2Kx1IFutYlP8Vv+MrX/lKfF1MfdazXLGt2D/YhvUZ+Iw3DyTpI1vk1TknA+4CJNq0aRNTswk81NbLNxdBfI4LnvQFA3dkOKkS2CgUvCCtkTRH0kH5rjQuoPi8J6ctC5Vjevtu3bp1bkxNjGc680lqmbhbz1MeaCLUEAS2eZoC2XxUaPMr+VQeqXQTYE9XDgkMkIKfbvaQ4NzGeOZJn8+4y81d/U9/+tPVnUfWhgAq35FuLlEbsirok4Hfkdwhb8h65qttG3FTgIo3wYJ99tknN7ZhWO6nPvWpjZp85NvU/3ka1yQEMwoFMBjHNLZPgpsdZGewrekPY9iwYeHEE0+M+wedetZ3nQhC0SSmWKAlUd/1lCS1XFtk8CH/Ag2cALmA4UKlEMbTRKJdu3YbBRC4AOLkzVCsMpkgPZQMCrIkSBelzwezHrZMxQIQBh4k1YVAOX0GXHHFFTHFn4p1Pip9dPBIdt6moJnin//853DaaafFu9SlKPSEjWI4H9IRIc1D6PyQCnpjqG0bEfAnKMH5l2YDhQIc5eKLX/xi3J6lNFWpDcvgaRdkP7C9yWT593//99gRJU8c4QZKGtdKNKvg6RjpZjuSJDXUFhl8yA8eJAgw1Jb5sCm4A0X6K5118agmXnOh1bt375h2qC1TfgDCwIOkunCuop8CnlRw0kknxQpkOpsvQX8JnO/quhtfG55CQOCBZhvjxo0rePc6H+tX6AkbhdAnxbe+9a2YoUFfCDRNbAx1bSM6faTJwGc/+9lN2j6bC2568EQRtgvb+eSTT47ZHgQ2aNZBgIEnjZiFKUnK0hYZfGhqZDvwRAzuQtH0glTFI444InaIx12hulIW1bIlAQiyagw8SKoNwQCaCvC4xFNOOSV8/etf36gzRlCJpD8DAgD56fQ0waAfCCqi+fgc42lKSGX94YcfjkFzmgqUmpFQ6AkbhdAUgqAAfSlxJ56OYtPqs55pdW0jKuJkQ9AZ4P77758bu/nht3PDpFDAgHFMS/pZ4IkT//rXv8Jxxx1Xo+NHgkl0nk3zCTo4LvQ0kE1Vn/WUJLVs1npLxAUUKYikK+b3AA4uorjTU6jjK5pr0Jkld1fobDKdecGyCn1GWxYCDocccoiBB0lFkRZPejxPU6DvBSrVxTr6W7p0aQx6k0mQn+1HH0dU9sg6yMf5iE4c6biVSiHBB/pdOPXUU2PqfTL8x3/8R1w+wfT8DgkLPWEjH4+rJvBAAIGnPtAHQX5WRanrmQ4+lLKNeLrCXXfdFTM6CM4kv4lmDTwK+5e//GV8T0ZAOaPTa5rV8ASNfIxjGvOAaxc6fixUyU8HefifN7b6rKckqWUz+FAPNJHgjgrtU9MRfC6C6LiKO9eFUl+5oCJ4wYk9/Tne05aWi6X8adryFKtESBLniZ///OfhT3/6U6xQX3TRRQX7L0pQYadyXqiPBirsPGqaoEJ+R390FMmTB3hyA9kCZ511Vrj++us3Gr70pS/FCisV9e9+97s1nqZR6AkbaTx2+mtf+1pcPkGCYo/tLHU9k+BKqduIwEKh33TVVVfFLAD6gOD90UcfnftEedp2221jFgOV93yMYxrzIAkw0MdF/rUGN0h4pDPXKVlkYtZnPSVJLZvBh3og5ZQTJD1Fc8eHkzgXeNzB4W4Bd60Lnbi5wOJuAxdK3HGh+UXyOe5OkRJLBkQWdxwkSZs3Kot0CviHP/whXHzxxfGOfqFAdxqVOp7MVKjDR85JpNk//vjjMVCQIAh+5513xn6I9t5771gZJTOArIT8gYosj60ks4ImhEnwlGB8oSdsJAje//rXv459Qfzwhz+Mj64uptT1RH22EUGNQr+JZm+sF9uN9+nmCeWIR5DSVOWBBx6IjxNNsI3pw2G//farrtRzfcL/ifFcw6SxbWlywfx19dHREPVZT0lSy/TYsxPDK1PnGnyoDzIYktRM7rAQPOCJFVzI0La12OPHuIDj7hMXa2Q6cNeH4AMnZC52uIBiebU9LkyStGUig4EnM5CaTn8F3KHnkYnp4brrrovnERDMfumll8LIkSOLnpcOP/zw2PcQGQjXXHNNrHxeeumlMWvg3HPPbXAnjHU9YeO+++4LTz75ZDzv0ZdE/u9goAljotT1rO822pzQ/INrj4kTJ+bGfIisDrYBzTrJRLn77rvj8OUvfzlmM5C1kgRgCOTQuSboZJIgDZ1f00SFDBH+X8cff3yNpi8Eki655JKNmtXUV33WU5LUMvVtvyrMm/pCqBg3btx67hhw1338+PG5yU2LlEoq5pKaXnOWP8u+StWc+wpPTaDjwqxReaYvhZtvvrnGYxWpdNLnQm3oPJEmEATDaZLAcj7/+c/Hu8rF0JSBxy3yfVQuefoBFVGyCepKv2ddr7zyyuqKcYLgwP/+7//GdclvdkFllkc30qShNnz2xBNPzL0rbT3ru40KoXLMdmPbU0HfFMn65P+WfMX+52lsY5ZTbB7KBtucYA6OOuqo+L8vFEDiBgiBmwkTJsRtSTMTnnzBE0EIUKQl/y+CQfn/53zJtuM7CVgUau5Sn/UsNwMGDIhZOjQxqo/vfOc7sU8wmrWUk6Y6pklSYuzYsWHVLIMP0havOcufZV+las59xQt1actGM56rr746965+CGSRYVJOPKZJamoEHypXzTH4IG3pDD5oc2DwQVJzobNxmqk0BI9zpfltOfGYJqmpxeDDsrcNPkhbOoMP2hwYfJCkxuExTVJTO+HI/cL0l1+ww0lJkiRJkpSNBx57Pkxb3N3ggyRJkiRJysbOu+0V9j90T4MPkiRJkiQpG/17dwkdWgWDD5IkSZIkKVsGHyRJkiRJUqYMPkiSJEmSpEwZfJAkSZIkSZky+CBJkiRJkjJl8EGSJEmSJGXK4IMkSZIkScqUwQdJkiRJkpQpgw+SJEmSJClTBh8kSZIkSVKmDD5IkiRJkqRMGXyQJEmSJEmZMvggSZIkSZIyZfBBkiRJkiRlyuCDJEmSJEnKlMEHSZIkSZKUqbIIPlRUVIT169fn3klqKpQ7yl9zseyrFM29n0qSJGnTlUXwoV27dmHFihW5d5KaCuWO8tdcLPsqRXPvp5IkSdp0ZRF86NKlS1i0aJF3QKUmRHmj3FH+motlX3Uph/20srIyrFu3LvdOkjZfHMs4pklScyiLo0+nTp1Chw4dwuzZs8Py5cutiEgZonxRzihvlDvKX3Ox7KuYctpPe/bsGebMmZN7J0mbL45lHNMkqTlUjBs3bsM13vpQVVUVxo8fnxvdPJYtWxaWLFkSVq1aZSVEyght50lh505yc1bo0iz7yldO++nMmTPD66+/Hg4++ODQqlWr3FhJ2ryQ9TBhwoSw/fbbh0GDBuXGSlL2xo4dG7OuKo466qgYfGC49957c5MlSVJi0qRJYe7cuWHUqFGhX79+BiEkbTYIOpDxMHny5NC3b98wevTo3BRJahpHHnlkvLFUVpkPkiSVKzIgpk2bFhYsWBDPmZK0OeBuI00thg4dasaDpGZRnflg8EGSJEmSJGUhCT7Y3a0kSZIkScqUwQdJkiRJkpQpgw+SJEmSJClTBh8kSZIkSVKmDD5IkiRJkqRMGXyQJEmSJEmZMvggSZIkSZIyZfBBkiRJkiRlyuCDJEmSJEnKlMEHSZIkSZKUKYMPkiRJkiQpUwYfJEmSJElSpgw+SJIkSZKkTBl8kCRJkiRJmTL4IEmSJEmSMmXwQZIkSZIkZeL+afPD4unPGXyQJEmSJEkZeWdymLSwu8EHSZIkSZKUkVV9w8jRQw0+SJIkSZKkjPTrHrq2ss8HSZIkSZKUMYMPkiRJkiQpUwYfJEmSJElSpgw+SJIkSZKkTBl8kCRJkiRJmTL4IEmSJEmSMmXwQZIkSZIkZeLw0f1D2w1/DT5IkiRJkqRMGXyQJEmSJEmZMvggSZIkSZIyZfBBkiRJkiRlyuCDJEmSJEnKlMEHSZIkSZKUKYMPkiRJkiQpUwYfJEmSJElSpgw+SJIkSZKkTBl8kCRJkiRJmTL4IEmSJEmSMmXwQZIkSZIkZcrggyRJkiRJypTBB0mSJEmSlCmDD5IkSZIkKVMGHyRJkiRJUqYqly9fHhhWrFiRGyVJkiRJkrTpiDUQc6js2LFjYOjQoUNukiRJkiRJ0qYj1kDMwWYXkiRJkiQpUwYfJEmSJElSpgw+SJIkSZKkTBl8kCRJkiRJmTL4IEmSJEmSMmXwQZIkSZIkZcrggyRJkiRJylSLDD688cYbYfbs2bl3G2Ma86xduzY3RpIkSZIkZaVFBh969eoVli5dWjC4wDimMU/r1q1zYyVJkiRJUlZaZPChY8eOMcjwwQcf5MZ8ZOXKlXEa80iSJEmSpOxVjBs3bv0GoaqqKowfPz43evNH04o1a9aEgQMHhsrKD2Ms/MZ33nkntGnTJmy11VYxEPHWW2+F5cuXx+kYMGBAnJZYsGBBnAddu3YN3bp1i59LllvKMiRJkiRJ2hKNHTs21p1bbIeTXbp0CcuWLQurV6/OjQnxNeOYRvbD22+/HbbZZpswZsyYOIwYMSLMmjUrNssAf+fMmRN23HHHOJ2AAp9JlLIMSZIkSZK2dC02+ECzik6dOoWFCxfmxoSYncA4ptHfw/Dhw0Pnzp1zU0No3759zG4AWRJkPfTr1y+OB/OS1ZCoaxmSJEmSJKnMml2QlbBkyZKwatWqwDqVYvDgwblXGyN48P7774chQ4bENA+aXBAo6NmzZ26Oj5pizJs3LzcmxOwFggg0pyDbIR1cYJlkNRRqzpG/jPTnEtOnT8+9UikqKipCu3btYrYKgaNyMHPmzDBt2rS4L/C/lzgWcFwZOnRoGDRoUG5s85oxY0aYOnVqPAa6n0rZoOzTgfWwYcPCtttumxsrSZLSkmYXZRN8IENhxYoVoXv37qFDhw6x0rmpaBaRBBBAPxAEIshYSKbRKWXSR0N6/lKCD2yz2pZRKPig+mHfZL9YtGhR3C969OiRm9I8Jk2aFObOnRtGjRoVs2JatWqVm6It2bp162ITrcmTJ4e+ffuG0aNH56Y0jxdeeCHupzQZ69+/v/uplBHK/nvvvRdeeeWVWPZ33XXX3BRJkpQoqz4fyHiggkmFnSYRjRF4AEEGAgBkUzDwOnm8Jh1FYpdddonfCwIHDGDjcMc93WcEyMpI1LUMbTr2BfYJti/7CPtKcyHjgQrdwQcfHINNVuiUYF9gn2DfYB9hX2kuZDywDoceemjYeuut3U+lDFG+KGeUN8od5U+SJBVWFsEHAgNkPDRW0CGNO+XcNacTSFL309KBAv7SeWTy1IokjZq7mUmQgYwHlpNW2zLUeNg32EfYV5oLTS3IeLAyp2LYN9hH2FeaC00tyHhwP5WaDuWNckf5kyRJhZVF8IFsAlLqs9C2bdvYV0CfPn3iHfQEWRCkzZMqOXHixPDiiy/G98yXVHDz56HZBk+2SJSyDDUe9pF05klTSzoglWrDPsK+0lzo44GmFpKaFuWO8idJkgori+AD7fqzyHoAGQx0AMfA6zQyG5JHZDLwlArmS5pQID0PT7ag2UabNm2ql1XKMtQ42EdK7Yg0C/Tx4d1k1YV9pDk7eHQ/lZpHc5d9SZLKXVkEH8oRFxC02ybbIUHzC5ph5DffkCRJkiRJxRl8KILMBjqQo58HmlQw0LyCZhc0t5AkSZIkSaWpXJx7oY3RxIKmFulmFQYeJEmSJEmqn8pOuReSJEmSJElZqGydeyFJkiRJkpQF+3yQJEmSJEmZMvggSZIkSZIyZfBBkiRJkiRlyuCDJEmSJEnKlMEHSZIkSZKUKYMPkiRJkiQpUwYfJEmSJElSpgw+SJIkSZKkTBl8kCRJkiRJmTL4IEmSJEmSMmXwQZIkSZIkZcrggyRJkiRJypTBB0mSJEmSlCmDD5IkSZIkKVMGHyRJkiRJUqYMPkiSJEmSpExVjBs3bv0GoaqqKowfPz43umlNnz49DB48OPcuG3PmzAlvv/12GD16dGjbtm1urDY3TbGvFHPLLbeEU045Jfeucbz44ovhpptuiq9PO+20sMsuu8TXhTzzzDPh73//e+jfv38488wzQ+/evXNTVG6y2FdK9de//jWcfvrpuXebLr2P1mXPPfcMhx9+eLj//vvDwoUL4z7dsWPH3NTyMH/+/HDDDTeEAw44oNbytimWL18eXnnllTB58uR4zFq9enUsr4MGDQq77bZbPIZVVtYe+//Xv/4VbrvttnDUUUeFfffdt875VR4au/xJktQSjB07Nl7LbBFXM0uXLg3Tpk0LBFmkckUlZc2aNbl3Na1atSrMmDEj905qOj179gxHHnlk9XDYYYfFSnSfPn3CIYccUmPakCFDtuhKMucYgg5XXHFFeOihh2Kg8IwzzggXXHBBDCAsW7YsXH311eHWW2+Nr4tZsWJFmDJlSgxUENAx8CBJklqCFn9FwwXeq6++GhYtWpQbI5WfYcOGhdmzZ8dAWSHcRX7vvffMdlCT22abbWKWQDLst99+sVLdvXv3sPfee9eYRmZZ+/btw4knnhjOPffcsst6yBoBxLvuuisGYT7/+c/HgMyIESPC0KFDYxDhk5/8ZDj11FNjRgSZDWQcFjJr1qywZMmSuE3btWuXGytJkrR5qyQ9lIE7LS0JF3VcwE2cODG+5u6dVK522GGHWA4JMBTyzjvvxMDDdtttlxsjqZwQ6H788cfjuYaMkE6dOuWmfKSioiLstNNOMRCxcuXKmNFUCMHIz33uc6Fv3765MZIkSZsvYg3UdVqNHj360jZt2oTWrVvH9NDmQFYCd9EaE8sk8EBq8MiRI+OF4dq1a+Mdu1atWuXm0uYmi32lVNytHDVqVO5d46AvEtK0uYNM1gMFk7uk6TRr2ovT38PWW28d9925c+eGnXfeucZdZfbvp556Kvztb38Ld955Z3jjjTfCunXrQr9+/Wrs76SFE+C477774rz33ntveOutt2Jzj/x5k2Xefffdse35gw8+WHRe1ZTFvlIq9icquFkhmMv+ReV5xx13DJw/0tg/2AfZd7bffvs4nSZDP/3pT2NfB6+99lrsE4N98N133w1dunSJZZqKeYL9lD567rnnntgX0YQJE+K8nTt33mje2lC+2MfZ11944YXQoUOHGBRgG2277bbxfJDg9zz99NPhjjvuiH2rTJo0Kf4Wgn6l9BM0derUWEYOOuigmPlQDGV7+PDhMZCY3nb8ZsoX60uZI4Piueeei7+BgAa/PcG5jIw+tjPb8sknn2zQ9lHjy7r8SZK0OaLJKddTrTZUzC9lBBc+LSn4wEUjF2zcQaKSRCdjBh/qh32CpgB0OEflYebMmbUOVBYIYnEBnNXFb0sNPnz84x+P24zKBxW2dKr1+++/H4MPBCh4nR98YN+mkzP+B9xR3X///eP/4eGHH46p21SEkn2eeehsjwrfoYceGnbfffcY8Hj00Udj+WBe1oPtTCeDZFyMGTMmLpMgHs0/mJcK3MCBA8uiksN+SoWWytrzzz8fK5m1DVQq2b5UKrNa/y05+FBo+uLFi2MwmP2XYwpNN3bddde4f7GfcqwmoAX+n/yPbrzxxjieyjzNOdjvqdzTrGPAgAF1/u84Zl1//fXxNf1UUNmnMj9v3ry4fxMISYIPBP4IULDerNeBBx4YunXrFptGEFSgj4vampDwm9m3WA59O6QDBaXgNxP4YB0oV2wfyl3Xrl1jkIF14FxG8ITveuKJJ2JghuPAwQcfHH8bx99HHnkkBil79eqVW3LLVo5l3+CDJEkb47qOc2+L7fOBizYuUO2oq+HYQdiGXHhTaaCiXGxgOvOVUilQYVT8CSRQyUojYEDApUePHrkxHyFg8Oyzz8bsiE984hOx4kMlhbTvs846K1aCueAGF+pvvvlmrJgcd9xxsS06lZZjjz027LPPPvF/mPQ5wXeSEn7SSSeFvfbaK2ZjUJHkPU8IYDlULssB+xvNVqg0st6sW7GB6czH/O6nTY99kKeAEPQimMVTAdivqOQTKAPBATId6Gzx5JNPjtPZV3lNAI7gFwGM2lAeWCYBDb6DyiDfR4CddeCYlaAyT5YGy6QnZvpZoAxRlvgsgROCf5S1YsgyIojHeach/VyQhkiw5GMf+1h12WQdWBfKJ/stwQXwPQRJ2BYEHpiP3zdu3LgYUCEDgt+0JbDsS5K0ebFmrjoRVKCywN30QhjPdOZTwxFcoHM/Oq1LKg9k8FCZoFLBHd983MHlwprKB02M0rgDSsWEbIp023KaUyxYsCBWwkCAjscj8vhOKk/gTvPFF18c78KmsQ58D+uXfL4cUJlgnak8FkuRZzzTmc/KR/PgOJHux4C70FQIubNPFgSoWLN/kcWT/l9ynOF/RxYP+3xt2L+pzFPRJMsnwfLy70p/8MEH8fsJqtEUI43MCDJYeFoSQYhiKKdkBbGOxY6TtSGTiEDHMcccs9Hnyf5gPfLLG2WfoEWCsnvOOefETJEtKehu2ZckafNh8EElKRaA4L2Bh8ZBxZ4gA3foCBCACg93ZKkUFbpoZj76cKCyRpCBSlIyUJljPMsg+MDnyXQgY+H3v/99fBwgadp0zJoEO/JRqSITg8reY489Fpts0KleOaqtEmLlozwkTSvSyOqhcs1+RnYBGTiMSwcNElSwqYxT8WbfLIZAAMsp1GFj8n0JMi4oQwTV8ivtvGedKSPFnkQDmpbQTKNQUI71pA+Jb33rWxsNBEjS+CxlmvE0d6NpBU2q0h3R0vSCPiNoQvKzn/0sXHfddbHJAeW8nAKCTcmyL0nS5sHgg0qWH4Aw8NC4uDAm04CKBndukXTIV6wNN5Uw0Bb+6quvrjFcc801sckFadqkoYMgxnnnnRdTyql00bnd5ZdfHn7961/HeZMgBBUmggw//vGP47Q//OEPsTJEBY2U8HJVqBJi5aM8UImvq98EKs8MVPo35X+V7O+lLIPvZf5NyRYgG4PsBcpj0nwkwXJpUsVjN5OBbI98BBmvvfba8IMf/CBceeWVseNLgig0O0mXf5ZH+eVRpgQTCQzS6eRPfvKT+Pm6mqS0VJZ9SZLKn8EH1UsSgCBd2sBD46NyT3MJMheoENEEo1iTC3C3FWeffXa47LLLCg5f/OIXYwdrCV6T3v2f//mf4T/+4z9im3IqTzzRguwJKn/0I0EnbnSE+fWvfz1873vfi80w6Esi+c5yla6EUCG08lEe6Gch3UwgkQQcqCjyP2IolEFQH0nls5RlUJln/iTw1hAsg3JLtkXSfCRB2WL/o/+GZKBT2TSCDLfffnvcPhdccEH4zne+Ey655JLYFIqmI/n4PrIf6Oflm9/8ZvjsZz8b+20ha4onZeQHQLYUln1JksqbwQfVGwEHKqEGHhofKdVsV9K86XiPoViTCxCU4K4o2RL5FS2aWvBYG4IKNLUgA4L3VE7oII8KDIEIKi0nnnhi/Ayp5XyOtG/6i2Aaqe7MCzIiamv7Xi6SSshFF11k5aOMJJk6aexPBCbIjCCbiv2ZJhiF9jP6ZyAriKYT+U/ZSKP/FJZD5lC+pM+TBJlFNMMgY4BykUZAgnWjI926nmBBkJBOLenktb6Vf8ovgQOCfXTumgRPQJkkqJHg2ECzKZ6CAeblGEFAkYwIfl+6j5ctjWVfkqTyZfBBDcJdJTU+LpSpfFDBoJkDwYhiTS7ANIIEL7/8co2nZBCIIB2b8bR7J1OFgawFxqcrM6CyQqZFcveZSiAVsXRlLFkmlSva5tfW+3854HdQCbXyUT5eeumlGn0nEBSjvwIq7VtttVUcxx19gmo8rSJpPgH2N5oGMY59vjZJueD70uWCz1Ku0ssluMa8PCKRAEAaQQH2dyr3dWX8cEyk8k+wgr4aCgUgKEMEROivIS0JpLBe6SAigQQeUYokoECwhHI6ZcqUGr+Dz/GeaUnTuC2VZV+SpPLUasNF36W84MKFx5A1B+6GcScrK/w2HmHIxSt3uEiD1eYp632lNlRC6Pm+MVFRodLDM/2T38X+SfMHKkn0wE+77uQimmYYVKZ4vj/t55mXDvhef/31WInjTi3ZCTzT/v7774+BDHq/J/DAMrh7y7x8J58lG4Lf9dBDD8V5eawmFT/KCn0+cPeZygzBCt5TaaIixni2RUMeK7glyGJfKRX/2/wnOjQm9jGeSEHggP4I8jMQCk1nf6ESTQWaCj6VY/bj++67LwbajjrqqOrOIdmnGNgnmYesG5ol8PhN9usDDzwwLre2imVSLsgOSPZ1siZYJpV2PktzBs4HvOa7k6AA5Yf9n8+yfqzLEUccUWfmAyjDNJ3it/JI0CR7g+9mm9A3C4EJfhOP1CTowWvKJ+co1hV8P+WULCXKH+tPZZq+I5L3Dz/8cPwM25fj4hNPPBGbS/EIzvQxQ00r6/InSdLm6MYbb4zXJgYftFnZEoIPVCZIC6dSxnP80783P/gA7rhy5xjcLSZIwF1XKiGHHnpojSwVXlPhYfnM++STT8ZKIo81pClN0rcElTEGMh2oRFExIzhBhYk7xc8880zseJIKnjZm8KFw8IG+SdjHeMoKWQn0k3D88cfXeKQrJyaaYBDkov8EKtVsTyrfNC0gIJc0A6oN+zpZFFT82YdZBs0nKFPszyw/eeoFFXoq7GC9WD+yDugYksBIqccc1p2sC/rDoUkT38NTYigvSdMSgoEsk9+e/A6+n/VhXZmXIAtYV5picCxge7KOBG5YDo/lpW8Yls8683vpv4Vjg4GH5mPwQZKkjSXBh4px48ZtqJuvjxeM48ePz01uWkmnelJdmnNfoUf5U045JfdOKq459xUezXj66afn3pUH+hDhCQ50jEglW2qpyrH8SZLU3OgEmpsu9vkgSZIkSZIyZfBBkiRJkiRlyuCDJEmSJEnKlMEHSVKm6Ofhsssus78HSZKkLZjBB0mSJEmSlCmDD5IkSZIkKVMGHyRJkiRJUqYMPkiSJEmSpEwZfJAkSZIkSZky+CBJkiRJkjJVuTj3QpIkSZIkKQuVnXIvJEmSJEmSslDZOvdCkiRJkiQpC/b5IEmSJEmSMmXwQZIkSZIkZcrggyRJkiRJypTBB0mSJEmSlCmDD5IkSZIkKVMGHyRJkiRJUqYMPkiSJEmSpEwZfJAkSZIkSZky+CBJkiRJkjJVFsGHioqKsH79+tw7qTD2EfaV5lJZWRnWrVuXeycVxj7CvtJc3E+l5tHcZV+SpHJXFmfJdu3ahRUrVuTeSYWxj7CvNJeePXuGOXPm5N5JhbGPsK80l169eoX33nsv905SU6HcUf4kSVJhZRF86NKlS1i0aJHZDyqKfYN9hH2luQwdOjRMnjzZu8oqin2DfYR9pbkMGzYsvPLKK+6nUhOivFHuKH+SJKmwsgg+dOrUKXTo0CHMnj07LF++3CCEqrEvsE+wb7CPsK80l0GDBoW+ffuGCRMmhFmzZlm5UzX2BfYJ9g32EfaV5rLtttvGdXjggQfCu+++634qZYjyRTmjvFHuKH+SJKmwinHjxm2o360PVVVVYfz48bnRzWPZsmVhyZIlYdWqVQYgFNHHA00tyHhozsBD2syZM8O0adPCggULYrmRaOdNUwsyHpoz8JA2Y8aMMHXq1PD++++7n0oZoezT1IKMBwMPkiQVNnbs2HjOLKvggyRJkiRJajmS4IPdMkuSJEmSpEwZfJAkSZIkSZky+CBJkiRJkjJl8EGSJEmSJGWqkscYMqxYsSI3SpIkSZIkadMRayDmUNmxY8fA0KFDh9wkSZIkSZKkTUesgZiDzS4kSZIkSVKmDD5IkiRJkqRMGXyQJEmSJEmZMvggSZIkSZIyZfBBkiRJkiRlyuCDJEmSJEnKlMEHSZIkSZKUKYMPkiRJkiQpUwYfJEmSJElSpgw+SJIkSZKkTBl8kCRJkiRJmTL4IEmSJEmSMmXwQZIkSZIkZcrggyRJkiRJypTBB0mSJEmSlCmDD5IkSZIkKVMGHyRJkiRJUqYMPkiSJEmSpMxULXjT4IMkSZIkScrKkvD2lGkGHyRJkiRJUkZWfBDmLbHZhSRJkiRJysrq1WHBhj+Viz98K0mSJEmSlInKTrkXkiRJkiRJjapth9B3w5/K1h++lSRJkiRJalwduoU+ve3zQZIkSZIkZaZD2Gq77Qw+SJIkSZKk7FR2HWrwQZIkSZIkZcvggyRJkiRJypTBB0mSJEmSlCmDD5IkSZIkKVMGHyRJkiRJUqYMPkiSJEmSpEwZfJAkSZIkSZky+CBJkiRJkjJl8EGSJEmSJGXK4IMkSZIkScqUwQdJkiRJkpQpgw+SJEmSJClTBh8kSZIkSVKmDD5IkiRJkqRMGXyQJEmSJEmZMvggSZIkSZIyZfBBkiRJkiRlqnL58uWBYcWKFblRkiRJkiRJm45YAzGHyo4dOwaGDh065CZJkiRtfpYuXRomTpxYY2BcPi6Aqqqqcu8kSVKWiDUQc7DZhSRJ2uwtWLAgzJ49O+yyyy5hzJgxcdhxxx3D22+/HacleD1//vzcO0mS1FQMPkiSpM0aWQxkOPTq1Su0bt06NzaE9u3bh379+sVpZjpIktS8DD5IkqQWYdWqVblXH+nZs2cYNGhQqKysjFkPb731Vpg3b16YMmVKWLlyZZyHjIl0U41XX321etratWvDG2+8UaP5Rv44AhszZ84s+HlJkvQhgw+SJGmzRmCBIMOsWbNqrfwzz5AhQ0KfPn3CiBEjYmYEAYk1a9aE3XbbLTbV4G+nTp3C3LlzS86WmDNnTmjTpk11cw+yLerzeUmStgQGHyRJ0mavc+fOMXBAYIEOJV955ZUYiCBDgUyFYtKZEeAvyyoVAQaCF2n5y5QkSSFUjBs3bv0G8eQ5fvz43OjmQcritGnT4l0I7xZI2UjuEA4dOjReHJcDy76UvXIs+8uWLQtLliyJzSW4FinF4MGDc6/qRrMImlcQkBg4cGDcBhxnGJ+8TyTzJpLPcEyiqcZWW21VHZQgmJEel/4svXmTXUFWRTHTp0/PvZKyV1FREdq1axe6dOkSs3okqamNHTs2nnPLJvgwadKkmKI4atSomK7YqlWr3BRJjWndunUxRXjy5Mmhb9++YfTo0bkpzcOyLzWNciv7CxcujM/97t69e3wEFxWkLBAY4IkXSUAgP/jAewIJ6aBBep5Sgg8J5n3nnXdinxKlBCGkpsB1PmVt0aJFsaz16NEjN0WSmkYSfCiLfEDuelL5OPjgg8OAAQOsfEgZonxRzihvlDvKX3Ox7EtNp5zKPhkPVIaovFNJ39TAA4GCYv088PSL9BMw0ggW8FmCBCNHjqwOFBTquDKN4EOhphxcWJFVkvQbQfMPqblRvihnlDfKHeVPkppDWQQfSLfmrqcVD6npUN4od5S/5mLZl5peOZR9mlqQ8dBY2Q5UrKjsk+GQHxQgw4LshCSw0LZt2xhcIPCQSAcbyHqg48oEAQVS1hmffIZlJoEFxhHI4YkZidWrV8dlsl5SuaC8Ue4of5LUHMoi+MAJnXRrSU2Lckf5ay6Wfal5NHfZp2JO+ndjSTIOevXqFV588cXqR14yEDjgjm8iCUIwHwEEskHIfkjm5/Xw4cPj3WGCCCybeVjn559/Ps7Dunft2jUuJ5meXgadXfKdNrlQuWHfTQfbJKkplUXwgbsG3vmUmh7lLn33r6lZ9qXm0dxlnzboWfTxQIeayeMuk4FxaTTBILjANDIi0u8ZCGIQWEg3w8ifh7vHvE/6e8ifzpDuC0IqF5S7Ujt3laTGVhbBB0mSJEmS1HIZfJAkSZIkSZky+CBJkiRJkjJl8EGSJEmSJGXK4IMkSZIkScqUwQdJkiRJkpSJ5598JNx330MGHyRJkiRJUjaqeg0Lu++xk8EHSZIkSZKUjd223zr07tnb4IMkSZIkScpGEnQw+CBJkiRJkjJVuTj3QpIkSZIkKQuVnXIvJEmSJEmSslDZOvdCkiRJkiSpMVXl/trngyRJkiRJysTzk98OcxcsMPggSZIkSZKy0WHZjPDCv/5l8EGSJEmSJGVj1Mf2C0cccYTBB0mSJEmSlC2DD5IkSZIkKVMGHyRJkiRJUqYMPkiSJEmSpEwZfJAkSZIkSZmqGDdu3PoNQlVVVRg/fnxudNO65ZZbwimnnJJ71zhefPHFcNNNN+XeFTd8+PBw2mmnhY4dO+bGKN/atWvDlClTwlZbbRV69uyZG6uWIovyV6qmLvvdu3cP22yzTdhzzz3DkCFDQkVFRW6KtOVpzrI/ffr0MHjw4Ny7xrVu3bowb968MHv27PD++++HNWvWxLLfv3//sPXWW4e2bdvm5lRDzZo1K0ybNi3stttuoVOnTrmx2lxkWf4kqZCxY8eGysrKlp/5sOuuu4Yjjzyy6DBy5MjQunXr3Nwq5JVXXgkPPvhgDFBJm4tCZX/nnXeOFZJrr702PPHEE5vNPv3222+Hq666KlxzzTXh+eefD/Pnzw8333xzmDRpUm4OSVi2bFl47rnnwssvvxyDDKNHj47Bxj59+sQK18SJE8PSpUtzc0uSpKbU4oMP22+/fTjggAOKDh//+Me9CyK1QIXK/lFHHRU+/elPx6yHl156KSxevDg3d/lauXJleOyxx8Luu+8ejjnmmDBjxozw+9//PrRq1SoMGzYsN5ckysrkyZNjth7n9h133DH07ds39OrVK2y33XZhjz32iPORybd69er4WpIkNR37fJC0RenSpUvYYYcdYjbBe++9lxtbvtq3bx/OPPPMMGbMmJg2TtraJZdcEsaNG2e6s5RD89F33303LFmyJAYeKef5GLftttuGuXPnhjlz5uTGSpKkptJq5MiRl/KCE/cZZ5wRRzY17lSMGjUq965xcGFBcwHufHDBXgpSma+++urQr1+/2E6UPjBoE0tqM9uH8dxtTCPF86mnngp/+9vfwp133hnvSpJJ0bt37xrtybnL8q9//SvOc9ttt8Vl0g6VVNA2bdrk5grx86SE810PPfRQ+Otf/xrTxGmnzm8qNq1du3axIvXPf/4z3HPPPfF7nnzyyXgx1rlz59jeNVmf5Dto70ebTdaH4Y033ojrzl0i2uSwfiznvvvui2mq/E4qbFzYsc5sE76T6fz+CRMmxO/jAi/9fSpvWZS/UjVX2aesMw9BCOZJyj59mrzwwgvh+uuvD6+//nrs54T9uT77en5ZJwWcdWLZlMVEqfMl311K2QZNSSjLzPf3v/89Zk3Q/r1Hjx5xfsulEs1Z9hctWhT33cayatWq8NZbb4WuXbvGcyLnsEJoZrl8+fLYzxPlNykPlEeaZZAVQZONN998MyxYsCCWJ8pNsjzO+c8880zo0KFD7PeAZlCUL76X5dKsg+Xyefqf+eCDD+LvTM6ZLPO1116LmVesL+dW1oVzeBrzslyOU1wvcIxi3VnPhx9+OF5jsA7JvCyXdWfZDO+8807BZbNerDfryPezbI4XrCfBzELrwXGJfYV5Ce4wH+uxcOHCeIxMZ4+SfcJ1BevNZ1hvlpHehmp+jV3+JKkuN954YzznGnxI4cKBiw5OwvzlTuNee+0VLz4ef/zxeLIlXTs5gXL3hADAzJkzY5vS/fbbL57s6R+BiwI6tmIjM45ABhUN2qEffPDBoVu3bvE9nx06dGj1yZs0cCohjOfiglRx5uViipN+sWlcPFx33XXxBL/vvvvG9eF3cxHABRCBBi6Oku/g97H+VGD4jaR0M55158Ji4MCBcd05ObFMtsnxxx8ft2dS2eHiiR2JO7OHHHJI2GWXXeIyH3jggVjRIUjCfCpvzVkBaY6yT3lm3+VifZ999okX4UnZp2yxz7I/sw8PGjQoXvCXuq8TsLv33ntjmaNMUUYHDBgQKwNJOaQ8lTofqFCUWrb5bQQb7rjjjjj+oIMOisFCKlUEDym7BDwtl0Jzlv3GrvxwnqVMUDY4PxZDEICyxrkzKQcrVqyIZYlzIOc+zvM012A8FXTOz8m6UnYJBrL+fJ7mHJzvOQ5wjcA5lWmUV87tHDOSz7Isjk1Mo7NryiLHIcon65MOJjCO/w9le8SIEfEzfJ4KPxV81jOZn+MWxyiWwbonNyQ4RnEjhe2R3OTg+/idHCcZxzoS8CRIwM0FXrPOYD34To6NrGty42Hq1KlxGuuRDj7wP2A7cjzl2Jl06sv/haANy86/gbMlYFtxo4htw80f/l+1DfwfOO/wP8/qWG3wQVJT22KCDwxUqIsNXDgkB+CkAsIdFFKamcbJknbVTONOAidfTsy0KeXuAyd2UqLpuJJ5mc7Fyauvvho/z7zcCeGOAduXigbzcWJmuQQg+D4qCvxDuCjgruZOO+0UO8jjhM/JnYBHsWmsC0EJ7nCcdNJJ8cKKCyEuTgiAsH1ZD74DLIcKChck/E7m4zXrwwUIgQYujLjIoGJG0IPfTkUtWRdOXFSeuHBhGYxnGcn/kYoOyzMtvPw1ZwUky7JfKPhAZYI7lY8++mgsqwQDkzuhlH0u3k888cT4OcoRZaA++zoX9iz7wAMPjEECyiHzUxnggp2KBO9LnY/KTH3KNhf5t99+ewxwHn744fEYQSWKDA8qIgQyWNek0qItW3OW/cau/FCmqOBRNjhv1QfnPc7lnFsp+5Q3Kn6UHyrYVKp5TcU5CT5QhjjG8F0cN5jGvFQuWUYSMKAsc27nvEpwkbLK9QLTGJiXijnlk+MKxyPeU1a5TkjmZTlcOzBfOvjAMSIJGiTzsv685y/HBLZzsk3YTgRIONZwDOS4xbKZzvZjmcn/JVkP1pnfw7z8Vo5BBEfAcYrgA08YIVuM7UMnn2wvvp9MSpZNxkU6iLMl4f+fbH/+H1xTsW0LDVwPcrzm/5tV4AEGHyQ1tST40OJz4Op62gUn6nxUMrgISHAxwIU+J3kq+qACz0UGFyucZBNUzDlJcyLmJE9lh6wELgo42afxHczLSZyLmzS+j+8tJH8aJ/Sjjz46BkHyKxWcXLgI4Y5oPi480r+fSgwXQpz8Cs2fRnSeCzAes5Xc9QC/n9/K55OLE6k53HTTTeFb3/pWjeH73/9+rJxzUU8FPT/FmP2fcpDWkH2ddGmOFwmWe+GFF8bgY1pd89WnbHPMoaLA8YHjHuuX4Dex/sldNUkfoQJNVlF+ZYzzLBVubs4wpFGZTLIJ8lFBT5c/UNaZn+9KVyoJWjCO4AeVUiRNFfKzB5NgRRrHCMo7x6L876Tyz3rmrzvjCUqml804lp9c44BrmELrwTZJX/eAijPrzfEn/7qKYAXLYDrBiS0V5x2O7cWu7RjPdOaTpJaqxQcfqGCT0lxsICqfjxNr/kmc95xck4oCwQLaTXLxnz4pgw6tLr744niHkTuq3PHgBM5FP1HvZKDCwome6cyXlkTJCyk2je8g2EGWAnd+77///th2neBHIfnL4XfwOwk+pCtEhXBRwueJnqd/EwMXGJxEmVZXEEPKSqHAI9kDX/jCF8LZZ59dsOyzT+eX5/rs61ReSDUmK+onP/lJfBwmWVAcO9JKnS9RStmmzLI+/K78QAX4TiouVHKklia/3DYEATzO7ZQjmhuQJVUsiJ4fuEzLn8ZyyVYg0EAZpwymB8o2QQSuAziOMA/BgELfwfVJIRwjOAbQLINrE7Is6L8mCWik8V2FKsBsQ4IDrEOyHhxL8teD+fKvH5iXa4dCN3T4LtabbVDXtUVLVywAwXsDD5K2BC0++NAQhU6e4CRe36g9J2Tumj777LOxQ7v8gb4kuPjgpJ1W7I4KCk0jE+PWW2+Nd3Z/97vfxY4yuQAh+JKfcZHg4qYQLg7Sdz/ysQ0ImLDeN91000a/6YYbboip71xQcdElNYdCgUcetcddxvzgYiL/Iru++zplk8d5nn766bGJBBf/f/nLX8IPfvCDWCYppyh1PpRatql8UGEo9tuklozKLeWXslhflF2CDHQkS3MozteUsUJ3+BOFKu+J/H4NWD7rRZCSZph0WJkeaPLFeZeBcsxQTKHzP8colksfNDQDozkN30ewsdB5nnXPX8cE65qsA69LDeok69wYQaCWLj8AYeBB0pbEq9SMceIn3ZDn81922WVFB7IlGoqLjLvuuiveqSE9m8fw/b//9//COeecU92mvTGxPAI0nCi/+tWvFvw9DLSdry2IIpW7huzr/KXN8/nnnx/L4rnnnhubPJCxwBMrkjt/pcxXn7LNRT+BBwIQ0paGwANllcyF2oLnTKOyT2ZAUhbJSiTziHJOcywCgzTDoO+j/GZYDUFFP2nWSF8sNKUqNNBPFOW4tgo8AYE0jhEcMwiU0n/MEUccEQ477LB4LKFpRUOxDqx3bYGQtGSdS51/S5cEINhvDTxI2pJUkubHwAlMpeOOCBcSSZvINNp2XnXVVbGjOE4sBCAKtXWkksCj++jJnlTJhuKz9D/BCYwOsEiTTC4EkmYfjYllk3JJRkf6Dm2C8b///e/D008/nRsjbZ7qu69TgbniiiviXVNQFqnAEJwgWED2FJWfUuerT9kmlZp+ZOiQjoyrfNx1ZX0LNTeRNneca8lSIEupUFlNUDY4R3P+JXiXlDPKBR0rEiRIyhgVfZoKbCqCgpTPpGlCPq4PyIKk7DIv1xeU70Lz5jej4D1lm8orvyGd0cDnWU5DJOtBMKfQNshfbpJ5Uuh6g23Mb2fbsh30If5nhxxyiIEHSVsEYg2cOyqpGDNwUavSJW226eCNC5kEgQjSN7kA4q4Dd2KoVFDZoLO3dKCCHqd59BKdU+W3n6yP5MKGE3x6+QQ7CICwLrzelDuiLDe97OTxXCw/fYGUfCcXQ3Q8JW3u6rOvc/HPwZXjQrq8UYnhs1ycU15Lna8+ZZtKBx3YEmDg6Trp5VJ5oP06zTSKNcOSNnfcEOBahqcu5FfSQTngqQugzFK+wF/KS7rMgKAAzaoKTasPghkERsi04IkS6WVRfsm8YB2SJp8EEfkM350u9wQCKN9pyW/Iz4jgu+gjBhw/GoLjFMcf1i+9fNYjfd0Dgg+sN7+P6WkEd/gtLM9syJrYbpK0JeD8TMyhxT9qkxMdF+jcPSw2cMJnYxCNIR2TJhBcxKQlyxszZkwMPHDC5y9BBcZz4U9k/4knngiPPPJIbF/OnUrm44TMHU4eb8kJnAsPPkencZx4SJFMgg/csaHtZvI9acWmUVHhN/LYTpbP/5LfxfK5CGBeLiBI6WQ9a/sOAifcfdl5553jNgHLYN35HpbDOjNwF4MO87gw4Q4SFxi0mWU9SF3l9yd3kFS+mvNxe1mWffa//HJcTG1ln4Nlqfs681KZYF7KDeWNi3Tek+Z96KGHxj4nSp2vvmWb9/xl3bgDyTpRWSHDiqYbHGv4jZZLoSU9ahOc7wnmU5bY35OMTv5SEef3EtzjyRCcl5EEHjj3EZyg/HAu5z03CAg8Mp7mk5Q1yi1liic45N80YD6+J3kMZhrHEMovncTGOz8bvpcACYESyjh9uPBd4HewTkxjXZiX7cV7voNjQfIdHI+Yh3WiXDONoAnHEX4Ln2W+ZNlka7IMjnNMT/A5jp18N4ESPsfvZfk8/rfQevB5jlPMxzSuC7h+YDn8VoIebEOCrGxvOuFOf6eaTxblT5Jqkzxqs8UHHzghc+KsbaCizUG4PsEHcKLlIoYLGzqNIvBAZYE2l8zHyRicmHluM5V5lkEFg4sjPktfENwNSDQk+MDJPEnbo+O6J598Ml5g0f6TihEXG6w/d0VZv/oGHwjO8B2klpO9QSYH07gYY5nMT3CCZTIvbVfTv1/lzeBD7cEHDpSl7uvMyx1VLrS5QCcIwF8+P3bs2JjWzTylzlffss1nyGwg64qncbCuBCuoIJxwwgnx4p95JLS04AMoB0mggCAh5zQCAlSu6dyV30vgII2yzJA85YLAHZV15mV5nPcoU5z3Ghp8oNzxGZbLb6d8Unb5Xr4n3T8D87JtWD5lnOsUyj3ZlnyewCPHD9aNYwTj+G6Co0lTLso6xzPO9wQBONZwnKpP8AGsA+tNgISsEb6b38fyWHYSfAB/+SzLZz3Y9uB4xnUDy1Z5MPggqaklwYeKcePGrSfwQJR9/PjxuclNi97bTznllNw7SU2pOcufZV9qPs1Z/qiYUilV/RAIIchAh5LJDQKpvix/kpoaN9cIbHtrWpIkqUzQbwKZhvmdN5J1QQYC2QhkPUiStLkx+CBJklQmunbtGrNRaQpGpgMBB/pOoOkV6fI0e0g3mZAkaXNh8EGSJKlM0J8Uj9ylrwXS4+lTij5h6B9ir732qu48UpKkzY3BB0mSpDJCh5V0Ss2Ts+jYlg5meZ/fkaUkSZsTgw+SJEmSJClTBh8kSZIkSVKmDD5IkiRJkqRMGXyQJEmSJEmZMvggSZIkSZIyZfBBkiRJkiRlyuCDJEmSJEnKlMEHSZIkSZKUKYMPkiRJkiQpUwYfJEmSJElSpgw+SJIkSZKkTBl8kCRJkiRJman6YIbBB0mSJEmSlJUVYfabUww+SJIkSZKkjKxYHObNt9mFJEmSJEnKyuoVYe6GP5WLP3wrSZIkSZKUicpOuReSJEmSJEmNqm3b0HPDn8rWH76VJEmSJElqXB16hq16l0mfD5WVlWHdunW5d5KaCuWO8tdcLPtS82jusl9RURHWr1+feyepqVDuKH+S1LQ6hK2GbVcewYeePXuGOXPm5N5JaiqUO8pfc7HsS82juct+u3btwooVK3LvJDUVyh3lT5KaWmW3oeURfBg6dGiYPHmyd0ClJkR5o9xR/pqLZV9qeuVQ9rt06RIWLVpk9oPUhChvlDvKnyQ1h7IIPgwaNCj07ds3TJgwIcyaNcuKiJQhyhfljPJGuaP8NRfLvtR0yqnsd+rUKXTo0CHMnj07LF++3CCElCHKF+WM8ka5o/xJUnOoGDdu3IZj0vpQVVUVxo8fnxvdPGbOnBmmTZsWFixYENdHUuOjnTfp1tz1bM7KR5plX8peOZb9ZcuWhSVLloRVq1YZgJAyQh8PNLUg48HAg6TmMHbs2HgdUlbBB0mSJEmS1HIkwYeyaHYhSZIkSZJaLoMPkiRJkiQpUwYfJEmSJElSpgw+SJIkSZKkTBl8kCRJkiRJmTL4IEmSJEmSMmXwQZIkSZIkZcrggyRJkiRJypTBB0mSJEmSlCmDD5IkSZIkKVMGHyRJkiRJUqYMPkiSJEmSpEwZfJAkSZIkSZky+CBJkiRJkjJl8EGSJEmSJGXK4IMkSZIkScqUwQdJkiRJkpQpgw+SJEmSJClTBh8kSZIkSVKmDD5IkiRJkqRMGXyQJEmSJEmZMvggSZIkSZIyZfBBkiRJkiRlyuCDJEmSJEnKlMEHSZIkSZKUKYMPkiRJkiQpUwYfJEmSJElSpgw+SJIkSZKkTBl8kCRJkiRJmTL4IEmSJEmSMmXwQZIkSZIkZcrggyRJkiRJypTBB0mSJEmSlCmDD5IkSZIkKVMGHyRJkiRJUqYMPkiSJEmSpEwZfJAkSZIkSZky+CBJkiRJkjJl8EGSJEmSJGWqYty4ces3CFVVVeHyyy/PjZYkSZIkSdo0F198caisrKwZfBg/fnxusiRJkiRJ0qYZO3ZsDD7Y7EKSJEmSJGXK4IMkSZIkScqUwQdJkiRJkpQpgw+SJEmSJClTBh8kSZIkSVKmDD5IkiRJkqRMGXyQJEmSJEmZMvggSZIkSZIyZfBBkiRJkiRlqmLcuHHrNwhVVVVh/PjxudGSJEmSpC3Z8lXrwrINw+q1VWFDlVFbsIqKENq2rgyd2rUKHTcM9TF27NhQWVlp5oMkSZIkqabFy9eGBUvXhFVrDDwoxH2AfYF9gn2jIQw+SJIkSZKqkfGwZEXDKphq+dg32Efqy+CDJEmSJKkaTS2k2jRkHzH4IEmSJEmqRh8PUm0aso8YfJAkSZIkVbOPB9WlIfuIwQdJkiRJkpQpgw+SJEmSJClTBh8kSZIkSVKmDD5IkiRJkqRMGXyQJEmSJEmZMvggSZIkSZIyZfBBkiRJkiRlyuCDJEmSJEnKlMEHSZIkSZKUqYpx48at3yBUVVWF8ePH50ZLkiRJUvaWLVsWbrzxxjBlypTcmI0dccQR4bDDDsu9C+Gf//xnuO+++3LvCjvzzDPDbrvtlnv3kdWrV4cXX3wxTJo0KUyfPj2OGzx4cNhzzz3DyJEjQ+vWreO4xLx588J1110XDjzwwILLW7NmTbjjjjvi6+OPPz60adMmvk5bsWJFuPnmm8PMmTPDOeecE7bZZpvclJpq2xbt2rWrdT0b0zvvr8y9Ks3rs5eFi695LSxatjY35iOtW1WEEQM6hvMOGhD236FnqKzITdhgwdI14cL/mxymzy3+fd07tQ6Xn79D2H6rTrkxH1m2al2487l54dan54SZ81eFdVXrQ8/OrcN+I3qEcw4cEAb1bp+b8yNPvbEofPEPU8JvzhsR9hrePTf2Q2vXrQ8TJi8M1z02K0yZtTy+Z3lHjO4VPnXg1qFPl4/+t6WsO/LX/0d/f2vD+s6Nr/MV+658/5r2QfjSn14LQ/t2CP9z7sjQY8N3FNLQ/0upBvbaePsWMnbs2FBZWWnwQZIkSVLzSSrcFRUVYejQobmxNfXv3z/ssMMOuXcfBh8IIIwePbpgZR8sa9CgQbl3H5ozZ0649dZbw/Lly8Mee+wRBg4cGNauXRteffXV8Nxzz4Xdd989HHvssaFt27a5TzRO8OHtt98ON910U2jVqlUYNWpUDKRQGcuXbIvu3buHXXfdNTf2QwQwXnjhhRg0OeGEE8K+++4bt1kWGhp8OGhUz3DAyJoVepb1t2fnhrfnrwqXjBsSjtu9T27KRxX4yg2/4+PDuubG1tSubatwysf7hX7dPvqf4NV3l4WvXfd6WLR8TTh4x15hn+27h07tKsNr7y4Pd0ycFxYuXx2+ctyQcMKYPhu2U+5DGxQLPhBo+J+7Z4QbnpgTttlQqd5zu66h7YYK+muzl4eXZi4Nvbu0CT//5PbVQQQCHzc8/l74YMP3Y03V+vDYa4vi6/126B7a5Grz+etP8OGRVxeGLxw1KHRp3yqOw+q1Gz4/ZWG454X3Y1DgV5/aIQYu8m2ouoff3Dsz/sY166rCpacMi9u9kIb+X0pl8EGSJEnSZiOpcG+77bY1shtqQ/BhxowZ4YwzzgidOm18R7yQJUuWhFtuuSVWgqgMdevWLTeFCt36mG3A9IMOOqhGxX5Tgw/Us1jfhQsXhgEDBsSgyVlnnRV69ty4wljXtiBrg++aP39+zOzo2rVwhX1TNTT4cMHBW4cz9umfG/uROYtXhy/98bXQtWPr8IsNFfjO7T+sVCfBhzFDuoZvnDgkjivF7IWrwuc3fF+71hXhJ2dvHwblVYIJDPy/m97csF7Lw2/P3yFs27tDbkrx4APBjM9f82o4frfe4d+O3jZmBiReeWdZ+Pc/vRYOHNkjfGPskNC6QJrAitXrwjdveCO+/uGZw0OHth8FFtIIPkx864NwxadHhZ6da+4rBBZufPK98Is7Z4QfnTU8HLrTxvvIe4tWh4v/8GrYf0T3+Ps6d2gVvn/adqFt642DWQ39v5SqvsEH+3yQJEmS1OK99tpr4d133w2HHHJIjcADCDRst912MbiwePHiGFBoLEuXLg1vvfVWDDxsv/32YdWqVWHq1Km5qfVDRgZNL8iCYDmbi75d24adB3UJC5etiXf4NwUV9NuenRvmL1kVvnbC4I0CD+jUrlX49CEDY+YAlfVSLF6+JixdsS7ss6FSnw48gEyEfTeMn7Khsr985brc2MZHvGvMkC6hW8fWYd4Hhdf7lXeWbvhNq8KBI3uGjw/vHp6d+kGYOmdFbmr9NOb/pRQGHyRJkiS1aFTUp02bFoYPHx769u2bG1sTfSjQ5CK/2cWmop8HsidoBkK2w5AhQ2IzDwII9UUWBcti/bLs86GxLVu1NsyYvyJ0bNeqYNZAfSxZsTY8PXVxzJYYuXXxrBemXXvxzuHj29UMNBXTv3u70Kdrm/DAywtj5kQa60zzhmsv3ilmCWTp7fdXhcXL1xbMQli9tircO2l+2K5/xzCsX4ew9/Cucd3uf+n9GJSpr8b8v5TC4IMkSZKkzQ7NJL773e+Gr33taxsNv/rVr2IlPUG/Dh988EGs/Dc0sHDDDTcU/K5vfetb4amnnsrNVRMZFK+//noMevTu3Ts2ySD4QECCphP1QZML+nx4/vnnYyAjP3ujXC1ctjb834R3w6QZS+Pd+i4dNq5U0wHjx/7r6YIDzR1o0pCYv2R1mLNodUz5L9a0oSFomnHhYduEe16cFw77/sTw2asmh78++V5sukB/EFnjO+hI8nf3vx1/GxkQ+abPWxGef2tJOHCHHjEIQt8UOw7sFJ6dujgsWr5xp5K1KeX/0tjs80GSJElSs6ntCQ/If9IF6upwko4d6bCxS5cPK3BJvw077bRTyf1KJJLP0uklQ75169bFdWdafp8PdHD5l7/8JRxwwAHhYx/7WBy3YMGCcP3118cmGPkdT9a1LTp27Bj22Wef2P8ET7/ISmM+7QLt21aET+2/dTjnwK1q9E1QSoeTA3u3Dyft0Te0yX2utn4MCj1J4uSP963Rn0RtT7sAzR3ueG5+uOeFedVP0GD9T9+7fzjvoK1jk45C6tPnQ7GnXWCHrTuGb48bWvDpHn96ZHb448Pvhv89f2R11sff/zUv/HD8W+FHZ223UceTDf2/lKq+fT60Gjly5KWMIABBhy2SJEmS1FTIDnj55ZdDnz594mMkyRJID/SVQNZAGk0oaEpx9NFHx0o8/SCkBzpszK+cv/HGGzFbgKyB+jwlgidjvPTSS2HMmDFh77333ui7eGzmrFmz4rwjRoyIgQ9QvyJLgX4m9t9//9C5c+c4nuDE3Llzq5uBdOjwUWeIybag/4njjjsuPpGDp2PwW9kGn/jEJ8Iuu+ySeZOLD1bU7y76+0vXhLuenx+O2rV3+OxhW4cjd+kVRg7oFN6YszyMHtQl/M85O4SDduwRWuWl9q9YXRUflbn7kK7hqycMCXtv332jYceBnWt8Lvmuvt3axidcpC1dVRX6d2sTdt6mc9iuf6fwzsKVYbt+HcN+O/TIzRHCOwtWhrtfeD8cs1vvgpVnggu7De4STt2rfzjngK3CASN7hqqqEG55em54873lcVmFKupkLjzw8oL4+rCde4U2rQpX5h+bsihmb3z9xA+fxHHwjj3Dmg2fZdxXjxscx/fpunF2DpkKl983M2zdo/2GdetXvQ7t21SGB19ZEBZv+J/RIWahbVXf/0upSm2CQkCNMhfXOKtHtEiSJElSKXgsJk+ayB/Sj9hsKJpa9OjRI2Yd0HyhmGeffTY2r+DJFJtq5cqVsaNJsh9+/vOfVzfT+K//+q/w2GOPxaYXxTqeJEgybNiwOOy8887h9NNPjwGHm2++OQYuyhX9EOy/oXLO8In9twq/PndEmDZ3efjq9a+HuYtL6/ixLv27tQsDeraL2Rnp5hg4akPl+ssbKvAMFx0+MD4ec1OQbTFqYKeYOfG14weHx6csjh0+bqpO7VuFvbbrFrcTT7T40ZnDwwm79wk/vn16uOXpOQX7b5g6Z/mGbbkidjB50Hf/Vd0s5dRfTgrzPlhTa8eTTfF/qUt18EGSJEmSWiqyDchQIPuhWOU96ZSS7IP27UtLJ68NGQ98H81GLrzwwhrD+eefX6+OJ8maIMsDd999d3yCxuZgxFadwjfHDgkz56/YULF+a6OOHBuCvgnobPLFmUvDmw18ykO+lWuqwtc3VMTp52Hpyo2zPrhXP6hP+1CxofZcVdX4/T/wdI0LD98m7DuiW/jtvTPDY1NqBr/WbvjOe16YH7MdeMLHLz61fY2BQMuKVVUldzyZxf+lFAYfJEmSJLV4NM/gSRcPPvhgfJxmGv3fTZo0Kfa1QD8S6aYQDcHy3nzzzdCvX7+w++67V2cxJAPNM+h/guAEQYpS0Cxlv/32i8udOHFi/I7Nwd7Du8c+G8gauHtDBXpTEQg4Y+/+YUCPduGyv00Lb83dOADBUyH+8fz88M77pT2OlKYLowZ2iZ0v0ryCz6cRnLjrufmhR8fW8akYWaC5x2cPGxi6tG8drnzgnTB/yUePe6UfCjqj/NiwruHEPfpUZzEkw0l79gvDt+oQHn51YZhTYiZDY/9fSmHwQZIkSdJmZ9GiReGJJ54IDz30UMGBJ0PQGWSCpgxHHnlkbFJx1VVXxXmoyNPHAh1A0qSBjiEJPmwq1o1lE/Do3n3jTg1JQU+mTZ48OT6Noy58hv4f6EiT302zjc0Bd/U/sf+AMLhP+3DNhHdjvwn5np++JPzizulFh2em1gwW0d/Df586LGYEnPWbl+ITMW6fOC88PHlBuPy+t8MJP30h/M/dM8PobbuEs/ffKvep2p3y8b4x8+Dye98OR/7guXDJX9+M383fo3/4XAxmnHPggPhUjKxs379T+OQBA8Jr7y4Pf3l0Vvx9eObND8J7i1aHY3btXbC/iR6dWofDdu4dZs5bGZ5+s+a2KqaU/0tjM/ggSZIkabNDXwr3339/uOuuuwoONKHIzw6gI8rPfOYzsSPHV155JVx55ZXhlltuidNoDsFTJNJPn2go+nIgADFy5Miiy+vVq1fscJIgAo8BLQV9V9B5JZkZ9BtRSpONctCvW9tw0REDY6eI1zz07kaZBdPmrAg3PDGn6MD0fMP6dQx/+cLO4bunDouPmeSJD1/5yxvhlqfmhNHbdg6/PX+H8LsLRoaBPUtrQkPmAU+p+PbJQzdUyMkiWBC/m790ennlZ0eF0/bqHzMvssKy6YRy7+27hVufmRMmzVgSm0Tc++L8mNmwy7aFnwiCA0d2D326tgmPv75wo+1bTF3/l8YWH7XJC6KCPmpTkiRJkrZs9X3UprZM9XnUJk+BqQ7D+cQLSZIkSZLUmJJYg80uJEmSJElSpgw+SJIkSZKkTBl8kCRJkiRJmaq0rwdJkiRJkpQlMx8kSZIkSVKmDD5IkiRJkqRMGXyQJEmSJEmZMvggSZIkSZIyZfBBkiRJkiRlyuCDJEmSJEnKlMEHSZIkSVK1iorcC6mIhuwjBh8kSZIkSdXatraaqNo1ZB+prDCsJUmSJEnK6dSuVe6VVFhD9hFDWpIkSZKkah03VCy7dGideyfVxL7BPlJfBh8kSZIkSTV069g69OzcJrRrU2kfEIr7APsC+wT7RkNUnHLKKeurqqoCw2233ZYbLUmSJEmStGlOOumkUFlZaeaDJEmSJEnKVgw+0OmkHU9KkiRJkqTGlMQbzHyQJEmSJEmZMvggSZIkSZIyVSP4sG7dutwrSZIkSZKkhkvHGGoEH957773cK0mSJEmSpIZLxxiqgw90APHyyy/n3kmSJEmSJDUcMYbk4RaVSc+TeP3118Nzzz0XX0uSJEmSJDUEsQViDIhPu0gCD+D1Y489Fu65557w7rvv2geEJEmSJEkqCTEEYgnEFIgt1Ig3nHbaaeurqqoCw8EHHxzWr18fX/MXfJjX+eOT9+lxyevkPfLfM08iPb6QZHpd80mSJEmStCVLKvrpCn8h6emVlR91A8n4GsGC3PtknuQ1QzJfMi6Zt1WrVhuNnzBhwoev84MPSAcRGJLp6XFIMiOYhvT09HzJX6THJ/Lf56vv/JIkSZIktWRU7NPy3+crNH96XPI6GZ8eQAAB6QBDMjAtHYRIxuHD4ENl+P9EffJtjZhoYwAAAABJRU5ErkJggg==;" vertex="1" parent="_TlwlnKGodl9wsCWiHMZ-11">
          <mxGeometry width="724.83" height="360" as="geometry" />
        </mxCell>
        <mxCell id="_TlwlnKGodl9wsCWiHMZ-2" value="esatagio_carga" style="text;html=1;align=left;verticalAlign=middle;whiteSpace=wrap;rounded=0;fontColor=#FF3333;fontStyle=1" vertex="1" parent="_TlwlnKGodl9wsCWiHMZ-11">
          <mxGeometry x="26" y="30" width="120" height="30" as="geometry" />
        </mxCell>
        <mxCell id="_TlwlnKGodl9wsCWiHMZ-3" value="num_carga" style="text;html=1;align=left;verticalAlign=middle;whiteSpace=wrap;rounded=0;fontColor=#FF3333;fontStyle=1" vertex="1" parent="_TlwlnKGodl9wsCWiHMZ-11">
          <mxGeometry x="196" y="30" width="100" height="30" as="geometry" />
        </mxCell>
        <mxCell id="_TlwlnKGodl9wsCWiHMZ-4" value="data_carga" style="text;html=1;align=left;verticalAlign=middle;whiteSpace=wrap;rounded=0;fontColor=#FF3333;fontStyle=1" vertex="1" parent="_TlwlnKGodl9wsCWiHMZ-11">
          <mxGeometry x="312.40999999999997" y="30" width="100" height="30" as="geometry" />
        </mxCell>
        <mxCell id="_TlwlnKGodl9wsCWiHMZ-5" value="detalhes_carregamento.vaga" style="text;html=1;align=center;verticalAlign=middle;whiteSpace=wrap;rounded=0;fontColor=#FF3333;fontStyle=1" vertex="1" parent="_TlwlnKGodl9wsCWiHMZ-11">
          <mxGeometry x="54.139999999999986" y="120" width="100" height="30" as="geometry" />
        </mxCell>
        <mxCell id="_TlwlnKGodl9wsCWiHMZ-6" value="mesa_carga" style="text;html=1;align=left;verticalAlign=middle;whiteSpace=wrap;rounded=0;fontColor=#FF3333;fontStyle=1" vertex="1" parent="_TlwlnKGodl9wsCWiHMZ-11">
          <mxGeometry x="146" y="150" width="100" height="30" as="geometry" />
        </mxCell>
        <mxCell id="_TlwlnKGodl9wsCWiHMZ-7" value="tipo_gas_carga" style="text;html=1;align=left;verticalAlign=middle;whiteSpace=wrap;rounded=0;fontColor=#FF3333;fontStyle=1" vertex="1" parent="_TlwlnKGodl9wsCWiHMZ-11">
          <mxGeometry x="256" y="120" width="100" height="30" as="geometry" />
        </mxCell>
        <mxCell id="_TlwlnKGodl9wsCWiHMZ-8" value="encerrante_carga" style="text;html=1;align=left;verticalAlign=middle;whiteSpace=wrap;rounded=0;fontColor=#FF3333;fontStyle=1" vertex="1" parent="_TlwlnKGodl9wsCWiHMZ-11">
          <mxGeometry x="26" y="210" width="120" height="30" as="geometry" />
        </mxCell>
        <mxCell id="_TlwlnKGodl9wsCWiHMZ-9" value="pressao_carga" style="text;html=1;align=left;verticalAlign=middle;whiteSpace=wrap;rounded=0;fontColor=#FF3333;fontStyle=1" vertex="1" parent="_TlwlnKGodl9wsCWiHMZ-11">
          <mxGeometry x="196" y="210" width="100" height="30" as="geometry" />
        </mxCell>
        <mxCell id="_TlwlnKGodl9wsCWiHMZ-10" value="status_carga" style="text;html=1;align=left;verticalAlign=middle;whiteSpace=wrap;rounded=0;fontColor=#FF3333;fontStyle=1" vertex="1" parent="_TlwlnKGodl9wsCWiHMZ-11">
          <mxGeometry x="376" y="210" width="100" height="30" as="geometry" />
        </mxCell>
      </root>
    </mxGraphModel>
  </diagram>
</mxfile>
